%TF.GenerationSoftware,KiCad,Pcbnew,9.0.6*%
%TF.CreationDate,2026-01-05T01:28:51+00:00*%
%TF.ProjectId,BLINKER,424c494e-4b45-4522-9e6b-696361645f70,rev?*%
%TF.SameCoordinates,Original*%
%TF.FileFunction,Drillmap*%
%TF.FilePolarity,Positive*%
%FSLAX45Y45*%
G04 Gerber Fmt 4.5, Leading zero omitted, Abs format (unit mm)*
G04 Created by KiCad (PCBNEW 9.0.6) date 2026-01-05 01:28:51*
%MOMM*%
%LPD*%
G01*
G04 APERTURE LIST*
%ADD10C,0.050000*%
%ADD11C,0.037800*%
%ADD12C,0.200000*%
%ADD13C,0.100000*%
G04 APERTURE END LIST*
D10*
X8593690Y-3067067D02*
X8985521Y-2887542D01*
X14952892Y-6999667D02*
X14678796Y-6906428D01*
X17081892Y-5921817D02*
X17119282Y-5810483D01*
X15069000Y-7031000D02*
X14952892Y-6999667D01*
X15228892Y-7044278D02*
X15069000Y-7031000D01*
X12005000Y-2784000D02*
X12006821Y-2790247D01*
X12461590Y-3154680D02*
X12463000Y-3144520D01*
D11*
X12461590Y-3154680D02*
X12452009Y-3205070D01*
D10*
X12671984Y-2414937D02*
X12632738Y-2435724D01*
X16430929Y-3343590D02*
X15974099Y-3042495D01*
X10076363Y-6849085D02*
X10111779Y-6834623D01*
X14401800Y-6791960D02*
X14133348Y-6643312D01*
D11*
X15315494Y-7043573D02*
X15408058Y-7039441D01*
X15228892Y-7044278D02*
X15315494Y-7043573D01*
X15408058Y-7039441D02*
X15492800Y-7032121D01*
X13451195Y-2433430D02*
X12914386Y-2375682D01*
X15614218Y-2894804D02*
X15387787Y-2830241D01*
X15069801Y-2754129D02*
X14165923Y-2562379D01*
X14165923Y-2562379D02*
X13451195Y-2433430D01*
X15387787Y-2830241D02*
X15069801Y-2754129D01*
D10*
X11833876Y-7178317D02*
X12274000Y-7857000D01*
X12684375Y-7167366D02*
X12274000Y-7857000D01*
X11464871Y-7000000D02*
X11833876Y-7178317D01*
X13094751Y-6978000D02*
X12684376Y-7167366D01*
X11464871Y-6499634D02*
X11464871Y-7000000D01*
X13094752Y-6477733D02*
X13094751Y-6978000D01*
D11*
X7695734Y-3912628D02*
G75*
G02*
X7932007Y-3586220I1750758J-1018585D01*
G01*
X14615015Y-6878886D02*
X14678796Y-6906428D01*
X11432600Y-2394612D02*
G75*
G02*
X11605217Y-2382900I148302J-907831D01*
G01*
X11711461Y-2389417D02*
X11605217Y-2382901D01*
X11789468Y-2399625D02*
X11711461Y-2389417D01*
X11789468Y-2399625D02*
G75*
G02*
X11872751Y-2420023I-28637J-297138D01*
G01*
X11872751Y-2420023D02*
G75*
G02*
X11897616Y-2432849I-57120J-141240D01*
G01*
X11897615Y-2432850D02*
G75*
G02*
X11918294Y-2449440I-66254J-103763D01*
G01*
X11918294Y-2449439D02*
G75*
G02*
X11933287Y-2468432I-72223J-72424D01*
G01*
X11933287Y-2468432D02*
G75*
G02*
X11941311Y-2488392I-55116J-33751D01*
G01*
X11947203Y-2515367D02*
X11941311Y-2488392D01*
X11959717Y-2572612D02*
X11947203Y-2515367D01*
X11974560Y-2640500D02*
X11959717Y-2572612D01*
X11990309Y-2712513D02*
X11974560Y-2640500D01*
X12005000Y-2784000D02*
X11990309Y-2712513D01*
X12023969Y-2875407D02*
X12006821Y-2790247D01*
X12039283Y-2955264D02*
X12023969Y-2875407D01*
X12049755Y-3014913D02*
X12039283Y-2955264D01*
X12079343Y-3169583D02*
X12049755Y-3014913D01*
X12091633Y-3207534D02*
G75*
G02*
X12079342Y-3169584I118528J59352D01*
G01*
X12110982Y-3219514D02*
G75*
G02*
X12091635Y-3207533I49J21691D01*
G01*
X12149510Y-3214142D02*
G75*
G02*
X12110982Y-3219514I-38219J133269D01*
G01*
X12149510Y-3214142D02*
G75*
G02*
X12197399Y-3205249I70271J-245011D01*
G01*
X12197399Y-3205249D02*
G75*
G02*
X12254025Y-3203736I40662J-461294D01*
G01*
X12254025Y-3203736D02*
G75*
G02*
X12318607Y-3209438I-20853J-604757D01*
G01*
X12390612Y-3222460D02*
X12318607Y-3209439D01*
X12426359Y-3228056D02*
G75*
G02*
X12390612Y-3222460I28012J295943D01*
G01*
X12442406Y-3222425D02*
G75*
G02*
X12426359Y-3228056I-14135J14603D01*
G01*
X12452009Y-3205070D02*
G75*
G02*
X12442408Y-3222427I-33248J7058D01*
G01*
X12484566Y-3022241D02*
X12463000Y-3144520D01*
X12511842Y-2846112D02*
X12484566Y-3022241D01*
X12545539Y-2684410D02*
X12511842Y-2846112D01*
X12572257Y-2569771D02*
X12545539Y-2684410D01*
X12591015Y-2501860D02*
X12572257Y-2569771D01*
X12591015Y-2501860D02*
G75*
G02*
X12609644Y-2458890I139887J-35123D01*
G01*
X12609643Y-2458890D02*
G75*
G02*
X12632738Y-2435725I65458J-42163D01*
G01*
X12671984Y-2414937D02*
G75*
G02*
X12914386Y-2375680I201997J-479266D01*
G01*
X15797576Y-2961640D02*
X15614218Y-2894804D01*
X16430929Y-3343589D02*
G75*
G02*
X16794651Y-3730737I-1396558J-1676483D01*
G01*
X16794651Y-3730737D02*
G75*
G02*
X17052991Y-4192925I-1747980J-1280326D01*
G01*
X17052991Y-4192925D02*
G75*
G02*
X17199272Y-4715176I-2205520J-899368D01*
G01*
X17199273Y-4715176D02*
G75*
G02*
X17215892Y-4878140I-1410131J-226137D01*
G01*
X17220653Y-5102133D02*
X17215892Y-4878140D01*
X17216775Y-5258177D02*
X17220653Y-5102133D01*
X17216775Y-5258177D02*
G75*
G02*
X17197893Y-5491523I-1484093J2655D01*
G01*
X17197893Y-5491523D02*
G75*
G02*
X17167705Y-5637654I-1674011J269630D01*
G01*
X17119282Y-5810483D02*
X17167706Y-5637654D01*
X17081892Y-5921817D02*
G75*
G02*
X17011710Y-6096323I-1074540J330785D01*
G01*
X17011710Y-6096323D02*
G75*
G02*
X16764583Y-6449788I-1342139J675240D01*
G01*
X16764584Y-6449788D02*
G75*
G02*
X16420564Y-6730489I-1227282J1152965D01*
G01*
X16420564Y-6730489D02*
G75*
G02*
X15991175Y-6926989I-1009532J1638616D01*
G01*
X15991175Y-6926989D02*
G75*
G02*
X15492800Y-7032121I-782273J2474526D01*
G01*
X14401800Y-6791960D02*
X14615015Y-6878886D01*
X14025504Y-6578363D02*
X14133348Y-6643312D01*
X13953102Y-6644681D02*
X14025504Y-6578363D01*
X13953102Y-6644681D02*
G75*
G02*
X13860813Y-6717547I-542680J592458D01*
G01*
X13860812Y-6717546D02*
G75*
G02*
X13772184Y-6763240I-235291J347574D01*
G01*
X13772183Y-6763239D02*
G75*
G02*
X13673071Y-6787697I-155412J416747D01*
G01*
X13673071Y-6787697D02*
G75*
G02*
X13548343Y-6795623I-124719J977325D01*
G01*
X13474495Y-6793947D02*
X13548343Y-6795623D01*
X13474495Y-6793947D02*
G75*
G02*
X13397634Y-6786270I-4J388584D01*
G01*
X13397634Y-6786270D02*
G75*
G02*
X13346185Y-6770821I57447J284707D01*
G01*
X13346185Y-6770821D02*
G75*
G02*
X13283742Y-6742228I285636J706269D01*
G01*
X13186584Y-6687489D02*
X13283742Y-6742228D01*
X13186584Y-6687489D02*
G75*
G02*
X13124677Y-6634023I79267J154356D01*
G01*
X13124677Y-6634023D02*
G75*
G02*
X13101496Y-6575797I106584J76160D01*
G01*
X13101496Y-6575797D02*
G75*
G02*
X13094752Y-6477733I709575J98064D01*
G01*
X11463510Y-6574377D02*
X11464871Y-6499634D01*
X11463510Y-6574377D02*
G75*
G02*
X11456994Y-6617826I-148139J4D01*
G01*
X11456993Y-6617826D02*
G75*
G02*
X11442188Y-6643462I-63142J19373D01*
G01*
X11442188Y-6643462D02*
G75*
G02*
X11412896Y-6669018I-137516J128049D01*
G01*
X11412896Y-6669018D02*
G75*
G02*
X11312135Y-6733032I-719495J1021205D01*
G01*
X11312135Y-6733032D02*
G75*
G02*
X11228341Y-6769884I-218723J383639D01*
G01*
X11228341Y-6769885D02*
G75*
G02*
X11139004Y-6788570I-133890J417232D01*
G01*
X11139004Y-6788570D02*
G75*
G02*
X11020721Y-6794863I-123713J1210527D01*
G01*
X11020721Y-6794863D02*
G75*
G02*
X10895551Y-6788606I-5150J1152040D01*
G01*
X10895551Y-6788605D02*
G75*
G02*
X10802384Y-6767349I41600J397142D01*
G01*
X10802384Y-6767348D02*
G75*
G02*
X10719228Y-6725204I126387J352495D01*
G01*
X10719227Y-6725205D02*
G75*
G02*
X10626179Y-6653407I519524J769482D01*
G01*
X10561316Y-6596457D02*
X10626179Y-6653407D01*
X10356319Y-6710549D02*
X10561316Y-6596457D01*
X10111779Y-6834623D02*
X10356319Y-6710549D01*
X10076363Y-6849085D02*
G75*
G02*
X9637483Y-7004754I-1078451J2343993D01*
G01*
X9637483Y-7004754D02*
G75*
G02*
X9430342Y-7042444I-370442J1447851D01*
G01*
X9430342Y-7042444D02*
G75*
G02*
X9222967Y-7044526I-114121J1038151D01*
G01*
X9222967Y-7044526D02*
G75*
G02*
X8953063Y-7008063I271094J3023903D01*
G01*
X8953063Y-7008064D02*
G75*
G02*
X8675785Y-6944978I568729J3140611D01*
G01*
X8675785Y-6944978D02*
G75*
G02*
X8441712Y-6863413I490496J1784275D01*
G01*
X8441712Y-6863413D02*
G75*
G02*
X8182668Y-6726439I683160J1605411D01*
G01*
X7952009Y-6548822D02*
G75*
G02*
X7759086Y-6338149I1105462J1205999D01*
G01*
X7759085Y-6338150D02*
G75*
G02*
X7612116Y-6102981I1154346J884917D01*
G01*
X7612117Y-6102981D02*
G75*
G02*
X7433928Y-5581196I1846124J921768D01*
G01*
X7433928Y-5581196D02*
G75*
G02*
X7388628Y-5005012I2436581J481440D01*
G01*
X7388627Y-5005012D02*
G75*
G02*
X7477862Y-4430242I2513864J-95971D01*
G01*
X7477861Y-4430242D02*
G75*
G02*
X7695735Y-3912628I2111570J-584141D01*
G01*
X7932008Y-3586220D02*
G75*
G02*
X8236068Y-3300147I1742784J-1547743D01*
G01*
X8236068Y-3300147D02*
G75*
G02*
X8593690Y-3067066I1505043J-1918336D01*
G01*
X8985521Y-2887542D02*
G75*
G02*
X9478015Y-2751656I1628590J-4942101D01*
G01*
X10253505Y-2590156D02*
X9478015Y-2751656D01*
X11039303Y-2450003D02*
X10253505Y-2590156D01*
X11432600Y-2394612D02*
X11039303Y-2450003D01*
X8182669Y-6726438D02*
G75*
G02*
X7952010Y-6548821I918093J1430845D01*
G01*
X15974099Y-3042495D02*
X15797576Y-2961520D01*
D12*
D13*
X7838000Y-4001000D02*
X7868000Y-4031000D01*
X7868000Y-4001000D02*
X7838000Y-4031000D01*
X8348000Y-3380000D02*
X8378000Y-3410000D01*
X8378000Y-3380000D02*
X8348000Y-3410000D01*
X8592000Y-3214000D02*
X8622000Y-3244000D01*
X8622000Y-3214000D02*
X8592000Y-3244000D01*
X9713000Y-3591000D02*
X9743000Y-3621000D01*
X9743000Y-3591000D02*
X9713000Y-3621000D01*
X10511000Y-3546000D02*
X10541000Y-3576000D01*
X10541000Y-3546000D02*
X10511000Y-3576000D01*
X10933000Y-3269000D02*
X10963000Y-3299000D01*
X10963000Y-3269000D02*
X10933000Y-3299000D01*
X12464000Y-4811000D02*
X12494000Y-4841000D01*
X12494000Y-4811000D02*
X12464000Y-4841000D01*
X12954240Y-4430000D02*
X12984240Y-4460000D01*
X12984240Y-4430000D02*
X12954240Y-4460000D01*
X13091400Y-3703560D02*
X13121400Y-3733560D01*
X13121400Y-3703560D02*
X13091400Y-3733560D01*
X13773000Y-3302000D02*
X13803000Y-3332000D01*
X13803000Y-3302000D02*
X13773000Y-3332000D01*
X20317000Y-4965000D02*
X20347000Y-4995000D01*
X20347000Y-4965000D02*
X20317000Y-4995000D01*
X11972290Y-3799840D02*
G75*
G02*
X11893550Y-3799840I-39370J0D01*
G01*
X11893550Y-3799840D02*
G75*
G02*
X11972290Y-3799840I39370J0D01*
G01*
X11972290Y-4053840D02*
G75*
G02*
X11893550Y-4053840I-39370J0D01*
G01*
X11893550Y-4053840D02*
G75*
G02*
X11972290Y-4053840I39370J0D01*
G01*
X11972290Y-4307840D02*
G75*
G02*
X11893550Y-4307840I-39370J0D01*
G01*
X11893550Y-4307840D02*
G75*
G02*
X11972290Y-4307840I39370J0D01*
G01*
X11972290Y-4561840D02*
G75*
G02*
X11893550Y-4561840I-39370J0D01*
G01*
X11893550Y-4561840D02*
G75*
G02*
X11972290Y-4561840I39370J0D01*
G01*
X11972290Y-4815840D02*
G75*
G02*
X11893550Y-4815840I-39370J0D01*
G01*
X11893550Y-4815840D02*
G75*
G02*
X11972290Y-4815840I39370J0D01*
G01*
X11972290Y-5069840D02*
G75*
G02*
X11893550Y-5069840I-39370J0D01*
G01*
X11893550Y-5069840D02*
G75*
G02*
X11972290Y-5069840I39370J0D01*
G01*
X11972290Y-5323840D02*
G75*
G02*
X11893550Y-5323840I-39370J0D01*
G01*
X11893550Y-5323840D02*
G75*
G02*
X11972290Y-5323840I39370J0D01*
G01*
X11972290Y-5577840D02*
G75*
G02*
X11893550Y-5577840I-39370J0D01*
G01*
X11893550Y-5577840D02*
G75*
G02*
X11972290Y-5577840I39370J0D01*
G01*
X12734290Y-3799840D02*
G75*
G02*
X12655550Y-3799840I-39370J0D01*
G01*
X12655550Y-3799840D02*
G75*
G02*
X12734290Y-3799840I39370J0D01*
G01*
X12734290Y-4053840D02*
G75*
G02*
X12655550Y-4053840I-39370J0D01*
G01*
X12655550Y-4053840D02*
G75*
G02*
X12734290Y-4053840I39370J0D01*
G01*
X12734290Y-4307840D02*
G75*
G02*
X12655550Y-4307840I-39370J0D01*
G01*
X12655550Y-4307840D02*
G75*
G02*
X12734290Y-4307840I39370J0D01*
G01*
X12734290Y-4561840D02*
G75*
G02*
X12655550Y-4561840I-39370J0D01*
G01*
X12655550Y-4561840D02*
G75*
G02*
X12734290Y-4561840I39370J0D01*
G01*
X12734290Y-4815840D02*
G75*
G02*
X12655550Y-4815840I-39370J0D01*
G01*
X12655550Y-4815840D02*
G75*
G02*
X12734290Y-4815840I39370J0D01*
G01*
X12734290Y-5069840D02*
G75*
G02*
X12655550Y-5069840I-39370J0D01*
G01*
X12655550Y-5069840D02*
G75*
G02*
X12734290Y-5069840I39370J0D01*
G01*
X12734290Y-5323840D02*
G75*
G02*
X12655550Y-5323840I-39370J0D01*
G01*
X12655550Y-5323840D02*
G75*
G02*
X12734290Y-5323840I39370J0D01*
G01*
X12734290Y-5577840D02*
G75*
G02*
X12655550Y-5577840I-39370J0D01*
G01*
X12655550Y-5577840D02*
G75*
G02*
X12734290Y-5577840I39370J0D01*
G01*
X10637520Y-5766440D02*
X10637520Y-5846440D01*
X10597520Y-5806440D02*
X10677520Y-5806440D01*
X11399520Y-5766440D02*
X11399520Y-5846440D01*
X11359520Y-5806440D02*
X11439520Y-5806440D01*
X13721080Y-4013840D02*
X13721080Y-4093840D01*
X13681080Y-4053840D02*
X13761080Y-4053840D01*
X14386560Y-4501020D02*
X14386560Y-4581020D01*
X14346560Y-4541020D02*
X14426560Y-4541020D01*
X14386560Y-5263020D02*
X14386560Y-5343020D01*
X14346560Y-5303020D02*
X14426560Y-5303020D01*
X14483080Y-4013840D02*
X14483080Y-4093840D01*
X14443080Y-4053840D02*
X14523080Y-4053840D01*
X14619231Y-5720720D02*
X14619231Y-5800720D01*
X14579231Y-5760720D02*
X14659231Y-5760720D01*
X14640560Y-4501020D02*
X14640560Y-4581020D01*
X14600560Y-4541020D02*
X14680560Y-4541020D01*
X14640560Y-5263020D02*
X14640560Y-5343020D01*
X14600560Y-5303020D02*
X14680560Y-5303020D01*
X14742160Y-4018920D02*
X14742160Y-4098920D01*
X14702160Y-4058920D02*
X14782160Y-4058920D01*
X14819231Y-5720720D02*
X14819231Y-5800720D01*
X14779231Y-5760720D02*
X14859231Y-5760720D01*
X14894560Y-4501020D02*
X14894560Y-4581020D01*
X14854560Y-4541020D02*
X14934560Y-4541020D01*
X14894560Y-5263020D02*
X14894560Y-5343020D01*
X14854560Y-5303020D02*
X14934560Y-5303020D01*
X15148560Y-4501020D02*
X15148560Y-4581020D01*
X15108560Y-4541020D02*
X15188560Y-4541020D01*
X15148560Y-5263020D02*
X15148560Y-5343020D01*
X15108560Y-5303020D02*
X15188560Y-5303020D01*
X15504160Y-4018920D02*
X15504160Y-4098920D01*
X15464160Y-4058920D02*
X15544160Y-4058920D01*
X15695320Y-4682520D02*
X15695320Y-4762520D01*
X15655320Y-4722520D02*
X15735320Y-4722520D01*
X15695320Y-4882520D02*
X15695320Y-4962520D01*
X15655320Y-4922520D02*
X15735320Y-4922520D01*
X7646740Y-5294700D02*
X7646740Y-5231060D01*
X7583100Y-5231060D01*
X7583100Y-5294700D01*
X7646740Y-5294700D01*
X7900740Y-5294700D02*
X7900740Y-5231060D01*
X7837100Y-5231060D01*
X7837100Y-5294700D01*
X7900740Y-5294700D01*
X8139500Y-3953580D02*
X8139500Y-3889940D01*
X8075860Y-3889940D01*
X8075860Y-3953580D01*
X8139500Y-3953580D01*
X8393500Y-3953580D02*
X8393500Y-3889940D01*
X8329860Y-3889940D01*
X8329860Y-3953580D01*
X8393500Y-3953580D01*
X8855780Y-6579940D02*
X8855780Y-6516300D01*
X8792140Y-6516300D01*
X8792140Y-6579940D01*
X8855780Y-6579940D01*
X9109780Y-6579940D02*
X9109780Y-6516300D01*
X9046140Y-6516300D01*
X9046140Y-6579940D01*
X9109780Y-6579940D01*
X9282500Y-3201740D02*
X9282500Y-3138100D01*
X9218860Y-3138100D01*
X9218860Y-3201740D01*
X9282500Y-3201740D01*
X9536500Y-3201740D02*
X9536500Y-3138100D01*
X9472860Y-3138100D01*
X9472860Y-3201740D01*
X9536500Y-3201740D01*
X11294180Y-2886780D02*
X11294180Y-2823140D01*
X11230540Y-2823140D01*
X11230540Y-2886780D01*
X11294180Y-2886780D01*
X11548180Y-2886780D02*
X11548180Y-2823140D01*
X11484540Y-2823140D01*
X11484540Y-2886780D01*
X11548180Y-2886780D01*
X13082340Y-2886780D02*
X13082340Y-2823140D01*
X13018700Y-2823140D01*
X13018700Y-2886780D01*
X13082340Y-2886780D01*
X13336340Y-2886780D02*
X13336340Y-2823140D01*
X13272700Y-2823140D01*
X13272700Y-2886780D01*
X13336340Y-2886780D01*
X15109260Y-3201740D02*
X15109260Y-3138100D01*
X15045620Y-3138100D01*
X15045620Y-3201740D01*
X15109260Y-3201740D01*
X15363260Y-3201740D02*
X15363260Y-3138100D01*
X15299620Y-3138100D01*
X15299620Y-3201740D01*
X15363260Y-3201740D01*
X15678220Y-6579940D02*
X15678220Y-6516300D01*
X15614580Y-6516300D01*
X15614580Y-6579940D01*
X15678220Y-6579940D01*
X15932220Y-6579940D02*
X15932220Y-6516300D01*
X15868580Y-6516300D01*
X15868580Y-6579940D01*
X15932220Y-6579940D01*
X16231940Y-3943420D02*
X16231940Y-3879780D01*
X16168300Y-3879780D01*
X16168300Y-3943420D01*
X16231940Y-3943420D01*
X16485940Y-3943420D02*
X16485940Y-3879780D01*
X16422300Y-3879780D01*
X16422300Y-3943420D01*
X16485940Y-3943420D01*
X16714540Y-5294700D02*
X16714540Y-5231060D01*
X16650900Y-5231060D01*
X16650900Y-5294700D01*
X16714540Y-5294700D01*
X16968540Y-5294700D02*
X16968540Y-5231060D01*
X16904900Y-5231060D01*
X16904900Y-5294700D01*
X16968540Y-5294700D01*
X11824000Y-6651000D02*
X11874000Y-6601000D01*
X11824000Y-6551000D01*
X11774000Y-6601000D01*
X11824000Y-6651000D01*
X12325000Y-7086000D02*
X12375000Y-7036000D01*
X12325000Y-6986000D01*
X12275000Y-7036000D01*
X12325000Y-7086000D01*
X12774000Y-6664000D02*
X12824000Y-6614000D01*
X12774000Y-6564000D01*
X12724000Y-6614000D01*
X12774000Y-6664000D01*
D12*
X7645707Y-8170984D02*
X7645707Y-7970984D01*
X7645707Y-7970984D02*
X7693326Y-7970984D01*
X7693326Y-7970984D02*
X7721897Y-7980508D01*
X7721897Y-7980508D02*
X7740945Y-7999555D01*
X7740945Y-7999555D02*
X7750468Y-8018603D01*
X7750468Y-8018603D02*
X7759992Y-8056698D01*
X7759992Y-8056698D02*
X7759992Y-8085269D01*
X7759992Y-8085269D02*
X7750468Y-8123365D01*
X7750468Y-8123365D02*
X7740945Y-8142412D01*
X7740945Y-8142412D02*
X7721897Y-8161460D01*
X7721897Y-8161460D02*
X7693326Y-8170984D01*
X7693326Y-8170984D02*
X7645707Y-8170984D01*
X7845707Y-8170984D02*
X7845707Y-8037650D01*
X7845707Y-8075746D02*
X7855230Y-8056698D01*
X7855230Y-8056698D02*
X7864754Y-8047174D01*
X7864754Y-8047174D02*
X7883802Y-8037650D01*
X7883802Y-8037650D02*
X7902849Y-8037650D01*
X7969516Y-8170984D02*
X7969516Y-8037650D01*
X7969516Y-7970984D02*
X7959992Y-7980508D01*
X7959992Y-7980508D02*
X7969516Y-7990031D01*
X7969516Y-7990031D02*
X7979040Y-7980508D01*
X7979040Y-7980508D02*
X7969516Y-7970984D01*
X7969516Y-7970984D02*
X7969516Y-7990031D01*
X8093326Y-8170984D02*
X8074278Y-8161460D01*
X8074278Y-8161460D02*
X8064754Y-8142412D01*
X8064754Y-8142412D02*
X8064754Y-7970984D01*
X8198087Y-8170984D02*
X8179040Y-8161460D01*
X8179040Y-8161460D02*
X8169516Y-8142412D01*
X8169516Y-8142412D02*
X8169516Y-7970984D01*
X8426659Y-8170984D02*
X8426659Y-7970984D01*
X8426659Y-7970984D02*
X8493326Y-8113841D01*
X8493326Y-8113841D02*
X8559992Y-7970984D01*
X8559992Y-7970984D02*
X8559992Y-8170984D01*
X8740945Y-8170984D02*
X8740945Y-8066222D01*
X8740945Y-8066222D02*
X8731421Y-8047174D01*
X8731421Y-8047174D02*
X8712373Y-8037650D01*
X8712373Y-8037650D02*
X8674278Y-8037650D01*
X8674278Y-8037650D02*
X8655230Y-8047174D01*
X8740945Y-8161460D02*
X8721897Y-8170984D01*
X8721897Y-8170984D02*
X8674278Y-8170984D01*
X8674278Y-8170984D02*
X8655230Y-8161460D01*
X8655230Y-8161460D02*
X8645707Y-8142412D01*
X8645707Y-8142412D02*
X8645707Y-8123365D01*
X8645707Y-8123365D02*
X8655230Y-8104317D01*
X8655230Y-8104317D02*
X8674278Y-8094793D01*
X8674278Y-8094793D02*
X8721897Y-8094793D01*
X8721897Y-8094793D02*
X8740945Y-8085269D01*
X8836183Y-8037650D02*
X8836183Y-8237650D01*
X8836183Y-8047174D02*
X8855230Y-8037650D01*
X8855230Y-8037650D02*
X8893326Y-8037650D01*
X8893326Y-8037650D02*
X8912373Y-8047174D01*
X8912373Y-8047174D02*
X8921897Y-8056698D01*
X8921897Y-8056698D02*
X8931421Y-8075746D01*
X8931421Y-8075746D02*
X8931421Y-8132888D01*
X8931421Y-8132888D02*
X8921897Y-8151936D01*
X8921897Y-8151936D02*
X8912373Y-8161460D01*
X8912373Y-8161460D02*
X8893326Y-8170984D01*
X8893326Y-8170984D02*
X8855230Y-8170984D01*
X8855230Y-8170984D02*
X8836183Y-8161460D01*
X9017135Y-8151936D02*
X9026659Y-8161460D01*
X9026659Y-8161460D02*
X9017135Y-8170984D01*
X9017135Y-8170984D02*
X9007611Y-8161460D01*
X9007611Y-8161460D02*
X9017135Y-8151936D01*
X9017135Y-8151936D02*
X9017135Y-8170984D01*
X9017135Y-8047174D02*
X9026659Y-8056698D01*
X9026659Y-8056698D02*
X9017135Y-8066222D01*
X9017135Y-8066222D02*
X9007611Y-8056698D01*
X9007611Y-8056698D02*
X9017135Y-8047174D01*
X9017135Y-8047174D02*
X9017135Y-8066222D01*
D13*
X7354930Y-8484500D02*
X7384930Y-8514500D01*
X7384930Y-8484500D02*
X7354930Y-8514500D01*
D12*
X7683802Y-8390984D02*
X7702849Y-8390984D01*
X7702849Y-8390984D02*
X7721897Y-8400508D01*
X7721897Y-8400508D02*
X7731421Y-8410031D01*
X7731421Y-8410031D02*
X7740945Y-8429079D01*
X7740945Y-8429079D02*
X7750468Y-8467174D01*
X7750468Y-8467174D02*
X7750468Y-8514793D01*
X7750468Y-8514793D02*
X7740945Y-8552889D01*
X7740945Y-8552889D02*
X7731421Y-8571936D01*
X7731421Y-8571936D02*
X7721897Y-8581460D01*
X7721897Y-8581460D02*
X7702849Y-8590984D01*
X7702849Y-8590984D02*
X7683802Y-8590984D01*
X7683802Y-8590984D02*
X7664754Y-8581460D01*
X7664754Y-8581460D02*
X7655230Y-8571936D01*
X7655230Y-8571936D02*
X7645707Y-8552889D01*
X7645707Y-8552889D02*
X7636183Y-8514793D01*
X7636183Y-8514793D02*
X7636183Y-8467174D01*
X7636183Y-8467174D02*
X7645707Y-8429079D01*
X7645707Y-8429079D02*
X7655230Y-8410031D01*
X7655230Y-8410031D02*
X7664754Y-8400508D01*
X7664754Y-8400508D02*
X7683802Y-8390984D01*
X7836183Y-8571936D02*
X7845707Y-8581460D01*
X7845707Y-8581460D02*
X7836183Y-8590984D01*
X7836183Y-8590984D02*
X7826659Y-8581460D01*
X7826659Y-8581460D02*
X7836183Y-8571936D01*
X7836183Y-8571936D02*
X7836183Y-8590984D01*
X7912373Y-8390984D02*
X8036183Y-8390984D01*
X8036183Y-8390984D02*
X7969516Y-8467174D01*
X7969516Y-8467174D02*
X7998088Y-8467174D01*
X7998088Y-8467174D02*
X8017135Y-8476698D01*
X8017135Y-8476698D02*
X8026659Y-8486222D01*
X8026659Y-8486222D02*
X8036183Y-8505270D01*
X8036183Y-8505270D02*
X8036183Y-8552889D01*
X8036183Y-8552889D02*
X8026659Y-8571936D01*
X8026659Y-8571936D02*
X8017135Y-8581460D01*
X8017135Y-8581460D02*
X7998088Y-8590984D01*
X7998088Y-8590984D02*
X7940945Y-8590984D01*
X7940945Y-8590984D02*
X7921897Y-8581460D01*
X7921897Y-8581460D02*
X7912373Y-8571936D01*
X8159992Y-8390984D02*
X8179040Y-8390984D01*
X8179040Y-8390984D02*
X8198088Y-8400508D01*
X8198088Y-8400508D02*
X8207611Y-8410031D01*
X8207611Y-8410031D02*
X8217135Y-8429079D01*
X8217135Y-8429079D02*
X8226659Y-8467174D01*
X8226659Y-8467174D02*
X8226659Y-8514793D01*
X8226659Y-8514793D02*
X8217135Y-8552889D01*
X8217135Y-8552889D02*
X8207611Y-8571936D01*
X8207611Y-8571936D02*
X8198088Y-8581460D01*
X8198088Y-8581460D02*
X8179040Y-8590984D01*
X8179040Y-8590984D02*
X8159992Y-8590984D01*
X8159992Y-8590984D02*
X8140945Y-8581460D01*
X8140945Y-8581460D02*
X8131421Y-8571936D01*
X8131421Y-8571936D02*
X8121897Y-8552889D01*
X8121897Y-8552889D02*
X8112373Y-8514793D01*
X8112373Y-8514793D02*
X8112373Y-8467174D01*
X8112373Y-8467174D02*
X8121897Y-8429079D01*
X8121897Y-8429079D02*
X8131421Y-8410031D01*
X8131421Y-8410031D02*
X8140945Y-8400508D01*
X8140945Y-8400508D02*
X8159992Y-8390984D01*
X8350468Y-8390984D02*
X8369516Y-8390984D01*
X8369516Y-8390984D02*
X8388564Y-8400508D01*
X8388564Y-8400508D02*
X8398088Y-8410031D01*
X8398088Y-8410031D02*
X8407611Y-8429079D01*
X8407611Y-8429079D02*
X8417135Y-8467174D01*
X8417135Y-8467174D02*
X8417135Y-8514793D01*
X8417135Y-8514793D02*
X8407611Y-8552889D01*
X8407611Y-8552889D02*
X8398088Y-8571936D01*
X8398088Y-8571936D02*
X8388564Y-8581460D01*
X8388564Y-8581460D02*
X8369516Y-8590984D01*
X8369516Y-8590984D02*
X8350468Y-8590984D01*
X8350468Y-8590984D02*
X8331421Y-8581460D01*
X8331421Y-8581460D02*
X8321897Y-8571936D01*
X8321897Y-8571936D02*
X8312373Y-8552889D01*
X8312373Y-8552889D02*
X8302849Y-8514793D01*
X8302849Y-8514793D02*
X8302849Y-8467174D01*
X8302849Y-8467174D02*
X8312373Y-8429079D01*
X8312373Y-8429079D02*
X8321897Y-8410031D01*
X8321897Y-8410031D02*
X8331421Y-8400508D01*
X8331421Y-8400508D02*
X8350468Y-8390984D01*
X8502850Y-8590984D02*
X8502850Y-8457650D01*
X8502850Y-8476698D02*
X8512373Y-8467174D01*
X8512373Y-8467174D02*
X8531421Y-8457650D01*
X8531421Y-8457650D02*
X8559992Y-8457650D01*
X8559992Y-8457650D02*
X8579040Y-8467174D01*
X8579040Y-8467174D02*
X8588564Y-8486222D01*
X8588564Y-8486222D02*
X8588564Y-8590984D01*
X8588564Y-8486222D02*
X8598088Y-8467174D01*
X8598088Y-8467174D02*
X8617135Y-8457650D01*
X8617135Y-8457650D02*
X8645707Y-8457650D01*
X8645707Y-8457650D02*
X8664754Y-8467174D01*
X8664754Y-8467174D02*
X8674278Y-8486222D01*
X8674278Y-8486222D02*
X8674278Y-8590984D01*
X8769516Y-8590984D02*
X8769516Y-8457650D01*
X8769516Y-8476698D02*
X8779040Y-8467174D01*
X8779040Y-8467174D02*
X8798088Y-8457650D01*
X8798088Y-8457650D02*
X8826659Y-8457650D01*
X8826659Y-8457650D02*
X8845707Y-8467174D01*
X8845707Y-8467174D02*
X8855231Y-8486222D01*
X8855231Y-8486222D02*
X8855231Y-8590984D01*
X8855231Y-8486222D02*
X8864754Y-8467174D01*
X8864754Y-8467174D02*
X8883802Y-8457650D01*
X8883802Y-8457650D02*
X8912373Y-8457650D01*
X8912373Y-8457650D02*
X8931421Y-8467174D01*
X8931421Y-8467174D02*
X8940945Y-8486222D01*
X8940945Y-8486222D02*
X8940945Y-8590984D01*
X9331421Y-8381460D02*
X9159993Y-8638603D01*
X9588564Y-8390984D02*
X9607612Y-8390984D01*
X9607612Y-8390984D02*
X9626659Y-8400508D01*
X9626659Y-8400508D02*
X9636183Y-8410031D01*
X9636183Y-8410031D02*
X9645707Y-8429079D01*
X9645707Y-8429079D02*
X9655231Y-8467174D01*
X9655231Y-8467174D02*
X9655231Y-8514793D01*
X9655231Y-8514793D02*
X9645707Y-8552889D01*
X9645707Y-8552889D02*
X9636183Y-8571936D01*
X9636183Y-8571936D02*
X9626659Y-8581460D01*
X9626659Y-8581460D02*
X9607612Y-8590984D01*
X9607612Y-8590984D02*
X9588564Y-8590984D01*
X9588564Y-8590984D02*
X9569516Y-8581460D01*
X9569516Y-8581460D02*
X9559993Y-8571936D01*
X9559993Y-8571936D02*
X9550469Y-8552889D01*
X9550469Y-8552889D02*
X9540945Y-8514793D01*
X9540945Y-8514793D02*
X9540945Y-8467174D01*
X9540945Y-8467174D02*
X9550469Y-8429079D01*
X9550469Y-8429079D02*
X9559993Y-8410031D01*
X9559993Y-8410031D02*
X9569516Y-8400508D01*
X9569516Y-8400508D02*
X9588564Y-8390984D01*
X9740945Y-8571936D02*
X9750469Y-8581460D01*
X9750469Y-8581460D02*
X9740945Y-8590984D01*
X9740945Y-8590984D02*
X9731421Y-8581460D01*
X9731421Y-8581460D02*
X9740945Y-8571936D01*
X9740945Y-8571936D02*
X9740945Y-8590984D01*
X9874278Y-8390984D02*
X9893326Y-8390984D01*
X9893326Y-8390984D02*
X9912374Y-8400508D01*
X9912374Y-8400508D02*
X9921897Y-8410031D01*
X9921897Y-8410031D02*
X9931421Y-8429079D01*
X9931421Y-8429079D02*
X9940945Y-8467174D01*
X9940945Y-8467174D02*
X9940945Y-8514793D01*
X9940945Y-8514793D02*
X9931421Y-8552889D01*
X9931421Y-8552889D02*
X9921897Y-8571936D01*
X9921897Y-8571936D02*
X9912374Y-8581460D01*
X9912374Y-8581460D02*
X9893326Y-8590984D01*
X9893326Y-8590984D02*
X9874278Y-8590984D01*
X9874278Y-8590984D02*
X9855231Y-8581460D01*
X9855231Y-8581460D02*
X9845707Y-8571936D01*
X9845707Y-8571936D02*
X9836183Y-8552889D01*
X9836183Y-8552889D02*
X9826659Y-8514793D01*
X9826659Y-8514793D02*
X9826659Y-8467174D01*
X9826659Y-8467174D02*
X9836183Y-8429079D01*
X9836183Y-8429079D02*
X9845707Y-8410031D01*
X9845707Y-8410031D02*
X9855231Y-8400508D01*
X9855231Y-8400508D02*
X9874278Y-8390984D01*
X10131421Y-8590984D02*
X10017135Y-8590984D01*
X10074278Y-8590984D02*
X10074278Y-8390984D01*
X10074278Y-8390984D02*
X10055231Y-8419555D01*
X10055231Y-8419555D02*
X10036183Y-8438603D01*
X10036183Y-8438603D02*
X10017135Y-8448127D01*
X10321897Y-8590984D02*
X10207612Y-8590984D01*
X10264754Y-8590984D02*
X10264754Y-8390984D01*
X10264754Y-8390984D02*
X10245707Y-8419555D01*
X10245707Y-8419555D02*
X10226659Y-8438603D01*
X10226659Y-8438603D02*
X10207612Y-8448127D01*
X10436183Y-8476698D02*
X10417135Y-8467174D01*
X10417135Y-8467174D02*
X10407612Y-8457650D01*
X10407612Y-8457650D02*
X10398088Y-8438603D01*
X10398088Y-8438603D02*
X10398088Y-8429079D01*
X10398088Y-8429079D02*
X10407612Y-8410031D01*
X10407612Y-8410031D02*
X10417135Y-8400508D01*
X10417135Y-8400508D02*
X10436183Y-8390984D01*
X10436183Y-8390984D02*
X10474278Y-8390984D01*
X10474278Y-8390984D02*
X10493326Y-8400508D01*
X10493326Y-8400508D02*
X10502850Y-8410031D01*
X10502850Y-8410031D02*
X10512374Y-8429079D01*
X10512374Y-8429079D02*
X10512374Y-8438603D01*
X10512374Y-8438603D02*
X10502850Y-8457650D01*
X10502850Y-8457650D02*
X10493326Y-8467174D01*
X10493326Y-8467174D02*
X10474278Y-8476698D01*
X10474278Y-8476698D02*
X10436183Y-8476698D01*
X10436183Y-8476698D02*
X10417135Y-8486222D01*
X10417135Y-8486222D02*
X10407612Y-8495746D01*
X10407612Y-8495746D02*
X10398088Y-8514793D01*
X10398088Y-8514793D02*
X10398088Y-8552889D01*
X10398088Y-8552889D02*
X10407612Y-8571936D01*
X10407612Y-8571936D02*
X10417135Y-8581460D01*
X10417135Y-8581460D02*
X10436183Y-8590984D01*
X10436183Y-8590984D02*
X10474278Y-8590984D01*
X10474278Y-8590984D02*
X10493326Y-8581460D01*
X10493326Y-8581460D02*
X10502850Y-8571936D01*
X10502850Y-8571936D02*
X10512374Y-8552889D01*
X10512374Y-8552889D02*
X10512374Y-8514793D01*
X10512374Y-8514793D02*
X10502850Y-8495746D01*
X10502850Y-8495746D02*
X10493326Y-8486222D01*
X10493326Y-8486222D02*
X10474278Y-8476698D01*
X10588564Y-8390984D02*
X10588564Y-8429079D01*
X10664755Y-8390984D02*
X10664755Y-8429079D01*
X10959993Y-8667174D02*
X10950469Y-8657650D01*
X10950469Y-8657650D02*
X10931421Y-8629079D01*
X10931421Y-8629079D02*
X10921897Y-8610031D01*
X10921897Y-8610031D02*
X10912374Y-8581460D01*
X10912374Y-8581460D02*
X10902850Y-8533841D01*
X10902850Y-8533841D02*
X10902850Y-8495746D01*
X10902850Y-8495746D02*
X10912374Y-8448127D01*
X10912374Y-8448127D02*
X10921897Y-8419555D01*
X10921897Y-8419555D02*
X10931421Y-8400508D01*
X10931421Y-8400508D02*
X10950469Y-8371936D01*
X10950469Y-8371936D02*
X10959993Y-8362412D01*
X11140945Y-8590984D02*
X11026659Y-8590984D01*
X11083802Y-8590984D02*
X11083802Y-8390984D01*
X11083802Y-8390984D02*
X11064755Y-8419555D01*
X11064755Y-8419555D02*
X11045707Y-8438603D01*
X11045707Y-8438603D02*
X11026659Y-8448127D01*
X11331421Y-8590984D02*
X11217135Y-8590984D01*
X11274278Y-8590984D02*
X11274278Y-8390984D01*
X11274278Y-8390984D02*
X11255231Y-8419555D01*
X11255231Y-8419555D02*
X11236183Y-8438603D01*
X11236183Y-8438603D02*
X11217135Y-8448127D01*
X11569516Y-8590984D02*
X11569516Y-8390984D01*
X11655231Y-8590984D02*
X11655231Y-8486222D01*
X11655231Y-8486222D02*
X11645707Y-8467174D01*
X11645707Y-8467174D02*
X11626659Y-8457650D01*
X11626659Y-8457650D02*
X11598088Y-8457650D01*
X11598088Y-8457650D02*
X11579040Y-8467174D01*
X11579040Y-8467174D02*
X11569516Y-8476698D01*
X11779040Y-8590984D02*
X11759993Y-8581460D01*
X11759993Y-8581460D02*
X11750469Y-8571936D01*
X11750469Y-8571936D02*
X11740945Y-8552889D01*
X11740945Y-8552889D02*
X11740945Y-8495746D01*
X11740945Y-8495746D02*
X11750469Y-8476698D01*
X11750469Y-8476698D02*
X11759993Y-8467174D01*
X11759993Y-8467174D02*
X11779040Y-8457650D01*
X11779040Y-8457650D02*
X11807612Y-8457650D01*
X11807612Y-8457650D02*
X11826659Y-8467174D01*
X11826659Y-8467174D02*
X11836183Y-8476698D01*
X11836183Y-8476698D02*
X11845707Y-8495746D01*
X11845707Y-8495746D02*
X11845707Y-8552889D01*
X11845707Y-8552889D02*
X11836183Y-8571936D01*
X11836183Y-8571936D02*
X11826659Y-8581460D01*
X11826659Y-8581460D02*
X11807612Y-8590984D01*
X11807612Y-8590984D02*
X11779040Y-8590984D01*
X11959993Y-8590984D02*
X11940945Y-8581460D01*
X11940945Y-8581460D02*
X11931421Y-8562412D01*
X11931421Y-8562412D02*
X11931421Y-8390984D01*
X12112374Y-8581460D02*
X12093326Y-8590984D01*
X12093326Y-8590984D02*
X12055231Y-8590984D01*
X12055231Y-8590984D02*
X12036183Y-8581460D01*
X12036183Y-8581460D02*
X12026659Y-8562412D01*
X12026659Y-8562412D02*
X12026659Y-8486222D01*
X12026659Y-8486222D02*
X12036183Y-8467174D01*
X12036183Y-8467174D02*
X12055231Y-8457650D01*
X12055231Y-8457650D02*
X12093326Y-8457650D01*
X12093326Y-8457650D02*
X12112374Y-8467174D01*
X12112374Y-8467174D02*
X12121897Y-8486222D01*
X12121897Y-8486222D02*
X12121897Y-8505270D01*
X12121897Y-8505270D02*
X12026659Y-8524317D01*
X12198088Y-8581460D02*
X12217136Y-8590984D01*
X12217136Y-8590984D02*
X12255231Y-8590984D01*
X12255231Y-8590984D02*
X12274278Y-8581460D01*
X12274278Y-8581460D02*
X12283802Y-8562412D01*
X12283802Y-8562412D02*
X12283802Y-8552889D01*
X12283802Y-8552889D02*
X12274278Y-8533841D01*
X12274278Y-8533841D02*
X12255231Y-8524317D01*
X12255231Y-8524317D02*
X12226659Y-8524317D01*
X12226659Y-8524317D02*
X12207612Y-8514793D01*
X12207612Y-8514793D02*
X12198088Y-8495746D01*
X12198088Y-8495746D02*
X12198088Y-8486222D01*
X12198088Y-8486222D02*
X12207612Y-8467174D01*
X12207612Y-8467174D02*
X12226659Y-8457650D01*
X12226659Y-8457650D02*
X12255231Y-8457650D01*
X12255231Y-8457650D02*
X12274278Y-8467174D01*
X12350469Y-8667174D02*
X12359993Y-8657650D01*
X12359993Y-8657650D02*
X12379040Y-8629079D01*
X12379040Y-8629079D02*
X12388564Y-8610031D01*
X12388564Y-8610031D02*
X12398088Y-8581460D01*
X12398088Y-8581460D02*
X12407612Y-8533841D01*
X12407612Y-8533841D02*
X12407612Y-8495746D01*
X12407612Y-8495746D02*
X12398088Y-8448127D01*
X12398088Y-8448127D02*
X12388564Y-8419555D01*
X12388564Y-8419555D02*
X12379040Y-8400508D01*
X12379040Y-8400508D02*
X12359993Y-8371936D01*
X12359993Y-8371936D02*
X12350469Y-8362412D01*
D13*
X7384930Y-8763500D02*
G75*
G02*
X7306190Y-8763500I-39370J0D01*
G01*
X7306190Y-8763500D02*
G75*
G02*
X7384930Y-8763500I39370J0D01*
G01*
D12*
X7683802Y-8654984D02*
X7702849Y-8654984D01*
X7702849Y-8654984D02*
X7721897Y-8664508D01*
X7721897Y-8664508D02*
X7731421Y-8674031D01*
X7731421Y-8674031D02*
X7740945Y-8693079D01*
X7740945Y-8693079D02*
X7750468Y-8731174D01*
X7750468Y-8731174D02*
X7750468Y-8778793D01*
X7750468Y-8778793D02*
X7740945Y-8816889D01*
X7740945Y-8816889D02*
X7731421Y-8835936D01*
X7731421Y-8835936D02*
X7721897Y-8845460D01*
X7721897Y-8845460D02*
X7702849Y-8854984D01*
X7702849Y-8854984D02*
X7683802Y-8854984D01*
X7683802Y-8854984D02*
X7664754Y-8845460D01*
X7664754Y-8845460D02*
X7655230Y-8835936D01*
X7655230Y-8835936D02*
X7645707Y-8816889D01*
X7645707Y-8816889D02*
X7636183Y-8778793D01*
X7636183Y-8778793D02*
X7636183Y-8731174D01*
X7636183Y-8731174D02*
X7645707Y-8693079D01*
X7645707Y-8693079D02*
X7655230Y-8674031D01*
X7655230Y-8674031D02*
X7664754Y-8664508D01*
X7664754Y-8664508D02*
X7683802Y-8654984D01*
X7836183Y-8835936D02*
X7845707Y-8845460D01*
X7845707Y-8845460D02*
X7836183Y-8854984D01*
X7836183Y-8854984D02*
X7826659Y-8845460D01*
X7826659Y-8845460D02*
X7836183Y-8835936D01*
X7836183Y-8835936D02*
X7836183Y-8854984D01*
X7912373Y-8654984D02*
X8045707Y-8654984D01*
X8045707Y-8654984D02*
X7959992Y-8854984D01*
X8150468Y-8740698D02*
X8131421Y-8731174D01*
X8131421Y-8731174D02*
X8121897Y-8721650D01*
X8121897Y-8721650D02*
X8112373Y-8702603D01*
X8112373Y-8702603D02*
X8112373Y-8693079D01*
X8112373Y-8693079D02*
X8121897Y-8674031D01*
X8121897Y-8674031D02*
X8131421Y-8664508D01*
X8131421Y-8664508D02*
X8150468Y-8654984D01*
X8150468Y-8654984D02*
X8188564Y-8654984D01*
X8188564Y-8654984D02*
X8207611Y-8664508D01*
X8207611Y-8664508D02*
X8217135Y-8674031D01*
X8217135Y-8674031D02*
X8226659Y-8693079D01*
X8226659Y-8693079D02*
X8226659Y-8702603D01*
X8226659Y-8702603D02*
X8217135Y-8721650D01*
X8217135Y-8721650D02*
X8207611Y-8731174D01*
X8207611Y-8731174D02*
X8188564Y-8740698D01*
X8188564Y-8740698D02*
X8150468Y-8740698D01*
X8150468Y-8740698D02*
X8131421Y-8750222D01*
X8131421Y-8750222D02*
X8121897Y-8759746D01*
X8121897Y-8759746D02*
X8112373Y-8778793D01*
X8112373Y-8778793D02*
X8112373Y-8816889D01*
X8112373Y-8816889D02*
X8121897Y-8835936D01*
X8121897Y-8835936D02*
X8131421Y-8845460D01*
X8131421Y-8845460D02*
X8150468Y-8854984D01*
X8150468Y-8854984D02*
X8188564Y-8854984D01*
X8188564Y-8854984D02*
X8207611Y-8845460D01*
X8207611Y-8845460D02*
X8217135Y-8835936D01*
X8217135Y-8835936D02*
X8226659Y-8816889D01*
X8226659Y-8816889D02*
X8226659Y-8778793D01*
X8226659Y-8778793D02*
X8217135Y-8759746D01*
X8217135Y-8759746D02*
X8207611Y-8750222D01*
X8207611Y-8750222D02*
X8188564Y-8740698D01*
X8293326Y-8654984D02*
X8426659Y-8654984D01*
X8426659Y-8654984D02*
X8340945Y-8854984D01*
X8502850Y-8854984D02*
X8502850Y-8721650D01*
X8502850Y-8740698D02*
X8512373Y-8731174D01*
X8512373Y-8731174D02*
X8531421Y-8721650D01*
X8531421Y-8721650D02*
X8559992Y-8721650D01*
X8559992Y-8721650D02*
X8579040Y-8731174D01*
X8579040Y-8731174D02*
X8588564Y-8750222D01*
X8588564Y-8750222D02*
X8588564Y-8854984D01*
X8588564Y-8750222D02*
X8598088Y-8731174D01*
X8598088Y-8731174D02*
X8617135Y-8721650D01*
X8617135Y-8721650D02*
X8645707Y-8721650D01*
X8645707Y-8721650D02*
X8664754Y-8731174D01*
X8664754Y-8731174D02*
X8674278Y-8750222D01*
X8674278Y-8750222D02*
X8674278Y-8854984D01*
X8769516Y-8854984D02*
X8769516Y-8721650D01*
X8769516Y-8740698D02*
X8779040Y-8731174D01*
X8779040Y-8731174D02*
X8798088Y-8721650D01*
X8798088Y-8721650D02*
X8826659Y-8721650D01*
X8826659Y-8721650D02*
X8845707Y-8731174D01*
X8845707Y-8731174D02*
X8855231Y-8750222D01*
X8855231Y-8750222D02*
X8855231Y-8854984D01*
X8855231Y-8750222D02*
X8864754Y-8731174D01*
X8864754Y-8731174D02*
X8883802Y-8721650D01*
X8883802Y-8721650D02*
X8912373Y-8721650D01*
X8912373Y-8721650D02*
X8931421Y-8731174D01*
X8931421Y-8731174D02*
X8940945Y-8750222D01*
X8940945Y-8750222D02*
X8940945Y-8854984D01*
X9331421Y-8645460D02*
X9159993Y-8902603D01*
X9588564Y-8654984D02*
X9607612Y-8654984D01*
X9607612Y-8654984D02*
X9626659Y-8664508D01*
X9626659Y-8664508D02*
X9636183Y-8674031D01*
X9636183Y-8674031D02*
X9645707Y-8693079D01*
X9645707Y-8693079D02*
X9655231Y-8731174D01*
X9655231Y-8731174D02*
X9655231Y-8778793D01*
X9655231Y-8778793D02*
X9645707Y-8816889D01*
X9645707Y-8816889D02*
X9636183Y-8835936D01*
X9636183Y-8835936D02*
X9626659Y-8845460D01*
X9626659Y-8845460D02*
X9607612Y-8854984D01*
X9607612Y-8854984D02*
X9588564Y-8854984D01*
X9588564Y-8854984D02*
X9569516Y-8845460D01*
X9569516Y-8845460D02*
X9559993Y-8835936D01*
X9559993Y-8835936D02*
X9550469Y-8816889D01*
X9550469Y-8816889D02*
X9540945Y-8778793D01*
X9540945Y-8778793D02*
X9540945Y-8731174D01*
X9540945Y-8731174D02*
X9550469Y-8693079D01*
X9550469Y-8693079D02*
X9559993Y-8674031D01*
X9559993Y-8674031D02*
X9569516Y-8664508D01*
X9569516Y-8664508D02*
X9588564Y-8654984D01*
X9740945Y-8835936D02*
X9750469Y-8845460D01*
X9750469Y-8845460D02*
X9740945Y-8854984D01*
X9740945Y-8854984D02*
X9731421Y-8845460D01*
X9731421Y-8845460D02*
X9740945Y-8835936D01*
X9740945Y-8835936D02*
X9740945Y-8854984D01*
X9874278Y-8654984D02*
X9893326Y-8654984D01*
X9893326Y-8654984D02*
X9912374Y-8664508D01*
X9912374Y-8664508D02*
X9921897Y-8674031D01*
X9921897Y-8674031D02*
X9931421Y-8693079D01*
X9931421Y-8693079D02*
X9940945Y-8731174D01*
X9940945Y-8731174D02*
X9940945Y-8778793D01*
X9940945Y-8778793D02*
X9931421Y-8816889D01*
X9931421Y-8816889D02*
X9921897Y-8835936D01*
X9921897Y-8835936D02*
X9912374Y-8845460D01*
X9912374Y-8845460D02*
X9893326Y-8854984D01*
X9893326Y-8854984D02*
X9874278Y-8854984D01*
X9874278Y-8854984D02*
X9855231Y-8845460D01*
X9855231Y-8845460D02*
X9845707Y-8835936D01*
X9845707Y-8835936D02*
X9836183Y-8816889D01*
X9836183Y-8816889D02*
X9826659Y-8778793D01*
X9826659Y-8778793D02*
X9826659Y-8731174D01*
X9826659Y-8731174D02*
X9836183Y-8693079D01*
X9836183Y-8693079D02*
X9845707Y-8674031D01*
X9845707Y-8674031D02*
X9855231Y-8664508D01*
X9855231Y-8664508D02*
X9874278Y-8654984D01*
X10007612Y-8654984D02*
X10131421Y-8654984D01*
X10131421Y-8654984D02*
X10064754Y-8731174D01*
X10064754Y-8731174D02*
X10093326Y-8731174D01*
X10093326Y-8731174D02*
X10112374Y-8740698D01*
X10112374Y-8740698D02*
X10121897Y-8750222D01*
X10121897Y-8750222D02*
X10131421Y-8769270D01*
X10131421Y-8769270D02*
X10131421Y-8816889D01*
X10131421Y-8816889D02*
X10121897Y-8835936D01*
X10121897Y-8835936D02*
X10112374Y-8845460D01*
X10112374Y-8845460D02*
X10093326Y-8854984D01*
X10093326Y-8854984D02*
X10036183Y-8854984D01*
X10036183Y-8854984D02*
X10017135Y-8845460D01*
X10017135Y-8845460D02*
X10007612Y-8835936D01*
X10321897Y-8854984D02*
X10207612Y-8854984D01*
X10264754Y-8854984D02*
X10264754Y-8654984D01*
X10264754Y-8654984D02*
X10245707Y-8683555D01*
X10245707Y-8683555D02*
X10226659Y-8702603D01*
X10226659Y-8702603D02*
X10207612Y-8712127D01*
X10445707Y-8654984D02*
X10464755Y-8654984D01*
X10464755Y-8654984D02*
X10483802Y-8664508D01*
X10483802Y-8664508D02*
X10493326Y-8674031D01*
X10493326Y-8674031D02*
X10502850Y-8693079D01*
X10502850Y-8693079D02*
X10512374Y-8731174D01*
X10512374Y-8731174D02*
X10512374Y-8778793D01*
X10512374Y-8778793D02*
X10502850Y-8816889D01*
X10502850Y-8816889D02*
X10493326Y-8835936D01*
X10493326Y-8835936D02*
X10483802Y-8845460D01*
X10483802Y-8845460D02*
X10464755Y-8854984D01*
X10464755Y-8854984D02*
X10445707Y-8854984D01*
X10445707Y-8854984D02*
X10426659Y-8845460D01*
X10426659Y-8845460D02*
X10417135Y-8835936D01*
X10417135Y-8835936D02*
X10407612Y-8816889D01*
X10407612Y-8816889D02*
X10398088Y-8778793D01*
X10398088Y-8778793D02*
X10398088Y-8731174D01*
X10398088Y-8731174D02*
X10407612Y-8693079D01*
X10407612Y-8693079D02*
X10417135Y-8674031D01*
X10417135Y-8674031D02*
X10426659Y-8664508D01*
X10426659Y-8664508D02*
X10445707Y-8654984D01*
X10588564Y-8654984D02*
X10588564Y-8693079D01*
X10664755Y-8654984D02*
X10664755Y-8693079D01*
X10959993Y-8931174D02*
X10950469Y-8921650D01*
X10950469Y-8921650D02*
X10931421Y-8893079D01*
X10931421Y-8893079D02*
X10921897Y-8874031D01*
X10921897Y-8874031D02*
X10912374Y-8845460D01*
X10912374Y-8845460D02*
X10902850Y-8797841D01*
X10902850Y-8797841D02*
X10902850Y-8759746D01*
X10902850Y-8759746D02*
X10912374Y-8712127D01*
X10912374Y-8712127D02*
X10921897Y-8683555D01*
X10921897Y-8683555D02*
X10931421Y-8664508D01*
X10931421Y-8664508D02*
X10950469Y-8635936D01*
X10950469Y-8635936D02*
X10959993Y-8626412D01*
X11140945Y-8854984D02*
X11026659Y-8854984D01*
X11083802Y-8854984D02*
X11083802Y-8654984D01*
X11083802Y-8654984D02*
X11064755Y-8683555D01*
X11064755Y-8683555D02*
X11045707Y-8702603D01*
X11045707Y-8702603D02*
X11026659Y-8712127D01*
X11312374Y-8654984D02*
X11274278Y-8654984D01*
X11274278Y-8654984D02*
X11255231Y-8664508D01*
X11255231Y-8664508D02*
X11245707Y-8674031D01*
X11245707Y-8674031D02*
X11226659Y-8702603D01*
X11226659Y-8702603D02*
X11217135Y-8740698D01*
X11217135Y-8740698D02*
X11217135Y-8816889D01*
X11217135Y-8816889D02*
X11226659Y-8835936D01*
X11226659Y-8835936D02*
X11236183Y-8845460D01*
X11236183Y-8845460D02*
X11255231Y-8854984D01*
X11255231Y-8854984D02*
X11293326Y-8854984D01*
X11293326Y-8854984D02*
X11312374Y-8845460D01*
X11312374Y-8845460D02*
X11321897Y-8835936D01*
X11321897Y-8835936D02*
X11331421Y-8816889D01*
X11331421Y-8816889D02*
X11331421Y-8769270D01*
X11331421Y-8769270D02*
X11321897Y-8750222D01*
X11321897Y-8750222D02*
X11312374Y-8740698D01*
X11312374Y-8740698D02*
X11293326Y-8731174D01*
X11293326Y-8731174D02*
X11255231Y-8731174D01*
X11255231Y-8731174D02*
X11236183Y-8740698D01*
X11236183Y-8740698D02*
X11226659Y-8750222D01*
X11226659Y-8750222D02*
X11217135Y-8769270D01*
X11569516Y-8854984D02*
X11569516Y-8654984D01*
X11655231Y-8854984D02*
X11655231Y-8750222D01*
X11655231Y-8750222D02*
X11645707Y-8731174D01*
X11645707Y-8731174D02*
X11626659Y-8721650D01*
X11626659Y-8721650D02*
X11598088Y-8721650D01*
X11598088Y-8721650D02*
X11579040Y-8731174D01*
X11579040Y-8731174D02*
X11569516Y-8740698D01*
X11779040Y-8854984D02*
X11759993Y-8845460D01*
X11759993Y-8845460D02*
X11750469Y-8835936D01*
X11750469Y-8835936D02*
X11740945Y-8816889D01*
X11740945Y-8816889D02*
X11740945Y-8759746D01*
X11740945Y-8759746D02*
X11750469Y-8740698D01*
X11750469Y-8740698D02*
X11759993Y-8731174D01*
X11759993Y-8731174D02*
X11779040Y-8721650D01*
X11779040Y-8721650D02*
X11807612Y-8721650D01*
X11807612Y-8721650D02*
X11826659Y-8731174D01*
X11826659Y-8731174D02*
X11836183Y-8740698D01*
X11836183Y-8740698D02*
X11845707Y-8759746D01*
X11845707Y-8759746D02*
X11845707Y-8816889D01*
X11845707Y-8816889D02*
X11836183Y-8835936D01*
X11836183Y-8835936D02*
X11826659Y-8845460D01*
X11826659Y-8845460D02*
X11807612Y-8854984D01*
X11807612Y-8854984D02*
X11779040Y-8854984D01*
X11959993Y-8854984D02*
X11940945Y-8845460D01*
X11940945Y-8845460D02*
X11931421Y-8826412D01*
X11931421Y-8826412D02*
X11931421Y-8654984D01*
X12112374Y-8845460D02*
X12093326Y-8854984D01*
X12093326Y-8854984D02*
X12055231Y-8854984D01*
X12055231Y-8854984D02*
X12036183Y-8845460D01*
X12036183Y-8845460D02*
X12026659Y-8826412D01*
X12026659Y-8826412D02*
X12026659Y-8750222D01*
X12026659Y-8750222D02*
X12036183Y-8731174D01*
X12036183Y-8731174D02*
X12055231Y-8721650D01*
X12055231Y-8721650D02*
X12093326Y-8721650D01*
X12093326Y-8721650D02*
X12112374Y-8731174D01*
X12112374Y-8731174D02*
X12121897Y-8750222D01*
X12121897Y-8750222D02*
X12121897Y-8769270D01*
X12121897Y-8769270D02*
X12026659Y-8788317D01*
X12198088Y-8845460D02*
X12217136Y-8854984D01*
X12217136Y-8854984D02*
X12255231Y-8854984D01*
X12255231Y-8854984D02*
X12274278Y-8845460D01*
X12274278Y-8845460D02*
X12283802Y-8826412D01*
X12283802Y-8826412D02*
X12283802Y-8816889D01*
X12283802Y-8816889D02*
X12274278Y-8797841D01*
X12274278Y-8797841D02*
X12255231Y-8788317D01*
X12255231Y-8788317D02*
X12226659Y-8788317D01*
X12226659Y-8788317D02*
X12207612Y-8778793D01*
X12207612Y-8778793D02*
X12198088Y-8759746D01*
X12198088Y-8759746D02*
X12198088Y-8750222D01*
X12198088Y-8750222D02*
X12207612Y-8731174D01*
X12207612Y-8731174D02*
X12226659Y-8721650D01*
X12226659Y-8721650D02*
X12255231Y-8721650D01*
X12255231Y-8721650D02*
X12274278Y-8731174D01*
X12350469Y-8931174D02*
X12359993Y-8921650D01*
X12359993Y-8921650D02*
X12379040Y-8893079D01*
X12379040Y-8893079D02*
X12388564Y-8874031D01*
X12388564Y-8874031D02*
X12398088Y-8845460D01*
X12398088Y-8845460D02*
X12407612Y-8797841D01*
X12407612Y-8797841D02*
X12407612Y-8759746D01*
X12407612Y-8759746D02*
X12398088Y-8712127D01*
X12398088Y-8712127D02*
X12388564Y-8683555D01*
X12388564Y-8683555D02*
X12379040Y-8664508D01*
X12379040Y-8664508D02*
X12359993Y-8635936D01*
X12359993Y-8635936D02*
X12350469Y-8626412D01*
D13*
X7344930Y-8987500D02*
X7344930Y-9067500D01*
X7304930Y-9027500D02*
X7384930Y-9027500D01*
D12*
X7683802Y-8918984D02*
X7702849Y-8918984D01*
X7702849Y-8918984D02*
X7721897Y-8928508D01*
X7721897Y-8928508D02*
X7731421Y-8938031D01*
X7731421Y-8938031D02*
X7740945Y-8957079D01*
X7740945Y-8957079D02*
X7750468Y-8995174D01*
X7750468Y-8995174D02*
X7750468Y-9042793D01*
X7750468Y-9042793D02*
X7740945Y-9080889D01*
X7740945Y-9080889D02*
X7731421Y-9099936D01*
X7731421Y-9099936D02*
X7721897Y-9109460D01*
X7721897Y-9109460D02*
X7702849Y-9118984D01*
X7702849Y-9118984D02*
X7683802Y-9118984D01*
X7683802Y-9118984D02*
X7664754Y-9109460D01*
X7664754Y-9109460D02*
X7655230Y-9099936D01*
X7655230Y-9099936D02*
X7645707Y-9080889D01*
X7645707Y-9080889D02*
X7636183Y-9042793D01*
X7636183Y-9042793D02*
X7636183Y-8995174D01*
X7636183Y-8995174D02*
X7645707Y-8957079D01*
X7645707Y-8957079D02*
X7655230Y-8938031D01*
X7655230Y-8938031D02*
X7664754Y-8928508D01*
X7664754Y-8928508D02*
X7683802Y-8918984D01*
X7836183Y-9099936D02*
X7845707Y-9109460D01*
X7845707Y-9109460D02*
X7836183Y-9118984D01*
X7836183Y-9118984D02*
X7826659Y-9109460D01*
X7826659Y-9109460D02*
X7836183Y-9099936D01*
X7836183Y-9099936D02*
X7836183Y-9118984D01*
X7959992Y-9004698D02*
X7940945Y-8995174D01*
X7940945Y-8995174D02*
X7931421Y-8985650D01*
X7931421Y-8985650D02*
X7921897Y-8966603D01*
X7921897Y-8966603D02*
X7921897Y-8957079D01*
X7921897Y-8957079D02*
X7931421Y-8938031D01*
X7931421Y-8938031D02*
X7940945Y-8928508D01*
X7940945Y-8928508D02*
X7959992Y-8918984D01*
X7959992Y-8918984D02*
X7998088Y-8918984D01*
X7998088Y-8918984D02*
X8017135Y-8928508D01*
X8017135Y-8928508D02*
X8026659Y-8938031D01*
X8026659Y-8938031D02*
X8036183Y-8957079D01*
X8036183Y-8957079D02*
X8036183Y-8966603D01*
X8036183Y-8966603D02*
X8026659Y-8985650D01*
X8026659Y-8985650D02*
X8017135Y-8995174D01*
X8017135Y-8995174D02*
X7998088Y-9004698D01*
X7998088Y-9004698D02*
X7959992Y-9004698D01*
X7959992Y-9004698D02*
X7940945Y-9014222D01*
X7940945Y-9014222D02*
X7931421Y-9023746D01*
X7931421Y-9023746D02*
X7921897Y-9042793D01*
X7921897Y-9042793D02*
X7921897Y-9080889D01*
X7921897Y-9080889D02*
X7931421Y-9099936D01*
X7931421Y-9099936D02*
X7940945Y-9109460D01*
X7940945Y-9109460D02*
X7959992Y-9118984D01*
X7959992Y-9118984D02*
X7998088Y-9118984D01*
X7998088Y-9118984D02*
X8017135Y-9109460D01*
X8017135Y-9109460D02*
X8026659Y-9099936D01*
X8026659Y-9099936D02*
X8036183Y-9080889D01*
X8036183Y-9080889D02*
X8036183Y-9042793D01*
X8036183Y-9042793D02*
X8026659Y-9023746D01*
X8026659Y-9023746D02*
X8017135Y-9014222D01*
X8017135Y-9014222D02*
X7998088Y-9004698D01*
X8159992Y-8918984D02*
X8179040Y-8918984D01*
X8179040Y-8918984D02*
X8198088Y-8928508D01*
X8198088Y-8928508D02*
X8207611Y-8938031D01*
X8207611Y-8938031D02*
X8217135Y-8957079D01*
X8217135Y-8957079D02*
X8226659Y-8995174D01*
X8226659Y-8995174D02*
X8226659Y-9042793D01*
X8226659Y-9042793D02*
X8217135Y-9080889D01*
X8217135Y-9080889D02*
X8207611Y-9099936D01*
X8207611Y-9099936D02*
X8198088Y-9109460D01*
X8198088Y-9109460D02*
X8179040Y-9118984D01*
X8179040Y-9118984D02*
X8159992Y-9118984D01*
X8159992Y-9118984D02*
X8140945Y-9109460D01*
X8140945Y-9109460D02*
X8131421Y-9099936D01*
X8131421Y-9099936D02*
X8121897Y-9080889D01*
X8121897Y-9080889D02*
X8112373Y-9042793D01*
X8112373Y-9042793D02*
X8112373Y-8995174D01*
X8112373Y-8995174D02*
X8121897Y-8957079D01*
X8121897Y-8957079D02*
X8131421Y-8938031D01*
X8131421Y-8938031D02*
X8140945Y-8928508D01*
X8140945Y-8928508D02*
X8159992Y-8918984D01*
X8350468Y-8918984D02*
X8369516Y-8918984D01*
X8369516Y-8918984D02*
X8388564Y-8928508D01*
X8388564Y-8928508D02*
X8398088Y-8938031D01*
X8398088Y-8938031D02*
X8407611Y-8957079D01*
X8407611Y-8957079D02*
X8417135Y-8995174D01*
X8417135Y-8995174D02*
X8417135Y-9042793D01*
X8417135Y-9042793D02*
X8407611Y-9080889D01*
X8407611Y-9080889D02*
X8398088Y-9099936D01*
X8398088Y-9099936D02*
X8388564Y-9109460D01*
X8388564Y-9109460D02*
X8369516Y-9118984D01*
X8369516Y-9118984D02*
X8350468Y-9118984D01*
X8350468Y-9118984D02*
X8331421Y-9109460D01*
X8331421Y-9109460D02*
X8321897Y-9099936D01*
X8321897Y-9099936D02*
X8312373Y-9080889D01*
X8312373Y-9080889D02*
X8302849Y-9042793D01*
X8302849Y-9042793D02*
X8302849Y-8995174D01*
X8302849Y-8995174D02*
X8312373Y-8957079D01*
X8312373Y-8957079D02*
X8321897Y-8938031D01*
X8321897Y-8938031D02*
X8331421Y-8928508D01*
X8331421Y-8928508D02*
X8350468Y-8918984D01*
X8502850Y-9118984D02*
X8502850Y-8985650D01*
X8502850Y-9004698D02*
X8512373Y-8995174D01*
X8512373Y-8995174D02*
X8531421Y-8985650D01*
X8531421Y-8985650D02*
X8559992Y-8985650D01*
X8559992Y-8985650D02*
X8579040Y-8995174D01*
X8579040Y-8995174D02*
X8588564Y-9014222D01*
X8588564Y-9014222D02*
X8588564Y-9118984D01*
X8588564Y-9014222D02*
X8598088Y-8995174D01*
X8598088Y-8995174D02*
X8617135Y-8985650D01*
X8617135Y-8985650D02*
X8645707Y-8985650D01*
X8645707Y-8985650D02*
X8664754Y-8995174D01*
X8664754Y-8995174D02*
X8674278Y-9014222D01*
X8674278Y-9014222D02*
X8674278Y-9118984D01*
X8769516Y-9118984D02*
X8769516Y-8985650D01*
X8769516Y-9004698D02*
X8779040Y-8995174D01*
X8779040Y-8995174D02*
X8798088Y-8985650D01*
X8798088Y-8985650D02*
X8826659Y-8985650D01*
X8826659Y-8985650D02*
X8845707Y-8995174D01*
X8845707Y-8995174D02*
X8855231Y-9014222D01*
X8855231Y-9014222D02*
X8855231Y-9118984D01*
X8855231Y-9014222D02*
X8864754Y-8995174D01*
X8864754Y-8995174D02*
X8883802Y-8985650D01*
X8883802Y-8985650D02*
X8912373Y-8985650D01*
X8912373Y-8985650D02*
X8931421Y-8995174D01*
X8931421Y-8995174D02*
X8940945Y-9014222D01*
X8940945Y-9014222D02*
X8940945Y-9118984D01*
X9331421Y-8909460D02*
X9159993Y-9166603D01*
X9588564Y-8918984D02*
X9607612Y-8918984D01*
X9607612Y-8918984D02*
X9626659Y-8928508D01*
X9626659Y-8928508D02*
X9636183Y-8938031D01*
X9636183Y-8938031D02*
X9645707Y-8957079D01*
X9645707Y-8957079D02*
X9655231Y-8995174D01*
X9655231Y-8995174D02*
X9655231Y-9042793D01*
X9655231Y-9042793D02*
X9645707Y-9080889D01*
X9645707Y-9080889D02*
X9636183Y-9099936D01*
X9636183Y-9099936D02*
X9626659Y-9109460D01*
X9626659Y-9109460D02*
X9607612Y-9118984D01*
X9607612Y-9118984D02*
X9588564Y-9118984D01*
X9588564Y-9118984D02*
X9569516Y-9109460D01*
X9569516Y-9109460D02*
X9559993Y-9099936D01*
X9559993Y-9099936D02*
X9550469Y-9080889D01*
X9550469Y-9080889D02*
X9540945Y-9042793D01*
X9540945Y-9042793D02*
X9540945Y-8995174D01*
X9540945Y-8995174D02*
X9550469Y-8957079D01*
X9550469Y-8957079D02*
X9559993Y-8938031D01*
X9559993Y-8938031D02*
X9569516Y-8928508D01*
X9569516Y-8928508D02*
X9588564Y-8918984D01*
X9740945Y-9099936D02*
X9750469Y-9109460D01*
X9750469Y-9109460D02*
X9740945Y-9118984D01*
X9740945Y-9118984D02*
X9731421Y-9109460D01*
X9731421Y-9109460D02*
X9740945Y-9099936D01*
X9740945Y-9099936D02*
X9740945Y-9118984D01*
X9874278Y-8918984D02*
X9893326Y-8918984D01*
X9893326Y-8918984D02*
X9912374Y-8928508D01*
X9912374Y-8928508D02*
X9921897Y-8938031D01*
X9921897Y-8938031D02*
X9931421Y-8957079D01*
X9931421Y-8957079D02*
X9940945Y-8995174D01*
X9940945Y-8995174D02*
X9940945Y-9042793D01*
X9940945Y-9042793D02*
X9931421Y-9080889D01*
X9931421Y-9080889D02*
X9921897Y-9099936D01*
X9921897Y-9099936D02*
X9912374Y-9109460D01*
X9912374Y-9109460D02*
X9893326Y-9118984D01*
X9893326Y-9118984D02*
X9874278Y-9118984D01*
X9874278Y-9118984D02*
X9855231Y-9109460D01*
X9855231Y-9109460D02*
X9845707Y-9099936D01*
X9845707Y-9099936D02*
X9836183Y-9080889D01*
X9836183Y-9080889D02*
X9826659Y-9042793D01*
X9826659Y-9042793D02*
X9826659Y-8995174D01*
X9826659Y-8995174D02*
X9836183Y-8957079D01*
X9836183Y-8957079D02*
X9845707Y-8938031D01*
X9845707Y-8938031D02*
X9855231Y-8928508D01*
X9855231Y-8928508D02*
X9874278Y-8918984D01*
X10007612Y-8918984D02*
X10131421Y-8918984D01*
X10131421Y-8918984D02*
X10064754Y-8995174D01*
X10064754Y-8995174D02*
X10093326Y-8995174D01*
X10093326Y-8995174D02*
X10112374Y-9004698D01*
X10112374Y-9004698D02*
X10121897Y-9014222D01*
X10121897Y-9014222D02*
X10131421Y-9033270D01*
X10131421Y-9033270D02*
X10131421Y-9080889D01*
X10131421Y-9080889D02*
X10121897Y-9099936D01*
X10121897Y-9099936D02*
X10112374Y-9109460D01*
X10112374Y-9109460D02*
X10093326Y-9118984D01*
X10093326Y-9118984D02*
X10036183Y-9118984D01*
X10036183Y-9118984D02*
X10017135Y-9109460D01*
X10017135Y-9109460D02*
X10007612Y-9099936D01*
X10321897Y-9118984D02*
X10207612Y-9118984D01*
X10264754Y-9118984D02*
X10264754Y-8918984D01*
X10264754Y-8918984D02*
X10245707Y-8947555D01*
X10245707Y-8947555D02*
X10226659Y-8966603D01*
X10226659Y-8966603D02*
X10207612Y-8976127D01*
X10502850Y-8918984D02*
X10407612Y-8918984D01*
X10407612Y-8918984D02*
X10398088Y-9014222D01*
X10398088Y-9014222D02*
X10407612Y-9004698D01*
X10407612Y-9004698D02*
X10426659Y-8995174D01*
X10426659Y-8995174D02*
X10474278Y-8995174D01*
X10474278Y-8995174D02*
X10493326Y-9004698D01*
X10493326Y-9004698D02*
X10502850Y-9014222D01*
X10502850Y-9014222D02*
X10512374Y-9033270D01*
X10512374Y-9033270D02*
X10512374Y-9080889D01*
X10512374Y-9080889D02*
X10502850Y-9099936D01*
X10502850Y-9099936D02*
X10493326Y-9109460D01*
X10493326Y-9109460D02*
X10474278Y-9118984D01*
X10474278Y-9118984D02*
X10426659Y-9118984D01*
X10426659Y-9118984D02*
X10407612Y-9109460D01*
X10407612Y-9109460D02*
X10398088Y-9099936D01*
X10588564Y-8918984D02*
X10588564Y-8957079D01*
X10664755Y-8918984D02*
X10664755Y-8957079D01*
X10959993Y-9195174D02*
X10950469Y-9185650D01*
X10950469Y-9185650D02*
X10931421Y-9157079D01*
X10931421Y-9157079D02*
X10921897Y-9138031D01*
X10921897Y-9138031D02*
X10912374Y-9109460D01*
X10912374Y-9109460D02*
X10902850Y-9061841D01*
X10902850Y-9061841D02*
X10902850Y-9023746D01*
X10902850Y-9023746D02*
X10912374Y-8976127D01*
X10912374Y-8976127D02*
X10921897Y-8947555D01*
X10921897Y-8947555D02*
X10931421Y-8928508D01*
X10931421Y-8928508D02*
X10950469Y-8899936D01*
X10950469Y-8899936D02*
X10959993Y-8890412D01*
X11140945Y-9118984D02*
X11026659Y-9118984D01*
X11083802Y-9118984D02*
X11083802Y-8918984D01*
X11083802Y-8918984D02*
X11064755Y-8947555D01*
X11064755Y-8947555D02*
X11045707Y-8966603D01*
X11045707Y-8966603D02*
X11026659Y-8976127D01*
X11255231Y-9004698D02*
X11236183Y-8995174D01*
X11236183Y-8995174D02*
X11226659Y-8985650D01*
X11226659Y-8985650D02*
X11217135Y-8966603D01*
X11217135Y-8966603D02*
X11217135Y-8957079D01*
X11217135Y-8957079D02*
X11226659Y-8938031D01*
X11226659Y-8938031D02*
X11236183Y-8928508D01*
X11236183Y-8928508D02*
X11255231Y-8918984D01*
X11255231Y-8918984D02*
X11293326Y-8918984D01*
X11293326Y-8918984D02*
X11312374Y-8928508D01*
X11312374Y-8928508D02*
X11321897Y-8938031D01*
X11321897Y-8938031D02*
X11331421Y-8957079D01*
X11331421Y-8957079D02*
X11331421Y-8966603D01*
X11331421Y-8966603D02*
X11321897Y-8985650D01*
X11321897Y-8985650D02*
X11312374Y-8995174D01*
X11312374Y-8995174D02*
X11293326Y-9004698D01*
X11293326Y-9004698D02*
X11255231Y-9004698D01*
X11255231Y-9004698D02*
X11236183Y-9014222D01*
X11236183Y-9014222D02*
X11226659Y-9023746D01*
X11226659Y-9023746D02*
X11217135Y-9042793D01*
X11217135Y-9042793D02*
X11217135Y-9080889D01*
X11217135Y-9080889D02*
X11226659Y-9099936D01*
X11226659Y-9099936D02*
X11236183Y-9109460D01*
X11236183Y-9109460D02*
X11255231Y-9118984D01*
X11255231Y-9118984D02*
X11293326Y-9118984D01*
X11293326Y-9118984D02*
X11312374Y-9109460D01*
X11312374Y-9109460D02*
X11321897Y-9099936D01*
X11321897Y-9099936D02*
X11331421Y-9080889D01*
X11331421Y-9080889D02*
X11331421Y-9042793D01*
X11331421Y-9042793D02*
X11321897Y-9023746D01*
X11321897Y-9023746D02*
X11312374Y-9014222D01*
X11312374Y-9014222D02*
X11293326Y-9004698D01*
X11569516Y-9118984D02*
X11569516Y-8918984D01*
X11655231Y-9118984D02*
X11655231Y-9014222D01*
X11655231Y-9014222D02*
X11645707Y-8995174D01*
X11645707Y-8995174D02*
X11626659Y-8985650D01*
X11626659Y-8985650D02*
X11598088Y-8985650D01*
X11598088Y-8985650D02*
X11579040Y-8995174D01*
X11579040Y-8995174D02*
X11569516Y-9004698D01*
X11779040Y-9118984D02*
X11759993Y-9109460D01*
X11759993Y-9109460D02*
X11750469Y-9099936D01*
X11750469Y-9099936D02*
X11740945Y-9080889D01*
X11740945Y-9080889D02*
X11740945Y-9023746D01*
X11740945Y-9023746D02*
X11750469Y-9004698D01*
X11750469Y-9004698D02*
X11759993Y-8995174D01*
X11759993Y-8995174D02*
X11779040Y-8985650D01*
X11779040Y-8985650D02*
X11807612Y-8985650D01*
X11807612Y-8985650D02*
X11826659Y-8995174D01*
X11826659Y-8995174D02*
X11836183Y-9004698D01*
X11836183Y-9004698D02*
X11845707Y-9023746D01*
X11845707Y-9023746D02*
X11845707Y-9080889D01*
X11845707Y-9080889D02*
X11836183Y-9099936D01*
X11836183Y-9099936D02*
X11826659Y-9109460D01*
X11826659Y-9109460D02*
X11807612Y-9118984D01*
X11807612Y-9118984D02*
X11779040Y-9118984D01*
X11959993Y-9118984D02*
X11940945Y-9109460D01*
X11940945Y-9109460D02*
X11931421Y-9090412D01*
X11931421Y-9090412D02*
X11931421Y-8918984D01*
X12112374Y-9109460D02*
X12093326Y-9118984D01*
X12093326Y-9118984D02*
X12055231Y-9118984D01*
X12055231Y-9118984D02*
X12036183Y-9109460D01*
X12036183Y-9109460D02*
X12026659Y-9090412D01*
X12026659Y-9090412D02*
X12026659Y-9014222D01*
X12026659Y-9014222D02*
X12036183Y-8995174D01*
X12036183Y-8995174D02*
X12055231Y-8985650D01*
X12055231Y-8985650D02*
X12093326Y-8985650D01*
X12093326Y-8985650D02*
X12112374Y-8995174D01*
X12112374Y-8995174D02*
X12121897Y-9014222D01*
X12121897Y-9014222D02*
X12121897Y-9033270D01*
X12121897Y-9033270D02*
X12026659Y-9052317D01*
X12198088Y-9109460D02*
X12217136Y-9118984D01*
X12217136Y-9118984D02*
X12255231Y-9118984D01*
X12255231Y-9118984D02*
X12274278Y-9109460D01*
X12274278Y-9109460D02*
X12283802Y-9090412D01*
X12283802Y-9090412D02*
X12283802Y-9080889D01*
X12283802Y-9080889D02*
X12274278Y-9061841D01*
X12274278Y-9061841D02*
X12255231Y-9052317D01*
X12255231Y-9052317D02*
X12226659Y-9052317D01*
X12226659Y-9052317D02*
X12207612Y-9042793D01*
X12207612Y-9042793D02*
X12198088Y-9023746D01*
X12198088Y-9023746D02*
X12198088Y-9014222D01*
X12198088Y-9014222D02*
X12207612Y-8995174D01*
X12207612Y-8995174D02*
X12226659Y-8985650D01*
X12226659Y-8985650D02*
X12255231Y-8985650D01*
X12255231Y-8985650D02*
X12274278Y-8995174D01*
X12350469Y-9195174D02*
X12359993Y-9185650D01*
X12359993Y-9185650D02*
X12379040Y-9157079D01*
X12379040Y-9157079D02*
X12388564Y-9138031D01*
X12388564Y-9138031D02*
X12398088Y-9109460D01*
X12398088Y-9109460D02*
X12407612Y-9061841D01*
X12407612Y-9061841D02*
X12407612Y-9023746D01*
X12407612Y-9023746D02*
X12398088Y-8976127D01*
X12398088Y-8976127D02*
X12388564Y-8947555D01*
X12388564Y-8947555D02*
X12379040Y-8928508D01*
X12379040Y-8928508D02*
X12359993Y-8899936D01*
X12359993Y-8899936D02*
X12350469Y-8890412D01*
D13*
X7371750Y-9323320D02*
X7371750Y-9259680D01*
X7308110Y-9259680D01*
X7308110Y-9323320D01*
X7371750Y-9323320D01*
D12*
X7683802Y-9182984D02*
X7702849Y-9182984D01*
X7702849Y-9182984D02*
X7721897Y-9192508D01*
X7721897Y-9192508D02*
X7731421Y-9202031D01*
X7731421Y-9202031D02*
X7740945Y-9221079D01*
X7740945Y-9221079D02*
X7750468Y-9259174D01*
X7750468Y-9259174D02*
X7750468Y-9306793D01*
X7750468Y-9306793D02*
X7740945Y-9344889D01*
X7740945Y-9344889D02*
X7731421Y-9363936D01*
X7731421Y-9363936D02*
X7721897Y-9373460D01*
X7721897Y-9373460D02*
X7702849Y-9382984D01*
X7702849Y-9382984D02*
X7683802Y-9382984D01*
X7683802Y-9382984D02*
X7664754Y-9373460D01*
X7664754Y-9373460D02*
X7655230Y-9363936D01*
X7655230Y-9363936D02*
X7645707Y-9344889D01*
X7645707Y-9344889D02*
X7636183Y-9306793D01*
X7636183Y-9306793D02*
X7636183Y-9259174D01*
X7636183Y-9259174D02*
X7645707Y-9221079D01*
X7645707Y-9221079D02*
X7655230Y-9202031D01*
X7655230Y-9202031D02*
X7664754Y-9192508D01*
X7664754Y-9192508D02*
X7683802Y-9182984D01*
X7836183Y-9363936D02*
X7845707Y-9373460D01*
X7845707Y-9373460D02*
X7836183Y-9382984D01*
X7836183Y-9382984D02*
X7826659Y-9373460D01*
X7826659Y-9373460D02*
X7836183Y-9363936D01*
X7836183Y-9363936D02*
X7836183Y-9382984D01*
X7940945Y-9382984D02*
X7979040Y-9382984D01*
X7979040Y-9382984D02*
X7998088Y-9373460D01*
X7998088Y-9373460D02*
X8007611Y-9363936D01*
X8007611Y-9363936D02*
X8026659Y-9335365D01*
X8026659Y-9335365D02*
X8036183Y-9297270D01*
X8036183Y-9297270D02*
X8036183Y-9221079D01*
X8036183Y-9221079D02*
X8026659Y-9202031D01*
X8026659Y-9202031D02*
X8017135Y-9192508D01*
X8017135Y-9192508D02*
X7998088Y-9182984D01*
X7998088Y-9182984D02*
X7959992Y-9182984D01*
X7959992Y-9182984D02*
X7940945Y-9192508D01*
X7940945Y-9192508D02*
X7931421Y-9202031D01*
X7931421Y-9202031D02*
X7921897Y-9221079D01*
X7921897Y-9221079D02*
X7921897Y-9268698D01*
X7921897Y-9268698D02*
X7931421Y-9287746D01*
X7931421Y-9287746D02*
X7940945Y-9297270D01*
X7940945Y-9297270D02*
X7959992Y-9306793D01*
X7959992Y-9306793D02*
X7998088Y-9306793D01*
X7998088Y-9306793D02*
X8017135Y-9297270D01*
X8017135Y-9297270D02*
X8026659Y-9287746D01*
X8026659Y-9287746D02*
X8036183Y-9268698D01*
X8159992Y-9182984D02*
X8179040Y-9182984D01*
X8179040Y-9182984D02*
X8198088Y-9192508D01*
X8198088Y-9192508D02*
X8207611Y-9202031D01*
X8207611Y-9202031D02*
X8217135Y-9221079D01*
X8217135Y-9221079D02*
X8226659Y-9259174D01*
X8226659Y-9259174D02*
X8226659Y-9306793D01*
X8226659Y-9306793D02*
X8217135Y-9344889D01*
X8217135Y-9344889D02*
X8207611Y-9363936D01*
X8207611Y-9363936D02*
X8198088Y-9373460D01*
X8198088Y-9373460D02*
X8179040Y-9382984D01*
X8179040Y-9382984D02*
X8159992Y-9382984D01*
X8159992Y-9382984D02*
X8140945Y-9373460D01*
X8140945Y-9373460D02*
X8131421Y-9363936D01*
X8131421Y-9363936D02*
X8121897Y-9344889D01*
X8121897Y-9344889D02*
X8112373Y-9306793D01*
X8112373Y-9306793D02*
X8112373Y-9259174D01*
X8112373Y-9259174D02*
X8121897Y-9221079D01*
X8121897Y-9221079D02*
X8131421Y-9202031D01*
X8131421Y-9202031D02*
X8140945Y-9192508D01*
X8140945Y-9192508D02*
X8159992Y-9182984D01*
X8350468Y-9182984D02*
X8369516Y-9182984D01*
X8369516Y-9182984D02*
X8388564Y-9192508D01*
X8388564Y-9192508D02*
X8398088Y-9202031D01*
X8398088Y-9202031D02*
X8407611Y-9221079D01*
X8407611Y-9221079D02*
X8417135Y-9259174D01*
X8417135Y-9259174D02*
X8417135Y-9306793D01*
X8417135Y-9306793D02*
X8407611Y-9344889D01*
X8407611Y-9344889D02*
X8398088Y-9363936D01*
X8398088Y-9363936D02*
X8388564Y-9373460D01*
X8388564Y-9373460D02*
X8369516Y-9382984D01*
X8369516Y-9382984D02*
X8350468Y-9382984D01*
X8350468Y-9382984D02*
X8331421Y-9373460D01*
X8331421Y-9373460D02*
X8321897Y-9363936D01*
X8321897Y-9363936D02*
X8312373Y-9344889D01*
X8312373Y-9344889D02*
X8302849Y-9306793D01*
X8302849Y-9306793D02*
X8302849Y-9259174D01*
X8302849Y-9259174D02*
X8312373Y-9221079D01*
X8312373Y-9221079D02*
X8321897Y-9202031D01*
X8321897Y-9202031D02*
X8331421Y-9192508D01*
X8331421Y-9192508D02*
X8350468Y-9182984D01*
X8502850Y-9382984D02*
X8502850Y-9249650D01*
X8502850Y-9268698D02*
X8512373Y-9259174D01*
X8512373Y-9259174D02*
X8531421Y-9249650D01*
X8531421Y-9249650D02*
X8559992Y-9249650D01*
X8559992Y-9249650D02*
X8579040Y-9259174D01*
X8579040Y-9259174D02*
X8588564Y-9278222D01*
X8588564Y-9278222D02*
X8588564Y-9382984D01*
X8588564Y-9278222D02*
X8598088Y-9259174D01*
X8598088Y-9259174D02*
X8617135Y-9249650D01*
X8617135Y-9249650D02*
X8645707Y-9249650D01*
X8645707Y-9249650D02*
X8664754Y-9259174D01*
X8664754Y-9259174D02*
X8674278Y-9278222D01*
X8674278Y-9278222D02*
X8674278Y-9382984D01*
X8769516Y-9382984D02*
X8769516Y-9249650D01*
X8769516Y-9268698D02*
X8779040Y-9259174D01*
X8779040Y-9259174D02*
X8798088Y-9249650D01*
X8798088Y-9249650D02*
X8826659Y-9249650D01*
X8826659Y-9249650D02*
X8845707Y-9259174D01*
X8845707Y-9259174D02*
X8855231Y-9278222D01*
X8855231Y-9278222D02*
X8855231Y-9382984D01*
X8855231Y-9278222D02*
X8864754Y-9259174D01*
X8864754Y-9259174D02*
X8883802Y-9249650D01*
X8883802Y-9249650D02*
X8912373Y-9249650D01*
X8912373Y-9249650D02*
X8931421Y-9259174D01*
X8931421Y-9259174D02*
X8940945Y-9278222D01*
X8940945Y-9278222D02*
X8940945Y-9382984D01*
X9331421Y-9173460D02*
X9159993Y-9430603D01*
X9588564Y-9182984D02*
X9607612Y-9182984D01*
X9607612Y-9182984D02*
X9626659Y-9192508D01*
X9626659Y-9192508D02*
X9636183Y-9202031D01*
X9636183Y-9202031D02*
X9645707Y-9221079D01*
X9645707Y-9221079D02*
X9655231Y-9259174D01*
X9655231Y-9259174D02*
X9655231Y-9306793D01*
X9655231Y-9306793D02*
X9645707Y-9344889D01*
X9645707Y-9344889D02*
X9636183Y-9363936D01*
X9636183Y-9363936D02*
X9626659Y-9373460D01*
X9626659Y-9373460D02*
X9607612Y-9382984D01*
X9607612Y-9382984D02*
X9588564Y-9382984D01*
X9588564Y-9382984D02*
X9569516Y-9373460D01*
X9569516Y-9373460D02*
X9559993Y-9363936D01*
X9559993Y-9363936D02*
X9550469Y-9344889D01*
X9550469Y-9344889D02*
X9540945Y-9306793D01*
X9540945Y-9306793D02*
X9540945Y-9259174D01*
X9540945Y-9259174D02*
X9550469Y-9221079D01*
X9550469Y-9221079D02*
X9559993Y-9202031D01*
X9559993Y-9202031D02*
X9569516Y-9192508D01*
X9569516Y-9192508D02*
X9588564Y-9182984D01*
X9740945Y-9363936D02*
X9750469Y-9373460D01*
X9750469Y-9373460D02*
X9740945Y-9382984D01*
X9740945Y-9382984D02*
X9731421Y-9373460D01*
X9731421Y-9373460D02*
X9740945Y-9363936D01*
X9740945Y-9363936D02*
X9740945Y-9382984D01*
X9874278Y-9182984D02*
X9893326Y-9182984D01*
X9893326Y-9182984D02*
X9912374Y-9192508D01*
X9912374Y-9192508D02*
X9921897Y-9202031D01*
X9921897Y-9202031D02*
X9931421Y-9221079D01*
X9931421Y-9221079D02*
X9940945Y-9259174D01*
X9940945Y-9259174D02*
X9940945Y-9306793D01*
X9940945Y-9306793D02*
X9931421Y-9344889D01*
X9931421Y-9344889D02*
X9921897Y-9363936D01*
X9921897Y-9363936D02*
X9912374Y-9373460D01*
X9912374Y-9373460D02*
X9893326Y-9382984D01*
X9893326Y-9382984D02*
X9874278Y-9382984D01*
X9874278Y-9382984D02*
X9855231Y-9373460D01*
X9855231Y-9373460D02*
X9845707Y-9363936D01*
X9845707Y-9363936D02*
X9836183Y-9344889D01*
X9836183Y-9344889D02*
X9826659Y-9306793D01*
X9826659Y-9306793D02*
X9826659Y-9259174D01*
X9826659Y-9259174D02*
X9836183Y-9221079D01*
X9836183Y-9221079D02*
X9845707Y-9202031D01*
X9845707Y-9202031D02*
X9855231Y-9192508D01*
X9855231Y-9192508D02*
X9874278Y-9182984D01*
X10007612Y-9182984D02*
X10131421Y-9182984D01*
X10131421Y-9182984D02*
X10064754Y-9259174D01*
X10064754Y-9259174D02*
X10093326Y-9259174D01*
X10093326Y-9259174D02*
X10112374Y-9268698D01*
X10112374Y-9268698D02*
X10121897Y-9278222D01*
X10121897Y-9278222D02*
X10131421Y-9297270D01*
X10131421Y-9297270D02*
X10131421Y-9344889D01*
X10131421Y-9344889D02*
X10121897Y-9363936D01*
X10121897Y-9363936D02*
X10112374Y-9373460D01*
X10112374Y-9373460D02*
X10093326Y-9382984D01*
X10093326Y-9382984D02*
X10036183Y-9382984D01*
X10036183Y-9382984D02*
X10017135Y-9373460D01*
X10017135Y-9373460D02*
X10007612Y-9363936D01*
X10312374Y-9182984D02*
X10217135Y-9182984D01*
X10217135Y-9182984D02*
X10207612Y-9278222D01*
X10207612Y-9278222D02*
X10217135Y-9268698D01*
X10217135Y-9268698D02*
X10236183Y-9259174D01*
X10236183Y-9259174D02*
X10283802Y-9259174D01*
X10283802Y-9259174D02*
X10302850Y-9268698D01*
X10302850Y-9268698D02*
X10312374Y-9278222D01*
X10312374Y-9278222D02*
X10321897Y-9297270D01*
X10321897Y-9297270D02*
X10321897Y-9344889D01*
X10321897Y-9344889D02*
X10312374Y-9363936D01*
X10312374Y-9363936D02*
X10302850Y-9373460D01*
X10302850Y-9373460D02*
X10283802Y-9382984D01*
X10283802Y-9382984D02*
X10236183Y-9382984D01*
X10236183Y-9382984D02*
X10217135Y-9373460D01*
X10217135Y-9373460D02*
X10207612Y-9363936D01*
X10493326Y-9249650D02*
X10493326Y-9382984D01*
X10445707Y-9173460D02*
X10398088Y-9316317D01*
X10398088Y-9316317D02*
X10521897Y-9316317D01*
X10588564Y-9182984D02*
X10588564Y-9221079D01*
X10664755Y-9182984D02*
X10664755Y-9221079D01*
X10959993Y-9459174D02*
X10950469Y-9449650D01*
X10950469Y-9449650D02*
X10931421Y-9421079D01*
X10931421Y-9421079D02*
X10921897Y-9402031D01*
X10921897Y-9402031D02*
X10912374Y-9373460D01*
X10912374Y-9373460D02*
X10902850Y-9325841D01*
X10902850Y-9325841D02*
X10902850Y-9287746D01*
X10902850Y-9287746D02*
X10912374Y-9240127D01*
X10912374Y-9240127D02*
X10921897Y-9211555D01*
X10921897Y-9211555D02*
X10931421Y-9192508D01*
X10931421Y-9192508D02*
X10950469Y-9163936D01*
X10950469Y-9163936D02*
X10959993Y-9154412D01*
X11026659Y-9202031D02*
X11036183Y-9192508D01*
X11036183Y-9192508D02*
X11055231Y-9182984D01*
X11055231Y-9182984D02*
X11102850Y-9182984D01*
X11102850Y-9182984D02*
X11121897Y-9192508D01*
X11121897Y-9192508D02*
X11131421Y-9202031D01*
X11131421Y-9202031D02*
X11140945Y-9221079D01*
X11140945Y-9221079D02*
X11140945Y-9240127D01*
X11140945Y-9240127D02*
X11131421Y-9268698D01*
X11131421Y-9268698D02*
X11017136Y-9382984D01*
X11017136Y-9382984D02*
X11140945Y-9382984D01*
X11264754Y-9182984D02*
X11283802Y-9182984D01*
X11283802Y-9182984D02*
X11302850Y-9192508D01*
X11302850Y-9192508D02*
X11312374Y-9202031D01*
X11312374Y-9202031D02*
X11321897Y-9221079D01*
X11321897Y-9221079D02*
X11331421Y-9259174D01*
X11331421Y-9259174D02*
X11331421Y-9306793D01*
X11331421Y-9306793D02*
X11321897Y-9344889D01*
X11321897Y-9344889D02*
X11312374Y-9363936D01*
X11312374Y-9363936D02*
X11302850Y-9373460D01*
X11302850Y-9373460D02*
X11283802Y-9382984D01*
X11283802Y-9382984D02*
X11264754Y-9382984D01*
X11264754Y-9382984D02*
X11245707Y-9373460D01*
X11245707Y-9373460D02*
X11236183Y-9363936D01*
X11236183Y-9363936D02*
X11226659Y-9344889D01*
X11226659Y-9344889D02*
X11217135Y-9306793D01*
X11217135Y-9306793D02*
X11217135Y-9259174D01*
X11217135Y-9259174D02*
X11226659Y-9221079D01*
X11226659Y-9221079D02*
X11236183Y-9202031D01*
X11236183Y-9202031D02*
X11245707Y-9192508D01*
X11245707Y-9192508D02*
X11264754Y-9182984D01*
X11569516Y-9382984D02*
X11569516Y-9182984D01*
X11655231Y-9382984D02*
X11655231Y-9278222D01*
X11655231Y-9278222D02*
X11645707Y-9259174D01*
X11645707Y-9259174D02*
X11626659Y-9249650D01*
X11626659Y-9249650D02*
X11598088Y-9249650D01*
X11598088Y-9249650D02*
X11579040Y-9259174D01*
X11579040Y-9259174D02*
X11569516Y-9268698D01*
X11779040Y-9382984D02*
X11759993Y-9373460D01*
X11759993Y-9373460D02*
X11750469Y-9363936D01*
X11750469Y-9363936D02*
X11740945Y-9344889D01*
X11740945Y-9344889D02*
X11740945Y-9287746D01*
X11740945Y-9287746D02*
X11750469Y-9268698D01*
X11750469Y-9268698D02*
X11759993Y-9259174D01*
X11759993Y-9259174D02*
X11779040Y-9249650D01*
X11779040Y-9249650D02*
X11807612Y-9249650D01*
X11807612Y-9249650D02*
X11826659Y-9259174D01*
X11826659Y-9259174D02*
X11836183Y-9268698D01*
X11836183Y-9268698D02*
X11845707Y-9287746D01*
X11845707Y-9287746D02*
X11845707Y-9344889D01*
X11845707Y-9344889D02*
X11836183Y-9363936D01*
X11836183Y-9363936D02*
X11826659Y-9373460D01*
X11826659Y-9373460D02*
X11807612Y-9382984D01*
X11807612Y-9382984D02*
X11779040Y-9382984D01*
X11959993Y-9382984D02*
X11940945Y-9373460D01*
X11940945Y-9373460D02*
X11931421Y-9354412D01*
X11931421Y-9354412D02*
X11931421Y-9182984D01*
X12112374Y-9373460D02*
X12093326Y-9382984D01*
X12093326Y-9382984D02*
X12055231Y-9382984D01*
X12055231Y-9382984D02*
X12036183Y-9373460D01*
X12036183Y-9373460D02*
X12026659Y-9354412D01*
X12026659Y-9354412D02*
X12026659Y-9278222D01*
X12026659Y-9278222D02*
X12036183Y-9259174D01*
X12036183Y-9259174D02*
X12055231Y-9249650D01*
X12055231Y-9249650D02*
X12093326Y-9249650D01*
X12093326Y-9249650D02*
X12112374Y-9259174D01*
X12112374Y-9259174D02*
X12121897Y-9278222D01*
X12121897Y-9278222D02*
X12121897Y-9297270D01*
X12121897Y-9297270D02*
X12026659Y-9316317D01*
X12198088Y-9373460D02*
X12217136Y-9382984D01*
X12217136Y-9382984D02*
X12255231Y-9382984D01*
X12255231Y-9382984D02*
X12274278Y-9373460D01*
X12274278Y-9373460D02*
X12283802Y-9354412D01*
X12283802Y-9354412D02*
X12283802Y-9344889D01*
X12283802Y-9344889D02*
X12274278Y-9325841D01*
X12274278Y-9325841D02*
X12255231Y-9316317D01*
X12255231Y-9316317D02*
X12226659Y-9316317D01*
X12226659Y-9316317D02*
X12207612Y-9306793D01*
X12207612Y-9306793D02*
X12198088Y-9287746D01*
X12198088Y-9287746D02*
X12198088Y-9278222D01*
X12198088Y-9278222D02*
X12207612Y-9259174D01*
X12207612Y-9259174D02*
X12226659Y-9249650D01*
X12226659Y-9249650D02*
X12255231Y-9249650D01*
X12255231Y-9249650D02*
X12274278Y-9259174D01*
X12350469Y-9459174D02*
X12359993Y-9449650D01*
X12359993Y-9449650D02*
X12379040Y-9421079D01*
X12379040Y-9421079D02*
X12388564Y-9402031D01*
X12388564Y-9402031D02*
X12398088Y-9373460D01*
X12398088Y-9373460D02*
X12407612Y-9325841D01*
X12407612Y-9325841D02*
X12407612Y-9287746D01*
X12407612Y-9287746D02*
X12398088Y-9240127D01*
X12398088Y-9240127D02*
X12388564Y-9211555D01*
X12388564Y-9211555D02*
X12379040Y-9192508D01*
X12379040Y-9192508D02*
X12359993Y-9163936D01*
X12359993Y-9163936D02*
X12350469Y-9154412D01*
D13*
X7334930Y-9605500D02*
X7384930Y-9555500D01*
X7334930Y-9505500D01*
X7284930Y-9555500D01*
X7334930Y-9605500D01*
D12*
X7750468Y-9646984D02*
X7636183Y-9646984D01*
X7693326Y-9646984D02*
X7693326Y-9446984D01*
X7693326Y-9446984D02*
X7674278Y-9475555D01*
X7674278Y-9475555D02*
X7655230Y-9494603D01*
X7655230Y-9494603D02*
X7636183Y-9504127D01*
X7836183Y-9627936D02*
X7845707Y-9637460D01*
X7845707Y-9637460D02*
X7836183Y-9646984D01*
X7836183Y-9646984D02*
X7826659Y-9637460D01*
X7826659Y-9637460D02*
X7836183Y-9627936D01*
X7836183Y-9627936D02*
X7836183Y-9646984D01*
X7969516Y-9446984D02*
X7988564Y-9446984D01*
X7988564Y-9446984D02*
X8007611Y-9456508D01*
X8007611Y-9456508D02*
X8017135Y-9466031D01*
X8017135Y-9466031D02*
X8026659Y-9485079D01*
X8026659Y-9485079D02*
X8036183Y-9523174D01*
X8036183Y-9523174D02*
X8036183Y-9570793D01*
X8036183Y-9570793D02*
X8026659Y-9608889D01*
X8026659Y-9608889D02*
X8017135Y-9627936D01*
X8017135Y-9627936D02*
X8007611Y-9637460D01*
X8007611Y-9637460D02*
X7988564Y-9646984D01*
X7988564Y-9646984D02*
X7969516Y-9646984D01*
X7969516Y-9646984D02*
X7950468Y-9637460D01*
X7950468Y-9637460D02*
X7940945Y-9627936D01*
X7940945Y-9627936D02*
X7931421Y-9608889D01*
X7931421Y-9608889D02*
X7921897Y-9570793D01*
X7921897Y-9570793D02*
X7921897Y-9523174D01*
X7921897Y-9523174D02*
X7931421Y-9485079D01*
X7931421Y-9485079D02*
X7940945Y-9466031D01*
X7940945Y-9466031D02*
X7950468Y-9456508D01*
X7950468Y-9456508D02*
X7969516Y-9446984D01*
X8159992Y-9446984D02*
X8179040Y-9446984D01*
X8179040Y-9446984D02*
X8198088Y-9456508D01*
X8198088Y-9456508D02*
X8207611Y-9466031D01*
X8207611Y-9466031D02*
X8217135Y-9485079D01*
X8217135Y-9485079D02*
X8226659Y-9523174D01*
X8226659Y-9523174D02*
X8226659Y-9570793D01*
X8226659Y-9570793D02*
X8217135Y-9608889D01*
X8217135Y-9608889D02*
X8207611Y-9627936D01*
X8207611Y-9627936D02*
X8198088Y-9637460D01*
X8198088Y-9637460D02*
X8179040Y-9646984D01*
X8179040Y-9646984D02*
X8159992Y-9646984D01*
X8159992Y-9646984D02*
X8140945Y-9637460D01*
X8140945Y-9637460D02*
X8131421Y-9627936D01*
X8131421Y-9627936D02*
X8121897Y-9608889D01*
X8121897Y-9608889D02*
X8112373Y-9570793D01*
X8112373Y-9570793D02*
X8112373Y-9523174D01*
X8112373Y-9523174D02*
X8121897Y-9485079D01*
X8121897Y-9485079D02*
X8131421Y-9466031D01*
X8131421Y-9466031D02*
X8140945Y-9456508D01*
X8140945Y-9456508D02*
X8159992Y-9446984D01*
X8350468Y-9446984D02*
X8369516Y-9446984D01*
X8369516Y-9446984D02*
X8388564Y-9456508D01*
X8388564Y-9456508D02*
X8398088Y-9466031D01*
X8398088Y-9466031D02*
X8407611Y-9485079D01*
X8407611Y-9485079D02*
X8417135Y-9523174D01*
X8417135Y-9523174D02*
X8417135Y-9570793D01*
X8417135Y-9570793D02*
X8407611Y-9608889D01*
X8407611Y-9608889D02*
X8398088Y-9627936D01*
X8398088Y-9627936D02*
X8388564Y-9637460D01*
X8388564Y-9637460D02*
X8369516Y-9646984D01*
X8369516Y-9646984D02*
X8350468Y-9646984D01*
X8350468Y-9646984D02*
X8331421Y-9637460D01*
X8331421Y-9637460D02*
X8321897Y-9627936D01*
X8321897Y-9627936D02*
X8312373Y-9608889D01*
X8312373Y-9608889D02*
X8302849Y-9570793D01*
X8302849Y-9570793D02*
X8302849Y-9523174D01*
X8302849Y-9523174D02*
X8312373Y-9485079D01*
X8312373Y-9485079D02*
X8321897Y-9466031D01*
X8321897Y-9466031D02*
X8331421Y-9456508D01*
X8331421Y-9456508D02*
X8350468Y-9446984D01*
X8502850Y-9646984D02*
X8502850Y-9513650D01*
X8502850Y-9532698D02*
X8512373Y-9523174D01*
X8512373Y-9523174D02*
X8531421Y-9513650D01*
X8531421Y-9513650D02*
X8559992Y-9513650D01*
X8559992Y-9513650D02*
X8579040Y-9523174D01*
X8579040Y-9523174D02*
X8588564Y-9542222D01*
X8588564Y-9542222D02*
X8588564Y-9646984D01*
X8588564Y-9542222D02*
X8598088Y-9523174D01*
X8598088Y-9523174D02*
X8617135Y-9513650D01*
X8617135Y-9513650D02*
X8645707Y-9513650D01*
X8645707Y-9513650D02*
X8664754Y-9523174D01*
X8664754Y-9523174D02*
X8674278Y-9542222D01*
X8674278Y-9542222D02*
X8674278Y-9646984D01*
X8769516Y-9646984D02*
X8769516Y-9513650D01*
X8769516Y-9532698D02*
X8779040Y-9523174D01*
X8779040Y-9523174D02*
X8798088Y-9513650D01*
X8798088Y-9513650D02*
X8826659Y-9513650D01*
X8826659Y-9513650D02*
X8845707Y-9523174D01*
X8845707Y-9523174D02*
X8855231Y-9542222D01*
X8855231Y-9542222D02*
X8855231Y-9646984D01*
X8855231Y-9542222D02*
X8864754Y-9523174D01*
X8864754Y-9523174D02*
X8883802Y-9513650D01*
X8883802Y-9513650D02*
X8912373Y-9513650D01*
X8912373Y-9513650D02*
X8931421Y-9523174D01*
X8931421Y-9523174D02*
X8940945Y-9542222D01*
X8940945Y-9542222D02*
X8940945Y-9646984D01*
X9331421Y-9437460D02*
X9159993Y-9694603D01*
X9588564Y-9446984D02*
X9607612Y-9446984D01*
X9607612Y-9446984D02*
X9626659Y-9456508D01*
X9626659Y-9456508D02*
X9636183Y-9466031D01*
X9636183Y-9466031D02*
X9645707Y-9485079D01*
X9645707Y-9485079D02*
X9655231Y-9523174D01*
X9655231Y-9523174D02*
X9655231Y-9570793D01*
X9655231Y-9570793D02*
X9645707Y-9608889D01*
X9645707Y-9608889D02*
X9636183Y-9627936D01*
X9636183Y-9627936D02*
X9626659Y-9637460D01*
X9626659Y-9637460D02*
X9607612Y-9646984D01*
X9607612Y-9646984D02*
X9588564Y-9646984D01*
X9588564Y-9646984D02*
X9569516Y-9637460D01*
X9569516Y-9637460D02*
X9559993Y-9627936D01*
X9559993Y-9627936D02*
X9550469Y-9608889D01*
X9550469Y-9608889D02*
X9540945Y-9570793D01*
X9540945Y-9570793D02*
X9540945Y-9523174D01*
X9540945Y-9523174D02*
X9550469Y-9485079D01*
X9550469Y-9485079D02*
X9559993Y-9466031D01*
X9559993Y-9466031D02*
X9569516Y-9456508D01*
X9569516Y-9456508D02*
X9588564Y-9446984D01*
X9740945Y-9627936D02*
X9750469Y-9637460D01*
X9750469Y-9637460D02*
X9740945Y-9646984D01*
X9740945Y-9646984D02*
X9731421Y-9637460D01*
X9731421Y-9637460D02*
X9740945Y-9627936D01*
X9740945Y-9627936D02*
X9740945Y-9646984D01*
X9874278Y-9446984D02*
X9893326Y-9446984D01*
X9893326Y-9446984D02*
X9912374Y-9456508D01*
X9912374Y-9456508D02*
X9921897Y-9466031D01*
X9921897Y-9466031D02*
X9931421Y-9485079D01*
X9931421Y-9485079D02*
X9940945Y-9523174D01*
X9940945Y-9523174D02*
X9940945Y-9570793D01*
X9940945Y-9570793D02*
X9931421Y-9608889D01*
X9931421Y-9608889D02*
X9921897Y-9627936D01*
X9921897Y-9627936D02*
X9912374Y-9637460D01*
X9912374Y-9637460D02*
X9893326Y-9646984D01*
X9893326Y-9646984D02*
X9874278Y-9646984D01*
X9874278Y-9646984D02*
X9855231Y-9637460D01*
X9855231Y-9637460D02*
X9845707Y-9627936D01*
X9845707Y-9627936D02*
X9836183Y-9608889D01*
X9836183Y-9608889D02*
X9826659Y-9570793D01*
X9826659Y-9570793D02*
X9826659Y-9523174D01*
X9826659Y-9523174D02*
X9836183Y-9485079D01*
X9836183Y-9485079D02*
X9845707Y-9466031D01*
X9845707Y-9466031D02*
X9855231Y-9456508D01*
X9855231Y-9456508D02*
X9874278Y-9446984D01*
X10007612Y-9446984D02*
X10131421Y-9446984D01*
X10131421Y-9446984D02*
X10064754Y-9523174D01*
X10064754Y-9523174D02*
X10093326Y-9523174D01*
X10093326Y-9523174D02*
X10112374Y-9532698D01*
X10112374Y-9532698D02*
X10121897Y-9542222D01*
X10121897Y-9542222D02*
X10131421Y-9561270D01*
X10131421Y-9561270D02*
X10131421Y-9608889D01*
X10131421Y-9608889D02*
X10121897Y-9627936D01*
X10121897Y-9627936D02*
X10112374Y-9637460D01*
X10112374Y-9637460D02*
X10093326Y-9646984D01*
X10093326Y-9646984D02*
X10036183Y-9646984D01*
X10036183Y-9646984D02*
X10017135Y-9637460D01*
X10017135Y-9637460D02*
X10007612Y-9627936D01*
X10226659Y-9646984D02*
X10264754Y-9646984D01*
X10264754Y-9646984D02*
X10283802Y-9637460D01*
X10283802Y-9637460D02*
X10293326Y-9627936D01*
X10293326Y-9627936D02*
X10312374Y-9599365D01*
X10312374Y-9599365D02*
X10321897Y-9561270D01*
X10321897Y-9561270D02*
X10321897Y-9485079D01*
X10321897Y-9485079D02*
X10312374Y-9466031D01*
X10312374Y-9466031D02*
X10302850Y-9456508D01*
X10302850Y-9456508D02*
X10283802Y-9446984D01*
X10283802Y-9446984D02*
X10245707Y-9446984D01*
X10245707Y-9446984D02*
X10226659Y-9456508D01*
X10226659Y-9456508D02*
X10217135Y-9466031D01*
X10217135Y-9466031D02*
X10207612Y-9485079D01*
X10207612Y-9485079D02*
X10207612Y-9532698D01*
X10207612Y-9532698D02*
X10217135Y-9551746D01*
X10217135Y-9551746D02*
X10226659Y-9561270D01*
X10226659Y-9561270D02*
X10245707Y-9570793D01*
X10245707Y-9570793D02*
X10283802Y-9570793D01*
X10283802Y-9570793D02*
X10302850Y-9561270D01*
X10302850Y-9561270D02*
X10312374Y-9551746D01*
X10312374Y-9551746D02*
X10321897Y-9532698D01*
X10493326Y-9513650D02*
X10493326Y-9646984D01*
X10445707Y-9437460D02*
X10398088Y-9580317D01*
X10398088Y-9580317D02*
X10521897Y-9580317D01*
X10588564Y-9446984D02*
X10588564Y-9485079D01*
X10664755Y-9446984D02*
X10664755Y-9485079D01*
X10959993Y-9723174D02*
X10950469Y-9713650D01*
X10950469Y-9713650D02*
X10931421Y-9685079D01*
X10931421Y-9685079D02*
X10921897Y-9666031D01*
X10921897Y-9666031D02*
X10912374Y-9637460D01*
X10912374Y-9637460D02*
X10902850Y-9589841D01*
X10902850Y-9589841D02*
X10902850Y-9551746D01*
X10902850Y-9551746D02*
X10912374Y-9504127D01*
X10912374Y-9504127D02*
X10921897Y-9475555D01*
X10921897Y-9475555D02*
X10931421Y-9456508D01*
X10931421Y-9456508D02*
X10950469Y-9427936D01*
X10950469Y-9427936D02*
X10959993Y-9418412D01*
X11017136Y-9446984D02*
X11140945Y-9446984D01*
X11140945Y-9446984D02*
X11074278Y-9523174D01*
X11074278Y-9523174D02*
X11102850Y-9523174D01*
X11102850Y-9523174D02*
X11121897Y-9532698D01*
X11121897Y-9532698D02*
X11131421Y-9542222D01*
X11131421Y-9542222D02*
X11140945Y-9561270D01*
X11140945Y-9561270D02*
X11140945Y-9608889D01*
X11140945Y-9608889D02*
X11131421Y-9627936D01*
X11131421Y-9627936D02*
X11121897Y-9637460D01*
X11121897Y-9637460D02*
X11102850Y-9646984D01*
X11102850Y-9646984D02*
X11045707Y-9646984D01*
X11045707Y-9646984D02*
X11026659Y-9637460D01*
X11026659Y-9637460D02*
X11017136Y-9627936D01*
X11379040Y-9646984D02*
X11379040Y-9446984D01*
X11464755Y-9646984D02*
X11464755Y-9542222D01*
X11464755Y-9542222D02*
X11455231Y-9523174D01*
X11455231Y-9523174D02*
X11436183Y-9513650D01*
X11436183Y-9513650D02*
X11407612Y-9513650D01*
X11407612Y-9513650D02*
X11388564Y-9523174D01*
X11388564Y-9523174D02*
X11379040Y-9532698D01*
X11588564Y-9646984D02*
X11569516Y-9637460D01*
X11569516Y-9637460D02*
X11559993Y-9627936D01*
X11559993Y-9627936D02*
X11550469Y-9608889D01*
X11550469Y-9608889D02*
X11550469Y-9551746D01*
X11550469Y-9551746D02*
X11559993Y-9532698D01*
X11559993Y-9532698D02*
X11569516Y-9523174D01*
X11569516Y-9523174D02*
X11588564Y-9513650D01*
X11588564Y-9513650D02*
X11617136Y-9513650D01*
X11617136Y-9513650D02*
X11636183Y-9523174D01*
X11636183Y-9523174D02*
X11645707Y-9532698D01*
X11645707Y-9532698D02*
X11655231Y-9551746D01*
X11655231Y-9551746D02*
X11655231Y-9608889D01*
X11655231Y-9608889D02*
X11645707Y-9627936D01*
X11645707Y-9627936D02*
X11636183Y-9637460D01*
X11636183Y-9637460D02*
X11617136Y-9646984D01*
X11617136Y-9646984D02*
X11588564Y-9646984D01*
X11769516Y-9646984D02*
X11750469Y-9637460D01*
X11750469Y-9637460D02*
X11740945Y-9618412D01*
X11740945Y-9618412D02*
X11740945Y-9446984D01*
X11921897Y-9637460D02*
X11902850Y-9646984D01*
X11902850Y-9646984D02*
X11864755Y-9646984D01*
X11864755Y-9646984D02*
X11845707Y-9637460D01*
X11845707Y-9637460D02*
X11836183Y-9618412D01*
X11836183Y-9618412D02*
X11836183Y-9542222D01*
X11836183Y-9542222D02*
X11845707Y-9523174D01*
X11845707Y-9523174D02*
X11864755Y-9513650D01*
X11864755Y-9513650D02*
X11902850Y-9513650D01*
X11902850Y-9513650D02*
X11921897Y-9523174D01*
X11921897Y-9523174D02*
X11931421Y-9542222D01*
X11931421Y-9542222D02*
X11931421Y-9561270D01*
X11931421Y-9561270D02*
X11836183Y-9580317D01*
X12007612Y-9637460D02*
X12026659Y-9646984D01*
X12026659Y-9646984D02*
X12064755Y-9646984D01*
X12064755Y-9646984D02*
X12083802Y-9637460D01*
X12083802Y-9637460D02*
X12093326Y-9618412D01*
X12093326Y-9618412D02*
X12093326Y-9608889D01*
X12093326Y-9608889D02*
X12083802Y-9589841D01*
X12083802Y-9589841D02*
X12064755Y-9580317D01*
X12064755Y-9580317D02*
X12036183Y-9580317D01*
X12036183Y-9580317D02*
X12017136Y-9570793D01*
X12017136Y-9570793D02*
X12007612Y-9551746D01*
X12007612Y-9551746D02*
X12007612Y-9542222D01*
X12007612Y-9542222D02*
X12017136Y-9523174D01*
X12017136Y-9523174D02*
X12036183Y-9513650D01*
X12036183Y-9513650D02*
X12064755Y-9513650D01*
X12064755Y-9513650D02*
X12083802Y-9523174D01*
X12159993Y-9723174D02*
X12169517Y-9713650D01*
X12169517Y-9713650D02*
X12188564Y-9685079D01*
X12188564Y-9685079D02*
X12198088Y-9666031D01*
X12198088Y-9666031D02*
X12207612Y-9637460D01*
X12207612Y-9637460D02*
X12217136Y-9589841D01*
X12217136Y-9589841D02*
X12217136Y-9551746D01*
X12217136Y-9551746D02*
X12207612Y-9504127D01*
X12207612Y-9504127D02*
X12198088Y-9475555D01*
X12198088Y-9475555D02*
X12188564Y-9456508D01*
X12188564Y-9456508D02*
X12169517Y-9427936D01*
X12169517Y-9427936D02*
X12159993Y-9418412D01*
M02*
