%TF.GenerationSoftware,KiCad,Pcbnew,9.0.6*%
%TF.CreationDate,2026-01-05T01:28:45+00:00*%
%TF.ProjectId,BLINKER,424c494e-4b45-4522-9e6b-696361645f70,rev?*%
%TF.SameCoordinates,Original*%
%TF.FileFunction,Copper,L1,Top*%
%TF.FilePolarity,Positive*%
%FSLAX46Y46*%
G04 Gerber Fmt 4.6, Leading zero omitted, Abs format (unit mm)*
G04 Created by KiCad (PCBNEW 9.0.6) date 2026-01-05 01:28:45*
%MOMM*%
%LPD*%
G01*
G04 APERTURE LIST*
G04 Aperture macros list*
%AMRoundRect*
0 Rectangle with rounded corners*
0 $1 Rounding radius*
0 $2 $3 $4 $5 $6 $7 $8 $9 X,Y pos of 4 corners*
0 Add a 4 corners polygon primitive as box body*
4,1,4,$2,$3,$4,$5,$6,$7,$8,$9,$2,$3,0*
0 Add four circle primitives for the rounded corners*
1,1,$1+$1,$2,$3*
1,1,$1+$1,$4,$5*
1,1,$1+$1,$6,$7*
1,1,$1+$1,$8,$9*
0 Add four rect primitives between the rounded corners*
20,1,$1+$1,$2,$3,$4,$5,0*
20,1,$1+$1,$4,$5,$6,$7,0*
20,1,$1+$1,$6,$7,$8,$9,0*
20,1,$1+$1,$8,$9,$2,$3,0*%
G04 Aperture macros list end*
%TA.AperFunction,ComponentPad*%
%ADD10RoundRect,0.250000X0.550000X-0.550000X0.550000X0.550000X-0.550000X0.550000X-0.550000X-0.550000X0*%
%TD*%
%TA.AperFunction,ComponentPad*%
%ADD11C,1.600000*%
%TD*%
%TA.AperFunction,ComponentPad*%
%ADD12C,1.800000*%
%TD*%
%TA.AperFunction,ComponentPad*%
%ADD13R,1.800000X1.800000*%
%TD*%
%TA.AperFunction,ComponentPad*%
%ADD14RoundRect,0.250000X-0.550000X-0.550000X0.550000X-0.550000X0.550000X0.550000X-0.550000X0.550000X0*%
%TD*%
%TA.AperFunction,ComponentPad*%
%ADD15R,1.700000X1.700000*%
%TD*%
%TA.AperFunction,ComponentPad*%
%ADD16R,1.295400X1.295400*%
%TD*%
%TA.AperFunction,ComponentPad*%
%ADD17C,1.295400*%
%TD*%
%TA.AperFunction,ViaPad*%
%ADD18C,0.600000*%
%TD*%
%TA.AperFunction,Conductor*%
%ADD19C,0.200000*%
%TD*%
G04 APERTURE END LIST*
D10*
%TO.P,U1,1,GND*%
%TO.N,GND*%
X143865600Y-53030200D03*
D11*
%TO.P,U1,2,TR*%
%TO.N,TR*%
X146405600Y-53030200D03*
%TO.P,U1,3,Q*%
%TO.N,OUT*%
X148945600Y-53030200D03*
%TO.P,U1,4,R*%
%TO.N,+5V*%
X151485600Y-53030200D03*
%TO.P,U1,5,CV*%
%TO.N,Net-(U1-CV)*%
X151485600Y-45410200D03*
%TO.P,U1,6,THR*%
%TO.N,TR*%
X148945600Y-45410200D03*
%TO.P,U1,7,DIS*%
%TO.N,Net-(U1-DIS)*%
X146405600Y-45410200D03*
%TO.P,U1,8,VCC*%
%TO.N,+5V*%
X143865600Y-45410200D03*
%TD*%
%TO.P,R4,2*%
%TO.N,GND*%
X113995200Y-58064400D03*
%TO.P,R4,1*%
%TO.N,Net-(D1-K)*%
X106375200Y-58064400D03*
%TD*%
D12*
%TO.P,D9,2,A*%
%TO.N,Net-(D9-A)*%
X159004000Y-65481200D03*
D13*
%TO.P,D9,1,K*%
%TO.N,Net-(D1-K)*%
X156464000Y-65481200D03*
%TD*%
D12*
%TO.P,D6,2,A*%
%TO.N,Net-(D6-A)*%
X153314400Y-31699200D03*
D13*
%TO.P,D6,1,K*%
%TO.N,Net-(D1-K)*%
X150774400Y-31699200D03*
%TD*%
D12*
%TO.P,D3,2,A*%
%TO.N,Net-(D3-A)*%
X95046800Y-31699200D03*
D13*
%TO.P,D3,1,K*%
%TO.N,Net-(D1-K)*%
X92506800Y-31699200D03*
%TD*%
D12*
%TO.P,D4,2,A*%
%TO.N,Net-(D4-A)*%
X115163600Y-28549600D03*
D13*
%TO.P,D4,1,K*%
%TO.N,Net-(D1-K)*%
X112623600Y-28549600D03*
%TD*%
D11*
%TO.P,C4,2*%
%TO.N,Net-(U1-CV)*%
X156953200Y-47225200D03*
D10*
%TO.P,C4,1*%
%TO.N,GND*%
X156953200Y-49225200D03*
%TD*%
D11*
%TO.P,C3,2*%
%TO.N,GND*%
X148192313Y-57607200D03*
D14*
%TO.P,C3,1*%
%TO.N,TR*%
X146192313Y-57607200D03*
%TD*%
D11*
%TO.P,RV1,2,2*%
%TO.N,Net-(U1-DIS)*%
X144830800Y-40538400D03*
%TO.P,RV1,1,1*%
X137210800Y-40538400D03*
%TD*%
%TO.P,R1,2*%
%TO.N,Net-(U1-DIS)*%
X147421600Y-40589200D03*
%TO.P,R1,1*%
%TO.N,+5V*%
X155041600Y-40589200D03*
%TD*%
D13*
%TO.P,D2,1,K*%
%TO.N,Net-(D1-K)*%
X81076800Y-39217600D03*
D12*
%TO.P,D2,2,A*%
%TO.N,Net-(D2-A)*%
X83616800Y-39217600D03*
%TD*%
D13*
%TO.P,D5,1,K*%
%TO.N,Net-(D1-K)*%
X130505200Y-28549600D03*
D12*
%TO.P,D5,2,A*%
%TO.N,Net-(D5-A)*%
X133045200Y-28549600D03*
%TD*%
D15*
%TO.P,TP2,1,1*%
%TO.N,GND*%
X127740000Y-66140000D03*
%TD*%
D13*
%TO.P,D1,1,K*%
%TO.N,Net-(D1-K)*%
X76149200Y-52628800D03*
D12*
%TO.P,D1,2,A*%
%TO.N,Net-(D1-A)*%
X78689200Y-52628800D03*
%TD*%
D13*
%TO.P,D7,1,K*%
%TO.N,Net-(D1-K)*%
X162001200Y-39116000D03*
D12*
%TO.P,D7,2,A*%
%TO.N,Net-(D7-A)*%
X164541200Y-39116000D03*
%TD*%
D13*
%TO.P,D8,1,K*%
%TO.N,Net-(D1-K)*%
X166827200Y-52628800D03*
D12*
%TO.P,D8,2,A*%
%TO.N,Net-(D8-A)*%
X169367200Y-52628800D03*
%TD*%
D13*
%TO.P,D10,1,K*%
%TO.N,Net-(D1-K)*%
X88239600Y-65481200D03*
D12*
%TO.P,D10,2,A*%
%TO.N,Net-(D10-A)*%
X90779600Y-65481200D03*
%TD*%
D15*
%TO.P,TP1,1,1*%
%TO.N,+5V*%
X118240000Y-66010000D03*
%TD*%
D16*
%TO.P,U2,1,Q5*%
%TO.N,Net-(D6-A)*%
X119329200Y-37998400D03*
D17*
%TO.P,U2,2,Q1*%
%TO.N,Net-(D2-A)*%
X119329200Y-40538400D03*
%TO.P,U2,3,Q0*%
%TO.N,Net-(D1-A)*%
X119329200Y-43078400D03*
%TO.P,U2,4,Q2*%
%TO.N,Net-(D3-A)*%
X119329200Y-45618400D03*
%TO.P,U2,5,Q6*%
%TO.N,Net-(D7-A)*%
X119329200Y-48158400D03*
%TO.P,U2,6,Q7*%
%TO.N,Net-(D8-A)*%
X119329200Y-50698400D03*
%TO.P,U2,7,Q3*%
%TO.N,Net-(D4-A)*%
X119329200Y-53238400D03*
%TO.P,U2,8,VSS*%
%TO.N,GND*%
X119329200Y-55778400D03*
%TO.P,U2,9,Q8*%
%TO.N,Net-(D9-A)*%
X126949200Y-55778400D03*
%TO.P,U2,10,Q4*%
%TO.N,Net-(D5-A)*%
X126949200Y-53238400D03*
%TO.P,U2,11,Q9*%
%TO.N,Net-(D10-A)*%
X126949200Y-50698400D03*
%TO.P,U2,12,Cout*%
%TO.N,unconnected-(U2-Cout-Pad12)*%
X126949200Y-48158400D03*
%TO.P,U2,13,CKEN*%
%TO.N,GND*%
X126949200Y-45618400D03*
%TO.P,U2,14,CLK*%
%TO.N,OUT*%
X126949200Y-43078400D03*
%TO.P,U2,15,Reset*%
%TO.N,GND*%
X126949200Y-40538400D03*
%TO.P,U2,16,VDD*%
%TO.N,+5V*%
X126949200Y-37998400D03*
%TD*%
D15*
%TO.P,TP3,1,1*%
%TO.N,OUT*%
X123250000Y-70360000D03*
%TD*%
D18*
%TO.N,*%
X203320000Y-49800000D03*
%TO.N,GND*%
X124790000Y-48260000D03*
X78530000Y-40160000D03*
X86070000Y-32290000D03*
X83630000Y-33950000D03*
X97280000Y-36060000D03*
X137880000Y-33170000D03*
X109480000Y-32840000D03*
X105260000Y-35610000D03*
%TO.N,Net-(D5-A)*%
X129692400Y-44450000D03*
X131064000Y-37185600D03*
%TD*%
D19*
%TO.N,Net-(D8-A)*%
X127473700Y-49749700D02*
X120277900Y-49749700D01*
X120277900Y-49749700D02*
X119329200Y-50698400D01*
X139192000Y-61468000D02*
X127473700Y-49749700D01*
X160528000Y-61468000D02*
X139192000Y-61468000D01*
X169367200Y-52628800D02*
X160528000Y-61468000D01*
%TO.N,Net-(D5-A)*%
X131064000Y-43078400D02*
X129692400Y-44450000D01*
X131064000Y-37185600D02*
X131064000Y-43078400D01*
%TO.N,Net-(D7-A)*%
X128609100Y-47209700D02*
X120277900Y-47209700D01*
X155446850Y-39437400D02*
X136381400Y-39437400D01*
X156326450Y-40317000D02*
X155446850Y-39437400D01*
X136381400Y-39437400D02*
X128609100Y-47209700D01*
X163340200Y-40317000D02*
X156326450Y-40317000D01*
X120277900Y-47209700D02*
X119329200Y-48158400D01*
X164541200Y-39116000D02*
X163340200Y-40317000D01*
%TO.N,TR*%
X146405600Y-47950200D02*
X148945600Y-45410200D01*
X146405600Y-53030200D02*
X146405600Y-47950200D01*
X146192313Y-57607200D02*
X146192313Y-53243487D01*
%TO.N,Net-(U1-CV)*%
X155189000Y-45410200D02*
X151485600Y-45410200D01*
X155498800Y-45720000D02*
X155189000Y-45410200D01*
X155498800Y-45770800D02*
X155498800Y-45720000D01*
X156953200Y-47225200D02*
X155498800Y-45770800D01*
%TO.N,Net-(U1-DIS)*%
X147421600Y-44394200D02*
X146405600Y-45410200D01*
X147421600Y-40589200D02*
X147421600Y-44394200D01*
X137210800Y-40538400D02*
X144830800Y-40538400D01*
X144830800Y-40538400D02*
X147370800Y-40538400D01*
%TO.N,Net-(D6-A)*%
X119329200Y-35814000D02*
X119329200Y-37998400D01*
X119735600Y-35407600D02*
X119329200Y-35814000D01*
X149606000Y-35407600D02*
X119735600Y-35407600D01*
X153314400Y-31699200D02*
X149606000Y-35407600D01*
%TO.N,Net-(D2-A)*%
X118008400Y-39217600D02*
X119329200Y-40538400D01*
X83616800Y-39217600D02*
X118008400Y-39217600D01*
%TO.N,Net-(D10-A)*%
X115620800Y-62026800D02*
X126949200Y-50698400D01*
X94234000Y-62026800D02*
X115620800Y-62026800D01*
X90779600Y-65481200D02*
X94234000Y-62026800D01*
%TO.N,Net-(D1-K)*%
X95656400Y-58064400D02*
X106375200Y-58064400D01*
X88239600Y-65481200D02*
X95656400Y-58064400D01*
X157665000Y-66682200D02*
X156464000Y-65481200D01*
X159501471Y-66682200D02*
X157665000Y-66682200D01*
X166776400Y-59407271D02*
X159501471Y-66682200D01*
X166776400Y-57505600D02*
X166776400Y-59407271D01*
X170568200Y-53713800D02*
X166776400Y-57505600D01*
X169864671Y-51427800D02*
X170568200Y-52131329D01*
X168028200Y-51427800D02*
X169864671Y-51427800D01*
X166827200Y-52628800D02*
X168028200Y-51427800D01*
X170568200Y-52131329D02*
X170568200Y-53713800D01*
X166827200Y-39703529D02*
X166827200Y-52628800D01*
X165038671Y-37915000D02*
X166827200Y-39703529D01*
X163202200Y-37915000D02*
X165038671Y-37915000D01*
X162001200Y-39116000D02*
X163202200Y-37915000D01*
X153811871Y-30498200D02*
X162001200Y-38687529D01*
X151975400Y-30498200D02*
X153811871Y-30498200D01*
X150774400Y-31699200D02*
X151975400Y-30498200D01*
X149199600Y-30124400D02*
X150774400Y-31699200D01*
X138397400Y-27348600D02*
X141173200Y-30124400D01*
X131706200Y-27348600D02*
X138397400Y-27348600D01*
X141173200Y-30124400D02*
X149199600Y-30124400D01*
X130505200Y-28549600D02*
X131706200Y-27348600D01*
X130505200Y-30530800D02*
X130505200Y-28549600D01*
X127355600Y-33680400D02*
X130505200Y-30530800D01*
X118821200Y-33680400D02*
X127355600Y-33680400D01*
X118821200Y-28752800D02*
X118821200Y-33680400D01*
X117417000Y-27348600D02*
X118821200Y-28752800D01*
X113824600Y-27348600D02*
X117417000Y-27348600D01*
X112623600Y-28549600D02*
X113824600Y-27348600D01*
X76149200Y-52628800D02*
X88239600Y-64719200D01*
X95656400Y-28549600D02*
X112623600Y-28549600D01*
X92506800Y-31699200D02*
X95656400Y-28549600D01*
X88595200Y-31699200D02*
X92506800Y-31699200D01*
X81076800Y-39217600D02*
X88595200Y-31699200D01*
X76149200Y-44145200D02*
X81076800Y-39217600D01*
X76149200Y-52628800D02*
X76149200Y-44145200D01*
%TO.N,Net-(D1-A)*%
X109778800Y-52628800D02*
X119329200Y-43078400D01*
X78689200Y-52628800D02*
X109778800Y-52628800D01*
%TD*%
%TA.AperFunction,Conductor*%
%TO.N,GND*%
G36*
X129097422Y-24255504D02*
G01*
X129105936Y-24256122D01*
X134436264Y-24829542D01*
X134445012Y-24830800D01*
X141560984Y-26114649D01*
X141564657Y-26115369D01*
X150586249Y-28029222D01*
X150589329Y-28029917D01*
X153748376Y-28786050D01*
X153753480Y-28787388D01*
X155983386Y-29423214D01*
X155991821Y-29425949D01*
X157793415Y-30082645D01*
X157802637Y-30086435D01*
X159488893Y-30859956D01*
X159505431Y-30869128D01*
X164000611Y-33831878D01*
X164013386Y-33841537D01*
X164550009Y-34304640D01*
X164553232Y-34307521D01*
X165095487Y-34809506D01*
X165098608Y-34812498D01*
X165623017Y-35333063D01*
X165626022Y-35336151D01*
X166050132Y-35787574D01*
X166132021Y-35874736D01*
X166134913Y-35877925D01*
X166606100Y-36415864D01*
X166621782Y-36433767D01*
X166624561Y-36437052D01*
X167078396Y-36993154D01*
X167091808Y-37009588D01*
X167094480Y-37012982D01*
X167513628Y-37564785D01*
X167541259Y-37601160D01*
X167543819Y-37604655D01*
X167968681Y-38206522D01*
X167971121Y-38210110D01*
X168374487Y-38826202D01*
X168376800Y-38829873D01*
X168758384Y-39459737D01*
X168760567Y-39463488D01*
X169119852Y-40106272D01*
X169121903Y-40110096D01*
X169226591Y-40313815D01*
X169365236Y-40583614D01*
X169458506Y-40765113D01*
X169460419Y-40769004D01*
X169748325Y-41381037D01*
X169773878Y-41435356D01*
X169775649Y-41439298D01*
X169836417Y-41581166D01*
X170065625Y-42116272D01*
X170067210Y-42120152D01*
X170341232Y-42824773D01*
X170342636Y-42828564D01*
X170593567Y-43541801D01*
X170594846Y-43545635D01*
X170822390Y-44266644D01*
X170823544Y-44270518D01*
X171027481Y-44998612D01*
X171028507Y-45002522D01*
X171208587Y-45736802D01*
X171209486Y-45740742D01*
X171365549Y-46480547D01*
X171366319Y-46484515D01*
X171498165Y-47228895D01*
X171498854Y-47233233D01*
X171571711Y-47750671D01*
X171572282Y-47755380D01*
X171625280Y-48275079D01*
X171625671Y-48279806D01*
X171658548Y-48797889D01*
X171658769Y-48803107D01*
X171705840Y-51017572D01*
X171705830Y-51023288D01*
X171669234Y-52495535D01*
X171668891Y-52509330D01*
X171667365Y-52514986D01*
X171667257Y-52575061D01*
X171667221Y-52576512D01*
X171665634Y-52640394D01*
X171665852Y-52645563D01*
X171655112Y-53144383D01*
X171654910Y-53149274D01*
X171620696Y-53709397D01*
X171620346Y-53710364D01*
X171620302Y-53714276D01*
X171564002Y-54272678D01*
X171563414Y-54277538D01*
X171485054Y-54833747D01*
X171484387Y-54837960D01*
X171401344Y-55309380D01*
X171400660Y-55312954D01*
X171303718Y-55782235D01*
X171302930Y-55785787D01*
X171193350Y-56247437D01*
X171192104Y-56252254D01*
X170715152Y-57954530D01*
X170713298Y-57960552D01*
X170368005Y-58988709D01*
X170363376Y-59002491D01*
X170359955Y-59007945D01*
X170342476Y-59064720D01*
X170341958Y-59066265D01*
X170341959Y-59066265D01*
X170322080Y-59125460D01*
X170320407Y-59131841D01*
X170200080Y-59495465D01*
X170198346Y-59500359D01*
X170041127Y-59916226D01*
X170039190Y-59921043D01*
X169864706Y-60329952D01*
X169862569Y-60334684D01*
X169671206Y-60735750D01*
X169668693Y-60740724D01*
X169343186Y-61350787D01*
X169340259Y-61355970D01*
X168985964Y-61949520D01*
X168982791Y-61954557D01*
X168600411Y-62530432D01*
X168597001Y-62535310D01*
X168197227Y-63078845D01*
X168187445Y-63092144D01*
X168183804Y-63096853D01*
X167747971Y-63633423D01*
X167744108Y-63637952D01*
X167282956Y-64153069D01*
X167279051Y-64157234D01*
X166778514Y-64667045D01*
X166774601Y-64670859D01*
X166251981Y-65158221D01*
X166247903Y-65161859D01*
X165704331Y-65625709D01*
X165700097Y-65629164D01*
X165136608Y-66068620D01*
X165132226Y-66071885D01*
X164549907Y-66486097D01*
X164545385Y-66489165D01*
X163945630Y-66877157D01*
X163941142Y-66879927D01*
X163282933Y-67267060D01*
X163278499Y-67269547D01*
X162605214Y-67629250D01*
X162600683Y-67631553D01*
X161913194Y-67963374D01*
X161908571Y-67965489D01*
X161208100Y-68268837D01*
X161203396Y-68270761D01*
X160491054Y-68545157D01*
X160486274Y-68546887D01*
X159763043Y-68791938D01*
X159758685Y-68793325D01*
X158963767Y-69030373D01*
X158959856Y-69031470D01*
X158157326Y-69242422D01*
X158153380Y-69243390D01*
X157344420Y-69427930D01*
X157340446Y-69428769D01*
X156525822Y-69586722D01*
X156521821Y-69587430D01*
X155702468Y-69718610D01*
X155698447Y-69719186D01*
X154878964Y-69822986D01*
X154874053Y-69823509D01*
X154050456Y-69894649D01*
X154045315Y-69894986D01*
X153143988Y-69935221D01*
X153139467Y-69935340D01*
X152313284Y-69942064D01*
X152302013Y-69941643D01*
X152226112Y-69935340D01*
X152127609Y-69927160D01*
X150787808Y-69815899D01*
X150765763Y-69812041D01*
X149678719Y-69518688D01*
X149671092Y-69516365D01*
X146972724Y-68598462D01*
X146963500Y-68594908D01*
X146416227Y-68358587D01*
X146416227Y-68358586D01*
X146404263Y-68353420D01*
X146400113Y-68350272D01*
X146343848Y-68327333D01*
X146323068Y-68318360D01*
X146288070Y-68303247D01*
X146283780Y-68302029D01*
X146270844Y-68297570D01*
X144241276Y-67470130D01*
X144228021Y-67463786D01*
X141585862Y-66000767D01*
X141581956Y-65998510D01*
X140520068Y-65358978D01*
X140518705Y-65358157D01*
X140468482Y-65326148D01*
X140462340Y-65324210D01*
X140456819Y-65320885D01*
X140456816Y-65320884D01*
X140401121Y-65304851D01*
X140398117Y-65303945D01*
X140342808Y-65286495D01*
X140336525Y-65285385D01*
X140330174Y-65284429D01*
X140272210Y-65283357D01*
X140269074Y-65283259D01*
X140211144Y-65280719D01*
X140204804Y-65281272D01*
X140198416Y-65281993D01*
X140142139Y-65295963D01*
X140139083Y-65296680D01*
X140082483Y-65309217D01*
X140076436Y-65311416D01*
X140070511Y-65313744D01*
X140019765Y-65341803D01*
X140019766Y-65341804D01*
X140018370Y-65342575D01*
X139965575Y-65370046D01*
X139960822Y-65374398D01*
X139955184Y-65377517D01*
X139955182Y-65377519D01*
X139913430Y-65417754D01*
X139911141Y-65419904D01*
X139241549Y-66033228D01*
X139194073Y-66076714D01*
X139191815Y-66078732D01*
X138918013Y-66317496D01*
X138913355Y-66321362D01*
X138629401Y-66545551D01*
X138624569Y-66549178D01*
X138590404Y-66573543D01*
X138330718Y-66758736D01*
X138324106Y-66763138D01*
X138082460Y-66913099D01*
X138073898Y-66917953D01*
X137821913Y-67047868D01*
X137812994Y-67052027D01*
X137551564Y-67161523D01*
X137542503Y-67164909D01*
X137264119Y-67256733D01*
X137254984Y-67259363D01*
X136970422Y-67329584D01*
X136961114Y-67331505D01*
X136671031Y-67379887D01*
X136663721Y-67380884D01*
X136276495Y-67421991D01*
X136271268Y-67422434D01*
X135881640Y-67447190D01*
X135876398Y-67447412D01*
X135488926Y-67455603D01*
X135483492Y-67455599D01*
X134830102Y-67440771D01*
X134830102Y-67440770D01*
X134816407Y-67440459D01*
X134810838Y-67438968D01*
X134750623Y-67438968D01*
X134747171Y-67438889D01*
X134733344Y-67438576D01*
X134732044Y-67438540D01*
X134524533Y-67431654D01*
X134516323Y-67431108D01*
X134300990Y-67409602D01*
X134292833Y-67408513D01*
X134079268Y-67372750D01*
X134071480Y-67371188D01*
X133934574Y-67339134D01*
X133927180Y-67337160D01*
X133792398Y-67296687D01*
X133785139Y-67294261D01*
X133652098Y-67245177D01*
X133646806Y-67243085D01*
X133454108Y-67161762D01*
X133450695Y-67160261D01*
X133259550Y-67072734D01*
X133256186Y-67071132D01*
X133075251Y-66981608D01*
X133069374Y-66978501D01*
X132944016Y-66907873D01*
X132172471Y-66473175D01*
X132159944Y-66464144D01*
X132159776Y-66464388D01*
X132153093Y-66459763D01*
X132153091Y-66459762D01*
X132153088Y-66459760D01*
X132153086Y-66459759D01*
X132105229Y-66435183D01*
X132101013Y-66432915D01*
X132099880Y-66432277D01*
X132080092Y-66421128D01*
X132077913Y-66419871D01*
X131974446Y-66358705D01*
X131962224Y-66350462D01*
X131857337Y-66270251D01*
X131846191Y-66260625D01*
X131751558Y-66168525D01*
X131741627Y-66157639D01*
X131659510Y-66056090D01*
X131649572Y-66041868D01*
X131592206Y-65946145D01*
X131583362Y-65928267D01*
X131542599Y-65825875D01*
X131536736Y-65806813D01*
X131522026Y-65740364D01*
X131512126Y-65695643D01*
X131510008Y-65683011D01*
X131509415Y-65677853D01*
X131476244Y-65389283D01*
X131475727Y-65383643D01*
X131472849Y-65341804D01*
X131455190Y-65085051D01*
X131454931Y-65079388D01*
X131454929Y-65079319D01*
X131448046Y-64778765D01*
X131448015Y-64775926D01*
X131448015Y-64747174D01*
X131448016Y-64711437D01*
X131413908Y-64584143D01*
X131348016Y-64470015D01*
X131254830Y-64376829D01*
X131174344Y-64330360D01*
X131140703Y-64310937D01*
X131077055Y-64293883D01*
X131013408Y-64276829D01*
X131013404Y-64276829D01*
X130881620Y-64276829D01*
X130754326Y-64310938D01*
X130754324Y-64310938D01*
X130754324Y-64310939D01*
X130640196Y-64376831D01*
X130547012Y-64470016D01*
X130481120Y-64584146D01*
X130481119Y-64584146D01*
X130447014Y-64711437D01*
X130447014Y-64792534D01*
X130447009Y-64952773D01*
X130447014Y-64952898D01*
X130447014Y-69380389D01*
X130427329Y-69447428D01*
X130374969Y-69492980D01*
X126686281Y-71195113D01*
X126664843Y-71202708D01*
X126656737Y-71204766D01*
X126656729Y-71204769D01*
X126620526Y-71225038D01*
X126611910Y-71229430D01*
X126574224Y-71246821D01*
X126574221Y-71246823D01*
X126567782Y-71252182D01*
X126549056Y-71265056D01*
X126541748Y-71269148D01*
X126541741Y-71269153D01*
X126512008Y-71298112D01*
X126508535Y-71301493D01*
X126472933Y-71331127D01*
X126461522Y-71347283D01*
X126453339Y-71355254D01*
X126453340Y-71355254D01*
X126447345Y-71361092D01*
X126447339Y-71361100D01*
X126426106Y-71396781D01*
X126423630Y-71400940D01*
X126396913Y-71438775D01*
X126390074Y-71457329D01*
X126384234Y-71467144D01*
X126384233Y-71467148D01*
X122823764Y-77450494D01*
X122772565Y-77498039D01*
X122703790Y-77510356D01*
X122639273Y-77483536D01*
X122613165Y-77454553D01*
X119188037Y-72172920D01*
X118798813Y-71572726D01*
X118792081Y-71560988D01*
X118789716Y-71556288D01*
X118789714Y-71556282D01*
X118789710Y-71556276D01*
X118756478Y-71507391D01*
X118755711Y-71506263D01*
X118722834Y-71455565D01*
X118718730Y-71451865D01*
X118715625Y-71447297D01*
X118715622Y-71447294D01*
X118715620Y-71447292D01*
X118670882Y-71408686D01*
X118668862Y-71406905D01*
X118624956Y-71367321D01*
X118620604Y-71364326D01*
X118620568Y-71364301D01*
X118620319Y-71364129D01*
X118620263Y-71364097D01*
X118615853Y-71361201D01*
X118562665Y-71335498D01*
X118560255Y-71334301D01*
X118507573Y-71307417D01*
X118502598Y-71305652D01*
X118490109Y-71300437D01*
X115219262Y-69719834D01*
X115207026Y-69708757D01*
X115192011Y-69701900D01*
X115181659Y-69685791D01*
X115167465Y-69672942D01*
X115162828Y-69656490D01*
X115154237Y-69643122D01*
X115149214Y-69608187D01*
X115149214Y-69462135D01*
X121899500Y-69462135D01*
X121899500Y-71257870D01*
X121899501Y-71257876D01*
X121905908Y-71317483D01*
X121956202Y-71452328D01*
X121956206Y-71452335D01*
X122042452Y-71567544D01*
X122042455Y-71567547D01*
X122157664Y-71653793D01*
X122157671Y-71653797D01*
X122292517Y-71704091D01*
X122292516Y-71704091D01*
X122299444Y-71704835D01*
X122352127Y-71710500D01*
X124147872Y-71710499D01*
X124207483Y-71704091D01*
X124342331Y-71653796D01*
X124457546Y-71567546D01*
X124543796Y-71452331D01*
X124594091Y-71317483D01*
X124600500Y-71257873D01*
X124600499Y-69462128D01*
X124594091Y-69402517D01*
X124579408Y-69363151D01*
X124543797Y-69267671D01*
X124543793Y-69267664D01*
X124457547Y-69152455D01*
X124457544Y-69152452D01*
X124342335Y-69066206D01*
X124342328Y-69066202D01*
X124207482Y-69015908D01*
X124207483Y-69015908D01*
X124147883Y-69009501D01*
X124147881Y-69009500D01*
X124147873Y-69009500D01*
X124147864Y-69009500D01*
X122352129Y-69009500D01*
X122352123Y-69009501D01*
X122292516Y-69015908D01*
X122157671Y-69066202D01*
X122157664Y-69066206D01*
X122042455Y-69152452D01*
X122042452Y-69152455D01*
X121956206Y-69267664D01*
X121956202Y-69267671D01*
X121905908Y-69402517D01*
X121901080Y-69447428D01*
X121899501Y-69462123D01*
X121899500Y-69462135D01*
X115149214Y-69462135D01*
X115149214Y-65112135D01*
X116889500Y-65112135D01*
X116889500Y-66907870D01*
X116889501Y-66907876D01*
X116895908Y-66967483D01*
X116946202Y-67102328D01*
X116946206Y-67102335D01*
X117032452Y-67217544D01*
X117032455Y-67217547D01*
X117147664Y-67303793D01*
X117147671Y-67303797D01*
X117282517Y-67354091D01*
X117282516Y-67354091D01*
X117289444Y-67354835D01*
X117342127Y-67360500D01*
X119137872Y-67360499D01*
X119197483Y-67354091D01*
X119332331Y-67303796D01*
X119447546Y-67217546D01*
X119533796Y-67102331D01*
X119584091Y-66967483D01*
X119590500Y-66907873D01*
X119590499Y-66000767D01*
X119590499Y-65242155D01*
X126390000Y-65242155D01*
X126390000Y-65890000D01*
X127306988Y-65890000D01*
X127274075Y-65947007D01*
X127240000Y-66074174D01*
X127240000Y-66205826D01*
X127274075Y-66332993D01*
X127306988Y-66390000D01*
X126390000Y-66390000D01*
X126390000Y-67037844D01*
X126396401Y-67097372D01*
X126396403Y-67097379D01*
X126446645Y-67232086D01*
X126446649Y-67232093D01*
X126532809Y-67347187D01*
X126532812Y-67347190D01*
X126647906Y-67433350D01*
X126647913Y-67433354D01*
X126782620Y-67483596D01*
X126782627Y-67483598D01*
X126842155Y-67489999D01*
X126842172Y-67490000D01*
X127490000Y-67490000D01*
X127490000Y-66573012D01*
X127547007Y-66605925D01*
X127674174Y-66640000D01*
X127805826Y-66640000D01*
X127932993Y-66605925D01*
X127990000Y-66573012D01*
X127990000Y-67490000D01*
X128637828Y-67490000D01*
X128637844Y-67489999D01*
X128697372Y-67483598D01*
X128697379Y-67483596D01*
X128832086Y-67433354D01*
X128832093Y-67433350D01*
X128947187Y-67347190D01*
X128947190Y-67347187D01*
X129033350Y-67232093D01*
X129033354Y-67232086D01*
X129083596Y-67097379D01*
X129083598Y-67097372D01*
X129089999Y-67037844D01*
X129090000Y-67037827D01*
X129090000Y-66390000D01*
X128173012Y-66390000D01*
X128205925Y-66332993D01*
X128240000Y-66205826D01*
X128240000Y-66074174D01*
X128205925Y-65947007D01*
X128173012Y-65890000D01*
X129090000Y-65890000D01*
X129090000Y-65242172D01*
X129089999Y-65242155D01*
X129083598Y-65182627D01*
X129083596Y-65182620D01*
X129033354Y-65047913D01*
X129033350Y-65047906D01*
X128947190Y-64932812D01*
X128947187Y-64932809D01*
X128832093Y-64846649D01*
X128832086Y-64846645D01*
X128697379Y-64796403D01*
X128697372Y-64796401D01*
X128637844Y-64790000D01*
X127990000Y-64790000D01*
X127990000Y-65706988D01*
X127932993Y-65674075D01*
X127805826Y-65640000D01*
X127674174Y-65640000D01*
X127547007Y-65674075D01*
X127490000Y-65706988D01*
X127490000Y-64790000D01*
X126842155Y-64790000D01*
X126782627Y-64796401D01*
X126782620Y-64796403D01*
X126647913Y-64846645D01*
X126647906Y-64846649D01*
X126532812Y-64932809D01*
X126532809Y-64932812D01*
X126446649Y-65047906D01*
X126446645Y-65047913D01*
X126396403Y-65182620D01*
X126396401Y-65182627D01*
X126390000Y-65242155D01*
X119590499Y-65242155D01*
X119590499Y-65238851D01*
X119590499Y-65112129D01*
X119590498Y-65112123D01*
X119590497Y-65112116D01*
X119584091Y-65052517D01*
X119582371Y-65047906D01*
X119533797Y-64917671D01*
X119533793Y-64917664D01*
X119447547Y-64802455D01*
X119447544Y-64802452D01*
X119332335Y-64716206D01*
X119332328Y-64716202D01*
X119197482Y-64665908D01*
X119197483Y-64665908D01*
X119137883Y-64659501D01*
X119137881Y-64659500D01*
X119137873Y-64659500D01*
X119137864Y-64659500D01*
X117342129Y-64659500D01*
X117342123Y-64659501D01*
X117282516Y-64665908D01*
X117147671Y-64716202D01*
X117147664Y-64716206D01*
X117032455Y-64802452D01*
X117032452Y-64802455D01*
X116946206Y-64917664D01*
X116946202Y-64917671D01*
X116895908Y-65052517D01*
X116892715Y-65082220D01*
X116889501Y-65112123D01*
X116889500Y-65112135D01*
X115149214Y-65112135D01*
X115149214Y-65002008D01*
X115149235Y-64999750D01*
X115150331Y-64939579D01*
X115150000Y-64936653D01*
X115149977Y-64936255D01*
X115149962Y-64936137D01*
X115149687Y-64933886D01*
X115149673Y-64933769D01*
X115149596Y-64933361D01*
X115149214Y-64930455D01*
X115149214Y-64930453D01*
X115133626Y-64872279D01*
X115133071Y-64870129D01*
X115132657Y-64868463D01*
X115118547Y-64811685D01*
X115118542Y-64811676D01*
X115117480Y-64808974D01*
X115117476Y-64808962D01*
X115116445Y-64806339D01*
X115116438Y-64806322D01*
X115116397Y-64806219D01*
X115116225Y-64805861D01*
X115115105Y-64803156D01*
X115099383Y-64775926D01*
X115084433Y-64750032D01*
X115054744Y-64696376D01*
X115051534Y-64693047D01*
X115049216Y-64689032D01*
X115049213Y-64689029D01*
X115006643Y-64646460D01*
X115005112Y-64644902D01*
X114963271Y-64601508D01*
X114963268Y-64601506D01*
X114963267Y-64601505D01*
X114960969Y-64599674D01*
X114958815Y-64597958D01*
X114958699Y-64597866D01*
X114958356Y-64597632D01*
X114956031Y-64595848D01*
X114956028Y-64595845D01*
X114903886Y-64565740D01*
X114901970Y-64564611D01*
X114850355Y-64533545D01*
X114847678Y-64532378D01*
X114847678Y-64532379D01*
X114845123Y-64531266D01*
X114845122Y-64531265D01*
X114845002Y-64531213D01*
X114844620Y-64531079D01*
X114841905Y-64529954D01*
X114783702Y-64514359D01*
X114783702Y-64514358D01*
X114782598Y-64514062D01*
X114723710Y-64497128D01*
X114719079Y-64497043D01*
X114714606Y-64495845D01*
X114653272Y-64495845D01*
X114591948Y-64494728D01*
X114587453Y-64495845D01*
X114582822Y-64495845D01*
X114582819Y-64495845D01*
X114524684Y-64511421D01*
X114522502Y-64511985D01*
X114464050Y-64526512D01*
X114461304Y-64527592D01*
X114461303Y-64527593D01*
X114458715Y-64528610D01*
X114458713Y-64528610D01*
X114458632Y-64528642D01*
X114458264Y-64528819D01*
X114455527Y-64529952D01*
X114403350Y-64560076D01*
X114402356Y-64560649D01*
X114348745Y-64590315D01*
X114345412Y-64593527D01*
X114341399Y-64595845D01*
X114298828Y-64638414D01*
X114298829Y-64638415D01*
X114298027Y-64639217D01*
X114253877Y-64681788D01*
X114251488Y-64685756D01*
X114248214Y-64689030D01*
X114218121Y-64741152D01*
X114216977Y-64743092D01*
X114185915Y-64794701D01*
X114184738Y-64797403D01*
X114184731Y-64797420D01*
X114183667Y-64799860D01*
X114183649Y-64799903D01*
X114183584Y-64800050D01*
X114183453Y-64800426D01*
X114182322Y-64803157D01*
X114166737Y-64861314D01*
X114166738Y-64861315D01*
X114166431Y-64862458D01*
X114149497Y-64921349D01*
X114149412Y-64925979D01*
X114148214Y-64930453D01*
X114148214Y-64930455D01*
X114148214Y-64990681D01*
X114148193Y-64992939D01*
X114136667Y-65625709D01*
X114135798Y-65673390D01*
X114134603Y-65677853D01*
X114134600Y-65739154D01*
X114134579Y-65740307D01*
X114134579Y-65740364D01*
X114134504Y-65744433D01*
X114134372Y-65748304D01*
X114130075Y-65834757D01*
X114128856Y-65846997D01*
X114116251Y-65931024D01*
X114113825Y-65943083D01*
X114093312Y-66024045D01*
X114088588Y-66038765D01*
X114086082Y-66045171D01*
X114077981Y-66062014D01*
X114075308Y-66066642D01*
X114064780Y-66082059D01*
X114059914Y-66088145D01*
X114050846Y-66098292D01*
X113991349Y-66157924D01*
X113985093Y-66163775D01*
X113926128Y-66215225D01*
X113919822Y-66220727D01*
X113913175Y-66226134D01*
X113843349Y-66279032D01*
X113838266Y-66282684D01*
X113526503Y-66494988D01*
X113523202Y-66497160D01*
X113204016Y-66699941D01*
X113200647Y-66702007D01*
X112876193Y-66893904D01*
X112870718Y-66896958D01*
X112637341Y-67019510D01*
X112629610Y-67023234D01*
X112389411Y-67128870D01*
X112381442Y-67132050D01*
X112134390Y-67220867D01*
X112126200Y-67223495D01*
X111874915Y-67294595D01*
X111866539Y-67296653D01*
X111610788Y-67350141D01*
X111602291Y-67351612D01*
X111342155Y-67387371D01*
X111335871Y-67388072D01*
X110963823Y-67420002D01*
X110959808Y-67420281D01*
X110585615Y-67440191D01*
X110581593Y-67440339D01*
X110207037Y-67448091D01*
X110202776Y-67448106D01*
X109807488Y-67442702D01*
X109802991Y-67442559D01*
X109408209Y-67422820D01*
X109403720Y-67422514D01*
X109011177Y-67388576D01*
X109004022Y-67387748D01*
X108736245Y-67348826D01*
X108726499Y-67347009D01*
X108463958Y-67287109D01*
X108454415Y-67284526D01*
X108197660Y-67203894D01*
X108188142Y-67200473D01*
X107947549Y-67102734D01*
X107938165Y-67098459D01*
X107706660Y-66981135D01*
X107697668Y-66976097D01*
X107534079Y-66875291D01*
X107475658Y-66839291D01*
X107469170Y-66835007D01*
X107193090Y-66640000D01*
X107171537Y-66624776D01*
X107167373Y-66621701D01*
X106877854Y-66398303D01*
X106873802Y-66395037D01*
X106592957Y-66158765D01*
X106590972Y-66157058D01*
X106022525Y-65657956D01*
X105958550Y-65601785D01*
X105926743Y-65568961D01*
X105909218Y-65558471D01*
X105893870Y-65544996D01*
X105876020Y-65536180D01*
X105857368Y-65526968D01*
X105852877Y-65524750D01*
X105813666Y-65501281D01*
X105794028Y-65495686D01*
X105783928Y-65490698D01*
X105783925Y-65490697D01*
X105775709Y-65486639D01*
X105735778Y-65478672D01*
X105730871Y-65477693D01*
X105686924Y-65465173D01*
X105666509Y-65464851D01*
X105655468Y-65462648D01*
X105655466Y-65462648D01*
X105646476Y-65460855D01*
X105646472Y-65460854D01*
X105605852Y-65463493D01*
X105595868Y-65463739D01*
X105558616Y-65463153D01*
X105555157Y-65463099D01*
X105555156Y-65463099D01*
X105555154Y-65463099D01*
X105555149Y-65463100D01*
X105546271Y-65465328D01*
X105546272Y-65465329D01*
X105535345Y-65468073D01*
X105514966Y-65469398D01*
X105471693Y-65484058D01*
X105466837Y-65485278D01*
X105466826Y-65485282D01*
X105427343Y-65495198D01*
X105427337Y-65495200D01*
X105419325Y-65499659D01*
X105409489Y-65505132D01*
X105390152Y-65511685D01*
X105352146Y-65537046D01*
X105347776Y-65539479D01*
X105347768Y-65539485D01*
X103330256Y-66662331D01*
X103326060Y-66664562D01*
X100914139Y-67888321D01*
X100904911Y-67892537D01*
X100637755Y-68001631D01*
X100637755Y-68001632D01*
X100625182Y-68006766D01*
X100614290Y-68008630D01*
X100564363Y-68031601D01*
X100561862Y-68032623D01*
X100561860Y-68032623D01*
X100513411Y-68052407D01*
X100506355Y-68056435D01*
X100506006Y-68055824D01*
X100494164Y-68062806D01*
X99859100Y-68343485D01*
X99855661Y-68344943D01*
X99153145Y-68630464D01*
X99149664Y-68631818D01*
X98438842Y-68896062D01*
X98435322Y-68897310D01*
X97716896Y-69140015D01*
X97713340Y-69141157D01*
X96987931Y-69362116D01*
X96984342Y-69363151D01*
X96252867Y-69562091D01*
X96248940Y-69563090D01*
X95757536Y-69679633D01*
X95753266Y-69680567D01*
X95258303Y-69779671D01*
X95254002Y-69780453D01*
X94755922Y-69862039D01*
X94751598Y-69862670D01*
X94455205Y-69900549D01*
X94251311Y-69926607D01*
X94246101Y-69927160D01*
X93759188Y-69968465D01*
X93753034Y-69968833D01*
X93265124Y-69985871D01*
X93258959Y-69985933D01*
X92770808Y-69978696D01*
X92764648Y-69978452D01*
X92277027Y-69946935D01*
X92272107Y-69946518D01*
X91387933Y-69853900D01*
X91384250Y-69853459D01*
X90502771Y-69734377D01*
X90499104Y-69733825D01*
X89621487Y-69588418D01*
X89617849Y-69587760D01*
X88705826Y-69408572D01*
X88702223Y-69407808D01*
X87795815Y-69201583D01*
X87792235Y-69200713D01*
X87382809Y-69094677D01*
X86892338Y-68967651D01*
X86888585Y-68966615D01*
X86647794Y-68896062D01*
X86313504Y-68798113D01*
X86309536Y-68796878D01*
X85740473Y-68609217D01*
X85736550Y-68607850D01*
X85174112Y-68401235D01*
X85170235Y-68399737D01*
X84615344Y-68174516D01*
X84611038Y-68172672D01*
X83966025Y-67882036D01*
X83961319Y-67879796D01*
X83329376Y-67562452D01*
X83324768Y-67560015D01*
X82706754Y-67216410D01*
X82702252Y-67213782D01*
X82219268Y-66918018D01*
X82099052Y-66844402D01*
X82094634Y-66841565D01*
X81512303Y-66450051D01*
X81507957Y-66446992D01*
X80942809Y-66030792D01*
X80938598Y-66027550D01*
X80391774Y-65587494D01*
X80387707Y-65584074D01*
X79860423Y-65121152D01*
X79856466Y-65117523D01*
X79359659Y-64641736D01*
X79355828Y-64637904D01*
X79016640Y-64283387D01*
X78880380Y-64140968D01*
X78876731Y-64136983D01*
X78865731Y-64124431D01*
X78435436Y-63633423D01*
X78423485Y-63619786D01*
X78420004Y-63615634D01*
X78013217Y-63108350D01*
X77989545Y-63078829D01*
X77986462Y-63074819D01*
X77671344Y-62647085D01*
X77668609Y-62643220D01*
X77369889Y-62203525D01*
X77367303Y-62199558D01*
X77212640Y-61952078D01*
X77085566Y-61748744D01*
X77083158Y-61744722D01*
X76818811Y-61283429D01*
X76816563Y-61279325D01*
X76570071Y-60808365D01*
X76567953Y-60804123D01*
X76238910Y-60112282D01*
X76236953Y-60107957D01*
X76154609Y-59916226D01*
X75934612Y-59403982D01*
X75932858Y-59399671D01*
X75657695Y-58684661D01*
X75656080Y-58680210D01*
X75651928Y-58668053D01*
X75408506Y-57955244D01*
X75407059Y-57950725D01*
X75187411Y-57216795D01*
X75186142Y-57212239D01*
X75182599Y-57198506D01*
X74994742Y-56470415D01*
X74993661Y-56465864D01*
X74830715Y-55716880D01*
X74829876Y-55712666D01*
X74686752Y-54919008D01*
X74686087Y-54914931D01*
X74684285Y-54902602D01*
X74569448Y-54116722D01*
X74568920Y-54112631D01*
X74568453Y-54108468D01*
X74478935Y-53310966D01*
X74478543Y-53306855D01*
X74415311Y-52502624D01*
X74415062Y-52498617D01*
X74378653Y-51692630D01*
X74378537Y-51688518D01*
X74368998Y-50881879D01*
X74369018Y-50877773D01*
X74386349Y-50071556D01*
X74386503Y-50067522D01*
X74430932Y-49256269D01*
X74431223Y-49252200D01*
X74434867Y-49210815D01*
X74502447Y-48443219D01*
X74502867Y-48439203D01*
X74600834Y-47632960D01*
X74601395Y-47628913D01*
X74725983Y-46826424D01*
X74726677Y-46822402D01*
X74877757Y-46024472D01*
X74878572Y-46020521D01*
X75055998Y-45227945D01*
X75056934Y-45224065D01*
X75260471Y-44437889D01*
X75261629Y-44433717D01*
X75280179Y-44371158D01*
X75305816Y-44284692D01*
X75343746Y-44226015D01*
X75407379Y-44197159D01*
X75476510Y-44207286D01*
X75529193Y-44253180D01*
X75548700Y-44319943D01*
X75548700Y-51104300D01*
X75529015Y-51171339D01*
X75476211Y-51217094D01*
X75424701Y-51228300D01*
X75201330Y-51228300D01*
X75201323Y-51228301D01*
X75141716Y-51234708D01*
X75006871Y-51285002D01*
X75006864Y-51285006D01*
X74891655Y-51371252D01*
X74891652Y-51371255D01*
X74805406Y-51486464D01*
X74805402Y-51486471D01*
X74755108Y-51621317D01*
X74748701Y-51680916D01*
X74748700Y-51680935D01*
X74748700Y-53491003D01*
X74748700Y-53491011D01*
X74748701Y-53576672D01*
X74755109Y-53636283D01*
X74769268Y-53674247D01*
X74769269Y-53674250D01*
X74805402Y-53771128D01*
X74805406Y-53771135D01*
X74891652Y-53886344D01*
X74891655Y-53886347D01*
X75006864Y-53972593D01*
X75006871Y-53972597D01*
X75141717Y-54022891D01*
X75141716Y-54022891D01*
X75148644Y-54023635D01*
X75201327Y-54029300D01*
X76649102Y-54029299D01*
X76716141Y-54048984D01*
X76736783Y-54065618D01*
X86870510Y-64199345D01*
X86903995Y-64260668D01*
X86899011Y-64330360D01*
X86898821Y-64330777D01*
X86845508Y-64473717D01*
X86839101Y-64533316D01*
X86839100Y-64533335D01*
X86839100Y-66429070D01*
X86839101Y-66429076D01*
X86845508Y-66488683D01*
X86895802Y-66623528D01*
X86895806Y-66623535D01*
X86982052Y-66738744D01*
X86982055Y-66738747D01*
X87097264Y-66824993D01*
X87097271Y-66824997D01*
X87232117Y-66875291D01*
X87232116Y-66875291D01*
X87239044Y-66876035D01*
X87291727Y-66881700D01*
X89187472Y-66881699D01*
X89247083Y-66875291D01*
X89381931Y-66824996D01*
X89497146Y-66738746D01*
X89583396Y-66623531D01*
X89611029Y-66549443D01*
X89613201Y-66543620D01*
X89655071Y-66487686D01*
X89720536Y-66463268D01*
X89788809Y-66478119D01*
X89817064Y-66499271D01*
X89867236Y-66549443D01*
X89867241Y-66549447D01*
X89968862Y-66623278D01*
X90045578Y-66679015D01*
X90173975Y-66744437D01*
X90241993Y-66779095D01*
X90241996Y-66779096D01*
X90337074Y-66809988D01*
X90451649Y-66847215D01*
X90669378Y-66881700D01*
X90669379Y-66881700D01*
X90889821Y-66881700D01*
X90889822Y-66881700D01*
X91107551Y-66847215D01*
X91317206Y-66779095D01*
X91513622Y-66679015D01*
X91691965Y-66549442D01*
X91847842Y-66393565D01*
X91977415Y-66215222D01*
X92077495Y-66018806D01*
X92145615Y-65809151D01*
X92180100Y-65591422D01*
X92180100Y-65370978D01*
X92145615Y-65153249D01*
X92122788Y-65082994D01*
X92120793Y-65013153D01*
X92153036Y-64956997D01*
X94446416Y-62663619D01*
X94507739Y-62630134D01*
X94534097Y-62627300D01*
X115534131Y-62627300D01*
X115534147Y-62627301D01*
X115541743Y-62627301D01*
X115699854Y-62627301D01*
X115699857Y-62627301D01*
X115852585Y-62586377D01*
X115902704Y-62557439D01*
X115989516Y-62507320D01*
X116101320Y-62395516D01*
X116101320Y-62395514D01*
X116111528Y-62385307D01*
X116111530Y-62385304D01*
X122808798Y-55688035D01*
X125801000Y-55688035D01*
X125801000Y-55868764D01*
X125829253Y-56047150D01*
X125829273Y-56047271D01*
X125885122Y-56219156D01*
X125967040Y-56379929D01*
X125967174Y-56380191D01*
X126073396Y-56526396D01*
X126201203Y-56654203D01*
X126331460Y-56748838D01*
X126347412Y-56760428D01*
X126508444Y-56842478D01*
X126680329Y-56898327D01*
X126858835Y-56926600D01*
X126858836Y-56926600D01*
X127039564Y-56926600D01*
X127039565Y-56926600D01*
X127218071Y-56898327D01*
X127389956Y-56842478D01*
X127550988Y-56760428D01*
X127633079Y-56700785D01*
X127697196Y-56654203D01*
X127697198Y-56654200D01*
X127697202Y-56654198D01*
X127824998Y-56526402D01*
X127825000Y-56526398D01*
X127825003Y-56526396D01*
X127915058Y-56402444D01*
X127931228Y-56380188D01*
X128013278Y-56219156D01*
X128069127Y-56047271D01*
X128097400Y-55868765D01*
X128097400Y-55688035D01*
X128069127Y-55509529D01*
X128013278Y-55337644D01*
X127931228Y-55176612D01*
X127920257Y-55161512D01*
X127825003Y-55030403D01*
X127697196Y-54902596D01*
X127550991Y-54796374D01*
X127550990Y-54796373D01*
X127550988Y-54796372D01*
X127389956Y-54714322D01*
X127218071Y-54658473D01*
X127218069Y-54658472D01*
X127218067Y-54658472D01*
X127104620Y-54640503D01*
X127039565Y-54630200D01*
X126858835Y-54630200D01*
X126844945Y-54632400D01*
X126680332Y-54658472D01*
X126508441Y-54714323D01*
X126347408Y-54796374D01*
X126201203Y-54902596D01*
X126073396Y-55030403D01*
X125967174Y-55176608D01*
X125885123Y-55337641D01*
X125829272Y-55509532D01*
X125801000Y-55688035D01*
X122808798Y-55688035D01*
X125616248Y-52880585D01*
X125677569Y-52847102D01*
X125747261Y-52852086D01*
X125803194Y-52893958D01*
X125827611Y-52959422D01*
X125826400Y-52987666D01*
X125824840Y-52997516D01*
X125801000Y-53148035D01*
X125801000Y-53328765D01*
X125804408Y-53350280D01*
X125826652Y-53490728D01*
X125829273Y-53507271D01*
X125885122Y-53679156D01*
X125960256Y-53826615D01*
X125967174Y-53840191D01*
X126073396Y-53986396D01*
X126201203Y-54114203D01*
X126325522Y-54204524D01*
X126347412Y-54220428D01*
X126508444Y-54302478D01*
X126680329Y-54358327D01*
X126858835Y-54386600D01*
X127039565Y-54386600D01*
X127218071Y-54358327D01*
X127389956Y-54302478D01*
X127550988Y-54220428D01*
X127633079Y-54160785D01*
X127697196Y-54114203D01*
X127697198Y-54114200D01*
X127697202Y-54114198D01*
X127824998Y-53986402D01*
X127825000Y-53986398D01*
X127825003Y-53986396D01*
X127888267Y-53899319D01*
X127931228Y-53840188D01*
X128013278Y-53679156D01*
X128069127Y-53507271D01*
X128097400Y-53328765D01*
X128097400Y-53148035D01*
X128069127Y-52969529D01*
X128013278Y-52797644D01*
X127931228Y-52636612D01*
X127896262Y-52588485D01*
X127825003Y-52490403D01*
X127697196Y-52362596D01*
X127550991Y-52256374D01*
X127550990Y-52256373D01*
X127550988Y-52256372D01*
X127389956Y-52174322D01*
X127218071Y-52118473D01*
X127218069Y-52118472D01*
X127218067Y-52118472D01*
X127099636Y-52099714D01*
X127043812Y-52090872D01*
X126980678Y-52060944D01*
X126943747Y-52001632D01*
X126944745Y-51931770D01*
X126983355Y-51873537D01*
X127043812Y-51845927D01*
X127218071Y-51818327D01*
X127389956Y-51762478D01*
X127550988Y-51680428D01*
X127646921Y-51610729D01*
X127697196Y-51574203D01*
X127697198Y-51574200D01*
X127697202Y-51574198D01*
X127824998Y-51446402D01*
X127825000Y-51446398D01*
X127825003Y-51446396D01*
X127931224Y-51300193D01*
X127931228Y-51300188D01*
X127936009Y-51290802D01*
X127983978Y-51240007D01*
X128051797Y-51223206D01*
X128117934Y-51245739D01*
X128134176Y-51259411D01*
X138823284Y-61948520D01*
X138960215Y-62027577D01*
X139112943Y-62068501D01*
X139112946Y-62068501D01*
X139278654Y-62068501D01*
X139278670Y-62068500D01*
X160441331Y-62068500D01*
X160441347Y-62068501D01*
X160448943Y-62068501D01*
X160607054Y-62068501D01*
X160607057Y-62068501D01*
X160759785Y-62027577D01*
X160809904Y-61998639D01*
X160896716Y-61948520D01*
X161008520Y-61836716D01*
X161008520Y-61836714D01*
X161018728Y-61826507D01*
X161018729Y-61826504D01*
X168842998Y-54002236D01*
X168851434Y-53997630D01*
X168857266Y-53989985D01*
X168881601Y-53981157D01*
X168904319Y-53968753D01*
X168915658Y-53968804D01*
X168922948Y-53966160D01*
X168944883Y-53968936D01*
X168958128Y-53968996D01*
X168963631Y-53970245D01*
X169039249Y-53994815D01*
X169147129Y-54011901D01*
X169151122Y-54012808D01*
X169178195Y-54027910D01*
X169206203Y-54041187D01*
X169208441Y-54044781D01*
X169212140Y-54046845D01*
X169226747Y-54074180D01*
X169243135Y-54100498D01*
X169243074Y-54104733D01*
X169245070Y-54108468D01*
X169242579Y-54139365D01*
X169242137Y-54170361D01*
X169239764Y-54174295D01*
X169239457Y-54178112D01*
X169229936Y-54190593D01*
X169211352Y-54221412D01*
X166295881Y-57136882D01*
X166295879Y-57136884D01*
X166270872Y-57180198D01*
X166260303Y-57198506D01*
X166216823Y-57273815D01*
X166175899Y-57426543D01*
X166175899Y-57426545D01*
X166175899Y-57594646D01*
X166175900Y-57594659D01*
X166175900Y-59107173D01*
X166156215Y-59174212D01*
X166139581Y-59194854D01*
X160452600Y-64881834D01*
X160391277Y-64915319D01*
X160321585Y-64910335D01*
X160265652Y-64868463D01*
X160254434Y-64850448D01*
X160201815Y-64747178D01*
X160175848Y-64711437D01*
X160072247Y-64568841D01*
X160072243Y-64568836D01*
X159916363Y-64412956D01*
X159916358Y-64412952D01*
X159738025Y-64283387D01*
X159738024Y-64283386D01*
X159738022Y-64283385D01*
X159620791Y-64223652D01*
X159541606Y-64183304D01*
X159541603Y-64183303D01*
X159331952Y-64115185D01*
X159223086Y-64097942D01*
X159114222Y-64080700D01*
X158893778Y-64080700D01*
X158821201Y-64092195D01*
X158676047Y-64115185D01*
X158466396Y-64183303D01*
X158466393Y-64183304D01*
X158269974Y-64283387D01*
X158091641Y-64412952D01*
X158091636Y-64412956D01*
X158041463Y-64463129D01*
X157980140Y-64496613D01*
X157910448Y-64491628D01*
X157854515Y-64449757D01*
X157837601Y-64418780D01*
X157807797Y-64338871D01*
X157807793Y-64338864D01*
X157721547Y-64223655D01*
X157721544Y-64223652D01*
X157606335Y-64137406D01*
X157606328Y-64137402D01*
X157471482Y-64087108D01*
X157471483Y-64087108D01*
X157411883Y-64080701D01*
X157411881Y-64080700D01*
X157411873Y-64080700D01*
X157411864Y-64080700D01*
X155516129Y-64080700D01*
X155516123Y-64080701D01*
X155456516Y-64087108D01*
X155321671Y-64137402D01*
X155321664Y-64137406D01*
X155206455Y-64223652D01*
X155206452Y-64223655D01*
X155120206Y-64338864D01*
X155120202Y-64338871D01*
X155069908Y-64473717D01*
X155063501Y-64533316D01*
X155063500Y-64533335D01*
X155063500Y-66429070D01*
X155063501Y-66429076D01*
X155069908Y-66488683D01*
X155120202Y-66623528D01*
X155120206Y-66623535D01*
X155206452Y-66738744D01*
X155206455Y-66738747D01*
X155321664Y-66824993D01*
X155321671Y-66824997D01*
X155456517Y-66875291D01*
X155456516Y-66875291D01*
X155463444Y-66876035D01*
X155516127Y-66881700D01*
X156963902Y-66881699D01*
X156993342Y-66890343D01*
X157023329Y-66896867D01*
X157028344Y-66900621D01*
X157030941Y-66901384D01*
X157051583Y-66918018D01*
X157180139Y-67046574D01*
X157180149Y-67046585D01*
X157184479Y-67050915D01*
X157184480Y-67050916D01*
X157296284Y-67162720D01*
X157296286Y-67162721D01*
X157296290Y-67162724D01*
X157433209Y-67241773D01*
X157433216Y-67241777D01*
X157534553Y-67268930D01*
X157585942Y-67282700D01*
X157585943Y-67282700D01*
X159414802Y-67282700D01*
X159414818Y-67282701D01*
X159422414Y-67282701D01*
X159580525Y-67282701D01*
X159580528Y-67282701D01*
X159733256Y-67241777D01*
X159801886Y-67202153D01*
X159870187Y-67162720D01*
X159981991Y-67050916D01*
X159981991Y-67050914D01*
X159992195Y-67040711D01*
X159992199Y-67040706D01*
X167134906Y-59897999D01*
X167134911Y-59897995D01*
X167145114Y-59887791D01*
X167145116Y-59887791D01*
X167256920Y-59775987D01*
X167317155Y-59671656D01*
X167335977Y-59639056D01*
X167376900Y-59486329D01*
X167376900Y-59328214D01*
X167376900Y-57805696D01*
X167396585Y-57738657D01*
X167413214Y-57718020D01*
X170926706Y-54204527D01*
X170926711Y-54204524D01*
X170936914Y-54194320D01*
X170936916Y-54194320D01*
X171048720Y-54082516D01*
X171112182Y-53972596D01*
X171127777Y-53945585D01*
X171168701Y-53792857D01*
X171168701Y-53634743D01*
X171168701Y-53627148D01*
X171168700Y-53627130D01*
X171168700Y-52052273D01*
X171168699Y-52052269D01*
X171162277Y-52028299D01*
X171127777Y-51899544D01*
X171080886Y-51818327D01*
X171048720Y-51762613D01*
X170936916Y-51650809D01*
X170936915Y-51650808D01*
X170932585Y-51646478D01*
X170932574Y-51646468D01*
X170352261Y-51066155D01*
X170352259Y-51066152D01*
X170233388Y-50947281D01*
X170233387Y-50947280D01*
X170146575Y-50897160D01*
X170146575Y-50897159D01*
X170146571Y-50897158D01*
X170096456Y-50868223D01*
X169943728Y-50827299D01*
X169785614Y-50827299D01*
X169778018Y-50827299D01*
X169778002Y-50827300D01*
X167949140Y-50827300D01*
X167908219Y-50838264D01*
X167908219Y-50838265D01*
X167870951Y-50848251D01*
X167796414Y-50868223D01*
X167796409Y-50868226D01*
X167659490Y-50947275D01*
X167659482Y-50947281D01*
X167639381Y-50967383D01*
X167578058Y-51000868D01*
X167508366Y-50995884D01*
X167452433Y-50954012D01*
X167428016Y-50888548D01*
X167427700Y-50879702D01*
X167427700Y-39792588D01*
X167427701Y-39792575D01*
X167427701Y-39624474D01*
X167427701Y-39624472D01*
X167386777Y-39471744D01*
X167336106Y-39383980D01*
X167307720Y-39334813D01*
X167195916Y-39223009D01*
X167195915Y-39223008D01*
X167191585Y-39218678D01*
X167191574Y-39218668D01*
X165526261Y-37553355D01*
X165526259Y-37553352D01*
X165407388Y-37434481D01*
X165407383Y-37434477D01*
X165304960Y-37375344D01*
X165304959Y-37375343D01*
X165270461Y-37355425D01*
X165270460Y-37355424D01*
X165257934Y-37352067D01*
X165117728Y-37314499D01*
X164959614Y-37314499D01*
X164952018Y-37314499D01*
X164952002Y-37314500D01*
X163123136Y-37314500D01*
X163107701Y-37318636D01*
X163107702Y-37318637D01*
X162970414Y-37355423D01*
X162970409Y-37355426D01*
X162833490Y-37434475D01*
X162833482Y-37434481D01*
X162588783Y-37679181D01*
X162527460Y-37712666D01*
X162501102Y-37715500D01*
X161929768Y-37715500D01*
X161862729Y-37695815D01*
X161842087Y-37679181D01*
X154299461Y-30136555D01*
X154299459Y-30136552D01*
X154180588Y-30017681D01*
X154180587Y-30017680D01*
X154093775Y-29967560D01*
X154093775Y-29967559D01*
X154093771Y-29967558D01*
X154043656Y-29938623D01*
X153890928Y-29897699D01*
X153732814Y-29897699D01*
X153725218Y-29897699D01*
X153725202Y-29897700D01*
X151896340Y-29897700D01*
X151855419Y-29908664D01*
X151855419Y-29908665D01*
X151829482Y-29915615D01*
X151743614Y-29938623D01*
X151743609Y-29938626D01*
X151606690Y-30017675D01*
X151606682Y-30017681D01*
X151361983Y-30262381D01*
X151300660Y-30295866D01*
X151274302Y-30298700D01*
X150274498Y-30298700D01*
X150207459Y-30279015D01*
X150186817Y-30262381D01*
X149687190Y-29762755D01*
X149687188Y-29762752D01*
X149568317Y-29643881D01*
X149568309Y-29643875D01*
X149447795Y-29574297D01*
X149447795Y-29574296D01*
X149447791Y-29574295D01*
X149431385Y-29564823D01*
X149278657Y-29523899D01*
X149120543Y-29523899D01*
X149112947Y-29523899D01*
X149112931Y-29523900D01*
X141473297Y-29523900D01*
X141406258Y-29504215D01*
X141385616Y-29487581D01*
X138884990Y-26986955D01*
X138884988Y-26986952D01*
X138766117Y-26868081D01*
X138766116Y-26868080D01*
X138679304Y-26817960D01*
X138679304Y-26817959D01*
X138679300Y-26817958D01*
X138629185Y-26789023D01*
X138476457Y-26748099D01*
X138318343Y-26748099D01*
X138310747Y-26748099D01*
X138310731Y-26748100D01*
X131627140Y-26748100D01*
X131586219Y-26759064D01*
X131586219Y-26759065D01*
X131548951Y-26769051D01*
X131474414Y-26789023D01*
X131474409Y-26789026D01*
X131337490Y-26868075D01*
X131337482Y-26868081D01*
X131225680Y-26979883D01*
X131225680Y-26979884D01*
X131225678Y-26979886D01*
X131152533Y-27053031D01*
X131092782Y-27112782D01*
X131031459Y-27146266D01*
X131005101Y-27149100D01*
X129557329Y-27149100D01*
X129557323Y-27149101D01*
X129497716Y-27155508D01*
X129362871Y-27205802D01*
X129362864Y-27205806D01*
X129247655Y-27292052D01*
X129247652Y-27292055D01*
X129161406Y-27407264D01*
X129161402Y-27407271D01*
X129111108Y-27542117D01*
X129104701Y-27601716D01*
X129104700Y-27601735D01*
X129104700Y-29497470D01*
X129104701Y-29497476D01*
X129111108Y-29557083D01*
X129161402Y-29691928D01*
X129161406Y-29691935D01*
X129247652Y-29807144D01*
X129247655Y-29807147D01*
X129362864Y-29893393D01*
X129362871Y-29893397D01*
X129403805Y-29908664D01*
X129497717Y-29943691D01*
X129557327Y-29950100D01*
X129780700Y-29950099D01*
X129789385Y-29952649D01*
X129798347Y-29951361D01*
X129822384Y-29962338D01*
X129847739Y-29969783D01*
X129853667Y-29976625D01*
X129861903Y-29980386D01*
X129876189Y-30002617D01*
X129893494Y-30022587D01*
X129895781Y-30033102D01*
X129899677Y-30039164D01*
X129904700Y-30074099D01*
X129904700Y-30230703D01*
X129885015Y-30297742D01*
X129868381Y-30318384D01*
X127143184Y-33043581D01*
X127081861Y-33077066D01*
X127055503Y-33079900D01*
X119545700Y-33079900D01*
X119478661Y-33060215D01*
X119432906Y-33007411D01*
X119421700Y-32955900D01*
X119421700Y-28841860D01*
X119421702Y-28841854D01*
X119421701Y-28841854D01*
X119421701Y-28673744D01*
X119417971Y-28659822D01*
X119380777Y-28521016D01*
X119365262Y-28494143D01*
X119301724Y-28384090D01*
X119301718Y-28384082D01*
X117904590Y-26986955D01*
X117904588Y-26986952D01*
X117785717Y-26868081D01*
X117785716Y-26868080D01*
X117698904Y-26817960D01*
X117698904Y-26817959D01*
X117698900Y-26817958D01*
X117648785Y-26789023D01*
X117496057Y-26748099D01*
X117337943Y-26748099D01*
X117330347Y-26748099D01*
X117330331Y-26748100D01*
X113745540Y-26748100D01*
X113704619Y-26759064D01*
X113704619Y-26759065D01*
X113667351Y-26769051D01*
X113592814Y-26789023D01*
X113592809Y-26789026D01*
X113455890Y-26868075D01*
X113455882Y-26868081D01*
X113344080Y-26979883D01*
X113344080Y-26979884D01*
X113344078Y-26979886D01*
X113270933Y-27053031D01*
X113211182Y-27112782D01*
X113149859Y-27146266D01*
X113123501Y-27149100D01*
X111675729Y-27149100D01*
X111675723Y-27149101D01*
X111616116Y-27155508D01*
X111481271Y-27205802D01*
X111481264Y-27205806D01*
X111366055Y-27292052D01*
X111366052Y-27292055D01*
X111279806Y-27407264D01*
X111279802Y-27407271D01*
X111229508Y-27542117D01*
X111223101Y-27601716D01*
X111223100Y-27601735D01*
X111223100Y-27825100D01*
X111203415Y-27892139D01*
X111150611Y-27937894D01*
X111099100Y-27949100D01*
X96361641Y-27949100D01*
X96294602Y-27929415D01*
X96248847Y-27876611D01*
X96238903Y-27807453D01*
X96267928Y-27743897D01*
X96326706Y-27706123D01*
X96336360Y-27703705D01*
X102628281Y-26393382D01*
X102631720Y-26392716D01*
X110469725Y-24994743D01*
X110474112Y-24994044D01*
X114336091Y-24450139D01*
X114341659Y-24450697D01*
X114401252Y-24440962D01*
X114461046Y-24432541D01*
X114461048Y-24432540D01*
X114469251Y-24431385D01*
X114469609Y-24431310D01*
X114809486Y-24383976D01*
X114815211Y-24383316D01*
X115217335Y-24346504D01*
X115223090Y-24346114D01*
X115626488Y-24328273D01*
X115632283Y-24328154D01*
X116030070Y-24329304D01*
X116037267Y-24329535D01*
X117062486Y-24392417D01*
X117070978Y-24393231D01*
X117772983Y-24485088D01*
X117781078Y-24488116D01*
X117838168Y-24493618D01*
X117866436Y-24497316D01*
X117867863Y-24497513D01*
X118071846Y-24527118D01*
X118076915Y-24527854D01*
X118088604Y-24530128D01*
X118191811Y-24555406D01*
X118308811Y-24584063D01*
X118320211Y-24587443D01*
X118535350Y-24662646D01*
X118544405Y-24666218D01*
X118593754Y-24687961D01*
X118600611Y-24691237D01*
X118649549Y-24716485D01*
X118656197Y-24720177D01*
X118703374Y-24748305D01*
X118710323Y-24752768D01*
X118746362Y-24777650D01*
X118753490Y-24782958D01*
X118787534Y-24810272D01*
X118794282Y-24816097D01*
X118826167Y-24845685D01*
X118832783Y-24852306D01*
X118854237Y-24875463D01*
X118860606Y-24882907D01*
X118880107Y-24907612D01*
X118885871Y-24915540D01*
X118902787Y-24940851D01*
X118908884Y-24950988D01*
X118910442Y-24953883D01*
X118916303Y-24966399D01*
X118917199Y-24968628D01*
X118921628Y-24981709D01*
X118923258Y-24987581D01*
X118924921Y-24994293D01*
X118940121Y-25063899D01*
X118940136Y-25063951D01*
X118952491Y-25120516D01*
X118969009Y-25196139D01*
X118969008Y-25196179D01*
X118981137Y-25251669D01*
X118981804Y-25254719D01*
X118981998Y-25255604D01*
X118982002Y-25255622D01*
X118998746Y-25332277D01*
X118998797Y-25332459D01*
X119092718Y-25762103D01*
X119094148Y-25768643D01*
X119094148Y-25768656D01*
X119110002Y-25841168D01*
X119110002Y-25841169D01*
X119123932Y-25904892D01*
X119123942Y-25904925D01*
X119230660Y-26393018D01*
X119242583Y-26447547D01*
X119242583Y-26447557D01*
X119251374Y-26487756D01*
X119252282Y-26491907D01*
X119252764Y-26494110D01*
X119252765Y-26494115D01*
X119272371Y-26583787D01*
X119272383Y-26583828D01*
X119413281Y-27228120D01*
X119413606Y-27229649D01*
X119514254Y-27719396D01*
X119550612Y-27896308D01*
X119551061Y-27916822D01*
X119563826Y-27960607D01*
X119564836Y-27965522D01*
X119564835Y-27965524D01*
X119573008Y-28005289D01*
X119573010Y-28005295D01*
X119574549Y-28008367D01*
X119585243Y-28039429D01*
X119748466Y-28850010D01*
X119748687Y-28851135D01*
X119900361Y-29642099D01*
X119900712Y-29644009D01*
X119991869Y-30163206D01*
X119993527Y-30177427D01*
X119993586Y-30178447D01*
X120005074Y-30238507D01*
X120005267Y-30239518D01*
X120015989Y-30300579D01*
X120017617Y-30304080D01*
X120019785Y-30315409D01*
X120019789Y-30315423D01*
X120300318Y-31781881D01*
X120300907Y-31785204D01*
X120314327Y-31867428D01*
X120362135Y-32045142D01*
X120427569Y-32217156D01*
X120427570Y-32217157D01*
X120463585Y-32289029D01*
X120463619Y-32289097D01*
X120498434Y-32358680D01*
X120498438Y-32358687D01*
X120578399Y-32464232D01*
X120578402Y-32464235D01*
X120676334Y-32553368D01*
X120788925Y-32623074D01*
X120912370Y-32670998D01*
X121042502Y-32695520D01*
X121061968Y-32695555D01*
X121103334Y-32695642D01*
X121103339Y-32695642D01*
X121108744Y-32695653D01*
X121108744Y-32695654D01*
X121197337Y-32695843D01*
X121373778Y-32679623D01*
X121373786Y-32679621D01*
X121373790Y-32679621D01*
X121547914Y-32646949D01*
X121547914Y-32646948D01*
X121547924Y-32646947D01*
X121569747Y-32640688D01*
X121569763Y-32640688D01*
X121631177Y-32623072D01*
X121631178Y-32623072D01*
X121634968Y-32622049D01*
X121755950Y-32591488D01*
X121763660Y-32589801D01*
X121884348Y-32567387D01*
X121892119Y-32566199D01*
X122014652Y-32551448D01*
X122021045Y-32550847D01*
X122183566Y-32539856D01*
X122188535Y-32539620D01*
X122352006Y-32535250D01*
X122357003Y-32535219D01*
X122520518Y-32537523D01*
X122525192Y-32537678D01*
X122718870Y-32547824D01*
X122723234Y-32548132D01*
X122916428Y-32565190D01*
X122920736Y-32565647D01*
X123105771Y-32588672D01*
X123112480Y-32589695D01*
X123805553Y-32715030D01*
X123810024Y-32715926D01*
X123867642Y-32728578D01*
X124006494Y-32753209D01*
X124006505Y-32753210D01*
X124006508Y-32753211D01*
X124144587Y-32771961D01*
X124144599Y-32771962D01*
X124146233Y-32772184D01*
X124150875Y-32772623D01*
X124150933Y-32772645D01*
X124210220Y-32778243D01*
X124216533Y-32778845D01*
X124216533Y-32778846D01*
X124277166Y-32784629D01*
X124277167Y-32784628D01*
X124281625Y-32785054D01*
X124282023Y-32785039D01*
X124282024Y-32785038D01*
X124282028Y-32785039D01*
X124285355Y-32784476D01*
X124296291Y-32783124D01*
X124398607Y-32775078D01*
X124516601Y-32744806D01*
X124627641Y-32694713D01*
X124717114Y-32633968D01*
X124724933Y-32629620D01*
X124728245Y-32626412D01*
X124728425Y-32626290D01*
X124735728Y-32619208D01*
X124736051Y-32619037D01*
X124770053Y-32585931D01*
X124770362Y-32585632D01*
X124814983Y-32542484D01*
X124814983Y-32542483D01*
X124817074Y-32540462D01*
X124817230Y-32540257D01*
X124819498Y-32538063D01*
X124821616Y-32534528D01*
X124892841Y-32441487D01*
X124897414Y-32433222D01*
X124953179Y-32332423D01*
X124953179Y-32332421D01*
X124953181Y-32332419D01*
X124996774Y-32215643D01*
X124997197Y-32213639D01*
X124999471Y-32208930D01*
X125010784Y-32149428D01*
X125023360Y-32090215D01*
X125023359Y-32090203D01*
X125023751Y-32085216D01*
X125025553Y-32071756D01*
X125097659Y-31692544D01*
X125102600Y-31680847D01*
X125109932Y-31627995D01*
X125119903Y-31575561D01*
X125119902Y-31575555D01*
X125120020Y-31573507D01*
X125120774Y-31549848D01*
X125124185Y-31525262D01*
X125124880Y-31520857D01*
X125325748Y-30381934D01*
X125328853Y-30368655D01*
X125330177Y-30364127D01*
X125330181Y-30364120D01*
X125339466Y-30304162D01*
X125349998Y-30244448D01*
X125349534Y-30239148D01*
X125610549Y-28553705D01*
X125611695Y-28547391D01*
X125627477Y-28471658D01*
X125943881Y-26953322D01*
X125944471Y-26950644D01*
X126207147Y-25823578D01*
X126208372Y-25818771D01*
X126376630Y-25209604D01*
X126379537Y-25204382D01*
X126394146Y-25146190D01*
X126396406Y-25138007D01*
X126397444Y-25134460D01*
X126423870Y-25049138D01*
X126428535Y-25036543D01*
X126463885Y-24954999D01*
X126469903Y-24942959D01*
X126513341Y-24866701D01*
X126521828Y-24853754D01*
X126535460Y-24835551D01*
X126546889Y-24822342D01*
X126562210Y-24806974D01*
X126575380Y-24795507D01*
X126581990Y-24790524D01*
X126598585Y-24779967D01*
X126921501Y-24608930D01*
X126935939Y-24602428D01*
X127259117Y-24481095D01*
X127268432Y-24478013D01*
X127617791Y-24377661D01*
X127627354Y-24375322D01*
X127983547Y-24303015D01*
X127993227Y-24301447D01*
X128354059Y-24257633D01*
X128363869Y-24256836D01*
X128727037Y-24241794D01*
X128736851Y-24241779D01*
X129097422Y-24255504D01*
G37*
%TD.AperFunction*%
%TA.AperFunction,Conductor*%
G36*
X118127261Y-45232086D02*
G01*
X118183194Y-45273958D01*
X118207611Y-45339422D01*
X118206400Y-45367666D01*
X118200635Y-45404067D01*
X118181000Y-45528035D01*
X118181000Y-45708765D01*
X118185441Y-45736802D01*
X118209253Y-45887150D01*
X118209273Y-45887271D01*
X118265122Y-46059156D01*
X118347040Y-46219929D01*
X118347174Y-46220191D01*
X118453396Y-46366396D01*
X118581203Y-46494203D01*
X118712391Y-46589515D01*
X118727412Y-46600428D01*
X118888444Y-46682478D01*
X119060329Y-46738327D01*
X119234586Y-46765927D01*
X119297721Y-46795856D01*
X119334652Y-46855168D01*
X119333654Y-46925030D01*
X119295044Y-46983263D01*
X119234586Y-47010873D01*
X119060332Y-47038472D01*
X118888441Y-47094323D01*
X118727408Y-47176374D01*
X118581203Y-47282596D01*
X118453396Y-47410403D01*
X118347174Y-47556608D01*
X118265123Y-47717641D01*
X118265122Y-47717643D01*
X118265122Y-47717644D01*
X118262921Y-47724419D01*
X118209272Y-47889532D01*
X118187142Y-48029257D01*
X118181000Y-48068035D01*
X118181000Y-48248765D01*
X118209273Y-48427271D01*
X118225354Y-48476764D01*
X118265123Y-48599158D01*
X118347174Y-48760191D01*
X118453396Y-48906396D01*
X118581203Y-49034203D01*
X118705443Y-49124467D01*
X118727412Y-49140428D01*
X118888444Y-49222478D01*
X119060329Y-49278327D01*
X119234586Y-49305927D01*
X119297721Y-49335856D01*
X119334652Y-49395168D01*
X119333654Y-49465030D01*
X119295044Y-49523263D01*
X119234586Y-49550873D01*
X119060332Y-49578472D01*
X118888441Y-49634323D01*
X118727408Y-49716374D01*
X118581203Y-49822596D01*
X118453396Y-49950403D01*
X118347174Y-50096608D01*
X118265123Y-50257641D01*
X118209272Y-50429532D01*
X118181000Y-50608035D01*
X118181000Y-50788764D01*
X118206106Y-50947280D01*
X118209273Y-50967271D01*
X118265122Y-51139156D01*
X118339436Y-51285006D01*
X118347174Y-51300191D01*
X118453396Y-51446396D01*
X118581203Y-51574203D01*
X118718017Y-51673602D01*
X118727412Y-51680428D01*
X118888444Y-51762478D01*
X119060329Y-51818327D01*
X119238835Y-51846600D01*
X119419565Y-51846600D01*
X119598071Y-51818327D01*
X119769956Y-51762478D01*
X119930988Y-51680428D01*
X120026921Y-51610729D01*
X120077196Y-51574203D01*
X120077198Y-51574200D01*
X120077202Y-51574198D01*
X120204998Y-51446402D01*
X120205000Y-51446398D01*
X120205003Y-51446396D01*
X120259597Y-51371252D01*
X120311228Y-51300188D01*
X120393278Y-51139156D01*
X120449127Y-50967271D01*
X120477400Y-50788765D01*
X120477400Y-50608035D01*
X120459275Y-50493598D01*
X120468230Y-50424304D01*
X120513226Y-50370852D01*
X120579978Y-50350213D01*
X120581748Y-50350200D01*
X125696652Y-50350200D01*
X125763691Y-50369885D01*
X125809446Y-50422689D01*
X125819390Y-50491847D01*
X125819125Y-50493598D01*
X125801000Y-50608035D01*
X125801000Y-50788765D01*
X125800999Y-50788765D01*
X125819637Y-50906440D01*
X125810682Y-50975733D01*
X125784845Y-51013518D01*
X120661553Y-56136810D01*
X120600230Y-56170295D01*
X120530538Y-56165311D01*
X120474605Y-56123439D01*
X120450188Y-56057975D01*
X120451399Y-56029730D01*
X120476900Y-55868730D01*
X120476900Y-55688068D01*
X120448640Y-55509649D01*
X120392813Y-55337833D01*
X120310802Y-55176877D01*
X120299639Y-55161512D01*
X119722900Y-55738253D01*
X119722900Y-55726568D01*
X119696070Y-55626438D01*
X119644238Y-55536663D01*
X119570937Y-55463362D01*
X119481162Y-55411530D01*
X119381032Y-55384700D01*
X119369347Y-55384700D01*
X119946086Y-54807959D01*
X119946086Y-54807958D01*
X119930729Y-54796801D01*
X119769766Y-54714786D01*
X119597950Y-54658959D01*
X119597952Y-54658959D01*
X119431858Y-54632652D01*
X119226541Y-54632652D01*
X119060448Y-54658959D01*
X118888633Y-54714786D01*
X118727676Y-54796797D01*
X118727672Y-54796800D01*
X118712312Y-54807958D01*
X118712312Y-54807959D01*
X119289054Y-55384700D01*
X119277368Y-55384700D01*
X119177238Y-55411530D01*
X119087463Y-55463362D01*
X119014162Y-55536663D01*
X118962330Y-55626438D01*
X118935500Y-55726568D01*
X118935500Y-55738253D01*
X118358759Y-55161512D01*
X118358758Y-55161512D01*
X118347600Y-55176872D01*
X118347597Y-55176876D01*
X118265586Y-55337833D01*
X118209759Y-55509649D01*
X118181500Y-55688068D01*
X118181500Y-55868731D01*
X118209759Y-56047150D01*
X118265586Y-56218966D01*
X118347601Y-56379929D01*
X118358758Y-56395286D01*
X118358759Y-56395286D01*
X118935500Y-55818545D01*
X118935500Y-55830232D01*
X118962330Y-55930362D01*
X119014162Y-56020137D01*
X119087463Y-56093438D01*
X119177238Y-56145270D01*
X119277368Y-56172100D01*
X119289053Y-56172100D01*
X118712312Y-56748838D01*
X118712312Y-56748839D01*
X118727677Y-56760002D01*
X118888633Y-56842013D01*
X119060449Y-56897840D01*
X119238869Y-56926100D01*
X119419530Y-56926100D01*
X119580531Y-56900599D01*
X119649825Y-56909553D01*
X119703277Y-56954549D01*
X119723917Y-57021301D01*
X119705192Y-57088614D01*
X119687611Y-57110753D01*
X115408384Y-61389981D01*
X115347061Y-61423466D01*
X115320703Y-61426300D01*
X94154940Y-61426300D01*
X94114019Y-61437264D01*
X94114019Y-61437265D01*
X94076751Y-61447251D01*
X94002214Y-61467223D01*
X94002209Y-61467226D01*
X93865290Y-61546275D01*
X93865282Y-61546281D01*
X93753478Y-61658086D01*
X91303802Y-64107761D01*
X91242479Y-64141246D01*
X91177803Y-64138011D01*
X91136008Y-64124431D01*
X91107552Y-64115185D01*
X90998686Y-64097942D01*
X90889822Y-64080700D01*
X90788696Y-64080700D01*
X90721657Y-64061015D01*
X90675902Y-64008211D01*
X90665958Y-63939053D01*
X90694983Y-63875497D01*
X90701015Y-63869019D01*
X93214065Y-61355970D01*
X95868816Y-58701219D01*
X95930139Y-58667734D01*
X95956497Y-58664900D01*
X105145598Y-58664900D01*
X105212637Y-58684585D01*
X105256083Y-58732605D01*
X105262915Y-58746014D01*
X105383228Y-58911613D01*
X105527986Y-59056371D01*
X105631864Y-59131841D01*
X105693590Y-59176687D01*
X105809807Y-59235903D01*
X105875976Y-59269618D01*
X105875978Y-59269618D01*
X105875981Y-59269620D01*
X105980337Y-59303527D01*
X106070665Y-59332877D01*
X106171757Y-59348888D01*
X106272848Y-59364900D01*
X106272849Y-59364900D01*
X106477551Y-59364900D01*
X106477552Y-59364900D01*
X106679734Y-59332877D01*
X106874419Y-59269620D01*
X107056810Y-59176687D01*
X107152489Y-59107173D01*
X107222413Y-59056371D01*
X107222415Y-59056368D01*
X107222419Y-59056366D01*
X107367166Y-58911619D01*
X107367168Y-58911615D01*
X107367171Y-58911613D01*
X107419932Y-58838990D01*
X107487487Y-58746010D01*
X107580420Y-58563619D01*
X107643677Y-58368934D01*
X107675700Y-58166752D01*
X107675700Y-57962082D01*
X112695200Y-57962082D01*
X112695200Y-58166717D01*
X112727209Y-58368817D01*
X112790444Y-58563431D01*
X112883341Y-58745750D01*
X112883347Y-58745759D01*
X112915723Y-58790321D01*
X112915724Y-58790322D01*
X113595200Y-58110846D01*
X113595200Y-58117061D01*
X113622459Y-58218794D01*
X113675120Y-58310006D01*
X113749594Y-58384480D01*
X113840806Y-58437141D01*
X113942539Y-58464400D01*
X113948753Y-58464400D01*
X113269276Y-59143874D01*
X113313850Y-59176259D01*
X113496168Y-59269155D01*
X113690782Y-59332390D01*
X113892883Y-59364400D01*
X114097517Y-59364400D01*
X114299617Y-59332390D01*
X114494231Y-59269155D01*
X114676549Y-59176259D01*
X114721121Y-59143874D01*
X114041647Y-58464400D01*
X114047861Y-58464400D01*
X114149594Y-58437141D01*
X114240806Y-58384480D01*
X114315280Y-58310006D01*
X114367941Y-58218794D01*
X114395200Y-58117061D01*
X114395200Y-58110847D01*
X115074674Y-58790321D01*
X115107059Y-58745749D01*
X115199955Y-58563431D01*
X115263190Y-58368817D01*
X115295200Y-58166717D01*
X115295200Y-57962082D01*
X115263190Y-57759982D01*
X115199955Y-57565368D01*
X115107059Y-57383050D01*
X115074674Y-57338477D01*
X115074674Y-57338476D01*
X114395200Y-58017951D01*
X114395200Y-58011739D01*
X114367941Y-57910006D01*
X114315280Y-57818794D01*
X114240806Y-57744320D01*
X114149594Y-57691659D01*
X114047861Y-57664400D01*
X114041646Y-57664400D01*
X114721122Y-56984924D01*
X114721121Y-56984923D01*
X114676559Y-56952547D01*
X114676550Y-56952541D01*
X114494231Y-56859644D01*
X114299617Y-56796409D01*
X114097517Y-56764400D01*
X113892883Y-56764400D01*
X113690782Y-56796409D01*
X113496168Y-56859644D01*
X113313844Y-56952543D01*
X113269277Y-56984923D01*
X113269277Y-56984924D01*
X113948754Y-57664400D01*
X113942539Y-57664400D01*
X113840806Y-57691659D01*
X113749594Y-57744320D01*
X113675120Y-57818794D01*
X113622459Y-57910006D01*
X113595200Y-58011739D01*
X113595200Y-58017953D01*
X112915724Y-57338477D01*
X112915723Y-57338477D01*
X112883343Y-57383044D01*
X112790444Y-57565368D01*
X112727209Y-57759982D01*
X112695200Y-57962082D01*
X107675700Y-57962082D01*
X107675700Y-57962048D01*
X107661383Y-57871657D01*
X107643677Y-57759865D01*
X107589998Y-57594659D01*
X107580420Y-57565181D01*
X107580418Y-57565178D01*
X107580418Y-57565176D01*
X107546703Y-57499007D01*
X107487487Y-57382790D01*
X107455292Y-57338477D01*
X107367171Y-57217186D01*
X107222413Y-57072428D01*
X107056813Y-56952115D01*
X107056812Y-56952114D01*
X107056810Y-56952113D01*
X106999853Y-56923091D01*
X106874423Y-56859181D01*
X106679734Y-56795922D01*
X106505195Y-56768278D01*
X106477552Y-56763900D01*
X106272848Y-56763900D01*
X106248529Y-56767751D01*
X106070665Y-56795922D01*
X105875976Y-56859181D01*
X105693586Y-56952115D01*
X105527986Y-57072428D01*
X105383228Y-57217186D01*
X105262915Y-57382785D01*
X105256083Y-57396195D01*
X105208109Y-57446991D01*
X105145598Y-57463900D01*
X95735457Y-57463900D01*
X95577343Y-57463900D01*
X95424615Y-57504823D01*
X95424614Y-57504823D01*
X95424612Y-57504824D01*
X95424609Y-57504825D01*
X95374496Y-57533759D01*
X95374495Y-57533760D01*
X95331089Y-57558820D01*
X95287685Y-57583879D01*
X95287682Y-57583881D01*
X88827183Y-64044381D01*
X88800255Y-64059084D01*
X88774437Y-64075677D01*
X88768236Y-64076568D01*
X88765860Y-64077866D01*
X88739502Y-64080700D01*
X88501698Y-64080700D01*
X88434659Y-64061015D01*
X88414017Y-64044381D01*
X84285862Y-59916226D01*
X78610615Y-54240980D01*
X78577131Y-54179658D01*
X78582115Y-54109966D01*
X78623987Y-54054033D01*
X78689451Y-54029616D01*
X78698297Y-54029300D01*
X78799421Y-54029300D01*
X78799422Y-54029300D01*
X79017151Y-53994815D01*
X79226806Y-53926695D01*
X79423222Y-53826615D01*
X79601565Y-53697042D01*
X79757442Y-53541165D01*
X79887015Y-53362822D01*
X79904369Y-53328764D01*
X79920552Y-53297004D01*
X79968526Y-53246209D01*
X80031036Y-53229300D01*
X109692131Y-53229300D01*
X109692147Y-53229301D01*
X109699743Y-53229301D01*
X109857854Y-53229301D01*
X109857857Y-53229301D01*
X110010585Y-53188377D01*
X110069741Y-53154223D01*
X110080459Y-53148035D01*
X118181000Y-53148035D01*
X118181000Y-53328765D01*
X118184408Y-53350280D01*
X118206652Y-53490728D01*
X118209273Y-53507271D01*
X118265122Y-53679156D01*
X118340256Y-53826615D01*
X118347174Y-53840191D01*
X118453396Y-53986396D01*
X118581203Y-54114203D01*
X118705522Y-54204524D01*
X118727412Y-54220428D01*
X118888444Y-54302478D01*
X119060329Y-54358327D01*
X119238835Y-54386600D01*
X119419565Y-54386600D01*
X119598071Y-54358327D01*
X119769956Y-54302478D01*
X119930988Y-54220428D01*
X120013079Y-54160785D01*
X120077196Y-54114203D01*
X120077198Y-54114200D01*
X120077202Y-54114198D01*
X120204998Y-53986402D01*
X120205000Y-53986398D01*
X120205003Y-53986396D01*
X120268267Y-53899319D01*
X120311228Y-53840188D01*
X120393278Y-53679156D01*
X120449127Y-53507271D01*
X120477400Y-53328765D01*
X120477400Y-53148035D01*
X120449127Y-52969529D01*
X120393278Y-52797644D01*
X120311228Y-52636612D01*
X120276262Y-52588485D01*
X120205003Y-52490403D01*
X120077196Y-52362596D01*
X119930991Y-52256374D01*
X119930990Y-52256373D01*
X119930988Y-52256372D01*
X119769956Y-52174322D01*
X119598071Y-52118473D01*
X119598069Y-52118472D01*
X119598067Y-52118472D01*
X119484620Y-52100503D01*
X119419565Y-52090200D01*
X119238835Y-52090200D01*
X119224945Y-52092400D01*
X119060332Y-52118472D01*
X118888441Y-52174323D01*
X118727408Y-52256374D01*
X118581203Y-52362596D01*
X118453396Y-52490403D01*
X118347174Y-52636608D01*
X118265123Y-52797641D01*
X118209272Y-52969532D01*
X118204840Y-52997516D01*
X118181000Y-53148035D01*
X110080459Y-53148035D01*
X110147516Y-53109320D01*
X110259320Y-52997516D01*
X110259320Y-52997514D01*
X110269524Y-52987311D01*
X110269528Y-52987306D01*
X117996248Y-45260585D01*
X118057569Y-45227102D01*
X118127261Y-45232086D01*
G37*
%TD.AperFunction*%
%TA.AperFunction,Conductor*%
G36*
X165973564Y-39701696D02*
G01*
X165989800Y-39715364D01*
X166190381Y-39915945D01*
X166223866Y-39977268D01*
X166226700Y-40003626D01*
X166226700Y-51104300D01*
X166207015Y-51171339D01*
X166154211Y-51217094D01*
X166102701Y-51228300D01*
X165879330Y-51228300D01*
X165879323Y-51228301D01*
X165819716Y-51234708D01*
X165684871Y-51285002D01*
X165684864Y-51285006D01*
X165569655Y-51371252D01*
X165569652Y-51371255D01*
X165483406Y-51486464D01*
X165483402Y-51486471D01*
X165433108Y-51621317D01*
X165426701Y-51680916D01*
X165426700Y-51680935D01*
X165426700Y-53576670D01*
X165426701Y-53576676D01*
X165433108Y-53636283D01*
X165483402Y-53771128D01*
X165483406Y-53771135D01*
X165569652Y-53886344D01*
X165569655Y-53886347D01*
X165684864Y-53972593D01*
X165684871Y-53972597D01*
X165819717Y-54022891D01*
X165819716Y-54022891D01*
X165826644Y-54023635D01*
X165879327Y-54029300D01*
X166818101Y-54029299D01*
X166885140Y-54048983D01*
X166930895Y-54101787D01*
X166940839Y-54170946D01*
X166911814Y-54234502D01*
X166905782Y-54240980D01*
X160315584Y-60831181D01*
X160254261Y-60864666D01*
X160227903Y-60867500D01*
X139492098Y-60867500D01*
X139425059Y-60847815D01*
X139404417Y-60831181D01*
X135661850Y-57088614D01*
X127961289Y-49388054D01*
X127961288Y-49388052D01*
X127842417Y-49269181D01*
X127842416Y-49269180D01*
X127755604Y-49219060D01*
X127755604Y-49219059D01*
X127755599Y-49219057D01*
X127741324Y-49210815D01*
X127693111Y-49160245D01*
X127679892Y-49091637D01*
X127705864Y-49026774D01*
X127715633Y-49015766D01*
X127824998Y-48906402D01*
X127825930Y-48905120D01*
X127844781Y-48879172D01*
X127931228Y-48760188D01*
X128013278Y-48599156D01*
X128069127Y-48427271D01*
X128097400Y-48248765D01*
X128097400Y-48068035D01*
X128091258Y-48029257D01*
X128079275Y-47953598D01*
X128088230Y-47884304D01*
X128133226Y-47830852D01*
X128199978Y-47810213D01*
X128201748Y-47810200D01*
X128522431Y-47810200D01*
X128522447Y-47810201D01*
X128530043Y-47810201D01*
X128688154Y-47810201D01*
X128688157Y-47810201D01*
X128840885Y-47769277D01*
X128900536Y-47734837D01*
X128977816Y-47690220D01*
X129089620Y-47578416D01*
X129089620Y-47578414D01*
X129099824Y-47568211D01*
X129099828Y-47568206D01*
X135770494Y-40897539D01*
X135831815Y-40864056D01*
X135901507Y-40869040D01*
X135957440Y-40910912D01*
X135976104Y-40946903D01*
X136005581Y-41037622D01*
X136031464Y-41088419D01*
X136065534Y-41155286D01*
X136098515Y-41220013D01*
X136218828Y-41385613D01*
X136363586Y-41530371D01*
X136462835Y-41602478D01*
X136529190Y-41650687D01*
X136642291Y-41708315D01*
X136711576Y-41743618D01*
X136711578Y-41743618D01*
X136711581Y-41743620D01*
X136815937Y-41777527D01*
X136906265Y-41806877D01*
X136981550Y-41818801D01*
X137108448Y-41838900D01*
X137108449Y-41838900D01*
X137313151Y-41838900D01*
X137313152Y-41838900D01*
X137515334Y-41806877D01*
X137710019Y-41743620D01*
X137892410Y-41650687D01*
X137988100Y-41581165D01*
X138058013Y-41530371D01*
X138058015Y-41530368D01*
X138058019Y-41530366D01*
X138202766Y-41385619D01*
X138202768Y-41385615D01*
X138202771Y-41385613D01*
X138323084Y-41220014D01*
X138323085Y-41220013D01*
X138323087Y-41220010D01*
X138329917Y-41206604D01*
X138377891Y-41155809D01*
X138440402Y-41138900D01*
X143601198Y-41138900D01*
X143668237Y-41158585D01*
X143711683Y-41206605D01*
X143718515Y-41220014D01*
X143838828Y-41385613D01*
X143983586Y-41530371D01*
X144082835Y-41602478D01*
X144149190Y-41650687D01*
X144262291Y-41708315D01*
X144331576Y-41743618D01*
X144331578Y-41743618D01*
X144331581Y-41743620D01*
X144435937Y-41777527D01*
X144526265Y-41806877D01*
X144601550Y-41818801D01*
X144728448Y-41838900D01*
X144728449Y-41838900D01*
X144933151Y-41838900D01*
X144933152Y-41838900D01*
X145135334Y-41806877D01*
X145330019Y-41743620D01*
X145512410Y-41650687D01*
X145608100Y-41581165D01*
X145678013Y-41530371D01*
X145678015Y-41530368D01*
X145678019Y-41530366D01*
X145822766Y-41385619D01*
X145822768Y-41385615D01*
X145822771Y-41385613D01*
X145943084Y-41220014D01*
X145943085Y-41220013D01*
X145943087Y-41220010D01*
X145949917Y-41206604D01*
X145960366Y-41195540D01*
X145966689Y-41181697D01*
X145983868Y-41170656D01*
X145997891Y-41155809D01*
X146013572Y-41151567D01*
X146025467Y-41143923D01*
X146060402Y-41138900D01*
X146166114Y-41138900D01*
X146233153Y-41158585D01*
X146276598Y-41206604D01*
X146283431Y-41220014D01*
X146309315Y-41270814D01*
X146429628Y-41436413D01*
X146429634Y-41436419D01*
X146574381Y-41581166D01*
X146739990Y-41701487D01*
X146753393Y-41708316D01*
X146804189Y-41756288D01*
X146821100Y-41818801D01*
X146821100Y-44014113D01*
X146801415Y-44081152D01*
X146748611Y-44126907D01*
X146679453Y-44136851D01*
X146677702Y-44136586D01*
X146584490Y-44121822D01*
X146507952Y-44109700D01*
X146303248Y-44109700D01*
X146278929Y-44113551D01*
X146101065Y-44141722D01*
X145906376Y-44204981D01*
X145723986Y-44297915D01*
X145558386Y-44418228D01*
X145413628Y-44562986D01*
X145293315Y-44728586D01*
X145246085Y-44821280D01*
X145198110Y-44872076D01*
X145130289Y-44888871D01*
X145064154Y-44866334D01*
X145025115Y-44821280D01*
X145019214Y-44809699D01*
X144977887Y-44728590D01*
X144945128Y-44683501D01*
X144857571Y-44562986D01*
X144712813Y-44418228D01*
X144547213Y-44297915D01*
X144547212Y-44297914D01*
X144547210Y-44297913D01*
X144485841Y-44266644D01*
X144364823Y-44204981D01*
X144170134Y-44141722D01*
X143995595Y-44114078D01*
X143967952Y-44109700D01*
X143763248Y-44109700D01*
X143738929Y-44113551D01*
X143561065Y-44141722D01*
X143366376Y-44204981D01*
X143183986Y-44297915D01*
X143018386Y-44418228D01*
X142873628Y-44562986D01*
X142753315Y-44728586D01*
X142660381Y-44910976D01*
X142597122Y-45105665D01*
X142565100Y-45307848D01*
X142565100Y-45512551D01*
X142597122Y-45714734D01*
X142660381Y-45909423D01*
X142719020Y-46024507D01*
X142743576Y-46072701D01*
X142753315Y-46091813D01*
X142873628Y-46257413D01*
X143018386Y-46402171D01*
X143145053Y-46494198D01*
X143183990Y-46522487D01*
X143282894Y-46572881D01*
X143366376Y-46615418D01*
X143366378Y-46615418D01*
X143366381Y-46615420D01*
X143470737Y-46649327D01*
X143561065Y-46678677D01*
X143662157Y-46694688D01*
X143763248Y-46710700D01*
X143763249Y-46710700D01*
X143967951Y-46710700D01*
X143967952Y-46710700D01*
X144170134Y-46678677D01*
X144364819Y-46615420D01*
X144547210Y-46522487D01*
X144640190Y-46454932D01*
X144712813Y-46402171D01*
X144712815Y-46402168D01*
X144712819Y-46402166D01*
X144857566Y-46257419D01*
X144857568Y-46257415D01*
X144857571Y-46257413D01*
X144977884Y-46091814D01*
X144977885Y-46091813D01*
X144977887Y-46091810D01*
X145025116Y-45999117D01*
X145073089Y-45948323D01*
X145140910Y-45931528D01*
X145207045Y-45954065D01*
X145246083Y-45999117D01*
X145286483Y-46078405D01*
X145293315Y-46091814D01*
X145413628Y-46257413D01*
X145558386Y-46402171D01*
X145685053Y-46494198D01*
X145723990Y-46522487D01*
X145822894Y-46572881D01*
X145906376Y-46615418D01*
X145906378Y-46615418D01*
X145906381Y-46615420D01*
X146010737Y-46649327D01*
X146101065Y-46678677D01*
X146202157Y-46694688D01*
X146303248Y-46710700D01*
X146303249Y-46710700D01*
X146496502Y-46710700D01*
X146563541Y-46730385D01*
X146609296Y-46783189D01*
X146619240Y-46852347D01*
X146590215Y-46915903D01*
X146584183Y-46922381D01*
X145925081Y-47581482D01*
X145925080Y-47581484D01*
X145884514Y-47651747D01*
X145846023Y-47718415D01*
X145805099Y-47871143D01*
X145805099Y-47871145D01*
X145805099Y-48039246D01*
X145805100Y-48039259D01*
X145805100Y-51800597D01*
X145785415Y-51867636D01*
X145737400Y-51911079D01*
X145723989Y-51917912D01*
X145558386Y-52038228D01*
X145413632Y-52182982D01*
X145345216Y-52277149D01*
X145289886Y-52319814D01*
X145220272Y-52325793D01*
X145158477Y-52293187D01*
X145127192Y-52243267D01*
X145099958Y-52161080D01*
X145099956Y-52161075D01*
X145007915Y-52011854D01*
X144883945Y-51887884D01*
X144734724Y-51795843D01*
X144734719Y-51795841D01*
X144568297Y-51740694D01*
X144568290Y-51740693D01*
X144465586Y-51730200D01*
X144115600Y-51730200D01*
X144115600Y-52714514D01*
X144111206Y-52710120D01*
X144019994Y-52657459D01*
X143918261Y-52630200D01*
X143812939Y-52630200D01*
X143711206Y-52657459D01*
X143619994Y-52710120D01*
X143615600Y-52714514D01*
X143615600Y-51730200D01*
X143265628Y-51730200D01*
X143265612Y-51730201D01*
X143162902Y-51740694D01*
X142996480Y-51795841D01*
X142996475Y-51795843D01*
X142847254Y-51887884D01*
X142723284Y-52011854D01*
X142631243Y-52161075D01*
X142631241Y-52161080D01*
X142576094Y-52327502D01*
X142576093Y-52327509D01*
X142565600Y-52430213D01*
X142565600Y-52780200D01*
X143549914Y-52780200D01*
X143545520Y-52784594D01*
X143492859Y-52875806D01*
X143465600Y-52977539D01*
X143465600Y-53082861D01*
X143492859Y-53184594D01*
X143545520Y-53275806D01*
X143549914Y-53280200D01*
X142565601Y-53280200D01*
X142565601Y-53630186D01*
X142576094Y-53732897D01*
X142631241Y-53899319D01*
X142631243Y-53899324D01*
X142723284Y-54048545D01*
X142847254Y-54172515D01*
X142996475Y-54264556D01*
X142996480Y-54264558D01*
X143162902Y-54319705D01*
X143162909Y-54319706D01*
X143265619Y-54330199D01*
X143615599Y-54330199D01*
X143615600Y-54330198D01*
X143615600Y-53345886D01*
X143619994Y-53350280D01*
X143711206Y-53402941D01*
X143812939Y-53430200D01*
X143918261Y-53430200D01*
X144019994Y-53402941D01*
X144111206Y-53350280D01*
X144115600Y-53345886D01*
X144115600Y-54330199D01*
X144465572Y-54330199D01*
X144465586Y-54330198D01*
X144568297Y-54319705D01*
X144734719Y-54264558D01*
X144734724Y-54264556D01*
X144883945Y-54172515D01*
X145007915Y-54048545D01*
X145099956Y-53899324D01*
X145099959Y-53899317D01*
X145127192Y-53817132D01*
X145166964Y-53759687D01*
X145231479Y-53732863D01*
X145300255Y-53745177D01*
X145345216Y-53783249D01*
X145413630Y-53877413D01*
X145413634Y-53877419D01*
X145555494Y-54019279D01*
X145588979Y-54080602D01*
X145591813Y-54106960D01*
X145591813Y-56195037D01*
X145572128Y-56262076D01*
X145519324Y-56307831D01*
X145493772Y-56316289D01*
X145489520Y-56317199D01*
X145322981Y-56372385D01*
X145322976Y-56372387D01*
X145173655Y-56464489D01*
X145049602Y-56588542D01*
X144957500Y-56737863D01*
X144957498Y-56737868D01*
X144948872Y-56763900D01*
X144902314Y-56904403D01*
X144902314Y-56904404D01*
X144902313Y-56904404D01*
X144891813Y-57007183D01*
X144891813Y-58207201D01*
X144891814Y-58207218D01*
X144902313Y-58309996D01*
X144902314Y-58309999D01*
X144926995Y-58384480D01*
X144957499Y-58476534D01*
X145049601Y-58625856D01*
X145173657Y-58749912D01*
X145322979Y-58842014D01*
X145489516Y-58897199D01*
X145592304Y-58907700D01*
X146792321Y-58907699D01*
X146895110Y-58897199D01*
X147061647Y-58842014D01*
X147210969Y-58749912D01*
X147280192Y-58680689D01*
X147341515Y-58647204D01*
X147411207Y-58652188D01*
X147440759Y-58668053D01*
X147510959Y-58719057D01*
X147693281Y-58811955D01*
X147887895Y-58875190D01*
X148089996Y-58907200D01*
X148294630Y-58907200D01*
X148496730Y-58875190D01*
X148691344Y-58811955D01*
X148873662Y-58719059D01*
X148918234Y-58686674D01*
X148238760Y-58007200D01*
X148244974Y-58007200D01*
X148346707Y-57979941D01*
X148437919Y-57927280D01*
X148512393Y-57852806D01*
X148565054Y-57761594D01*
X148592313Y-57659861D01*
X148592313Y-57653648D01*
X149271787Y-58333122D01*
X149271787Y-58333121D01*
X149304172Y-58288549D01*
X149397068Y-58106231D01*
X149460303Y-57911617D01*
X149492313Y-57709517D01*
X149492313Y-57504882D01*
X149460303Y-57302782D01*
X149397068Y-57108168D01*
X149304172Y-56925850D01*
X149271787Y-56881277D01*
X149271787Y-56881276D01*
X148592313Y-57560751D01*
X148592313Y-57554539D01*
X148565054Y-57452806D01*
X148512393Y-57361594D01*
X148437919Y-57287120D01*
X148346707Y-57234459D01*
X148244974Y-57207200D01*
X148238759Y-57207200D01*
X148918235Y-56527724D01*
X148918234Y-56527723D01*
X148873672Y-56495347D01*
X148873663Y-56495341D01*
X148691344Y-56402444D01*
X148496730Y-56339209D01*
X148294630Y-56307200D01*
X148089996Y-56307200D01*
X147887895Y-56339209D01*
X147693281Y-56402444D01*
X147510964Y-56495339D01*
X147440757Y-56546348D01*
X147374950Y-56569827D01*
X147306896Y-56554001D01*
X147280191Y-56533710D01*
X147210970Y-56464489D01*
X147210969Y-56464488D01*
X147074296Y-56380188D01*
X147061649Y-56372387D01*
X147061644Y-56372385D01*
X146895108Y-56317200D01*
X146890846Y-56316288D01*
X146829415Y-56283001D01*
X146795732Y-56221786D01*
X146792813Y-56195037D01*
X146792813Y-54361904D01*
X146812498Y-54294865D01*
X146865302Y-54249110D01*
X146878492Y-54243973D01*
X146904819Y-54235420D01*
X147087210Y-54142487D01*
X147193012Y-54065618D01*
X147252813Y-54022171D01*
X147252815Y-54022168D01*
X147252819Y-54022166D01*
X147397566Y-53877419D01*
X147397568Y-53877415D01*
X147397571Y-53877413D01*
X147517884Y-53711814D01*
X147517885Y-53711813D01*
X147517887Y-53711810D01*
X147565116Y-53619117D01*
X147613089Y-53568323D01*
X147680910Y-53551528D01*
X147747045Y-53574065D01*
X147786083Y-53619117D01*
X147794830Y-53636283D01*
X147833315Y-53711814D01*
X147953628Y-53877413D01*
X148098386Y-54022171D01*
X148228535Y-54116728D01*
X148263990Y-54142487D01*
X148365718Y-54194320D01*
X148446376Y-54235418D01*
X148446378Y-54235418D01*
X148446381Y-54235420D01*
X148536059Y-54264558D01*
X148641065Y-54298677D01*
X148742157Y-54314688D01*
X148843248Y-54330700D01*
X148843249Y-54330700D01*
X149047951Y-54330700D01*
X149047952Y-54330700D01*
X149250134Y-54298677D01*
X149444819Y-54235420D01*
X149627210Y-54142487D01*
X149733012Y-54065618D01*
X149792813Y-54022171D01*
X149792815Y-54022168D01*
X149792819Y-54022166D01*
X149937566Y-53877419D01*
X149937568Y-53877415D01*
X149937571Y-53877413D01*
X150057884Y-53711814D01*
X150057885Y-53711813D01*
X150057887Y-53711810D01*
X150105116Y-53619117D01*
X150153089Y-53568323D01*
X150220910Y-53551528D01*
X150287045Y-53574065D01*
X150326083Y-53619117D01*
X150334830Y-53636283D01*
X150373315Y-53711814D01*
X150493628Y-53877413D01*
X150638386Y-54022171D01*
X150768535Y-54116728D01*
X150803990Y-54142487D01*
X150905718Y-54194320D01*
X150986376Y-54235418D01*
X150986378Y-54235418D01*
X150986381Y-54235420D01*
X151076059Y-54264558D01*
X151181065Y-54298677D01*
X151282157Y-54314688D01*
X151383248Y-54330700D01*
X151383249Y-54330700D01*
X151587951Y-54330700D01*
X151587952Y-54330700D01*
X151790134Y-54298677D01*
X151984819Y-54235420D01*
X152167210Y-54142487D01*
X152273012Y-54065618D01*
X152332813Y-54022171D01*
X152332815Y-54022168D01*
X152332819Y-54022166D01*
X152477566Y-53877419D01*
X152477568Y-53877415D01*
X152477571Y-53877413D01*
X152539003Y-53792857D01*
X152597887Y-53711810D01*
X152690820Y-53529419D01*
X152754077Y-53334734D01*
X152786100Y-53132552D01*
X152786100Y-52927848D01*
X152779397Y-52885528D01*
X152754077Y-52725665D01*
X152690818Y-52530976D01*
X152605023Y-52362596D01*
X152597887Y-52348590D01*
X152557635Y-52293187D01*
X152477571Y-52182986D01*
X152332813Y-52038228D01*
X152167213Y-51917915D01*
X152167212Y-51917914D01*
X152167210Y-51917913D01*
X152108275Y-51887884D01*
X151984823Y-51824981D01*
X151790134Y-51761722D01*
X151615595Y-51734078D01*
X151587952Y-51729700D01*
X151383248Y-51729700D01*
X151358929Y-51733551D01*
X151181065Y-51761722D01*
X150986376Y-51824981D01*
X150803986Y-51917915D01*
X150638386Y-52038228D01*
X150493628Y-52182986D01*
X150373315Y-52348586D01*
X150326085Y-52441280D01*
X150278110Y-52492076D01*
X150210289Y-52508871D01*
X150144154Y-52486334D01*
X150105115Y-52441280D01*
X150065023Y-52362596D01*
X150057887Y-52348590D01*
X150017635Y-52293187D01*
X149937571Y-52182986D01*
X149792813Y-52038228D01*
X149627213Y-51917915D01*
X149627212Y-51917914D01*
X149627210Y-51917913D01*
X149568275Y-51887884D01*
X149444823Y-51824981D01*
X149250134Y-51761722D01*
X149075595Y-51734078D01*
X149047952Y-51729700D01*
X148843248Y-51729700D01*
X148818929Y-51733551D01*
X148641065Y-51761722D01*
X148446376Y-51824981D01*
X148263986Y-51917915D01*
X148098386Y-52038228D01*
X147953628Y-52182986D01*
X147833315Y-52348586D01*
X147786085Y-52441280D01*
X147738110Y-52492076D01*
X147670289Y-52508871D01*
X147604154Y-52486334D01*
X147565115Y-52441280D01*
X147525023Y-52362596D01*
X147517887Y-52348590D01*
X147477635Y-52293187D01*
X147397571Y-52182986D01*
X147252813Y-52038228D01*
X147087210Y-51917912D01*
X147073800Y-51911079D01*
X147023006Y-51863103D01*
X147006100Y-51800597D01*
X147006100Y-48250296D01*
X147025785Y-48183257D01*
X147042414Y-48162620D01*
X148500758Y-46704275D01*
X148562079Y-46670792D01*
X148626751Y-46674025D01*
X148641066Y-46678677D01*
X148641071Y-46678677D01*
X148641072Y-46678678D01*
X148665064Y-46682478D01*
X148843248Y-46710700D01*
X148843249Y-46710700D01*
X149047951Y-46710700D01*
X149047952Y-46710700D01*
X149250134Y-46678677D01*
X149444819Y-46615420D01*
X149627210Y-46522487D01*
X149720190Y-46454932D01*
X149792813Y-46402171D01*
X149792815Y-46402168D01*
X149792819Y-46402166D01*
X149937566Y-46257419D01*
X149937568Y-46257415D01*
X149937571Y-46257413D01*
X150057884Y-46091814D01*
X150057885Y-46091813D01*
X150057887Y-46091810D01*
X150105116Y-45999117D01*
X150153089Y-45948323D01*
X150220910Y-45931528D01*
X150287045Y-45954065D01*
X150326083Y-45999117D01*
X150366483Y-46078405D01*
X150373315Y-46091814D01*
X150493628Y-46257413D01*
X150638386Y-46402171D01*
X150765053Y-46494198D01*
X150803990Y-46522487D01*
X150902894Y-46572881D01*
X150986376Y-46615418D01*
X150986378Y-46615418D01*
X150986381Y-46615420D01*
X151090737Y-46649327D01*
X151181065Y-46678677D01*
X151282157Y-46694688D01*
X151383248Y-46710700D01*
X151383249Y-46710700D01*
X151587951Y-46710700D01*
X151587952Y-46710700D01*
X151790134Y-46678677D01*
X151984819Y-46615420D01*
X152167210Y-46522487D01*
X152260190Y-46454932D01*
X152332813Y-46402171D01*
X152332815Y-46402168D01*
X152332819Y-46402166D01*
X152477566Y-46257419D01*
X152477568Y-46257415D01*
X152477571Y-46257413D01*
X152597884Y-46091814D01*
X152597885Y-46091813D01*
X152597887Y-46091810D01*
X152604717Y-46078404D01*
X152652691Y-46027609D01*
X152715202Y-46010700D01*
X154872317Y-46010700D01*
X154939356Y-46030385D01*
X154979704Y-46072700D01*
X155002921Y-46112913D01*
X155018279Y-46139514D01*
X155018281Y-46139517D01*
X155137149Y-46258385D01*
X155137155Y-46258390D01*
X155659122Y-46780357D01*
X155692607Y-46841680D01*
X155689373Y-46906355D01*
X155684722Y-46920668D01*
X155652700Y-47122848D01*
X155652700Y-47327551D01*
X155684722Y-47529734D01*
X155747981Y-47724423D01*
X155831407Y-47888154D01*
X155840913Y-47906810D01*
X155892287Y-47977521D01*
X155915767Y-48043327D01*
X155899942Y-48111381D01*
X155879651Y-48138086D01*
X155810884Y-48206854D01*
X155718843Y-48356075D01*
X155718841Y-48356080D01*
X155663694Y-48522502D01*
X155663693Y-48522509D01*
X155653200Y-48625213D01*
X155653200Y-48975200D01*
X156637514Y-48975200D01*
X156633120Y-48979594D01*
X156580459Y-49070806D01*
X156553200Y-49172539D01*
X156553200Y-49277861D01*
X156580459Y-49379594D01*
X156633120Y-49470806D01*
X156637514Y-49475200D01*
X155653201Y-49475200D01*
X155653201Y-49825186D01*
X155663694Y-49927897D01*
X155718841Y-50094319D01*
X155718843Y-50094324D01*
X155810884Y-50243545D01*
X155934854Y-50367515D01*
X156084075Y-50459556D01*
X156084080Y-50459558D01*
X156250502Y-50514705D01*
X156250509Y-50514706D01*
X156353219Y-50525199D01*
X156703199Y-50525199D01*
X156703200Y-50525198D01*
X156703200Y-49540886D01*
X156707594Y-49545280D01*
X156798806Y-49597941D01*
X156900539Y-49625200D01*
X157005861Y-49625200D01*
X157107594Y-49597941D01*
X157198806Y-49545280D01*
X157203200Y-49540886D01*
X157203200Y-50525199D01*
X157553172Y-50525199D01*
X157553186Y-50525198D01*
X157655897Y-50514705D01*
X157822319Y-50459558D01*
X157822324Y-50459556D01*
X157971545Y-50367515D01*
X158095515Y-50243545D01*
X158187556Y-50094324D01*
X158187558Y-50094319D01*
X158242705Y-49927897D01*
X158242706Y-49927890D01*
X158253199Y-49825186D01*
X158253200Y-49825173D01*
X158253200Y-49475200D01*
X157268886Y-49475200D01*
X157273280Y-49470806D01*
X157325941Y-49379594D01*
X157353200Y-49277861D01*
X157353200Y-49172539D01*
X157325941Y-49070806D01*
X157273280Y-48979594D01*
X157268886Y-48975200D01*
X158253199Y-48975200D01*
X158253199Y-48625228D01*
X158253198Y-48625213D01*
X158242705Y-48522502D01*
X158187558Y-48356080D01*
X158187556Y-48356075D01*
X158095515Y-48206854D01*
X158026749Y-48138088D01*
X157993264Y-48076765D01*
X157998248Y-48007073D01*
X158014109Y-47977525D01*
X158065487Y-47906810D01*
X158158420Y-47724419D01*
X158221677Y-47529734D01*
X158253700Y-47327552D01*
X158253700Y-47122848D01*
X158221677Y-46920666D01*
X158220129Y-46915903D01*
X158158418Y-46725976D01*
X158094447Y-46600428D01*
X158065487Y-46543590D01*
X158019684Y-46480547D01*
X157945171Y-46377986D01*
X157800413Y-46233228D01*
X157634813Y-46112915D01*
X157634812Y-46112914D01*
X157634810Y-46112913D01*
X157577853Y-46083891D01*
X157452423Y-46019981D01*
X157257734Y-45956722D01*
X157083195Y-45929078D01*
X157055552Y-45924700D01*
X156850848Y-45924700D01*
X156812799Y-45930726D01*
X156648668Y-45956722D01*
X156639917Y-45959565D01*
X156634354Y-45961373D01*
X156564513Y-45963367D01*
X156508357Y-45931122D01*
X156060258Y-45483023D01*
X156040551Y-45457341D01*
X155979321Y-45351286D01*
X155979320Y-45351284D01*
X155867516Y-45239480D01*
X155867515Y-45239479D01*
X155863185Y-45235149D01*
X155863174Y-45235139D01*
X155676590Y-45048555D01*
X155676588Y-45048552D01*
X155557717Y-44929681D01*
X155557709Y-44929675D01*
X155445114Y-44864669D01*
X155445113Y-44864668D01*
X155445113Y-44864669D01*
X155420785Y-44850623D01*
X155268057Y-44809699D01*
X155109943Y-44809699D01*
X155102347Y-44809699D01*
X155102331Y-44809700D01*
X152715202Y-44809700D01*
X152648163Y-44790015D01*
X152604717Y-44741995D01*
X152597884Y-44728585D01*
X152477571Y-44562986D01*
X152332813Y-44418228D01*
X152167213Y-44297915D01*
X152167212Y-44297914D01*
X152167210Y-44297913D01*
X152105841Y-44266644D01*
X151984823Y-44204981D01*
X151790134Y-44141722D01*
X151615595Y-44114078D01*
X151587952Y-44109700D01*
X151383248Y-44109700D01*
X151358929Y-44113551D01*
X151181065Y-44141722D01*
X150986376Y-44204981D01*
X150803986Y-44297915D01*
X150638386Y-44418228D01*
X150493628Y-44562986D01*
X150373315Y-44728586D01*
X150326085Y-44821280D01*
X150278110Y-44872076D01*
X150210289Y-44888871D01*
X150144154Y-44866334D01*
X150105115Y-44821280D01*
X150099214Y-44809699D01*
X150057887Y-44728590D01*
X150025128Y-44683501D01*
X149937571Y-44562986D01*
X149792813Y-44418228D01*
X149627213Y-44297915D01*
X149627212Y-44297914D01*
X149627210Y-44297913D01*
X149565841Y-44266644D01*
X149444823Y-44204981D01*
X149250134Y-44141722D01*
X149075595Y-44114078D01*
X149047952Y-44109700D01*
X148843248Y-44109700D01*
X148818929Y-44113551D01*
X148641065Y-44141722D01*
X148446376Y-44204981D01*
X148263986Y-44297915D01*
X148218985Y-44330610D01*
X148153178Y-44354090D01*
X148085125Y-44338264D01*
X148036430Y-44288158D01*
X148022100Y-44230292D01*
X148022100Y-41818801D01*
X148041785Y-41751762D01*
X148089806Y-41708316D01*
X148103210Y-41701487D01*
X148268819Y-41581166D01*
X148413566Y-41436419D01*
X148413568Y-41436415D01*
X148413571Y-41436413D01*
X148466332Y-41363790D01*
X148533887Y-41270810D01*
X148626820Y-41088419D01*
X148690077Y-40893734D01*
X148722100Y-40691552D01*
X148722100Y-40486848D01*
X148710786Y-40415415D01*
X148690077Y-40284665D01*
X148679302Y-40251505D01*
X148662637Y-40200217D01*
X148660643Y-40130378D01*
X148696723Y-40070545D01*
X148759423Y-40039716D01*
X148780569Y-40037900D01*
X153682631Y-40037900D01*
X153749670Y-40057585D01*
X153795425Y-40110389D01*
X153805369Y-40179547D01*
X153800563Y-40200213D01*
X153795915Y-40214519D01*
X153773122Y-40284665D01*
X153741100Y-40486848D01*
X153741100Y-40691551D01*
X153773122Y-40893734D01*
X153836381Y-41088423D01*
X153929315Y-41270813D01*
X154049628Y-41436413D01*
X154194386Y-41581171D01*
X154339500Y-41686600D01*
X154359990Y-41701487D01*
X154441099Y-41742814D01*
X154542376Y-41794418D01*
X154542378Y-41794418D01*
X154542381Y-41794420D01*
X154580720Y-41806877D01*
X154737065Y-41857677D01*
X154838157Y-41873688D01*
X154939248Y-41889700D01*
X154939249Y-41889700D01*
X155143951Y-41889700D01*
X155143952Y-41889700D01*
X155346134Y-41857677D01*
X155540819Y-41794420D01*
X155723210Y-41701487D01*
X155816190Y-41633932D01*
X155888813Y-41581171D01*
X155888815Y-41581168D01*
X155888819Y-41581166D01*
X156033566Y-41436419D01*
X156033568Y-41436415D01*
X156033571Y-41436413D01*
X156086332Y-41363790D01*
X156153887Y-41270810D01*
X156246820Y-41088419D01*
X156274515Y-41003181D01*
X156313953Y-40945506D01*
X156378311Y-40918308D01*
X156392446Y-40917500D01*
X163253531Y-40917500D01*
X163253547Y-40917501D01*
X163261143Y-40917501D01*
X163419254Y-40917501D01*
X163419257Y-40917501D01*
X163571985Y-40876577D01*
X163630256Y-40842934D01*
X163708916Y-40797520D01*
X163820720Y-40685716D01*
X163820720Y-40685714D01*
X163830924Y-40675511D01*
X163830928Y-40675506D01*
X164016997Y-40489436D01*
X164078318Y-40455953D01*
X164142994Y-40459188D01*
X164213249Y-40482015D01*
X164430978Y-40516500D01*
X164430979Y-40516500D01*
X164651421Y-40516500D01*
X164651422Y-40516500D01*
X164869151Y-40482015D01*
X165078806Y-40413895D01*
X165275222Y-40313815D01*
X165453565Y-40184242D01*
X165609442Y-40028365D01*
X165739015Y-39850022D01*
X165791635Y-39746749D01*
X165839608Y-39695954D01*
X165907429Y-39679159D01*
X165973564Y-39701696D01*
G37*
%TD.AperFunction*%
%TA.AperFunction,Conductor*%
G36*
X154746764Y-32284896D02*
G01*
X154763000Y-32298564D01*
X160564381Y-38099945D01*
X160597866Y-38161268D01*
X160600700Y-38187626D01*
X160600700Y-38892600D01*
X160600701Y-39592500D01*
X160581016Y-39659539D01*
X160528213Y-39705294D01*
X160476701Y-39716500D01*
X156626547Y-39716500D01*
X156559508Y-39696815D01*
X156538866Y-39680181D01*
X155934440Y-39075755D01*
X155934438Y-39075752D01*
X155815567Y-38956881D01*
X155815559Y-38956875D01*
X155704230Y-38892600D01*
X155704229Y-38892599D01*
X155686239Y-38882213D01*
X155678635Y-38877823D01*
X155525907Y-38836899D01*
X155367793Y-38836899D01*
X155360197Y-38836899D01*
X155360181Y-38836900D01*
X136302343Y-38836900D01*
X136149613Y-38877823D01*
X136124021Y-38892600D01*
X136124020Y-38892600D01*
X136012687Y-38956877D01*
X136012682Y-38956881D01*
X131876181Y-43093383D01*
X131814858Y-43126868D01*
X131745166Y-43121884D01*
X131689233Y-43080012D01*
X131664816Y-43014548D01*
X131664500Y-43005702D01*
X131664500Y-37765365D01*
X131684185Y-37698326D01*
X131685398Y-37696474D01*
X131773390Y-37564785D01*
X131773390Y-37564784D01*
X131773394Y-37564779D01*
X131833737Y-37419097D01*
X131864500Y-37264442D01*
X131864500Y-37106758D01*
X131864500Y-37106755D01*
X131864499Y-37106753D01*
X131845847Y-37012985D01*
X131833737Y-36952103D01*
X131803239Y-36878473D01*
X131773397Y-36806427D01*
X131773390Y-36806414D01*
X131685789Y-36675311D01*
X131685786Y-36675307D01*
X131574292Y-36563813D01*
X131574288Y-36563810D01*
X131443185Y-36476209D01*
X131443172Y-36476202D01*
X131297501Y-36415864D01*
X131297489Y-36415861D01*
X131142845Y-36385100D01*
X131142842Y-36385100D01*
X130985158Y-36385100D01*
X130985155Y-36385100D01*
X130830510Y-36415861D01*
X130830498Y-36415864D01*
X130684827Y-36476202D01*
X130684814Y-36476209D01*
X130553711Y-36563810D01*
X130553707Y-36563813D01*
X130442213Y-36675307D01*
X130442210Y-36675311D01*
X130354609Y-36806414D01*
X130354602Y-36806427D01*
X130294264Y-36952098D01*
X130294261Y-36952110D01*
X130263500Y-37106753D01*
X130263500Y-37264446D01*
X130294261Y-37419089D01*
X130294264Y-37419101D01*
X130354602Y-37564772D01*
X130354609Y-37564785D01*
X130442602Y-37696474D01*
X130463480Y-37763151D01*
X130463500Y-37765365D01*
X130463500Y-42778303D01*
X130443815Y-42845342D01*
X130427181Y-42865984D01*
X129677739Y-43615425D01*
X129616416Y-43648910D01*
X129614250Y-43649361D01*
X129458908Y-43680261D01*
X129458898Y-43680264D01*
X129313227Y-43740602D01*
X129313214Y-43740609D01*
X129182111Y-43828210D01*
X129182107Y-43828213D01*
X129070613Y-43939707D01*
X129070610Y-43939711D01*
X128983009Y-44070814D01*
X128983002Y-44070827D01*
X128922664Y-44216498D01*
X128922661Y-44216510D01*
X128891900Y-44371153D01*
X128891900Y-44528846D01*
X128922661Y-44683489D01*
X128922664Y-44683501D01*
X128983002Y-44829172D01*
X128983009Y-44829185D01*
X129070610Y-44960288D01*
X129070613Y-44960292D01*
X129182107Y-45071786D01*
X129182111Y-45071789D01*
X129313214Y-45159390D01*
X129313227Y-45159397D01*
X129458898Y-45219735D01*
X129458903Y-45219737D01*
X129474029Y-45222745D01*
X129535939Y-45255129D01*
X129570515Y-45315844D01*
X129566777Y-45385614D01*
X129537520Y-45432044D01*
X128396684Y-46572881D01*
X128335361Y-46606366D01*
X128309003Y-46609200D01*
X127637809Y-46609200D01*
X127570770Y-46589515D01*
X127550128Y-46572881D01*
X126989348Y-46012100D01*
X127001032Y-46012100D01*
X127101162Y-45985270D01*
X127190937Y-45933438D01*
X127264238Y-45860137D01*
X127316070Y-45770362D01*
X127342900Y-45670232D01*
X127342900Y-45658547D01*
X127919640Y-46235287D01*
X127919640Y-46235286D01*
X127930797Y-46219932D01*
X127930799Y-46219928D01*
X128012813Y-46058966D01*
X128068640Y-45887150D01*
X128096900Y-45708731D01*
X128096900Y-45528068D01*
X128068640Y-45349649D01*
X128012813Y-45177833D01*
X127930802Y-45016877D01*
X127919639Y-45001512D01*
X127919638Y-45001512D01*
X127342900Y-45578251D01*
X127342900Y-45566568D01*
X127316070Y-45466438D01*
X127264238Y-45376663D01*
X127190937Y-45303362D01*
X127101162Y-45251530D01*
X127001032Y-45224700D01*
X126989347Y-45224700D01*
X127566086Y-44647959D01*
X127566086Y-44647958D01*
X127550729Y-44636801D01*
X127389766Y-44554786D01*
X127217950Y-44498959D01*
X127217952Y-44498959D01*
X127051858Y-44472652D01*
X126846541Y-44472652D01*
X126680448Y-44498959D01*
X126508633Y-44554786D01*
X126347676Y-44636797D01*
X126347672Y-44636800D01*
X126332312Y-44647958D01*
X126332312Y-44647959D01*
X126909054Y-45224700D01*
X126897368Y-45224700D01*
X126797238Y-45251530D01*
X126707463Y-45303362D01*
X126634162Y-45376663D01*
X126582330Y-45466438D01*
X126555500Y-45566568D01*
X126555500Y-45578253D01*
X125978759Y-45001512D01*
X125978758Y-45001512D01*
X125967600Y-45016872D01*
X125967597Y-45016876D01*
X125885586Y-45177833D01*
X125829759Y-45349649D01*
X125801500Y-45528068D01*
X125801500Y-45708731D01*
X125829759Y-45887150D01*
X125885586Y-46058966D01*
X125967601Y-46219929D01*
X125978758Y-46235286D01*
X125978759Y-46235286D01*
X126555500Y-45658545D01*
X126555500Y-45670232D01*
X126582330Y-45770362D01*
X126634162Y-45860137D01*
X126707463Y-45933438D01*
X126797238Y-45985270D01*
X126897368Y-46012100D01*
X126909053Y-46012100D01*
X126348270Y-46572881D01*
X126286947Y-46606366D01*
X126260589Y-46609200D01*
X120261562Y-46609200D01*
X120194523Y-46589515D01*
X120148768Y-46536711D01*
X120138824Y-46467553D01*
X120167849Y-46403997D01*
X120173881Y-46397519D01*
X120204998Y-46366402D01*
X120205000Y-46366398D01*
X120205003Y-46366396D01*
X120251585Y-46302279D01*
X120311228Y-46220188D01*
X120393278Y-46059156D01*
X120449127Y-45887271D01*
X120477400Y-45708765D01*
X120477400Y-45528035D01*
X120449127Y-45349529D01*
X120393278Y-45177644D01*
X120311228Y-45016612D01*
X120298150Y-44998612D01*
X120205003Y-44870403D01*
X120077196Y-44742596D01*
X119930991Y-44636374D01*
X119930990Y-44636373D01*
X119930988Y-44636372D01*
X119769956Y-44554322D01*
X119598071Y-44498473D01*
X119598069Y-44498472D01*
X119598067Y-44498472D01*
X119479636Y-44479714D01*
X119423812Y-44470872D01*
X119360678Y-44440944D01*
X119323747Y-44381632D01*
X119324745Y-44311770D01*
X119363355Y-44253537D01*
X119423812Y-44225927D01*
X119598071Y-44198327D01*
X119769956Y-44142478D01*
X119930988Y-44060428D01*
X120013079Y-44000785D01*
X120077196Y-43954203D01*
X120077198Y-43954200D01*
X120077202Y-43954198D01*
X120204998Y-43826402D01*
X120205000Y-43826398D01*
X120205003Y-43826396D01*
X120267335Y-43740602D01*
X120311228Y-43680188D01*
X120393278Y-43519156D01*
X120449127Y-43347271D01*
X120477400Y-43168765D01*
X120477400Y-42988035D01*
X125801000Y-42988035D01*
X125801000Y-43168765D01*
X125829273Y-43347271D01*
X125885122Y-43519156D01*
X125959270Y-43664680D01*
X125967174Y-43680191D01*
X126073396Y-43826396D01*
X126201203Y-43954203D01*
X126283664Y-44014113D01*
X126347412Y-44060428D01*
X126508444Y-44142478D01*
X126680329Y-44198327D01*
X126858835Y-44226600D01*
X127039565Y-44226600D01*
X127218071Y-44198327D01*
X127389956Y-44142478D01*
X127550988Y-44060428D01*
X127633079Y-44000785D01*
X127697196Y-43954203D01*
X127697198Y-43954200D01*
X127697202Y-43954198D01*
X127824998Y-43826402D01*
X127825000Y-43826398D01*
X127825003Y-43826396D01*
X127887335Y-43740602D01*
X127931228Y-43680188D01*
X128013278Y-43519156D01*
X128069127Y-43347271D01*
X128097400Y-43168765D01*
X128097400Y-42988035D01*
X128069127Y-42809529D01*
X128013278Y-42637644D01*
X127931228Y-42476612D01*
X127924402Y-42467217D01*
X127825003Y-42330403D01*
X127697196Y-42202596D01*
X127550991Y-42096374D01*
X127550990Y-42096373D01*
X127550988Y-42096372D01*
X127389956Y-42014322D01*
X127218071Y-41958473D01*
X127218069Y-41958472D01*
X127218067Y-41958472D01*
X127051859Y-41932147D01*
X127051858Y-41932147D01*
X127039565Y-41930200D01*
X126858835Y-41930200D01*
X126846542Y-41932147D01*
X126846540Y-41932147D01*
X126680332Y-41958472D01*
X126508441Y-42014323D01*
X126347408Y-42096374D01*
X126201203Y-42202596D01*
X126073396Y-42330403D01*
X125967174Y-42476608D01*
X125885123Y-42637641D01*
X125829272Y-42809532D01*
X125820331Y-42865984D01*
X125801000Y-42988035D01*
X120477400Y-42988035D01*
X120449127Y-42809529D01*
X120393278Y-42637644D01*
X120311228Y-42476612D01*
X120304402Y-42467217D01*
X120205003Y-42330403D01*
X120077196Y-42202596D01*
X119930991Y-42096374D01*
X119930990Y-42096373D01*
X119930988Y-42096372D01*
X119769956Y-42014322D01*
X119598071Y-41958473D01*
X119598069Y-41958472D01*
X119598067Y-41958472D01*
X119484620Y-41940503D01*
X119419565Y-41930200D01*
X119238835Y-41930200D01*
X119224945Y-41932400D01*
X119060332Y-41958472D01*
X118888441Y-42014323D01*
X118727408Y-42096374D01*
X118581203Y-42202596D01*
X118453396Y-42330403D01*
X118347174Y-42476608D01*
X118265123Y-42637641D01*
X118209272Y-42809532D01*
X118181000Y-42988035D01*
X118181000Y-43168765D01*
X118180999Y-43168765D01*
X118199637Y-43286440D01*
X118190682Y-43355733D01*
X118164845Y-43393518D01*
X109566384Y-51991981D01*
X109505061Y-52025466D01*
X109478703Y-52028300D01*
X80031036Y-52028300D01*
X79963997Y-52008615D01*
X79920552Y-51960596D01*
X79887014Y-51894776D01*
X79757447Y-51716441D01*
X79757443Y-51716436D01*
X79601563Y-51560556D01*
X79601558Y-51560552D01*
X79423225Y-51430987D01*
X79423224Y-51430986D01*
X79423222Y-51430985D01*
X79305991Y-51371252D01*
X79226806Y-51330904D01*
X79226803Y-51330903D01*
X79017152Y-51262785D01*
X78873337Y-51240007D01*
X78799422Y-51228300D01*
X78578978Y-51228300D01*
X78506401Y-51239795D01*
X78361247Y-51262785D01*
X78151596Y-51330903D01*
X78151593Y-51330904D01*
X77955174Y-51430987D01*
X77776841Y-51560552D01*
X77776836Y-51560556D01*
X77726663Y-51610729D01*
X77665340Y-51644213D01*
X77595648Y-51639228D01*
X77539715Y-51597357D01*
X77522801Y-51566380D01*
X77492997Y-51486471D01*
X77492993Y-51486464D01*
X77406747Y-51371255D01*
X77406744Y-51371252D01*
X77291535Y-51285006D01*
X77291528Y-51285002D01*
X77156682Y-51234708D01*
X77156683Y-51234708D01*
X77097083Y-51228301D01*
X77097081Y-51228300D01*
X77097073Y-51228300D01*
X77097065Y-51228300D01*
X76873700Y-51228300D01*
X76806661Y-51208615D01*
X76760906Y-51155811D01*
X76749700Y-51104300D01*
X76749700Y-44445297D01*
X76769385Y-44378258D01*
X76786019Y-44357616D01*
X80489217Y-40654418D01*
X80550540Y-40620933D01*
X80576898Y-40618099D01*
X82024671Y-40618099D01*
X82024672Y-40618099D01*
X82084283Y-40611691D01*
X82219131Y-40561396D01*
X82334346Y-40475146D01*
X82420596Y-40359931D01*
X82437797Y-40313812D01*
X82450401Y-40280020D01*
X82492271Y-40224086D01*
X82557736Y-40199668D01*
X82626009Y-40214519D01*
X82654264Y-40235671D01*
X82704436Y-40285843D01*
X82704441Y-40285847D01*
X82765706Y-40330358D01*
X82882778Y-40415415D01*
X83011175Y-40480837D01*
X83079193Y-40515495D01*
X83079196Y-40515496D01*
X83149686Y-40538399D01*
X83288849Y-40583615D01*
X83506578Y-40618100D01*
X83506579Y-40618100D01*
X83727021Y-40618100D01*
X83727022Y-40618100D01*
X83944751Y-40583615D01*
X84154406Y-40515495D01*
X84350822Y-40415415D01*
X84529165Y-40285842D01*
X84685042Y-40129965D01*
X84814615Y-39951622D01*
X84848152Y-39885804D01*
X84896126Y-39835009D01*
X84958636Y-39818100D01*
X117708303Y-39818100D01*
X117775342Y-39837785D01*
X117795984Y-39854419D01*
X118164845Y-40223280D01*
X118198330Y-40284603D01*
X118199638Y-40330358D01*
X118194954Y-40359935D01*
X118181000Y-40448035D01*
X118181000Y-40448040D01*
X118181000Y-40628764D01*
X118209253Y-40807150D01*
X118209273Y-40807271D01*
X118265122Y-40979156D01*
X118347040Y-41139929D01*
X118347174Y-41140191D01*
X118453396Y-41286396D01*
X118581203Y-41414203D01*
X118711460Y-41508838D01*
X118727412Y-41520428D01*
X118888444Y-41602478D01*
X119060329Y-41658327D01*
X119238835Y-41686600D01*
X119419565Y-41686600D01*
X119598071Y-41658327D01*
X119769956Y-41602478D01*
X119930988Y-41520428D01*
X120045376Y-41437321D01*
X120077196Y-41414203D01*
X120077198Y-41414200D01*
X120077202Y-41414198D01*
X120204998Y-41286402D01*
X120205000Y-41286398D01*
X120205003Y-41286396D01*
X120253234Y-41220010D01*
X120311228Y-41140188D01*
X120393278Y-40979156D01*
X120449127Y-40807271D01*
X120477400Y-40628765D01*
X120477400Y-40448068D01*
X125801500Y-40448068D01*
X125801500Y-40628731D01*
X125829759Y-40807150D01*
X125885586Y-40978966D01*
X125967601Y-41139929D01*
X125978758Y-41155286D01*
X125978759Y-41155286D01*
X126555500Y-40578545D01*
X126555500Y-40590232D01*
X126582330Y-40690362D01*
X126634162Y-40780137D01*
X126707463Y-40853438D01*
X126797238Y-40905270D01*
X126897368Y-40932100D01*
X126909053Y-40932100D01*
X126332312Y-41508838D01*
X126332312Y-41508839D01*
X126347677Y-41520002D01*
X126508633Y-41602013D01*
X126680449Y-41657840D01*
X126846540Y-41684147D01*
X127051859Y-41684147D01*
X127217950Y-41657840D01*
X127389766Y-41602013D01*
X127550728Y-41519999D01*
X127550732Y-41519997D01*
X127566086Y-41508840D01*
X127566087Y-41508839D01*
X126989348Y-40932100D01*
X127001032Y-40932100D01*
X127101162Y-40905270D01*
X127190937Y-40853438D01*
X127264238Y-40780137D01*
X127316070Y-40690362D01*
X127342900Y-40590232D01*
X127342900Y-40578547D01*
X127919640Y-41155287D01*
X127919640Y-41155286D01*
X127930797Y-41139932D01*
X127930799Y-41139928D01*
X128012813Y-40978966D01*
X128068640Y-40807150D01*
X128096900Y-40628731D01*
X128096900Y-40448068D01*
X128068640Y-40269649D01*
X128012813Y-40097833D01*
X127930802Y-39936877D01*
X127919639Y-39921512D01*
X127342900Y-40498251D01*
X127342900Y-40486568D01*
X127316070Y-40386438D01*
X127264238Y-40296663D01*
X127190937Y-40223362D01*
X127101162Y-40171530D01*
X127001032Y-40144700D01*
X126989347Y-40144700D01*
X127566086Y-39567959D01*
X127566086Y-39567958D01*
X127550729Y-39556801D01*
X127389766Y-39474786D01*
X127217950Y-39418959D01*
X127217952Y-39418959D01*
X127051858Y-39392652D01*
X126846541Y-39392652D01*
X126680448Y-39418959D01*
X126508633Y-39474786D01*
X126347676Y-39556797D01*
X126347672Y-39556800D01*
X126332312Y-39567958D01*
X126332312Y-39567959D01*
X126909054Y-40144700D01*
X126897368Y-40144700D01*
X126797238Y-40171530D01*
X126707463Y-40223362D01*
X126634162Y-40296663D01*
X126582330Y-40386438D01*
X126555500Y-40486568D01*
X126555500Y-40498253D01*
X125978759Y-39921512D01*
X125978758Y-39921512D01*
X125967600Y-39936872D01*
X125967597Y-39936876D01*
X125885586Y-40097833D01*
X125829759Y-40269649D01*
X125801500Y-40448068D01*
X120477400Y-40448068D01*
X120477400Y-40448035D01*
X120449127Y-40269529D01*
X120393278Y-40097644D01*
X120311228Y-39936612D01*
X120251512Y-39854419D01*
X120205003Y-39790403D01*
X120077196Y-39662596D01*
X119930991Y-39556374D01*
X119930990Y-39556373D01*
X119930988Y-39556372D01*
X119769956Y-39474322D01*
X119598071Y-39418473D01*
X119598069Y-39418472D01*
X119598067Y-39418472D01*
X119479678Y-39399721D01*
X119437696Y-39393071D01*
X119374562Y-39363143D01*
X119337631Y-39303831D01*
X119338629Y-39233969D01*
X119377239Y-39175736D01*
X119441202Y-39147622D01*
X119457095Y-39146599D01*
X120024771Y-39146599D01*
X120024772Y-39146599D01*
X120084383Y-39140191D01*
X120219231Y-39089896D01*
X120334446Y-39003646D01*
X120420696Y-38888431D01*
X120470991Y-38753583D01*
X120477400Y-38693973D01*
X120477399Y-37908035D01*
X125801000Y-37908035D01*
X125801000Y-38088764D01*
X125820220Y-38210117D01*
X125829273Y-38267271D01*
X125885122Y-38439156D01*
X125965759Y-38597415D01*
X125967174Y-38600191D01*
X126073396Y-38746396D01*
X126201203Y-38874203D01*
X126315002Y-38956881D01*
X126347412Y-38980428D01*
X126508444Y-39062478D01*
X126680329Y-39118327D01*
X126858835Y-39146600D01*
X127039565Y-39146600D01*
X127218071Y-39118327D01*
X127389956Y-39062478D01*
X127550988Y-38980428D01*
X127671874Y-38892600D01*
X127697196Y-38874203D01*
X127697198Y-38874200D01*
X127697202Y-38874198D01*
X127824998Y-38746402D01*
X127825000Y-38746398D01*
X127825003Y-38746396D01*
X127871585Y-38682279D01*
X127931228Y-38600188D01*
X128013278Y-38439156D01*
X128069127Y-38267271D01*
X128097400Y-38088765D01*
X128097400Y-37908035D01*
X128069127Y-37729529D01*
X128013278Y-37557644D01*
X127931228Y-37396612D01*
X127901304Y-37355425D01*
X127825003Y-37250403D01*
X127697196Y-37122596D01*
X127550991Y-37016374D01*
X127550990Y-37016373D01*
X127550988Y-37016372D01*
X127389956Y-36934322D01*
X127218071Y-36878473D01*
X127218069Y-36878472D01*
X127218067Y-36878472D01*
X127080023Y-36856608D01*
X127039565Y-36850200D01*
X126858835Y-36850200D01*
X126818383Y-36856607D01*
X126680332Y-36878472D01*
X126508441Y-36934323D01*
X126347408Y-37016374D01*
X126201203Y-37122596D01*
X126073396Y-37250403D01*
X125967174Y-37396608D01*
X125885123Y-37557641D01*
X125829272Y-37729532D01*
X125801000Y-37908035D01*
X120477399Y-37908035D01*
X120477399Y-37302828D01*
X120472199Y-37254457D01*
X120470991Y-37243216D01*
X120420697Y-37108371D01*
X120420693Y-37108364D01*
X120334447Y-36993155D01*
X120334444Y-36993152D01*
X120219235Y-36906906D01*
X120219228Y-36906902D01*
X120084382Y-36856608D01*
X120084384Y-36856608D01*
X120040443Y-36851884D01*
X119975892Y-36825145D01*
X119936045Y-36767752D01*
X119929700Y-36728595D01*
X119929700Y-36132100D01*
X119949385Y-36065061D01*
X120002189Y-36019306D01*
X120053700Y-36008100D01*
X149519331Y-36008100D01*
X149519347Y-36008101D01*
X149526943Y-36008101D01*
X149685054Y-36008101D01*
X149685057Y-36008101D01*
X149837785Y-35967177D01*
X149887904Y-35938239D01*
X149974716Y-35888120D01*
X150086520Y-35776316D01*
X150086520Y-35776314D01*
X150096728Y-35766107D01*
X150096730Y-35766104D01*
X152790197Y-33072636D01*
X152851518Y-33039153D01*
X152916194Y-33042388D01*
X152919866Y-33043581D01*
X152986449Y-33065215D01*
X153204178Y-33099700D01*
X153204179Y-33099700D01*
X153424621Y-33099700D01*
X153424622Y-33099700D01*
X153642351Y-33065215D01*
X153852006Y-32997095D01*
X154048422Y-32897015D01*
X154226765Y-32767442D01*
X154382642Y-32611565D01*
X154512215Y-32433222D01*
X154564835Y-32329949D01*
X154612808Y-32279154D01*
X154680629Y-32262359D01*
X154746764Y-32284896D01*
G37*
%TD.AperFunction*%
%TA.AperFunction,Conductor*%
G36*
X125714589Y-47815466D02*
G01*
X125733282Y-47815734D01*
X125747418Y-47825106D01*
X125763691Y-47829885D01*
X125775932Y-47844012D01*
X125791515Y-47854344D01*
X125798340Y-47869872D01*
X125809446Y-47882689D01*
X125812106Y-47901192D01*
X125819629Y-47918307D01*
X125819171Y-47950328D01*
X125819390Y-47951847D01*
X125819125Y-47953598D01*
X125807142Y-48029257D01*
X125801000Y-48068035D01*
X125801000Y-48248765D01*
X125829273Y-48427271D01*
X125845354Y-48476764D01*
X125885123Y-48599158D01*
X125967174Y-48760191D01*
X126073396Y-48906396D01*
X126104519Y-48937519D01*
X126138004Y-48998842D01*
X126133020Y-49068534D01*
X126091148Y-49124467D01*
X126025684Y-49148884D01*
X126016838Y-49149200D01*
X120261562Y-49149200D01*
X120194523Y-49129515D01*
X120148768Y-49076711D01*
X120138824Y-49007553D01*
X120167849Y-48943997D01*
X120173881Y-48937519D01*
X120204998Y-48906402D01*
X120205000Y-48906398D01*
X120205003Y-48906396D01*
X120264076Y-48825088D01*
X120311228Y-48760188D01*
X120393278Y-48599156D01*
X120449127Y-48427271D01*
X120477400Y-48248765D01*
X120477400Y-48068035D01*
X120471258Y-48029257D01*
X120459275Y-47953598D01*
X120468230Y-47884304D01*
X120513226Y-47830852D01*
X120579978Y-47810213D01*
X120581748Y-47810200D01*
X125696652Y-47810200D01*
X125714589Y-47815466D01*
G37*
%TD.AperFunction*%
%TA.AperFunction,Conductor*%
G36*
X95136227Y-27973745D02*
G01*
X95191787Y-28016111D01*
X95215622Y-28081789D01*
X95200164Y-28149928D01*
X95179557Y-28177206D01*
X95175892Y-28180872D01*
X95175878Y-28180886D01*
X93094382Y-30262381D01*
X93033059Y-30295866D01*
X93006701Y-30298700D01*
X91558929Y-30298700D01*
X91558923Y-30298701D01*
X91499316Y-30305108D01*
X91364471Y-30355402D01*
X91364464Y-30355406D01*
X91249255Y-30441652D01*
X91249252Y-30441655D01*
X91163006Y-30556864D01*
X91163002Y-30556871D01*
X91112708Y-30691717D01*
X91106301Y-30751316D01*
X91106300Y-30751335D01*
X91106300Y-30974700D01*
X91086615Y-31041739D01*
X91033811Y-31087494D01*
X90982300Y-31098700D01*
X88674257Y-31098700D01*
X88516142Y-31098700D01*
X88363415Y-31139623D01*
X88363414Y-31139623D01*
X88363412Y-31139624D01*
X88363409Y-31139625D01*
X88313296Y-31168559D01*
X88313295Y-31168560D01*
X88269889Y-31193620D01*
X88226485Y-31218679D01*
X88226482Y-31218681D01*
X88114678Y-31330486D01*
X81664382Y-37780781D01*
X81603059Y-37814266D01*
X81576701Y-37817100D01*
X80128929Y-37817100D01*
X80128923Y-37817101D01*
X80069316Y-37823508D01*
X79934471Y-37873802D01*
X79934464Y-37873806D01*
X79819255Y-37960052D01*
X79819252Y-37960055D01*
X79733006Y-38075264D01*
X79733002Y-38075271D01*
X79682708Y-38210117D01*
X79676301Y-38269716D01*
X79676300Y-38269735D01*
X79676300Y-39717501D01*
X79656615Y-39784540D01*
X79639981Y-39805182D01*
X77704904Y-41740260D01*
X75780486Y-43664678D01*
X75780484Y-43664680D01*
X75730441Y-43714723D01*
X75717069Y-43728095D01*
X75655745Y-43761579D01*
X75586054Y-43756594D01*
X75530120Y-43714723D01*
X75505704Y-43649258D01*
X75511878Y-43600822D01*
X75734724Y-42939388D01*
X75736223Y-42935197D01*
X76012798Y-42204158D01*
X76014452Y-42200017D01*
X76317668Y-41479646D01*
X76319505Y-41475499D01*
X76648940Y-40766791D01*
X76650905Y-40762758D01*
X77006181Y-40066532D01*
X77008287Y-40062587D01*
X77388775Y-39380065D01*
X77391141Y-39376007D01*
X77798039Y-38707628D01*
X77800655Y-38703518D01*
X78233780Y-38052005D01*
X78236572Y-38047981D01*
X78695327Y-37414220D01*
X78698252Y-37410346D01*
X79181885Y-36795377D01*
X79184951Y-36791635D01*
X79692844Y-36196258D01*
X79695924Y-36192784D01*
X80246938Y-35594305D01*
X80249952Y-35591146D01*
X80822227Y-35012659D01*
X80825357Y-35009608D01*
X81417993Y-34452030D01*
X81421234Y-34449088D01*
X82033516Y-33913096D01*
X82036832Y-33910296D01*
X82667972Y-33396582D01*
X82671380Y-33393907D01*
X83335606Y-32891340D01*
X83339006Y-32888859D01*
X84020518Y-32409828D01*
X84024047Y-32407440D01*
X84721892Y-31952620D01*
X84725525Y-31950342D01*
X85438850Y-31520282D01*
X85442559Y-31518133D01*
X86157910Y-31120353D01*
X86166495Y-31116008D01*
X90029453Y-29346118D01*
X90043425Y-29340714D01*
X90975265Y-29043755D01*
X90977561Y-29043048D01*
X91945817Y-28755310D01*
X91947854Y-28754727D01*
X92921633Y-28486048D01*
X92923889Y-28485450D01*
X92926451Y-28484797D01*
X93902600Y-28235990D01*
X93904802Y-28235451D01*
X94885962Y-28005794D01*
X94888901Y-28005145D01*
X95066583Y-27968142D01*
X95136227Y-27973745D01*
G37*
%TD.AperFunction*%
%TA.AperFunction,Conductor*%
G36*
X117183942Y-27968785D02*
G01*
X117204584Y-27985419D01*
X118184381Y-28965216D01*
X118217866Y-29026539D01*
X118220700Y-29052897D01*
X118220700Y-33759456D01*
X118261623Y-33912183D01*
X118261626Y-33912190D01*
X118340675Y-34049109D01*
X118340678Y-34049113D01*
X118340680Y-34049116D01*
X118452484Y-34160920D01*
X118452486Y-34160921D01*
X118452490Y-34160924D01*
X118589409Y-34239973D01*
X118589416Y-34239977D01*
X118742143Y-34280900D01*
X118900257Y-34280900D01*
X127268931Y-34280900D01*
X127268947Y-34280901D01*
X127276543Y-34280901D01*
X127434654Y-34280901D01*
X127434657Y-34280901D01*
X127587385Y-34239977D01*
X127637504Y-34211039D01*
X127724316Y-34160920D01*
X127836120Y-34049116D01*
X127836120Y-34049114D01*
X127846328Y-34038907D01*
X127846330Y-34038904D01*
X130863706Y-31021528D01*
X130863711Y-31021524D01*
X130873914Y-31011320D01*
X130873916Y-31011320D01*
X130985720Y-30899516D01*
X131051704Y-30785227D01*
X131064777Y-30762585D01*
X131105701Y-30609857D01*
X131105701Y-30451743D01*
X131105701Y-30444148D01*
X131105700Y-30444130D01*
X131105700Y-30074099D01*
X131125385Y-30007060D01*
X131178189Y-29961305D01*
X131229700Y-29950099D01*
X131453071Y-29950099D01*
X131453072Y-29950099D01*
X131512683Y-29943691D01*
X131647531Y-29893396D01*
X131762746Y-29807146D01*
X131848996Y-29691931D01*
X131866870Y-29644009D01*
X131878801Y-29612020D01*
X131920671Y-29556086D01*
X131986136Y-29531668D01*
X132054409Y-29546519D01*
X132082664Y-29567671D01*
X132132836Y-29617843D01*
X132132841Y-29617847D01*
X132234803Y-29691926D01*
X132311178Y-29747415D01*
X132439575Y-29812837D01*
X132507593Y-29847495D01*
X132507596Y-29847496D01*
X132612421Y-29881555D01*
X132717249Y-29915615D01*
X132934978Y-29950100D01*
X132934979Y-29950100D01*
X133155421Y-29950100D01*
X133155422Y-29950100D01*
X133373151Y-29915615D01*
X133582806Y-29847495D01*
X133779222Y-29747415D01*
X133957565Y-29617842D01*
X134113442Y-29461965D01*
X134243015Y-29283622D01*
X134343095Y-29087206D01*
X134411215Y-28877551D01*
X134445700Y-28659822D01*
X134445700Y-28439378D01*
X134411215Y-28221649D01*
X134397970Y-28180884D01*
X134375400Y-28111417D01*
X134373405Y-28041576D01*
X134409486Y-27981744D01*
X134472187Y-27950916D01*
X134493331Y-27949100D01*
X138097303Y-27949100D01*
X138164342Y-27968785D01*
X138184984Y-27985419D01*
X140688339Y-30488774D01*
X140688349Y-30488785D01*
X140692679Y-30493115D01*
X140692680Y-30493116D01*
X140804484Y-30604920D01*
X140804486Y-30604921D01*
X140804490Y-30604924D01*
X140888597Y-30653483D01*
X140888598Y-30653483D01*
X140941415Y-30683977D01*
X141094143Y-30724901D01*
X141094146Y-30724901D01*
X141259853Y-30724901D01*
X141259869Y-30724900D01*
X148899503Y-30724900D01*
X148966542Y-30744585D01*
X148987184Y-30761219D01*
X149337581Y-31111616D01*
X149371066Y-31172939D01*
X149373900Y-31199297D01*
X149373900Y-32647070D01*
X149373901Y-32647076D01*
X149380308Y-32706683D01*
X149430602Y-32841528D01*
X149430606Y-32841535D01*
X149516852Y-32956744D01*
X149516855Y-32956747D01*
X149632064Y-33042993D01*
X149632071Y-33042997D01*
X149766917Y-33093291D01*
X149766916Y-33093291D01*
X149773844Y-33094035D01*
X149826527Y-33099700D01*
X150765302Y-33099699D01*
X150832341Y-33119383D01*
X150878096Y-33172187D01*
X150888040Y-33241346D01*
X150859015Y-33304902D01*
X150852983Y-33311380D01*
X149393584Y-34770781D01*
X149332261Y-34804266D01*
X149305903Y-34807100D01*
X119656540Y-34807100D01*
X119615619Y-34818064D01*
X119615619Y-34818065D01*
X119578351Y-34828051D01*
X119503814Y-34848023D01*
X119503809Y-34848026D01*
X119366890Y-34927075D01*
X119366882Y-34927081D01*
X118848681Y-35445282D01*
X118848675Y-35445290D01*
X118799856Y-35529849D01*
X118799856Y-35529850D01*
X118769623Y-35582215D01*
X118728699Y-35734943D01*
X118728699Y-35734945D01*
X118728699Y-35903046D01*
X118728700Y-35903059D01*
X118728700Y-36728595D01*
X118709015Y-36795634D01*
X118656211Y-36841389D01*
X118617955Y-36851884D01*
X118574020Y-36856607D01*
X118439171Y-36906902D01*
X118439164Y-36906906D01*
X118323955Y-36993152D01*
X118323952Y-36993155D01*
X118237706Y-37108364D01*
X118237702Y-37108371D01*
X118187408Y-37243217D01*
X118181001Y-37302816D01*
X118181001Y-37302823D01*
X118181000Y-37302835D01*
X118181000Y-38493099D01*
X118178449Y-38501784D01*
X118179738Y-38510745D01*
X118168759Y-38534786D01*
X118161315Y-38560138D01*
X118154475Y-38566064D01*
X118150714Y-38574301D01*
X118128478Y-38588591D01*
X118108511Y-38605893D01*
X118097998Y-38608180D01*
X118091936Y-38612076D01*
X118057002Y-38617098D01*
X118057001Y-38617099D01*
X117929343Y-38617099D01*
X117929339Y-38617099D01*
X117921732Y-38617100D01*
X117921731Y-38617099D01*
X117921731Y-38617100D01*
X84958636Y-38617100D01*
X84891597Y-38597415D01*
X84848152Y-38549396D01*
X84814614Y-38483576D01*
X84685047Y-38305241D01*
X84685043Y-38305236D01*
X84529163Y-38149356D01*
X84529158Y-38149352D01*
X84350825Y-38019787D01*
X84350824Y-38019786D01*
X84350822Y-38019785D01*
X84233591Y-37960052D01*
X84154406Y-37919704D01*
X84154403Y-37919703D01*
X83944752Y-37851585D01*
X83835886Y-37834342D01*
X83727022Y-37817100D01*
X83625896Y-37817100D01*
X83558857Y-37797415D01*
X83513102Y-37744611D01*
X83503158Y-37675453D01*
X83532183Y-37611897D01*
X83538215Y-37605419D01*
X86104749Y-35038886D01*
X88807616Y-32336019D01*
X88868939Y-32302534D01*
X88895297Y-32299700D01*
X90982301Y-32299700D01*
X91049340Y-32319385D01*
X91095095Y-32372189D01*
X91106301Y-32423700D01*
X91106301Y-32647076D01*
X91112708Y-32706683D01*
X91163002Y-32841528D01*
X91163006Y-32841535D01*
X91249252Y-32956744D01*
X91249255Y-32956747D01*
X91364464Y-33042993D01*
X91364471Y-33042997D01*
X91499317Y-33093291D01*
X91499316Y-33093291D01*
X91506244Y-33094035D01*
X91558927Y-33099700D01*
X93454672Y-33099699D01*
X93514283Y-33093291D01*
X93649131Y-33042996D01*
X93764346Y-32956746D01*
X93850596Y-32841531D01*
X93878229Y-32767443D01*
X93880401Y-32761620D01*
X93922271Y-32705686D01*
X93987736Y-32681268D01*
X94056009Y-32696119D01*
X94084264Y-32717271D01*
X94134436Y-32767443D01*
X94134441Y-32767447D01*
X94236403Y-32841526D01*
X94312778Y-32897015D01*
X94441175Y-32962437D01*
X94509193Y-32997095D01*
X94509196Y-32997096D01*
X94546351Y-33009168D01*
X94718849Y-33065215D01*
X94936578Y-33099700D01*
X94936579Y-33099700D01*
X95157021Y-33099700D01*
X95157022Y-33099700D01*
X95374751Y-33065215D01*
X95584406Y-32997095D01*
X95780822Y-32897015D01*
X95959165Y-32767442D01*
X96115042Y-32611565D01*
X96244615Y-32433222D01*
X96344695Y-32236806D01*
X96412815Y-32027151D01*
X96447300Y-31809422D01*
X96447300Y-31588978D01*
X96412815Y-31371249D01*
X96378755Y-31266421D01*
X96344696Y-31161596D01*
X96344695Y-31161593D01*
X96273329Y-31021532D01*
X96244615Y-30965178D01*
X96174831Y-30869128D01*
X96115047Y-30786841D01*
X96115043Y-30786836D01*
X95959163Y-30630956D01*
X95959158Y-30630952D01*
X95780825Y-30501387D01*
X95780824Y-30501386D01*
X95780822Y-30501385D01*
X95717896Y-30469322D01*
X95584406Y-30401304D01*
X95584403Y-30401303D01*
X95374752Y-30333185D01*
X95265886Y-30315942D01*
X95157022Y-30298700D01*
X95055896Y-30298700D01*
X94988857Y-30279015D01*
X94943102Y-30226211D01*
X94933158Y-30157053D01*
X94962183Y-30093497D01*
X94968215Y-30087019D01*
X95363300Y-29691935D01*
X95868816Y-29186419D01*
X95930139Y-29152934D01*
X95956497Y-29150100D01*
X111099101Y-29150100D01*
X111166140Y-29169785D01*
X111211895Y-29222589D01*
X111223101Y-29274100D01*
X111223101Y-29497476D01*
X111229508Y-29557083D01*
X111279802Y-29691928D01*
X111279806Y-29691935D01*
X111366052Y-29807144D01*
X111366055Y-29807147D01*
X111481264Y-29893393D01*
X111481271Y-29893397D01*
X111616117Y-29943691D01*
X111616116Y-29943691D01*
X111623044Y-29944435D01*
X111675727Y-29950100D01*
X113571472Y-29950099D01*
X113631083Y-29943691D01*
X113765931Y-29893396D01*
X113881146Y-29807146D01*
X113967396Y-29691931D01*
X113985270Y-29644009D01*
X113997201Y-29612020D01*
X114039071Y-29556086D01*
X114104536Y-29531668D01*
X114172809Y-29546519D01*
X114201064Y-29567671D01*
X114251236Y-29617843D01*
X114251241Y-29617847D01*
X114353203Y-29691926D01*
X114429578Y-29747415D01*
X114557975Y-29812837D01*
X114625993Y-29847495D01*
X114625996Y-29847496D01*
X114730821Y-29881555D01*
X114835649Y-29915615D01*
X115053378Y-29950100D01*
X115053379Y-29950100D01*
X115273821Y-29950100D01*
X115273822Y-29950100D01*
X115491551Y-29915615D01*
X115701206Y-29847495D01*
X115897622Y-29747415D01*
X116075965Y-29617842D01*
X116231842Y-29461965D01*
X116361415Y-29283622D01*
X116461495Y-29087206D01*
X116529615Y-28877551D01*
X116564100Y-28659822D01*
X116564100Y-28439378D01*
X116529615Y-28221649D01*
X116516370Y-28180884D01*
X116493800Y-28111417D01*
X116491805Y-28041576D01*
X116527886Y-27981744D01*
X116590587Y-27950916D01*
X116611731Y-27949100D01*
X117116903Y-27949100D01*
X117183942Y-27968785D01*
G37*
%TD.AperFunction*%
%TD*%
M02*
