%TF.GenerationSoftware,KiCad,Pcbnew,9.0.6*%
%TF.CreationDate,2026-01-05T01:28:45+00:00*%
%TF.ProjectId,BLINKER,424c494e-4b45-4522-9e6b-696361645f70,rev?*%
%TF.SameCoordinates,Original*%
%TF.FileFunction,Copper,L2,Bot*%
%TF.FilePolarity,Positive*%
%FSLAX46Y46*%
G04 Gerber Fmt 4.6, Leading zero omitted, Abs format (unit mm)*
G04 Created by KiCad (PCBNEW 9.0.6) date 2026-01-05 01:28:45*
%MOMM*%
%LPD*%
G01*
G04 APERTURE LIST*
G04 Aperture macros list*
%AMRoundRect*
0 Rectangle with rounded corners*
0 $1 Rounding radius*
0 $2 $3 $4 $5 $6 $7 $8 $9 X,Y pos of 4 corners*
0 Add a 4 corners polygon primitive as box body*
4,1,4,$2,$3,$4,$5,$6,$7,$8,$9,$2,$3,0*
0 Add four circle primitives for the rounded corners*
1,1,$1+$1,$2,$3*
1,1,$1+$1,$4,$5*
1,1,$1+$1,$6,$7*
1,1,$1+$1,$8,$9*
0 Add four rect primitives between the rounded corners*
20,1,$1+$1,$2,$3,$4,$5,0*
20,1,$1+$1,$4,$5,$6,$7,0*
20,1,$1+$1,$6,$7,$8,$9,0*
20,1,$1+$1,$8,$9,$2,$3,0*%
G04 Aperture macros list end*
%TA.AperFunction,ComponentPad*%
%ADD10RoundRect,0.250000X0.550000X-0.550000X0.550000X0.550000X-0.550000X0.550000X-0.550000X-0.550000X0*%
%TD*%
%TA.AperFunction,ComponentPad*%
%ADD11C,1.600000*%
%TD*%
%TA.AperFunction,ComponentPad*%
%ADD12C,1.800000*%
%TD*%
%TA.AperFunction,ComponentPad*%
%ADD13R,1.800000X1.800000*%
%TD*%
%TA.AperFunction,ComponentPad*%
%ADD14RoundRect,0.250000X-0.550000X-0.550000X0.550000X-0.550000X0.550000X0.550000X-0.550000X0.550000X0*%
%TD*%
%TA.AperFunction,ComponentPad*%
%ADD15R,1.700000X1.700000*%
%TD*%
%TA.AperFunction,ComponentPad*%
%ADD16R,1.295400X1.295400*%
%TD*%
%TA.AperFunction,ComponentPad*%
%ADD17C,1.295400*%
%TD*%
%TA.AperFunction,ViaPad*%
%ADD18C,0.600000*%
%TD*%
%TA.AperFunction,Conductor*%
%ADD19C,0.200000*%
%TD*%
G04 APERTURE END LIST*
D10*
%TO.P,U1,1,GND*%
%TO.N,GND*%
X143865600Y-53030200D03*
D11*
%TO.P,U1,2,TR*%
%TO.N,TR*%
X146405600Y-53030200D03*
%TO.P,U1,3,Q*%
%TO.N,OUT*%
X148945600Y-53030200D03*
%TO.P,U1,4,R*%
%TO.N,+5V*%
X151485600Y-53030200D03*
%TO.P,U1,5,CV*%
%TO.N,Net-(U1-CV)*%
X151485600Y-45410200D03*
%TO.P,U1,6,THR*%
%TO.N,TR*%
X148945600Y-45410200D03*
%TO.P,U1,7,DIS*%
%TO.N,Net-(U1-DIS)*%
X146405600Y-45410200D03*
%TO.P,U1,8,VCC*%
%TO.N,+5V*%
X143865600Y-45410200D03*
%TD*%
%TO.P,R4,2*%
%TO.N,GND*%
X113995200Y-58064400D03*
%TO.P,R4,1*%
%TO.N,Net-(D1-K)*%
X106375200Y-58064400D03*
%TD*%
D12*
%TO.P,D9,2,A*%
%TO.N,Net-(D9-A)*%
X159004000Y-65481200D03*
D13*
%TO.P,D9,1,K*%
%TO.N,Net-(D1-K)*%
X156464000Y-65481200D03*
%TD*%
D12*
%TO.P,D6,2,A*%
%TO.N,Net-(D6-A)*%
X153314400Y-31699200D03*
D13*
%TO.P,D6,1,K*%
%TO.N,Net-(D1-K)*%
X150774400Y-31699200D03*
%TD*%
D12*
%TO.P,D3,2,A*%
%TO.N,Net-(D3-A)*%
X95046800Y-31699200D03*
D13*
%TO.P,D3,1,K*%
%TO.N,Net-(D1-K)*%
X92506800Y-31699200D03*
%TD*%
D12*
%TO.P,D4,2,A*%
%TO.N,Net-(D4-A)*%
X115163600Y-28549600D03*
D13*
%TO.P,D4,1,K*%
%TO.N,Net-(D1-K)*%
X112623600Y-28549600D03*
%TD*%
D11*
%TO.P,C4,2*%
%TO.N,Net-(U1-CV)*%
X156953200Y-47225200D03*
D10*
%TO.P,C4,1*%
%TO.N,GND*%
X156953200Y-49225200D03*
%TD*%
D11*
%TO.P,C3,2*%
%TO.N,GND*%
X148192313Y-57607200D03*
D14*
%TO.P,C3,1*%
%TO.N,TR*%
X146192313Y-57607200D03*
%TD*%
D11*
%TO.P,RV1,2,2*%
%TO.N,Net-(U1-DIS)*%
X144830800Y-40538400D03*
%TO.P,RV1,1,1*%
X137210800Y-40538400D03*
%TD*%
%TO.P,R1,2*%
%TO.N,Net-(U1-DIS)*%
X147421600Y-40589200D03*
%TO.P,R1,1*%
%TO.N,+5V*%
X155041600Y-40589200D03*
%TD*%
D13*
%TO.P,D2,1,K*%
%TO.N,Net-(D1-K)*%
X81076800Y-39217600D03*
D12*
%TO.P,D2,2,A*%
%TO.N,Net-(D2-A)*%
X83616800Y-39217600D03*
%TD*%
D13*
%TO.P,D5,1,K*%
%TO.N,Net-(D1-K)*%
X130505200Y-28549600D03*
D12*
%TO.P,D5,2,A*%
%TO.N,Net-(D5-A)*%
X133045200Y-28549600D03*
%TD*%
D15*
%TO.P,TP2,1,1*%
%TO.N,GND*%
X127740000Y-66140000D03*
%TD*%
D13*
%TO.P,D1,1,K*%
%TO.N,Net-(D1-K)*%
X76149200Y-52628800D03*
D12*
%TO.P,D1,2,A*%
%TO.N,Net-(D1-A)*%
X78689200Y-52628800D03*
%TD*%
D13*
%TO.P,D7,1,K*%
%TO.N,Net-(D1-K)*%
X162001200Y-39116000D03*
D12*
%TO.P,D7,2,A*%
%TO.N,Net-(D7-A)*%
X164541200Y-39116000D03*
%TD*%
D13*
%TO.P,D8,1,K*%
%TO.N,Net-(D1-K)*%
X166827200Y-52628800D03*
D12*
%TO.P,D8,2,A*%
%TO.N,Net-(D8-A)*%
X169367200Y-52628800D03*
%TD*%
D13*
%TO.P,D10,1,K*%
%TO.N,Net-(D1-K)*%
X88239600Y-65481200D03*
D12*
%TO.P,D10,2,A*%
%TO.N,Net-(D10-A)*%
X90779600Y-65481200D03*
%TD*%
D15*
%TO.P,TP1,1,1*%
%TO.N,+5V*%
X118240000Y-66010000D03*
%TD*%
D16*
%TO.P,U2,1,Q5*%
%TO.N,Net-(D6-A)*%
X119329200Y-37998400D03*
D17*
%TO.P,U2,2,Q1*%
%TO.N,Net-(D2-A)*%
X119329200Y-40538400D03*
%TO.P,U2,3,Q0*%
%TO.N,Net-(D1-A)*%
X119329200Y-43078400D03*
%TO.P,U2,4,Q2*%
%TO.N,Net-(D3-A)*%
X119329200Y-45618400D03*
%TO.P,U2,5,Q6*%
%TO.N,Net-(D7-A)*%
X119329200Y-48158400D03*
%TO.P,U2,6,Q7*%
%TO.N,Net-(D8-A)*%
X119329200Y-50698400D03*
%TO.P,U2,7,Q3*%
%TO.N,Net-(D4-A)*%
X119329200Y-53238400D03*
%TO.P,U2,8,VSS*%
%TO.N,GND*%
X119329200Y-55778400D03*
%TO.P,U2,9,Q8*%
%TO.N,Net-(D9-A)*%
X126949200Y-55778400D03*
%TO.P,U2,10,Q4*%
%TO.N,Net-(D5-A)*%
X126949200Y-53238400D03*
%TO.P,U2,11,Q9*%
%TO.N,Net-(D10-A)*%
X126949200Y-50698400D03*
%TO.P,U2,12,Cout*%
%TO.N,unconnected-(U2-Cout-Pad12)*%
X126949200Y-48158400D03*
%TO.P,U2,13,CKEN*%
%TO.N,GND*%
X126949200Y-45618400D03*
%TO.P,U2,14,CLK*%
%TO.N,OUT*%
X126949200Y-43078400D03*
%TO.P,U2,15,Reset*%
%TO.N,GND*%
X126949200Y-40538400D03*
%TO.P,U2,16,VDD*%
%TO.N,+5V*%
X126949200Y-37998400D03*
%TD*%
D15*
%TO.P,TP3,1,1*%
%TO.N,OUT*%
X123250000Y-70360000D03*
%TD*%
D18*
%TO.N,*%
X203320000Y-49800000D03*
%TO.N,GND*%
X124790000Y-48260000D03*
X78530000Y-40160000D03*
X86070000Y-32290000D03*
X83630000Y-33950000D03*
X97280000Y-36060000D03*
X137880000Y-33170000D03*
X109480000Y-32840000D03*
X105260000Y-35610000D03*
%TO.N,Net-(D5-A)*%
X129692400Y-44450000D03*
X131064000Y-37185600D03*
%TD*%
D19*
%TO.N,Net-(D5-A)*%
X129692400Y-50495200D02*
X126949200Y-53238400D01*
X129692400Y-44450000D02*
X129692400Y-50495200D01*
X131064000Y-30530800D02*
X131064000Y-37185600D01*
X133045200Y-28549600D02*
X131064000Y-30530800D01*
%TO.N,Net-(D4-A)*%
X120277900Y-52289700D02*
X119329200Y-53238400D01*
X120277900Y-33663900D02*
X120277900Y-52289700D01*
X115163600Y-28549600D02*
X120277900Y-33663900D01*
%TO.N,OUT*%
X138993800Y-43078400D02*
X126949200Y-43078400D01*
X148945600Y-53030200D02*
X138993800Y-43078400D01*
%TO.N,+5V*%
X136453800Y-37998400D02*
X143865600Y-45410200D01*
X126949200Y-37998400D02*
X136453800Y-37998400D01*
X151321600Y-44309200D02*
X155041600Y-40589200D01*
X144966600Y-44309200D02*
X151321600Y-44309200D01*
X143865600Y-45410200D02*
X144966600Y-44309200D01*
X151485600Y-53030200D02*
X143865600Y-45410200D01*
%TO.N,Net-(D9-A)*%
X157327600Y-63804800D02*
X159004000Y-65481200D01*
X157327600Y-62788800D02*
X157327600Y-63804800D01*
X126949200Y-55778400D02*
X136398000Y-55778400D01*
X136398000Y-55778400D02*
X143408400Y-62788800D01*
X143408400Y-62788800D02*
X157327600Y-62788800D01*
%TO.N,OUT*%
X124104400Y-44754800D02*
X125272800Y-44754800D01*
X123250000Y-45609200D02*
X124104400Y-44754800D01*
X123250000Y-70360000D02*
X123250000Y-45609200D01*
X125272800Y-44754800D02*
X126949200Y-43078400D01*
%TO.N,+5V*%
X121158000Y-63092000D02*
X121158000Y-43789600D01*
X121158000Y-43789600D02*
X126949200Y-37998400D01*
X118240000Y-66010000D02*
X121158000Y-63092000D01*
%TO.N,Net-(D3-A)*%
X105410000Y-31699200D02*
X119329200Y-45618400D01*
X95046800Y-31699200D02*
X105410000Y-31699200D01*
%TD*%
%TA.AperFunction,Conductor*%
%TO.N,GND*%
G36*
X129097422Y-24255504D02*
G01*
X129105936Y-24256122D01*
X134436264Y-24829542D01*
X134445012Y-24830800D01*
X141560984Y-26114649D01*
X141564657Y-26115369D01*
X150586249Y-28029222D01*
X150589329Y-28029917D01*
X153748376Y-28786050D01*
X153753480Y-28787388D01*
X155983386Y-29423214D01*
X155991821Y-29425949D01*
X157793415Y-30082645D01*
X157802637Y-30086435D01*
X159488893Y-30859956D01*
X159505431Y-30869128D01*
X164000611Y-33831878D01*
X164013386Y-33841537D01*
X164550009Y-34304640D01*
X164553232Y-34307521D01*
X165095487Y-34809506D01*
X165098608Y-34812498D01*
X165623017Y-35333063D01*
X165626022Y-35336151D01*
X166050132Y-35787574D01*
X166132021Y-35874736D01*
X166134913Y-35877925D01*
X166412245Y-36194546D01*
X166621782Y-36433767D01*
X166624561Y-36437052D01*
X167078396Y-36993154D01*
X167091808Y-37009588D01*
X167094480Y-37012982D01*
X167477999Y-37517880D01*
X167541259Y-37601160D01*
X167543815Y-37604649D01*
X167566476Y-37636752D01*
X167968681Y-38206522D01*
X167971121Y-38210110D01*
X168374487Y-38826202D01*
X168376800Y-38829873D01*
X168758384Y-39459737D01*
X168760567Y-39463488D01*
X169119852Y-40106272D01*
X169121903Y-40110096D01*
X169226591Y-40313815D01*
X169365236Y-40583614D01*
X169458506Y-40765113D01*
X169460419Y-40769004D01*
X169748325Y-41381037D01*
X169773878Y-41435356D01*
X169775649Y-41439298D01*
X169881579Y-41686600D01*
X170065625Y-42116272D01*
X170067210Y-42120152D01*
X170341232Y-42824773D01*
X170342636Y-42828564D01*
X170593567Y-43541801D01*
X170594846Y-43545635D01*
X170822390Y-44266644D01*
X170823544Y-44270518D01*
X171027481Y-44998612D01*
X171028507Y-45002522D01*
X171208587Y-45736802D01*
X171209486Y-45740742D01*
X171365549Y-46480547D01*
X171366319Y-46484515D01*
X171498165Y-47228895D01*
X171498854Y-47233233D01*
X171571711Y-47750671D01*
X171572282Y-47755380D01*
X171625280Y-48275079D01*
X171625671Y-48279806D01*
X171658548Y-48797889D01*
X171658769Y-48803107D01*
X171705840Y-51017572D01*
X171705830Y-51023288D01*
X171669234Y-52495535D01*
X171668891Y-52509330D01*
X171667365Y-52514986D01*
X171667257Y-52575061D01*
X171667221Y-52576512D01*
X171665634Y-52640394D01*
X171665852Y-52645563D01*
X171655112Y-53144383D01*
X171654910Y-53149274D01*
X171620696Y-53709397D01*
X171620302Y-53714276D01*
X171564002Y-54272678D01*
X171563414Y-54277538D01*
X171485054Y-54833747D01*
X171484387Y-54837960D01*
X171401344Y-55309380D01*
X171400660Y-55312954D01*
X171303718Y-55782235D01*
X171302930Y-55785787D01*
X171193350Y-56247437D01*
X171192104Y-56252254D01*
X170715152Y-57954530D01*
X170713298Y-57960552D01*
X170368005Y-58988709D01*
X170363376Y-59002491D01*
X170359955Y-59007945D01*
X170342476Y-59064720D01*
X170341958Y-59066265D01*
X170341959Y-59066265D01*
X170322080Y-59125460D01*
X170320407Y-59131841D01*
X170200080Y-59495465D01*
X170198346Y-59500359D01*
X170041127Y-59916226D01*
X170039190Y-59921043D01*
X169864706Y-60329952D01*
X169862569Y-60334684D01*
X169671206Y-60735750D01*
X169668693Y-60740724D01*
X169343186Y-61350787D01*
X169340259Y-61355970D01*
X168985964Y-61949520D01*
X168982791Y-61954557D01*
X168600411Y-62530432D01*
X168597001Y-62535310D01*
X168197227Y-63078845D01*
X168187445Y-63092144D01*
X168183804Y-63096853D01*
X167747971Y-63633423D01*
X167744108Y-63637952D01*
X167282956Y-64153069D01*
X167279051Y-64157234D01*
X166778514Y-64667045D01*
X166774601Y-64670859D01*
X166251981Y-65158221D01*
X166247903Y-65161859D01*
X165704331Y-65625709D01*
X165700097Y-65629164D01*
X165136608Y-66068620D01*
X165132226Y-66071885D01*
X164549907Y-66486097D01*
X164545385Y-66489165D01*
X163945630Y-66877157D01*
X163941142Y-66879927D01*
X163282933Y-67267060D01*
X163278499Y-67269547D01*
X162605214Y-67629250D01*
X162600683Y-67631553D01*
X161913194Y-67963374D01*
X161908571Y-67965489D01*
X161208100Y-68268837D01*
X161203396Y-68270761D01*
X160491054Y-68545157D01*
X160486274Y-68546887D01*
X159763043Y-68791938D01*
X159758685Y-68793325D01*
X158963767Y-69030373D01*
X158959856Y-69031470D01*
X158157326Y-69242422D01*
X158153380Y-69243390D01*
X157344420Y-69427930D01*
X157340446Y-69428769D01*
X156525822Y-69586722D01*
X156521821Y-69587430D01*
X155702468Y-69718610D01*
X155698447Y-69719186D01*
X154878964Y-69822986D01*
X154874053Y-69823509D01*
X154050456Y-69894649D01*
X154045315Y-69894986D01*
X153143988Y-69935221D01*
X153139467Y-69935340D01*
X152313284Y-69942064D01*
X152302013Y-69941643D01*
X152226112Y-69935340D01*
X152127609Y-69927160D01*
X150787808Y-69815899D01*
X150765763Y-69812041D01*
X149678719Y-69518688D01*
X149671092Y-69516365D01*
X146972724Y-68598462D01*
X146963500Y-68594908D01*
X146416227Y-68358587D01*
X146416227Y-68358586D01*
X146404263Y-68353420D01*
X146400113Y-68350272D01*
X146343848Y-68327333D01*
X146323068Y-68318360D01*
X146288070Y-68303247D01*
X146283780Y-68302029D01*
X146270844Y-68297570D01*
X144241276Y-67470130D01*
X144228021Y-67463786D01*
X141585862Y-66000767D01*
X141581956Y-65998510D01*
X140520068Y-65358978D01*
X140518705Y-65358157D01*
X140468482Y-65326148D01*
X140462340Y-65324210D01*
X140456819Y-65320885D01*
X140456816Y-65320884D01*
X140401121Y-65304851D01*
X140398117Y-65303945D01*
X140342808Y-65286495D01*
X140336525Y-65285385D01*
X140330174Y-65284429D01*
X140272210Y-65283357D01*
X140269074Y-65283259D01*
X140211144Y-65280719D01*
X140204804Y-65281272D01*
X140198416Y-65281993D01*
X140142139Y-65295963D01*
X140139083Y-65296680D01*
X140082483Y-65309217D01*
X140076436Y-65311416D01*
X140070511Y-65313744D01*
X140019765Y-65341803D01*
X140019766Y-65341804D01*
X140018370Y-65342575D01*
X139965575Y-65370046D01*
X139960822Y-65374398D01*
X139955184Y-65377517D01*
X139955182Y-65377519D01*
X139913430Y-65417754D01*
X139911141Y-65419904D01*
X139241549Y-66033228D01*
X139194073Y-66076714D01*
X139191815Y-66078732D01*
X138918013Y-66317496D01*
X138913355Y-66321362D01*
X138629401Y-66545551D01*
X138624569Y-66549178D01*
X138590404Y-66573543D01*
X138330718Y-66758736D01*
X138324106Y-66763138D01*
X138082460Y-66913099D01*
X138073898Y-66917953D01*
X137821913Y-67047868D01*
X137812994Y-67052027D01*
X137551564Y-67161523D01*
X137542503Y-67164909D01*
X137264119Y-67256733D01*
X137254984Y-67259363D01*
X136970422Y-67329584D01*
X136961114Y-67331505D01*
X136671031Y-67379887D01*
X136663721Y-67380884D01*
X136276495Y-67421991D01*
X136271268Y-67422434D01*
X135881640Y-67447190D01*
X135876398Y-67447412D01*
X135488926Y-67455603D01*
X135483492Y-67455599D01*
X134830102Y-67440771D01*
X134830102Y-67440770D01*
X134816407Y-67440459D01*
X134810838Y-67438968D01*
X134750623Y-67438968D01*
X134747171Y-67438889D01*
X134733344Y-67438576D01*
X134732044Y-67438540D01*
X134524533Y-67431654D01*
X134516323Y-67431108D01*
X134300990Y-67409602D01*
X134292833Y-67408513D01*
X134079268Y-67372750D01*
X134071480Y-67371188D01*
X133934574Y-67339134D01*
X133927180Y-67337160D01*
X133792398Y-67296687D01*
X133785139Y-67294261D01*
X133652098Y-67245177D01*
X133646806Y-67243085D01*
X133454108Y-67161762D01*
X133450695Y-67160261D01*
X133259550Y-67072734D01*
X133256186Y-67071132D01*
X133075251Y-66981608D01*
X133069374Y-66978501D01*
X132944016Y-66907873D01*
X132172471Y-66473175D01*
X132159944Y-66464144D01*
X132159776Y-66464388D01*
X132153093Y-66459763D01*
X132153091Y-66459762D01*
X132153088Y-66459760D01*
X132153086Y-66459759D01*
X132105229Y-66435183D01*
X132101013Y-66432915D01*
X132099880Y-66432277D01*
X132080092Y-66421128D01*
X132077913Y-66419871D01*
X131974446Y-66358705D01*
X131962224Y-66350462D01*
X131857337Y-66270251D01*
X131846191Y-66260625D01*
X131751558Y-66168525D01*
X131741627Y-66157639D01*
X131659510Y-66056090D01*
X131649572Y-66041868D01*
X131592206Y-65946145D01*
X131583362Y-65928267D01*
X131542599Y-65825875D01*
X131536736Y-65806813D01*
X131522026Y-65740364D01*
X131512126Y-65695643D01*
X131510008Y-65683011D01*
X131509415Y-65677853D01*
X131476244Y-65389283D01*
X131475727Y-65383643D01*
X131472849Y-65341804D01*
X131455190Y-65085051D01*
X131454931Y-65079388D01*
X131454929Y-65079319D01*
X131448046Y-64778765D01*
X131448015Y-64775926D01*
X131448015Y-64747174D01*
X131448016Y-64711437D01*
X131413908Y-64584143D01*
X131348016Y-64470015D01*
X131254830Y-64376829D01*
X131189073Y-64338864D01*
X131140703Y-64310937D01*
X131077055Y-64293883D01*
X131013408Y-64276829D01*
X131013404Y-64276829D01*
X130881620Y-64276829D01*
X130754326Y-64310938D01*
X130754324Y-64310938D01*
X130754324Y-64310939D01*
X130640196Y-64376831D01*
X130547012Y-64470016D01*
X130481120Y-64584146D01*
X130481119Y-64584146D01*
X130447014Y-64711437D01*
X130447014Y-64792534D01*
X130447009Y-64952773D01*
X130447014Y-64952898D01*
X130447014Y-69380389D01*
X130427329Y-69447428D01*
X130374969Y-69492980D01*
X126686281Y-71195113D01*
X126664843Y-71202708D01*
X126656737Y-71204766D01*
X126656729Y-71204769D01*
X126620526Y-71225038D01*
X126611910Y-71229430D01*
X126574224Y-71246821D01*
X126574221Y-71246823D01*
X126567782Y-71252182D01*
X126549056Y-71265056D01*
X126541748Y-71269148D01*
X126541741Y-71269153D01*
X126512008Y-71298112D01*
X126508535Y-71301493D01*
X126472933Y-71331127D01*
X126461522Y-71347283D01*
X126453339Y-71355254D01*
X126453340Y-71355254D01*
X126447345Y-71361092D01*
X126447339Y-71361100D01*
X126426106Y-71396781D01*
X126423630Y-71400940D01*
X126396913Y-71438775D01*
X126390074Y-71457329D01*
X126384234Y-71467144D01*
X126384233Y-71467148D01*
X122823764Y-77450494D01*
X122772565Y-77498039D01*
X122703790Y-77510356D01*
X122639273Y-77483536D01*
X122613165Y-77454553D01*
X119188037Y-72172920D01*
X118798813Y-71572726D01*
X118792081Y-71560988D01*
X118789716Y-71556288D01*
X118789714Y-71556282D01*
X118789710Y-71556276D01*
X118756478Y-71507391D01*
X118755711Y-71506263D01*
X118722834Y-71455565D01*
X118718730Y-71451865D01*
X118715625Y-71447297D01*
X118715622Y-71447294D01*
X118715620Y-71447292D01*
X118670882Y-71408686D01*
X118668862Y-71406905D01*
X118624956Y-71367321D01*
X118620604Y-71364326D01*
X118620568Y-71364301D01*
X118620319Y-71364129D01*
X118620263Y-71364097D01*
X118615853Y-71361201D01*
X118562665Y-71335498D01*
X118560255Y-71334301D01*
X118507573Y-71307417D01*
X118502598Y-71305652D01*
X118490109Y-71300437D01*
X115219262Y-69719834D01*
X115167465Y-69672942D01*
X115149214Y-69608187D01*
X115149214Y-65000903D01*
X115150331Y-64939579D01*
X115149214Y-64935084D01*
X115149214Y-64930453D01*
X115133626Y-64872279D01*
X115133071Y-64870129D01*
X115118547Y-64811685D01*
X115118542Y-64811676D01*
X115117480Y-64808974D01*
X115117476Y-64808962D01*
X115116445Y-64806339D01*
X115116438Y-64806322D01*
X115116397Y-64806219D01*
X115116225Y-64805861D01*
X115115105Y-64803156D01*
X115099383Y-64775926D01*
X115084433Y-64750032D01*
X115054744Y-64696376D01*
X115051534Y-64693047D01*
X115049216Y-64689032D01*
X115049213Y-64689029D01*
X115006643Y-64646460D01*
X115005112Y-64644902D01*
X114963271Y-64601508D01*
X114963268Y-64601506D01*
X114963267Y-64601505D01*
X114960969Y-64599674D01*
X114958815Y-64597958D01*
X114958699Y-64597866D01*
X114958356Y-64597632D01*
X114956031Y-64595848D01*
X114956028Y-64595845D01*
X114903886Y-64565740D01*
X114901970Y-64564611D01*
X114850355Y-64533545D01*
X114847678Y-64532378D01*
X114847678Y-64532379D01*
X114845123Y-64531266D01*
X114845122Y-64531265D01*
X114845002Y-64531213D01*
X114844620Y-64531079D01*
X114841905Y-64529954D01*
X114783702Y-64514359D01*
X114783702Y-64514358D01*
X114782598Y-64514062D01*
X114723710Y-64497128D01*
X114719079Y-64497043D01*
X114714606Y-64495845D01*
X114653272Y-64495845D01*
X114591948Y-64494728D01*
X114587453Y-64495845D01*
X114582822Y-64495845D01*
X114582819Y-64495845D01*
X114524684Y-64511421D01*
X114522502Y-64511985D01*
X114464050Y-64526512D01*
X114461304Y-64527592D01*
X114461303Y-64527593D01*
X114458715Y-64528610D01*
X114458713Y-64528610D01*
X114458632Y-64528642D01*
X114458264Y-64528819D01*
X114455527Y-64529952D01*
X114403350Y-64560076D01*
X114402356Y-64560649D01*
X114348745Y-64590315D01*
X114345412Y-64593527D01*
X114341399Y-64595845D01*
X114298828Y-64638414D01*
X114298829Y-64638415D01*
X114298027Y-64639217D01*
X114253877Y-64681788D01*
X114251488Y-64685756D01*
X114248214Y-64689030D01*
X114218121Y-64741152D01*
X114216977Y-64743092D01*
X114185915Y-64794701D01*
X114184738Y-64797403D01*
X114184731Y-64797420D01*
X114183667Y-64799860D01*
X114183649Y-64799903D01*
X114183584Y-64800050D01*
X114183453Y-64800426D01*
X114182322Y-64803157D01*
X114166737Y-64861314D01*
X114166738Y-64861315D01*
X114166431Y-64862458D01*
X114149497Y-64921349D01*
X114149412Y-64925979D01*
X114148214Y-64930453D01*
X114148214Y-64930455D01*
X114148214Y-64990681D01*
X114148193Y-64992939D01*
X114136667Y-65625709D01*
X114135798Y-65673390D01*
X114134603Y-65677853D01*
X114134600Y-65739154D01*
X114134579Y-65740307D01*
X114134579Y-65740364D01*
X114134504Y-65744433D01*
X114134372Y-65748304D01*
X114130075Y-65834757D01*
X114128856Y-65846997D01*
X114116251Y-65931024D01*
X114113825Y-65943083D01*
X114093312Y-66024045D01*
X114088588Y-66038765D01*
X114086082Y-66045171D01*
X114077981Y-66062014D01*
X114075308Y-66066642D01*
X114064780Y-66082059D01*
X114059914Y-66088145D01*
X114050846Y-66098292D01*
X113991349Y-66157924D01*
X113985093Y-66163775D01*
X113926128Y-66215225D01*
X113919822Y-66220727D01*
X113913175Y-66226134D01*
X113843349Y-66279032D01*
X113838266Y-66282684D01*
X113526503Y-66494988D01*
X113523202Y-66497160D01*
X113204016Y-66699941D01*
X113200647Y-66702007D01*
X112876193Y-66893904D01*
X112870718Y-66896958D01*
X112637341Y-67019510D01*
X112629610Y-67023234D01*
X112389411Y-67128870D01*
X112381442Y-67132050D01*
X112134390Y-67220867D01*
X112126200Y-67223495D01*
X111874915Y-67294595D01*
X111866539Y-67296653D01*
X111610788Y-67350141D01*
X111602291Y-67351612D01*
X111342155Y-67387371D01*
X111335871Y-67388072D01*
X110963823Y-67420002D01*
X110959808Y-67420281D01*
X110585615Y-67440191D01*
X110581593Y-67440339D01*
X110207037Y-67448091D01*
X110202776Y-67448106D01*
X109807488Y-67442702D01*
X109802991Y-67442559D01*
X109408209Y-67422820D01*
X109403720Y-67422514D01*
X109011177Y-67388576D01*
X109004022Y-67387748D01*
X108736245Y-67348826D01*
X108726499Y-67347009D01*
X108463958Y-67287109D01*
X108454415Y-67284526D01*
X108197660Y-67203894D01*
X108188142Y-67200473D01*
X107947549Y-67102734D01*
X107938165Y-67098459D01*
X107706660Y-66981135D01*
X107697668Y-66976097D01*
X107534079Y-66875291D01*
X107475658Y-66839291D01*
X107469170Y-66835007D01*
X107193090Y-66640000D01*
X107171537Y-66624776D01*
X107167373Y-66621701D01*
X106877854Y-66398303D01*
X106873802Y-66395037D01*
X106592957Y-66158765D01*
X106590972Y-66157058D01*
X106022525Y-65657956D01*
X105958550Y-65601785D01*
X105926743Y-65568961D01*
X105909218Y-65558471D01*
X105893870Y-65544996D01*
X105876020Y-65536180D01*
X105857368Y-65526968D01*
X105852877Y-65524750D01*
X105813666Y-65501281D01*
X105794028Y-65495686D01*
X105783928Y-65490698D01*
X105783925Y-65490697D01*
X105775709Y-65486639D01*
X105735778Y-65478672D01*
X105730871Y-65477693D01*
X105686924Y-65465173D01*
X105666509Y-65464851D01*
X105655468Y-65462648D01*
X105655466Y-65462648D01*
X105646476Y-65460855D01*
X105646472Y-65460854D01*
X105605852Y-65463493D01*
X105595868Y-65463739D01*
X105558616Y-65463153D01*
X105555157Y-65463099D01*
X105555156Y-65463099D01*
X105555154Y-65463099D01*
X105555149Y-65463100D01*
X105546271Y-65465328D01*
X105546272Y-65465329D01*
X105535345Y-65468073D01*
X105514966Y-65469398D01*
X105471693Y-65484058D01*
X105466837Y-65485278D01*
X105466826Y-65485282D01*
X105427343Y-65495198D01*
X105427337Y-65495200D01*
X105419325Y-65499659D01*
X105409489Y-65505132D01*
X105390152Y-65511685D01*
X105352146Y-65537046D01*
X105347776Y-65539479D01*
X105347768Y-65539485D01*
X103330256Y-66662331D01*
X103326060Y-66664562D01*
X100914139Y-67888321D01*
X100904911Y-67892537D01*
X100637755Y-68001631D01*
X100637755Y-68001632D01*
X100625182Y-68006766D01*
X100614290Y-68008630D01*
X100564363Y-68031601D01*
X100561862Y-68032623D01*
X100561860Y-68032623D01*
X100513411Y-68052407D01*
X100506355Y-68056435D01*
X100506006Y-68055824D01*
X100494164Y-68062806D01*
X99859100Y-68343485D01*
X99855661Y-68344943D01*
X99153145Y-68630464D01*
X99149664Y-68631818D01*
X98438842Y-68896062D01*
X98435322Y-68897310D01*
X97716896Y-69140015D01*
X97713340Y-69141157D01*
X96987931Y-69362116D01*
X96984342Y-69363151D01*
X96252867Y-69562091D01*
X96248940Y-69563090D01*
X95757536Y-69679633D01*
X95753266Y-69680567D01*
X95258303Y-69779671D01*
X95254002Y-69780453D01*
X94755922Y-69862039D01*
X94751598Y-69862670D01*
X94455205Y-69900549D01*
X94251311Y-69926607D01*
X94246101Y-69927160D01*
X93759188Y-69968465D01*
X93753034Y-69968833D01*
X93265124Y-69985871D01*
X93258959Y-69985933D01*
X92770808Y-69978696D01*
X92764648Y-69978452D01*
X92277027Y-69946935D01*
X92272107Y-69946518D01*
X91387933Y-69853900D01*
X91384250Y-69853459D01*
X90502771Y-69734377D01*
X90499104Y-69733825D01*
X89621487Y-69588418D01*
X89617849Y-69587760D01*
X88705826Y-69408572D01*
X88702223Y-69407808D01*
X87795815Y-69201583D01*
X87792235Y-69200713D01*
X87382809Y-69094677D01*
X86892338Y-68967651D01*
X86888585Y-68966615D01*
X86787549Y-68937011D01*
X86313504Y-68798113D01*
X86309536Y-68796878D01*
X85740473Y-68609217D01*
X85736550Y-68607850D01*
X85174112Y-68401235D01*
X85170235Y-68399737D01*
X84615344Y-68174516D01*
X84611038Y-68172672D01*
X83966025Y-67882036D01*
X83961319Y-67879796D01*
X83329376Y-67562452D01*
X83324768Y-67560015D01*
X82706754Y-67216410D01*
X82702252Y-67213782D01*
X82277453Y-66953649D01*
X82099052Y-66844402D01*
X82094634Y-66841565D01*
X81512303Y-66450051D01*
X81507957Y-66446992D01*
X80942809Y-66030792D01*
X80938598Y-66027550D01*
X80391774Y-65587494D01*
X80387707Y-65584074D01*
X79860423Y-65121152D01*
X79856466Y-65117523D01*
X79359659Y-64641736D01*
X79355828Y-64637903D01*
X79334616Y-64615732D01*
X79334612Y-64615729D01*
X79255781Y-64533335D01*
X86839100Y-64533335D01*
X86839100Y-66429070D01*
X86839101Y-66429076D01*
X86845508Y-66488683D01*
X86895802Y-66623528D01*
X86895806Y-66623535D01*
X86982052Y-66738744D01*
X86982055Y-66738747D01*
X87097264Y-66824993D01*
X87097271Y-66824997D01*
X87232117Y-66875291D01*
X87232116Y-66875291D01*
X87239044Y-66876035D01*
X87291727Y-66881700D01*
X89187472Y-66881699D01*
X89247083Y-66875291D01*
X89381931Y-66824996D01*
X89497146Y-66738746D01*
X89583396Y-66623531D01*
X89611029Y-66549443D01*
X89613201Y-66543620D01*
X89655071Y-66487686D01*
X89720536Y-66463268D01*
X89788809Y-66478119D01*
X89817064Y-66499271D01*
X89867236Y-66549443D01*
X89867241Y-66549447D01*
X89968862Y-66623278D01*
X90045578Y-66679015D01*
X90173975Y-66744437D01*
X90241993Y-66779095D01*
X90241996Y-66779096D01*
X90337074Y-66809988D01*
X90451649Y-66847215D01*
X90669378Y-66881700D01*
X90669379Y-66881700D01*
X90889821Y-66881700D01*
X90889822Y-66881700D01*
X91107551Y-66847215D01*
X91317206Y-66779095D01*
X91513622Y-66679015D01*
X91691965Y-66549442D01*
X91847842Y-66393565D01*
X91977415Y-66215222D01*
X92077495Y-66018806D01*
X92145615Y-65809151D01*
X92180100Y-65591422D01*
X92180100Y-65370978D01*
X92145615Y-65153249D01*
X92080526Y-64952923D01*
X92077496Y-64943596D01*
X92077495Y-64943593D01*
X92035571Y-64861314D01*
X91977415Y-64747178D01*
X91951448Y-64711437D01*
X91847847Y-64568841D01*
X91847843Y-64568836D01*
X91691963Y-64412956D01*
X91691958Y-64412952D01*
X91513625Y-64283387D01*
X91513624Y-64283386D01*
X91513622Y-64283385D01*
X91396391Y-64223652D01*
X91317206Y-64183304D01*
X91317203Y-64183303D01*
X91107552Y-64115185D01*
X90998686Y-64097942D01*
X90889822Y-64080700D01*
X90669378Y-64080700D01*
X90596801Y-64092195D01*
X90451647Y-64115185D01*
X90241996Y-64183303D01*
X90241993Y-64183304D01*
X90045574Y-64283387D01*
X89867241Y-64412952D01*
X89867236Y-64412956D01*
X89817063Y-64463129D01*
X89755740Y-64496613D01*
X89686048Y-64491628D01*
X89630115Y-64449757D01*
X89613201Y-64418780D01*
X89583397Y-64338871D01*
X89583393Y-64338864D01*
X89497147Y-64223655D01*
X89497144Y-64223652D01*
X89381935Y-64137406D01*
X89381928Y-64137402D01*
X89247082Y-64087108D01*
X89247083Y-64087108D01*
X89187483Y-64080701D01*
X89187481Y-64080700D01*
X89187473Y-64080700D01*
X89187464Y-64080700D01*
X87291729Y-64080700D01*
X87291723Y-64080701D01*
X87232116Y-64087108D01*
X87097271Y-64137402D01*
X87097264Y-64137406D01*
X86982055Y-64223652D01*
X86982052Y-64223655D01*
X86895806Y-64338864D01*
X86895802Y-64338871D01*
X86845508Y-64473717D01*
X86839101Y-64533316D01*
X86839100Y-64533335D01*
X79255781Y-64533335D01*
X79016640Y-64283387D01*
X78880380Y-64140968D01*
X78876731Y-64136983D01*
X78865731Y-64124431D01*
X78527340Y-63738294D01*
X78423485Y-63619786D01*
X78420004Y-63615634D01*
X78063501Y-63171057D01*
X77989545Y-63078829D01*
X77986462Y-63074819D01*
X77671344Y-62647085D01*
X77668609Y-62643220D01*
X77369889Y-62203525D01*
X77367303Y-62199558D01*
X77212640Y-61952078D01*
X77085566Y-61748744D01*
X77083158Y-61744722D01*
X76818811Y-61283429D01*
X76816563Y-61279325D01*
X76570071Y-60808365D01*
X76567953Y-60804123D01*
X76238910Y-60112282D01*
X76236953Y-60107957D01*
X76154609Y-59916226D01*
X75934612Y-59403982D01*
X75932858Y-59399671D01*
X75657695Y-58684661D01*
X75656080Y-58680210D01*
X75651928Y-58668053D01*
X75410830Y-57962048D01*
X105074700Y-57962048D01*
X105074700Y-58166751D01*
X105106722Y-58368934D01*
X105169981Y-58563623D01*
X105215108Y-58652188D01*
X105262785Y-58745759D01*
X105262915Y-58746013D01*
X105383228Y-58911613D01*
X105527986Y-59056371D01*
X105631864Y-59131841D01*
X105693590Y-59176687D01*
X105809807Y-59235903D01*
X105875976Y-59269618D01*
X105875978Y-59269618D01*
X105875981Y-59269620D01*
X105980337Y-59303527D01*
X106070665Y-59332877D01*
X106171757Y-59348888D01*
X106272848Y-59364900D01*
X106272849Y-59364900D01*
X106477551Y-59364900D01*
X106477552Y-59364900D01*
X106679734Y-59332877D01*
X106874419Y-59269620D01*
X107056810Y-59176687D01*
X107149790Y-59109132D01*
X107222413Y-59056371D01*
X107222415Y-59056368D01*
X107222419Y-59056366D01*
X107367166Y-58911619D01*
X107367168Y-58911615D01*
X107367171Y-58911613D01*
X107419932Y-58838990D01*
X107487487Y-58746010D01*
X107580420Y-58563619D01*
X107643677Y-58368934D01*
X107675700Y-58166752D01*
X107675700Y-57962082D01*
X112695200Y-57962082D01*
X112695200Y-58166717D01*
X112727209Y-58368817D01*
X112790444Y-58563431D01*
X112883341Y-58745750D01*
X112883347Y-58745759D01*
X112915723Y-58790321D01*
X112915724Y-58790322D01*
X113595200Y-58110846D01*
X113595200Y-58117061D01*
X113622459Y-58218794D01*
X113675120Y-58310006D01*
X113749594Y-58384480D01*
X113840806Y-58437141D01*
X113942539Y-58464400D01*
X113948753Y-58464400D01*
X113269276Y-59143874D01*
X113313850Y-59176259D01*
X113496168Y-59269155D01*
X113690782Y-59332390D01*
X113892883Y-59364400D01*
X114097517Y-59364400D01*
X114299617Y-59332390D01*
X114494231Y-59269155D01*
X114676549Y-59176259D01*
X114721121Y-59143874D01*
X114041647Y-58464400D01*
X114047861Y-58464400D01*
X114149594Y-58437141D01*
X114240806Y-58384480D01*
X114315280Y-58310006D01*
X114367941Y-58218794D01*
X114395200Y-58117061D01*
X114395200Y-58110847D01*
X115074674Y-58790321D01*
X115107059Y-58745749D01*
X115199955Y-58563431D01*
X115263190Y-58368817D01*
X115295200Y-58166717D01*
X115295200Y-57962082D01*
X115263190Y-57759982D01*
X115199955Y-57565368D01*
X115107059Y-57383050D01*
X115074674Y-57338477D01*
X115074674Y-57338476D01*
X114395200Y-58017951D01*
X114395200Y-58011739D01*
X114367941Y-57910006D01*
X114315280Y-57818794D01*
X114240806Y-57744320D01*
X114149594Y-57691659D01*
X114047861Y-57664400D01*
X114041646Y-57664400D01*
X114721122Y-56984924D01*
X114721121Y-56984923D01*
X114676559Y-56952547D01*
X114676550Y-56952541D01*
X114494231Y-56859644D01*
X114370714Y-56819511D01*
X114299617Y-56796409D01*
X114097517Y-56764400D01*
X113892883Y-56764400D01*
X113690782Y-56796409D01*
X113496168Y-56859644D01*
X113313844Y-56952543D01*
X113269277Y-56984923D01*
X113269277Y-56984924D01*
X113948754Y-57664400D01*
X113942539Y-57664400D01*
X113840806Y-57691659D01*
X113749594Y-57744320D01*
X113675120Y-57818794D01*
X113622459Y-57910006D01*
X113595200Y-58011739D01*
X113595200Y-58017953D01*
X112915724Y-57338477D01*
X112915723Y-57338477D01*
X112883343Y-57383044D01*
X112790444Y-57565368D01*
X112727209Y-57759982D01*
X112695200Y-57962082D01*
X107675700Y-57962082D01*
X107675700Y-57962048D01*
X107661383Y-57871657D01*
X107643677Y-57759865D01*
X107594072Y-57607199D01*
X107580420Y-57565181D01*
X107580418Y-57565178D01*
X107580418Y-57565176D01*
X107487619Y-57383050D01*
X107487487Y-57382790D01*
X107455292Y-57338477D01*
X107367171Y-57217186D01*
X107222413Y-57072428D01*
X107056813Y-56952115D01*
X107056812Y-56952114D01*
X107056810Y-56952113D01*
X106999853Y-56923091D01*
X106874423Y-56859181D01*
X106679734Y-56795922D01*
X106505195Y-56768278D01*
X106477552Y-56763900D01*
X106272848Y-56763900D01*
X106248529Y-56767751D01*
X106070665Y-56795922D01*
X105875976Y-56859181D01*
X105693586Y-56952115D01*
X105527986Y-57072428D01*
X105383228Y-57217186D01*
X105262915Y-57382786D01*
X105169981Y-57565176D01*
X105106722Y-57759865D01*
X105074700Y-57962048D01*
X75410830Y-57962048D01*
X75408501Y-57955229D01*
X75407059Y-57950725D01*
X75187411Y-57216795D01*
X75186142Y-57212239D01*
X75184842Y-57207200D01*
X74994742Y-56470415D01*
X74993661Y-56465864D01*
X74830715Y-55716880D01*
X74829873Y-55712644D01*
X74686752Y-54919008D01*
X74686087Y-54914931D01*
X74684285Y-54902602D01*
X74569448Y-54116722D01*
X74568920Y-54112631D01*
X74566882Y-54094471D01*
X74478935Y-53310966D01*
X74478543Y-53306855D01*
X74465769Y-53144383D01*
X74415311Y-52502624D01*
X74415062Y-52498617D01*
X74378653Y-51692630D01*
X74378537Y-51688518D01*
X74378447Y-51680935D01*
X74748700Y-51680935D01*
X74748700Y-53491003D01*
X74748700Y-53491011D01*
X74748701Y-53576672D01*
X74755109Y-53636283D01*
X74769268Y-53674247D01*
X74769269Y-53674250D01*
X74805402Y-53771128D01*
X74805406Y-53771135D01*
X74891652Y-53886344D01*
X74891655Y-53886347D01*
X75006864Y-53972593D01*
X75006871Y-53972597D01*
X75141717Y-54022891D01*
X75141716Y-54022891D01*
X75148644Y-54023635D01*
X75201327Y-54029300D01*
X77097072Y-54029299D01*
X77156683Y-54022891D01*
X77291531Y-53972596D01*
X77406746Y-53886346D01*
X77492996Y-53771131D01*
X77520629Y-53697043D01*
X77522801Y-53691220D01*
X77564671Y-53635286D01*
X77630136Y-53610868D01*
X77698409Y-53625719D01*
X77726664Y-53646871D01*
X77776836Y-53697043D01*
X77776841Y-53697047D01*
X77878803Y-53771126D01*
X77955178Y-53826615D01*
X78083575Y-53892037D01*
X78151593Y-53926695D01*
X78151596Y-53926696D01*
X78256421Y-53960755D01*
X78361249Y-53994815D01*
X78578978Y-54029300D01*
X78578979Y-54029300D01*
X78799421Y-54029300D01*
X78799422Y-54029300D01*
X79017151Y-53994815D01*
X79226806Y-53926695D01*
X79423222Y-53826615D01*
X79601565Y-53697042D01*
X79757442Y-53541165D01*
X79887015Y-53362822D01*
X79987095Y-53166406D01*
X80055215Y-52956751D01*
X80089700Y-52739022D01*
X80089700Y-52518578D01*
X80055215Y-52300849D01*
X80003306Y-52141086D01*
X79987096Y-52091196D01*
X79987095Y-52091193D01*
X79943192Y-52005030D01*
X79887015Y-51894778D01*
X79831522Y-51818398D01*
X79757447Y-51716441D01*
X79757443Y-51716436D01*
X79601563Y-51560556D01*
X79601558Y-51560552D01*
X79423225Y-51430987D01*
X79423224Y-51430986D01*
X79423222Y-51430985D01*
X79305991Y-51371252D01*
X79226806Y-51330904D01*
X79226803Y-51330903D01*
X79017152Y-51262785D01*
X78908286Y-51245542D01*
X78799422Y-51228300D01*
X78578978Y-51228300D01*
X78506401Y-51239795D01*
X78361247Y-51262785D01*
X78151596Y-51330903D01*
X78151593Y-51330904D01*
X77955174Y-51430987D01*
X77776841Y-51560552D01*
X77776836Y-51560556D01*
X77726663Y-51610729D01*
X77665340Y-51644213D01*
X77595648Y-51639228D01*
X77539715Y-51597357D01*
X77522801Y-51566380D01*
X77492997Y-51486471D01*
X77492993Y-51486464D01*
X77406747Y-51371255D01*
X77406744Y-51371252D01*
X77291535Y-51285006D01*
X77291528Y-51285002D01*
X77156682Y-51234708D01*
X77156683Y-51234708D01*
X77097083Y-51228301D01*
X77097081Y-51228300D01*
X77097073Y-51228300D01*
X77097064Y-51228300D01*
X75201329Y-51228300D01*
X75201323Y-51228301D01*
X75141716Y-51234708D01*
X75006871Y-51285002D01*
X75006864Y-51285006D01*
X74891655Y-51371252D01*
X74891652Y-51371255D01*
X74805406Y-51486464D01*
X74805402Y-51486471D01*
X74755108Y-51621317D01*
X74748701Y-51680916D01*
X74748700Y-51680935D01*
X74378447Y-51680935D01*
X74368998Y-50881879D01*
X74369018Y-50877773D01*
X74369316Y-50863909D01*
X74386349Y-50071556D01*
X74386503Y-50067522D01*
X74430932Y-49256269D01*
X74431223Y-49252200D01*
X74433840Y-49222476D01*
X74502447Y-48443219D01*
X74502867Y-48439203D01*
X74600834Y-47632960D01*
X74601395Y-47628913D01*
X74616793Y-47529734D01*
X74725983Y-46826424D01*
X74726677Y-46822402D01*
X74877757Y-46024472D01*
X74878572Y-46020521D01*
X75055998Y-45227945D01*
X75056934Y-45224065D01*
X75260471Y-44437889D01*
X75261629Y-44433717D01*
X75280179Y-44371158D01*
X75483809Y-43684394D01*
X75485178Y-43680071D01*
X75487769Y-43672381D01*
X75734724Y-42939388D01*
X75736223Y-42935197D01*
X76012798Y-42204158D01*
X76014452Y-42200017D01*
X76317668Y-41479646D01*
X76319505Y-41475499D01*
X76648940Y-40766791D01*
X76650905Y-40762758D01*
X77006181Y-40066532D01*
X77008287Y-40062587D01*
X77388775Y-39380065D01*
X77391141Y-39376007D01*
X77798039Y-38707628D01*
X77800655Y-38703518D01*
X78089033Y-38269735D01*
X79676300Y-38269735D01*
X79676300Y-40165470D01*
X79676301Y-40165476D01*
X79682708Y-40225083D01*
X79733002Y-40359928D01*
X79733006Y-40359935D01*
X79819252Y-40475144D01*
X79819255Y-40475147D01*
X79934464Y-40561393D01*
X79934471Y-40561397D01*
X80069317Y-40611691D01*
X80069316Y-40611691D01*
X80076244Y-40612435D01*
X80128927Y-40618100D01*
X82024672Y-40618099D01*
X82084283Y-40611691D01*
X82219131Y-40561396D01*
X82334346Y-40475146D01*
X82420596Y-40359931D01*
X82437797Y-40313812D01*
X82450401Y-40280020D01*
X82492271Y-40224086D01*
X82557736Y-40199668D01*
X82626009Y-40214519D01*
X82654264Y-40235671D01*
X82704436Y-40285843D01*
X82704441Y-40285847D01*
X82806403Y-40359926D01*
X82882778Y-40415415D01*
X83011175Y-40480837D01*
X83079193Y-40515495D01*
X83079196Y-40515496D01*
X83149686Y-40538399D01*
X83288849Y-40583615D01*
X83506578Y-40618100D01*
X83506579Y-40618100D01*
X83727021Y-40618100D01*
X83727022Y-40618100D01*
X83944751Y-40583615D01*
X84154406Y-40515495D01*
X84350822Y-40415415D01*
X84529165Y-40285842D01*
X84685042Y-40129965D01*
X84814615Y-39951622D01*
X84914695Y-39755206D01*
X84982815Y-39545551D01*
X85017300Y-39327822D01*
X85017300Y-39107378D01*
X84982815Y-38889649D01*
X84936272Y-38746402D01*
X84914696Y-38679996D01*
X84914695Y-38679993D01*
X84873375Y-38598900D01*
X84814615Y-38483578D01*
X84740796Y-38381974D01*
X84685047Y-38305241D01*
X84685043Y-38305236D01*
X84529163Y-38149356D01*
X84529158Y-38149352D01*
X84350825Y-38019787D01*
X84350824Y-38019786D01*
X84350822Y-38019785D01*
X84287896Y-37987722D01*
X84154406Y-37919704D01*
X84154403Y-37919703D01*
X83944752Y-37851585D01*
X83835886Y-37834342D01*
X83727022Y-37817100D01*
X83506578Y-37817100D01*
X83434001Y-37828595D01*
X83288847Y-37851585D01*
X83079196Y-37919703D01*
X83079193Y-37919704D01*
X82882774Y-38019787D01*
X82704441Y-38149352D01*
X82704436Y-38149356D01*
X82654263Y-38199529D01*
X82592940Y-38233013D01*
X82523248Y-38228028D01*
X82467315Y-38186157D01*
X82450401Y-38155180D01*
X82420597Y-38075271D01*
X82420593Y-38075264D01*
X82334347Y-37960055D01*
X82334344Y-37960052D01*
X82219135Y-37873806D01*
X82219128Y-37873802D01*
X82084282Y-37823508D01*
X82084283Y-37823508D01*
X82024683Y-37817101D01*
X82024681Y-37817100D01*
X82024673Y-37817100D01*
X82024664Y-37817100D01*
X80128929Y-37817100D01*
X80128923Y-37817101D01*
X80069316Y-37823508D01*
X79934471Y-37873802D01*
X79934464Y-37873806D01*
X79819255Y-37960052D01*
X79819252Y-37960055D01*
X79733006Y-38075264D01*
X79733002Y-38075271D01*
X79682708Y-38210117D01*
X79676301Y-38269716D01*
X79676300Y-38269735D01*
X78089033Y-38269735D01*
X78233780Y-38052005D01*
X78236572Y-38047981D01*
X78695327Y-37414220D01*
X78698252Y-37410346D01*
X79181885Y-36795377D01*
X79184951Y-36791635D01*
X79692844Y-36196258D01*
X79695924Y-36192784D01*
X79988748Y-35874736D01*
X80246938Y-35594305D01*
X80249952Y-35591146D01*
X80822227Y-35012659D01*
X80825357Y-35009608D01*
X81417993Y-34452030D01*
X81421234Y-34449088D01*
X82033516Y-33913096D01*
X82036832Y-33910296D01*
X82667972Y-33396582D01*
X82671380Y-33393907D01*
X83335606Y-32891340D01*
X83339006Y-32888859D01*
X84020518Y-32409828D01*
X84024047Y-32407440D01*
X84721892Y-31952620D01*
X84725525Y-31950342D01*
X85438850Y-31520282D01*
X85442559Y-31518133D01*
X86157910Y-31120353D01*
X86166495Y-31116008D01*
X86962429Y-30751335D01*
X91106300Y-30751335D01*
X91106300Y-32647070D01*
X91106301Y-32647076D01*
X91112708Y-32706683D01*
X91163002Y-32841528D01*
X91163006Y-32841535D01*
X91249252Y-32956744D01*
X91249255Y-32956747D01*
X91364464Y-33042993D01*
X91364471Y-33042997D01*
X91499317Y-33093291D01*
X91499316Y-33093291D01*
X91506244Y-33094035D01*
X91558927Y-33099700D01*
X93454672Y-33099699D01*
X93514283Y-33093291D01*
X93649131Y-33042996D01*
X93764346Y-32956746D01*
X93850596Y-32841531D01*
X93878229Y-32767443D01*
X93880401Y-32761620D01*
X93922271Y-32705686D01*
X93987736Y-32681268D01*
X94056009Y-32696119D01*
X94084264Y-32717271D01*
X94134436Y-32767443D01*
X94134441Y-32767447D01*
X94236403Y-32841526D01*
X94312778Y-32897015D01*
X94441175Y-32962437D01*
X94509193Y-32997095D01*
X94509196Y-32997096D01*
X94546351Y-33009168D01*
X94718849Y-33065215D01*
X94936578Y-33099700D01*
X94936579Y-33099700D01*
X95157021Y-33099700D01*
X95157022Y-33099700D01*
X95374751Y-33065215D01*
X95584406Y-32997095D01*
X95780822Y-32897015D01*
X95959165Y-32767442D01*
X96115042Y-32611565D01*
X96244615Y-32433222D01*
X96278152Y-32367404D01*
X96326126Y-32316609D01*
X96388636Y-32299700D01*
X105109903Y-32299700D01*
X105176942Y-32319385D01*
X105197584Y-32336019D01*
X118164845Y-45303280D01*
X118198330Y-45364603D01*
X118199638Y-45410358D01*
X118181000Y-45528035D01*
X118181000Y-45708765D01*
X118185441Y-45736802D01*
X118209253Y-45887150D01*
X118209273Y-45887271D01*
X118265122Y-46059156D01*
X118347040Y-46219929D01*
X118347174Y-46220191D01*
X118453396Y-46366396D01*
X118581203Y-46494203D01*
X118711460Y-46588838D01*
X118727412Y-46600428D01*
X118888444Y-46682478D01*
X119060329Y-46738327D01*
X119223348Y-46764147D01*
X119234586Y-46765927D01*
X119297721Y-46795856D01*
X119334652Y-46855168D01*
X119333654Y-46925030D01*
X119295044Y-46983263D01*
X119234586Y-47010873D01*
X119060332Y-47038472D01*
X118888441Y-47094323D01*
X118727408Y-47176374D01*
X118581203Y-47282596D01*
X118453396Y-47410403D01*
X118347174Y-47556608D01*
X118265123Y-47717641D01*
X118209272Y-47889532D01*
X118184913Y-48043327D01*
X118181000Y-48068035D01*
X118181000Y-48248765D01*
X118209273Y-48427271D01*
X118225354Y-48476764D01*
X118265123Y-48599158D01*
X118347174Y-48760191D01*
X118453396Y-48906396D01*
X118581203Y-49034203D01*
X118718017Y-49133602D01*
X118727412Y-49140428D01*
X118888444Y-49222478D01*
X119060329Y-49278327D01*
X119224945Y-49304400D01*
X119234586Y-49305927D01*
X119297721Y-49335856D01*
X119334652Y-49395168D01*
X119333654Y-49465030D01*
X119295044Y-49523263D01*
X119234586Y-49550873D01*
X119060332Y-49578472D01*
X118888441Y-49634323D01*
X118727408Y-49716374D01*
X118581203Y-49822596D01*
X118453396Y-49950403D01*
X118347174Y-50096608D01*
X118265123Y-50257641D01*
X118209272Y-50429532D01*
X118181000Y-50608035D01*
X118181000Y-50788764D01*
X118206399Y-50949130D01*
X118209273Y-50967271D01*
X118265122Y-51139156D01*
X118339436Y-51285006D01*
X118347174Y-51300191D01*
X118453396Y-51446396D01*
X118581203Y-51574203D01*
X118718017Y-51673602D01*
X118727412Y-51680428D01*
X118888444Y-51762478D01*
X119060329Y-51818327D01*
X119234586Y-51845927D01*
X119297721Y-51875856D01*
X119334652Y-51935168D01*
X119333654Y-52005030D01*
X119295044Y-52063263D01*
X119234586Y-52090873D01*
X119060332Y-52118472D01*
X118888441Y-52174323D01*
X118727408Y-52256374D01*
X118581203Y-52362596D01*
X118453396Y-52490403D01*
X118347174Y-52636608D01*
X118265123Y-52797641D01*
X118209272Y-52969532D01*
X118191323Y-53082861D01*
X118181000Y-53148035D01*
X118181000Y-53328765D01*
X118184408Y-53350280D01*
X118206652Y-53490728D01*
X118209273Y-53507271D01*
X118265122Y-53679156D01*
X118340307Y-53826715D01*
X118347174Y-53840191D01*
X118453396Y-53986396D01*
X118581203Y-54114203D01*
X118718017Y-54213602D01*
X118727412Y-54220428D01*
X118888444Y-54302478D01*
X119060329Y-54358327D01*
X119238835Y-54386600D01*
X119419565Y-54386600D01*
X119598071Y-54358327D01*
X119769956Y-54302478D01*
X119930988Y-54220428D01*
X120013079Y-54160785D01*
X120077196Y-54114203D01*
X120077198Y-54114200D01*
X120077202Y-54114198D01*
X120204998Y-53986402D01*
X120205000Y-53986398D01*
X120205003Y-53986396D01*
X120311227Y-53840189D01*
X120323015Y-53817055D01*
X120370989Y-53766259D01*
X120438810Y-53749463D01*
X120504945Y-53772000D01*
X120548397Y-53826715D01*
X120557500Y-53873349D01*
X120557500Y-55144550D01*
X120537815Y-55211589D01*
X120485011Y-55257344D01*
X120415853Y-55267288D01*
X120352297Y-55238263D01*
X120323016Y-55200846D01*
X120310804Y-55176880D01*
X120299639Y-55161512D01*
X119722900Y-55738251D01*
X119722900Y-55726568D01*
X119696070Y-55626438D01*
X119644238Y-55536663D01*
X119570937Y-55463362D01*
X119481162Y-55411530D01*
X119381032Y-55384700D01*
X119369347Y-55384700D01*
X119946086Y-54807959D01*
X119946086Y-54807958D01*
X119930729Y-54796801D01*
X119769766Y-54714786D01*
X119597950Y-54658959D01*
X119597952Y-54658959D01*
X119431858Y-54632652D01*
X119226541Y-54632652D01*
X119060448Y-54658959D01*
X118888633Y-54714786D01*
X118727676Y-54796797D01*
X118727672Y-54796800D01*
X118712312Y-54807958D01*
X118712312Y-54807959D01*
X119289054Y-55384700D01*
X119277368Y-55384700D01*
X119177238Y-55411530D01*
X119087463Y-55463362D01*
X119014162Y-55536663D01*
X118962330Y-55626438D01*
X118935500Y-55726568D01*
X118935500Y-55738253D01*
X118358759Y-55161512D01*
X118358758Y-55161512D01*
X118347600Y-55176872D01*
X118347597Y-55176876D01*
X118265586Y-55337833D01*
X118209759Y-55509649D01*
X118181500Y-55688068D01*
X118181500Y-55868731D01*
X118209759Y-56047150D01*
X118265586Y-56218966D01*
X118347601Y-56379929D01*
X118358758Y-56395286D01*
X118358759Y-56395286D01*
X118935500Y-55818545D01*
X118935500Y-55830232D01*
X118962330Y-55930362D01*
X119014162Y-56020137D01*
X119087463Y-56093438D01*
X119177238Y-56145270D01*
X119277368Y-56172100D01*
X119289053Y-56172100D01*
X118712312Y-56748838D01*
X118712312Y-56748839D01*
X118727677Y-56760002D01*
X118888633Y-56842013D01*
X119060449Y-56897840D01*
X119238869Y-56926100D01*
X119419531Y-56926100D01*
X119597950Y-56897840D01*
X119769766Y-56842013D01*
X119930728Y-56759999D01*
X119930732Y-56759997D01*
X119946086Y-56748840D01*
X119946087Y-56748839D01*
X119369348Y-56172100D01*
X119381032Y-56172100D01*
X119481162Y-56145270D01*
X119570937Y-56093438D01*
X119644238Y-56020137D01*
X119696070Y-55930362D01*
X119722900Y-55830232D01*
X119722900Y-55818547D01*
X120299639Y-56395287D01*
X120299640Y-56395286D01*
X120310797Y-56379932D01*
X120310802Y-56379923D01*
X120323015Y-56355955D01*
X120370989Y-56305159D01*
X120438810Y-56288363D01*
X120504945Y-56310900D01*
X120548397Y-56365615D01*
X120557500Y-56412249D01*
X120557500Y-62791902D01*
X120537815Y-62858941D01*
X120521181Y-62879583D01*
X118777582Y-64623181D01*
X118716259Y-64656666D01*
X118689901Y-64659500D01*
X117342129Y-64659500D01*
X117342123Y-64659501D01*
X117282516Y-64665908D01*
X117147671Y-64716202D01*
X117147664Y-64716206D01*
X117032455Y-64802452D01*
X117032452Y-64802455D01*
X116946206Y-64917664D01*
X116946202Y-64917671D01*
X116895908Y-65052517D01*
X116889501Y-65112116D01*
X116889500Y-65112135D01*
X116889500Y-66907870D01*
X116889501Y-66907876D01*
X116895908Y-66967483D01*
X116946202Y-67102328D01*
X116946206Y-67102335D01*
X117032452Y-67217544D01*
X117032455Y-67217547D01*
X117147664Y-67303793D01*
X117147671Y-67303797D01*
X117282517Y-67354091D01*
X117282516Y-67354091D01*
X117289444Y-67354835D01*
X117342127Y-67360500D01*
X119137872Y-67360499D01*
X119197483Y-67354091D01*
X119332331Y-67303796D01*
X119447546Y-67217546D01*
X119533796Y-67102331D01*
X119584091Y-66967483D01*
X119590500Y-66907873D01*
X119590499Y-65560095D01*
X119610184Y-65493057D01*
X119626813Y-65472420D01*
X121526713Y-63572521D01*
X121526716Y-63572520D01*
X121638520Y-63460716D01*
X121688639Y-63373904D01*
X121717577Y-63323785D01*
X121758500Y-63171057D01*
X121758500Y-63012943D01*
X121758500Y-44089697D01*
X121778185Y-44022658D01*
X121794819Y-44002016D01*
X123700463Y-42096372D01*
X125616848Y-40179986D01*
X125678169Y-40146503D01*
X125747861Y-40151487D01*
X125803794Y-40193359D01*
X125828211Y-40258823D01*
X125827000Y-40287067D01*
X125801500Y-40448068D01*
X125801500Y-40628731D01*
X125829759Y-40807150D01*
X125885586Y-40978966D01*
X125967601Y-41139929D01*
X125978758Y-41155286D01*
X125978759Y-41155286D01*
X126555500Y-40578545D01*
X126555500Y-40590232D01*
X126582330Y-40690362D01*
X126634162Y-40780137D01*
X126707463Y-40853438D01*
X126797238Y-40905270D01*
X126897368Y-40932100D01*
X126909053Y-40932100D01*
X126332312Y-41508838D01*
X126332312Y-41508839D01*
X126347677Y-41520002D01*
X126508633Y-41602013D01*
X126680449Y-41657840D01*
X126846540Y-41684147D01*
X127051859Y-41684147D01*
X127217950Y-41657840D01*
X127389766Y-41602013D01*
X127550728Y-41519999D01*
X127550732Y-41519997D01*
X127566086Y-41508840D01*
X127566087Y-41508839D01*
X126989348Y-40932100D01*
X127001032Y-40932100D01*
X127101162Y-40905270D01*
X127190937Y-40853438D01*
X127264238Y-40780137D01*
X127316070Y-40690362D01*
X127342900Y-40590232D01*
X127342900Y-40578547D01*
X127919640Y-41155287D01*
X127919640Y-41155286D01*
X127930797Y-41139932D01*
X127930799Y-41139928D01*
X128012813Y-40978966D01*
X128068640Y-40807150D01*
X128096900Y-40628731D01*
X128096900Y-40448068D01*
X128068640Y-40269649D01*
X128012813Y-40097833D01*
X127930802Y-39936877D01*
X127919639Y-39921512D01*
X127342900Y-40498251D01*
X127342900Y-40486568D01*
X127316070Y-40386438D01*
X127264238Y-40296663D01*
X127190937Y-40223362D01*
X127101162Y-40171530D01*
X127001032Y-40144700D01*
X126989346Y-40144700D01*
X127566086Y-39567959D01*
X127566086Y-39567958D01*
X127550729Y-39556801D01*
X127389766Y-39474786D01*
X127217950Y-39418959D01*
X127217952Y-39418959D01*
X127042217Y-39391125D01*
X126979083Y-39361195D01*
X126942152Y-39301884D01*
X126943150Y-39232021D01*
X126981760Y-39173789D01*
X127042215Y-39146180D01*
X127218071Y-39118327D01*
X127389956Y-39062478D01*
X127550988Y-38980428D01*
X127633079Y-38920785D01*
X127697196Y-38874203D01*
X127697198Y-38874200D01*
X127697202Y-38874198D01*
X127824998Y-38746402D01*
X127895027Y-38650013D01*
X127950356Y-38607349D01*
X127995345Y-38598900D01*
X136153703Y-38598900D01*
X136220742Y-38618585D01*
X136241384Y-38635219D01*
X136741782Y-39135617D01*
X136775267Y-39196940D01*
X136770283Y-39266632D01*
X136728411Y-39322565D01*
X136710396Y-39333783D01*
X136529186Y-39426115D01*
X136363586Y-39546428D01*
X136218828Y-39691186D01*
X136098515Y-39856786D01*
X136005581Y-40039176D01*
X135942322Y-40233865D01*
X135910300Y-40436048D01*
X135910300Y-40640751D01*
X135942322Y-40842934D01*
X136005581Y-41037623D01*
X136098515Y-41220013D01*
X136218828Y-41385613D01*
X136363586Y-41530371D01*
X136462835Y-41602478D01*
X136529190Y-41650687D01*
X136645407Y-41709903D01*
X136711576Y-41743618D01*
X136711578Y-41743618D01*
X136711581Y-41743620D01*
X136808676Y-41775168D01*
X136906265Y-41806877D01*
X137007357Y-41822888D01*
X137108448Y-41838900D01*
X137108449Y-41838900D01*
X137313151Y-41838900D01*
X137313152Y-41838900D01*
X137515334Y-41806877D01*
X137710019Y-41743620D01*
X137892410Y-41650687D01*
X137988098Y-41581166D01*
X138058013Y-41530371D01*
X138058015Y-41530368D01*
X138058019Y-41530366D01*
X138202766Y-41385619D01*
X138202768Y-41385615D01*
X138202771Y-41385613D01*
X138323084Y-41220014D01*
X138323086Y-41220011D01*
X138323087Y-41220010D01*
X138415417Y-41038801D01*
X138463390Y-40988007D01*
X138531211Y-40971212D01*
X138597346Y-40993749D01*
X138613582Y-41007417D01*
X142571522Y-44965357D01*
X142605007Y-45026680D01*
X142601773Y-45091355D01*
X142597122Y-45105668D01*
X142565100Y-45307847D01*
X142565100Y-45501103D01*
X142545415Y-45568142D01*
X142492611Y-45613897D01*
X142423453Y-45623841D01*
X142359897Y-45594816D01*
X142353419Y-45588784D01*
X139481390Y-42716755D01*
X139481388Y-42716752D01*
X139362517Y-42597881D01*
X139362516Y-42597880D01*
X139275704Y-42547760D01*
X139275704Y-42547759D01*
X139275700Y-42547758D01*
X139225585Y-42518823D01*
X139072857Y-42477899D01*
X138914743Y-42477899D01*
X138907147Y-42477899D01*
X138907131Y-42477900D01*
X127995345Y-42477900D01*
X127928306Y-42458215D01*
X127895028Y-42426787D01*
X127824998Y-42330398D01*
X127697202Y-42202602D01*
X127697196Y-42202596D01*
X127550991Y-42096374D01*
X127550990Y-42096373D01*
X127550988Y-42096372D01*
X127389956Y-42014322D01*
X127218071Y-41958473D01*
X127218069Y-41958472D01*
X127218067Y-41958472D01*
X127051859Y-41932147D01*
X127051858Y-41932147D01*
X127039565Y-41930200D01*
X126858835Y-41930200D01*
X126846542Y-41932147D01*
X126846540Y-41932147D01*
X126680332Y-41958472D01*
X126508441Y-42014323D01*
X126347408Y-42096374D01*
X126201203Y-42202596D01*
X126073396Y-42330403D01*
X125967174Y-42476608D01*
X125885123Y-42637641D01*
X125829272Y-42809532D01*
X125801000Y-42988035D01*
X125801000Y-43168765D01*
X125800999Y-43168765D01*
X125819637Y-43286439D01*
X125810682Y-43355732D01*
X125784845Y-43393517D01*
X125060384Y-44117981D01*
X124999061Y-44151466D01*
X124972703Y-44154300D01*
X124183457Y-44154300D01*
X124025343Y-44154300D01*
X123872615Y-44195223D01*
X123872614Y-44195223D01*
X123872612Y-44195224D01*
X123872609Y-44195225D01*
X123822496Y-44224159D01*
X123822495Y-44224160D01*
X123808057Y-44232496D01*
X123735685Y-44274279D01*
X123735682Y-44274281D01*
X122769481Y-45240482D01*
X122769477Y-45240487D01*
X122730588Y-45307847D01*
X122730588Y-45307848D01*
X122690423Y-45377414D01*
X122681596Y-45410358D01*
X122649499Y-45530143D01*
X122649499Y-45530145D01*
X122649499Y-45698246D01*
X122649500Y-45698259D01*
X122649500Y-68885500D01*
X122629815Y-68952539D01*
X122577011Y-68998294D01*
X122525501Y-69009500D01*
X122352130Y-69009500D01*
X122352123Y-69009501D01*
X122292516Y-69015908D01*
X122157671Y-69066202D01*
X122157664Y-69066206D01*
X122042455Y-69152452D01*
X122042452Y-69152455D01*
X121956206Y-69267664D01*
X121956202Y-69267671D01*
X121905908Y-69402517D01*
X121901080Y-69447428D01*
X121899501Y-69462123D01*
X121899500Y-69462135D01*
X121899500Y-71257870D01*
X121899501Y-71257876D01*
X121905908Y-71317483D01*
X121956202Y-71452328D01*
X121956206Y-71452335D01*
X122042452Y-71567544D01*
X122042455Y-71567547D01*
X122157664Y-71653793D01*
X122157671Y-71653797D01*
X122292517Y-71704091D01*
X122292516Y-71704091D01*
X122299444Y-71704835D01*
X122352127Y-71710500D01*
X124147872Y-71710499D01*
X124207483Y-71704091D01*
X124342331Y-71653796D01*
X124457546Y-71567546D01*
X124543796Y-71452331D01*
X124594091Y-71317483D01*
X124600500Y-71257873D01*
X124600499Y-69462128D01*
X124594091Y-69402517D01*
X124579408Y-69363151D01*
X124543797Y-69267671D01*
X124543793Y-69267664D01*
X124457547Y-69152455D01*
X124457544Y-69152452D01*
X124342335Y-69066206D01*
X124342328Y-69066202D01*
X124207482Y-69015908D01*
X124207483Y-69015908D01*
X124147883Y-69009501D01*
X124147881Y-69009500D01*
X124147873Y-69009500D01*
X124147865Y-69009500D01*
X123974500Y-69009500D01*
X123907461Y-68989815D01*
X123861706Y-68937011D01*
X123850500Y-68885500D01*
X123850500Y-65242155D01*
X126390000Y-65242155D01*
X126390000Y-65890000D01*
X127306988Y-65890000D01*
X127274075Y-65947007D01*
X127240000Y-66074174D01*
X127240000Y-66205826D01*
X127274075Y-66332993D01*
X127306988Y-66390000D01*
X126390000Y-66390000D01*
X126390000Y-67037844D01*
X126396401Y-67097372D01*
X126396403Y-67097379D01*
X126446645Y-67232086D01*
X126446649Y-67232093D01*
X126532809Y-67347187D01*
X126532812Y-67347190D01*
X126647906Y-67433350D01*
X126647913Y-67433354D01*
X126782620Y-67483596D01*
X126782627Y-67483598D01*
X126842155Y-67489999D01*
X126842172Y-67490000D01*
X127490000Y-67490000D01*
X127490000Y-66573012D01*
X127547007Y-66605925D01*
X127674174Y-66640000D01*
X127805826Y-66640000D01*
X127932993Y-66605925D01*
X127990000Y-66573012D01*
X127990000Y-67490000D01*
X128637828Y-67490000D01*
X128637844Y-67489999D01*
X128697372Y-67483598D01*
X128697379Y-67483596D01*
X128832086Y-67433354D01*
X128832093Y-67433350D01*
X128947187Y-67347190D01*
X128947190Y-67347187D01*
X129033350Y-67232093D01*
X129033354Y-67232086D01*
X129083596Y-67097379D01*
X129083598Y-67097372D01*
X129089999Y-67037844D01*
X129090000Y-67037827D01*
X129090000Y-66390000D01*
X128173012Y-66390000D01*
X128205925Y-66332993D01*
X128240000Y-66205826D01*
X128240000Y-66074174D01*
X128205925Y-65947007D01*
X128173012Y-65890000D01*
X129090000Y-65890000D01*
X129090000Y-65242172D01*
X129089999Y-65242155D01*
X129083598Y-65182627D01*
X129083596Y-65182620D01*
X129033354Y-65047913D01*
X129033350Y-65047906D01*
X128947190Y-64932812D01*
X128947187Y-64932809D01*
X128832093Y-64846649D01*
X128832086Y-64846645D01*
X128697379Y-64796403D01*
X128697372Y-64796401D01*
X128637844Y-64790000D01*
X127990000Y-64790000D01*
X127990000Y-65706988D01*
X127932993Y-65674075D01*
X127805826Y-65640000D01*
X127674174Y-65640000D01*
X127547007Y-65674075D01*
X127490000Y-65706988D01*
X127490000Y-64790000D01*
X126842155Y-64790000D01*
X126782627Y-64796401D01*
X126782620Y-64796403D01*
X126647913Y-64846645D01*
X126647906Y-64846649D01*
X126532812Y-64932809D01*
X126532809Y-64932812D01*
X126446649Y-65047906D01*
X126446645Y-65047913D01*
X126396403Y-65182620D01*
X126396401Y-65182627D01*
X126390000Y-65242155D01*
X123850500Y-65242155D01*
X123850500Y-55688035D01*
X125801000Y-55688035D01*
X125801000Y-55868764D01*
X125829253Y-56047150D01*
X125829273Y-56047271D01*
X125885122Y-56219156D01*
X125967040Y-56379929D01*
X125967174Y-56380191D01*
X126073396Y-56526396D01*
X126201203Y-56654203D01*
X126331460Y-56748838D01*
X126347412Y-56760428D01*
X126508444Y-56842478D01*
X126680329Y-56898327D01*
X126858835Y-56926600D01*
X126858836Y-56926600D01*
X127039564Y-56926600D01*
X127039565Y-56926600D01*
X127218071Y-56898327D01*
X127389956Y-56842478D01*
X127550988Y-56760428D01*
X127633079Y-56700785D01*
X127697196Y-56654203D01*
X127697198Y-56654200D01*
X127697202Y-56654198D01*
X127824998Y-56526402D01*
X127895027Y-56430013D01*
X127950356Y-56387349D01*
X127995345Y-56378900D01*
X136097903Y-56378900D01*
X136164942Y-56398585D01*
X136185583Y-56415218D01*
X143039684Y-63269320D01*
X143039686Y-63269321D01*
X143039690Y-63269324D01*
X143134019Y-63323784D01*
X143176616Y-63348377D01*
X143329343Y-63389301D01*
X143329345Y-63389301D01*
X143495054Y-63389301D01*
X143495070Y-63389300D01*
X156603100Y-63389300D01*
X156611785Y-63391850D01*
X156620747Y-63390562D01*
X156644787Y-63401540D01*
X156670139Y-63408985D01*
X156676066Y-63415825D01*
X156684303Y-63419587D01*
X156698592Y-63441821D01*
X156715894Y-63461789D01*
X156718181Y-63472303D01*
X156722077Y-63478365D01*
X156727100Y-63513300D01*
X156727100Y-63718130D01*
X156727099Y-63718148D01*
X156727099Y-63883856D01*
X156738018Y-63924607D01*
X156736355Y-63994457D01*
X156697192Y-64052319D01*
X156632963Y-64079823D01*
X156618243Y-64080700D01*
X155516129Y-64080700D01*
X155516123Y-64080701D01*
X155456516Y-64087108D01*
X155321671Y-64137402D01*
X155321664Y-64137406D01*
X155206455Y-64223652D01*
X155206452Y-64223655D01*
X155120206Y-64338864D01*
X155120202Y-64338871D01*
X155069908Y-64473717D01*
X155063501Y-64533316D01*
X155063500Y-64533335D01*
X155063500Y-66429070D01*
X155063501Y-66429076D01*
X155069908Y-66488683D01*
X155120202Y-66623528D01*
X155120206Y-66623535D01*
X155206452Y-66738744D01*
X155206455Y-66738747D01*
X155321664Y-66824993D01*
X155321671Y-66824997D01*
X155456517Y-66875291D01*
X155456516Y-66875291D01*
X155463444Y-66876035D01*
X155516127Y-66881700D01*
X157411872Y-66881699D01*
X157471483Y-66875291D01*
X157606331Y-66824996D01*
X157721546Y-66738746D01*
X157807796Y-66623531D01*
X157835429Y-66549443D01*
X157837601Y-66543620D01*
X157879471Y-66487686D01*
X157944936Y-66463268D01*
X158013209Y-66478119D01*
X158041464Y-66499271D01*
X158091636Y-66549443D01*
X158091641Y-66549447D01*
X158193262Y-66623278D01*
X158269978Y-66679015D01*
X158398375Y-66744437D01*
X158466393Y-66779095D01*
X158466396Y-66779096D01*
X158561474Y-66809988D01*
X158676049Y-66847215D01*
X158893778Y-66881700D01*
X158893779Y-66881700D01*
X159114221Y-66881700D01*
X159114222Y-66881700D01*
X159331951Y-66847215D01*
X159541606Y-66779095D01*
X159738022Y-66679015D01*
X159916365Y-66549442D01*
X160072242Y-66393565D01*
X160201815Y-66215222D01*
X160301895Y-66018806D01*
X160370015Y-65809151D01*
X160404500Y-65591422D01*
X160404500Y-65370978D01*
X160370015Y-65153249D01*
X160304926Y-64952923D01*
X160301896Y-64943596D01*
X160301895Y-64943593D01*
X160259971Y-64861314D01*
X160201815Y-64747178D01*
X160175848Y-64711437D01*
X160072247Y-64568841D01*
X160072243Y-64568836D01*
X159916363Y-64412956D01*
X159916358Y-64412952D01*
X159738025Y-64283387D01*
X159738024Y-64283386D01*
X159738022Y-64283385D01*
X159620791Y-64223652D01*
X159541606Y-64183304D01*
X159541603Y-64183303D01*
X159331952Y-64115185D01*
X159223086Y-64097942D01*
X159114222Y-64080700D01*
X158893778Y-64080700D01*
X158853320Y-64087108D01*
X158676045Y-64115185D01*
X158605794Y-64138011D01*
X158535953Y-64140006D01*
X158479796Y-64107761D01*
X157964419Y-63592383D01*
X157930934Y-63531060D01*
X157928100Y-63504702D01*
X157928100Y-62709745D01*
X157928100Y-62709743D01*
X157887177Y-62557016D01*
X157858563Y-62507455D01*
X157808124Y-62420090D01*
X157808118Y-62420082D01*
X157696317Y-62308281D01*
X157696309Y-62308275D01*
X157559390Y-62229226D01*
X157559386Y-62229224D01*
X157559384Y-62229223D01*
X157406657Y-62188300D01*
X157406656Y-62188300D01*
X143708498Y-62188300D01*
X143641459Y-62168615D01*
X143620817Y-62151981D01*
X141385062Y-59916226D01*
X138476018Y-57007183D01*
X144891813Y-57007183D01*
X144891813Y-58207201D01*
X144891814Y-58207218D01*
X144902313Y-58309996D01*
X144902314Y-58309999D01*
X144926995Y-58384480D01*
X144957499Y-58476534D01*
X145049601Y-58625856D01*
X145173657Y-58749912D01*
X145322979Y-58842014D01*
X145489516Y-58897199D01*
X145592304Y-58907700D01*
X146792321Y-58907699D01*
X146895110Y-58897199D01*
X147061647Y-58842014D01*
X147210969Y-58749912D01*
X147280192Y-58680689D01*
X147341515Y-58647204D01*
X147411207Y-58652188D01*
X147440759Y-58668053D01*
X147510959Y-58719057D01*
X147693281Y-58811955D01*
X147887895Y-58875190D01*
X148089996Y-58907200D01*
X148294630Y-58907200D01*
X148496730Y-58875190D01*
X148691344Y-58811955D01*
X148873662Y-58719059D01*
X148918234Y-58686674D01*
X148238760Y-58007200D01*
X148244974Y-58007200D01*
X148346707Y-57979941D01*
X148437919Y-57927280D01*
X148512393Y-57852806D01*
X148565054Y-57761594D01*
X148592313Y-57659861D01*
X148592313Y-57653648D01*
X149271787Y-58333122D01*
X149271787Y-58333121D01*
X149304172Y-58288549D01*
X149397068Y-58106231D01*
X149460303Y-57911617D01*
X149492313Y-57709517D01*
X149492313Y-57504882D01*
X149460303Y-57302782D01*
X149397068Y-57108168D01*
X149304172Y-56925850D01*
X149271787Y-56881277D01*
X149271787Y-56881276D01*
X148592313Y-57560751D01*
X148592313Y-57554539D01*
X148565054Y-57452806D01*
X148512393Y-57361594D01*
X148437919Y-57287120D01*
X148346707Y-57234459D01*
X148244974Y-57207200D01*
X148238759Y-57207200D01*
X148918235Y-56527724D01*
X148918234Y-56527723D01*
X148873672Y-56495347D01*
X148873663Y-56495341D01*
X148691344Y-56402444D01*
X148496730Y-56339209D01*
X148294630Y-56307200D01*
X148089996Y-56307200D01*
X147887895Y-56339209D01*
X147693281Y-56402444D01*
X147510964Y-56495339D01*
X147440757Y-56546348D01*
X147374950Y-56569827D01*
X147306896Y-56554001D01*
X147280191Y-56533710D01*
X147210970Y-56464489D01*
X147210969Y-56464488D01*
X147073881Y-56379932D01*
X147061649Y-56372387D01*
X147061644Y-56372385D01*
X147060175Y-56371898D01*
X146895110Y-56317201D01*
X146895108Y-56317200D01*
X146792323Y-56306700D01*
X145592311Y-56306700D01*
X145592294Y-56306701D01*
X145489516Y-56317200D01*
X145489513Y-56317201D01*
X145322981Y-56372385D01*
X145322976Y-56372387D01*
X145173655Y-56464489D01*
X145049602Y-56588542D01*
X144957500Y-56737863D01*
X144957498Y-56737868D01*
X144948872Y-56763900D01*
X144902314Y-56904403D01*
X144902314Y-56904404D01*
X144902313Y-56904404D01*
X144891813Y-57007183D01*
X138476018Y-57007183D01*
X136885589Y-55416754D01*
X136885588Y-55416752D01*
X136766717Y-55297881D01*
X136766716Y-55297880D01*
X136679789Y-55247693D01*
X136629785Y-55218823D01*
X136477057Y-55177899D01*
X136318943Y-55177899D01*
X136311347Y-55177899D01*
X136311331Y-55177900D01*
X127995345Y-55177900D01*
X127928306Y-55158215D01*
X127895028Y-55126787D01*
X127824998Y-55030398D01*
X127697202Y-54902602D01*
X127697196Y-54902596D01*
X127550991Y-54796374D01*
X127550990Y-54796373D01*
X127550988Y-54796372D01*
X127389956Y-54714322D01*
X127218071Y-54658473D01*
X127218069Y-54658472D01*
X127218067Y-54658472D01*
X127104620Y-54640503D01*
X127039565Y-54630200D01*
X126858835Y-54630200D01*
X126844945Y-54632400D01*
X126680332Y-54658472D01*
X126508441Y-54714323D01*
X126347408Y-54796374D01*
X126201203Y-54902596D01*
X126073396Y-55030403D01*
X125967174Y-55176608D01*
X125885123Y-55337641D01*
X125829272Y-55509532D01*
X125801000Y-55688035D01*
X123850500Y-55688035D01*
X123850500Y-48068035D01*
X125801000Y-48068035D01*
X125801000Y-48248765D01*
X125829273Y-48427271D01*
X125845354Y-48476764D01*
X125885123Y-48599158D01*
X125967174Y-48760191D01*
X126073396Y-48906396D01*
X126201203Y-49034203D01*
X126338017Y-49133602D01*
X126347412Y-49140428D01*
X126508444Y-49222478D01*
X126680329Y-49278327D01*
X126858835Y-49306600D01*
X127039565Y-49306600D01*
X127218071Y-49278327D01*
X127389956Y-49222478D01*
X127550988Y-49140428D01*
X127646815Y-49070806D01*
X127697196Y-49034203D01*
X127697198Y-49034200D01*
X127697202Y-49034198D01*
X127824998Y-48906402D01*
X127825000Y-48906398D01*
X127825003Y-48906396D01*
X127884076Y-48825088D01*
X127931228Y-48760188D01*
X128013278Y-48599156D01*
X128069127Y-48427271D01*
X128097400Y-48248765D01*
X128097400Y-48068035D01*
X128069127Y-47889529D01*
X128013278Y-47717644D01*
X127931228Y-47556612D01*
X127911700Y-47529734D01*
X127825003Y-47410403D01*
X127697196Y-47282596D01*
X127550991Y-47176374D01*
X127550990Y-47176373D01*
X127550988Y-47176372D01*
X127389956Y-47094322D01*
X127218071Y-47038473D01*
X127218069Y-47038472D01*
X127218067Y-47038472D01*
X127051859Y-47012147D01*
X127051858Y-47012147D01*
X127039565Y-47010200D01*
X126858835Y-47010200D01*
X126846542Y-47012147D01*
X126846540Y-47012147D01*
X126680332Y-47038472D01*
X126508441Y-47094323D01*
X126347408Y-47176374D01*
X126201203Y-47282596D01*
X126073396Y-47410403D01*
X125967174Y-47556608D01*
X125885123Y-47717641D01*
X125829272Y-47889532D01*
X125804913Y-48043327D01*
X125801000Y-48068035D01*
X123850500Y-48068035D01*
X123850500Y-45909297D01*
X123870185Y-45842258D01*
X123886819Y-45821616D01*
X124316816Y-45391619D01*
X124378139Y-45358134D01*
X124404497Y-45355300D01*
X125186131Y-45355300D01*
X125186147Y-45355301D01*
X125193743Y-45355301D01*
X125351854Y-45355301D01*
X125351857Y-45355301D01*
X125504585Y-45314377D01*
X125554704Y-45285439D01*
X125641516Y-45235320D01*
X125641519Y-45235316D01*
X125643495Y-45234176D01*
X125711395Y-45217705D01*
X125777422Y-45240557D01*
X125820612Y-45295479D01*
X125827967Y-45360962D01*
X125801500Y-45528068D01*
X125801500Y-45708731D01*
X125829759Y-45887150D01*
X125885586Y-46058966D01*
X125967601Y-46219929D01*
X125978758Y-46235286D01*
X125978759Y-46235286D01*
X126555500Y-45658545D01*
X126555500Y-45670232D01*
X126582330Y-45770362D01*
X126634162Y-45860137D01*
X126707463Y-45933438D01*
X126797238Y-45985270D01*
X126897368Y-46012100D01*
X126909053Y-46012100D01*
X126332312Y-46588838D01*
X126332312Y-46588839D01*
X126347677Y-46600002D01*
X126508633Y-46682013D01*
X126680449Y-46737840D01*
X126846540Y-46764147D01*
X127051859Y-46764147D01*
X127217950Y-46737840D01*
X127389766Y-46682013D01*
X127550728Y-46599999D01*
X127550732Y-46599997D01*
X127566086Y-46588840D01*
X127566087Y-46588839D01*
X126989348Y-46012100D01*
X127001032Y-46012100D01*
X127101162Y-45985270D01*
X127190937Y-45933438D01*
X127264238Y-45860137D01*
X127316070Y-45770362D01*
X127342900Y-45670232D01*
X127342900Y-45658547D01*
X127919640Y-46235287D01*
X127919640Y-46235286D01*
X127930797Y-46219932D01*
X127930799Y-46219928D01*
X128012813Y-46058966D01*
X128068640Y-45887150D01*
X128096900Y-45708731D01*
X128096900Y-45528068D01*
X128068640Y-45349649D01*
X128012813Y-45177833D01*
X127930802Y-45016877D01*
X127919639Y-45001512D01*
X127919638Y-45001512D01*
X127342900Y-45578251D01*
X127342900Y-45566568D01*
X127316070Y-45466438D01*
X127264238Y-45376663D01*
X127190937Y-45303362D01*
X127101162Y-45251530D01*
X127001032Y-45224700D01*
X126989346Y-45224700D01*
X127566086Y-44647959D01*
X127566086Y-44647958D01*
X127550729Y-44636801D01*
X127389766Y-44554786D01*
X127217950Y-44498959D01*
X127217952Y-44498959D01*
X127042217Y-44471125D01*
X126979083Y-44441195D01*
X126942152Y-44381884D01*
X126943150Y-44312021D01*
X126981760Y-44253789D01*
X127042215Y-44226180D01*
X127218071Y-44198327D01*
X127389956Y-44142478D01*
X127550988Y-44060428D01*
X127633079Y-44000785D01*
X127697196Y-43954203D01*
X127697198Y-43954200D01*
X127697202Y-43954198D01*
X127824998Y-43826402D01*
X127895027Y-43730013D01*
X127950356Y-43687349D01*
X127995345Y-43678900D01*
X129032059Y-43678900D01*
X129099098Y-43698585D01*
X129144853Y-43751389D01*
X129154797Y-43820547D01*
X129125772Y-43884103D01*
X129119740Y-43890581D01*
X129070613Y-43939707D01*
X129070610Y-43939711D01*
X128983009Y-44070814D01*
X128983002Y-44070827D01*
X128922664Y-44216498D01*
X128922661Y-44216510D01*
X128891900Y-44371153D01*
X128891900Y-44528846D01*
X128922661Y-44683489D01*
X128922664Y-44683501D01*
X128983002Y-44829172D01*
X128983009Y-44829185D01*
X129071002Y-44960874D01*
X129091880Y-45027551D01*
X129091900Y-45029765D01*
X129091900Y-50195102D01*
X129072215Y-50262141D01*
X129055581Y-50282783D01*
X128282154Y-51056209D01*
X128220831Y-51089694D01*
X128151139Y-51084710D01*
X128095206Y-51042838D01*
X128070789Y-50977374D01*
X128072000Y-50949130D01*
X128097400Y-50788763D01*
X128097400Y-50608035D01*
X128084280Y-50525199D01*
X128069127Y-50429529D01*
X128013278Y-50257644D01*
X127931228Y-50096612D01*
X127911758Y-50069814D01*
X127825003Y-49950403D01*
X127697196Y-49822596D01*
X127550991Y-49716374D01*
X127550990Y-49716373D01*
X127550988Y-49716372D01*
X127389956Y-49634322D01*
X127218071Y-49578473D01*
X127218069Y-49578472D01*
X127218067Y-49578472D01*
X127104620Y-49560503D01*
X127039565Y-49550200D01*
X126858835Y-49550200D01*
X126844945Y-49552400D01*
X126680332Y-49578472D01*
X126508441Y-49634323D01*
X126347408Y-49716374D01*
X126201203Y-49822596D01*
X126073396Y-49950403D01*
X125967174Y-50096608D01*
X125885123Y-50257641D01*
X125829272Y-50429532D01*
X125801000Y-50608035D01*
X125801000Y-50788764D01*
X125826399Y-50949130D01*
X125829273Y-50967271D01*
X125885122Y-51139156D01*
X125959436Y-51285006D01*
X125967174Y-51300191D01*
X126073396Y-51446396D01*
X126201203Y-51574203D01*
X126338017Y-51673602D01*
X126347412Y-51680428D01*
X126508444Y-51762478D01*
X126680329Y-51818327D01*
X126854586Y-51845927D01*
X126917721Y-51875856D01*
X126954652Y-51935168D01*
X126953654Y-52005030D01*
X126915044Y-52063263D01*
X126854586Y-52090873D01*
X126680332Y-52118472D01*
X126508441Y-52174323D01*
X126347408Y-52256374D01*
X126201203Y-52362596D01*
X126073396Y-52490403D01*
X125967174Y-52636608D01*
X125885123Y-52797641D01*
X125829272Y-52969532D01*
X125811323Y-53082861D01*
X125801000Y-53148035D01*
X125801000Y-53328765D01*
X125804408Y-53350280D01*
X125826652Y-53490728D01*
X125829273Y-53507271D01*
X125885122Y-53679156D01*
X125960307Y-53826715D01*
X125967174Y-53840191D01*
X126073396Y-53986396D01*
X126201203Y-54114203D01*
X126338017Y-54213602D01*
X126347412Y-54220428D01*
X126508444Y-54302478D01*
X126680329Y-54358327D01*
X126858835Y-54386600D01*
X127039565Y-54386600D01*
X127218071Y-54358327D01*
X127389956Y-54302478D01*
X127550988Y-54220428D01*
X127633079Y-54160785D01*
X127697196Y-54114203D01*
X127697198Y-54114200D01*
X127697202Y-54114198D01*
X127824998Y-53986402D01*
X127825000Y-53986398D01*
X127825003Y-53986396D01*
X127888267Y-53899319D01*
X127931228Y-53840188D01*
X128013278Y-53679156D01*
X128069127Y-53507271D01*
X128097400Y-53328765D01*
X128097400Y-53148035D01*
X128078131Y-53026379D01*
X128077762Y-53022389D01*
X128083731Y-52991891D01*
X128087715Y-52961066D01*
X128090588Y-52956863D01*
X128091184Y-52953821D01*
X128096358Y-52948425D01*
X128113550Y-52923283D01*
X130172920Y-50863916D01*
X130251977Y-50726984D01*
X130292901Y-50574257D01*
X130292901Y-50416142D01*
X130292901Y-50408547D01*
X130292900Y-50408529D01*
X130292900Y-45029765D01*
X130312585Y-44962726D01*
X130313798Y-44960874D01*
X130347992Y-44909700D01*
X130401794Y-44829179D01*
X130462137Y-44683497D01*
X130492900Y-44528842D01*
X130492900Y-44371158D01*
X130492900Y-44371155D01*
X130492899Y-44371153D01*
X130473630Y-44274281D01*
X130462137Y-44216503D01*
X130454423Y-44197880D01*
X130401797Y-44070827D01*
X130401790Y-44070814D01*
X130314189Y-43939711D01*
X130314186Y-43939707D01*
X130265060Y-43890581D01*
X130231575Y-43829258D01*
X130236559Y-43759566D01*
X130278431Y-43703633D01*
X130343895Y-43679216D01*
X130352741Y-43678900D01*
X138693703Y-43678900D01*
X138760742Y-43698585D01*
X138781384Y-43715219D01*
X146584183Y-51518019D01*
X146617668Y-51579342D01*
X146612684Y-51649034D01*
X146570812Y-51704967D01*
X146505348Y-51729384D01*
X146496502Y-51729700D01*
X146303248Y-51729700D01*
X146278929Y-51733551D01*
X146101065Y-51761722D01*
X145906376Y-51824981D01*
X145723986Y-51917915D01*
X145558386Y-52038228D01*
X145413632Y-52182982D01*
X145345216Y-52277149D01*
X145289886Y-52319814D01*
X145220272Y-52325793D01*
X145158477Y-52293187D01*
X145127192Y-52243267D01*
X145099958Y-52161080D01*
X145099956Y-52161075D01*
X145007915Y-52011854D01*
X144883945Y-51887884D01*
X144734724Y-51795843D01*
X144734719Y-51795841D01*
X144568297Y-51740694D01*
X144568290Y-51740693D01*
X144465586Y-51730200D01*
X144115600Y-51730200D01*
X144115600Y-52714514D01*
X144111206Y-52710120D01*
X144019994Y-52657459D01*
X143918261Y-52630200D01*
X143812939Y-52630200D01*
X143711206Y-52657459D01*
X143619994Y-52710120D01*
X143615600Y-52714514D01*
X143615600Y-51730200D01*
X143265628Y-51730200D01*
X143265612Y-51730201D01*
X143162902Y-51740694D01*
X142996480Y-51795841D01*
X142996475Y-51795843D01*
X142847254Y-51887884D01*
X142723284Y-52011854D01*
X142631243Y-52161075D01*
X142631241Y-52161080D01*
X142576094Y-52327502D01*
X142576093Y-52327509D01*
X142565600Y-52430213D01*
X142565600Y-52780200D01*
X143549914Y-52780200D01*
X143545520Y-52784594D01*
X143492859Y-52875806D01*
X143465600Y-52977539D01*
X143465600Y-53082861D01*
X143492859Y-53184594D01*
X143545520Y-53275806D01*
X143549914Y-53280200D01*
X142565601Y-53280200D01*
X142565601Y-53630186D01*
X142576094Y-53732897D01*
X142631241Y-53899319D01*
X142631243Y-53899324D01*
X142723284Y-54048545D01*
X142847254Y-54172515D01*
X142996475Y-54264556D01*
X142996480Y-54264558D01*
X143162902Y-54319705D01*
X143162909Y-54319706D01*
X143265619Y-54330199D01*
X143615599Y-54330199D01*
X143615600Y-54330198D01*
X143615600Y-53345886D01*
X143619994Y-53350280D01*
X143711206Y-53402941D01*
X143812939Y-53430200D01*
X143918261Y-53430200D01*
X144019994Y-53402941D01*
X144111206Y-53350280D01*
X144115600Y-53345886D01*
X144115600Y-54330199D01*
X144465572Y-54330199D01*
X144465586Y-54330198D01*
X144568297Y-54319705D01*
X144734719Y-54264558D01*
X144734724Y-54264556D01*
X144883945Y-54172515D01*
X145007915Y-54048545D01*
X145099956Y-53899324D01*
X145099959Y-53899317D01*
X145127192Y-53817132D01*
X145166964Y-53759687D01*
X145231479Y-53732863D01*
X145300255Y-53745177D01*
X145345216Y-53783249D01*
X145410677Y-53873349D01*
X145413634Y-53877419D01*
X145558386Y-54022171D01*
X145688535Y-54116728D01*
X145723990Y-54142487D01*
X145840207Y-54201703D01*
X145906376Y-54235418D01*
X145906378Y-54235418D01*
X145906381Y-54235420D01*
X145996059Y-54264558D01*
X146101065Y-54298677D01*
X146202157Y-54314688D01*
X146303248Y-54330700D01*
X146303249Y-54330700D01*
X146507951Y-54330700D01*
X146507952Y-54330700D01*
X146710134Y-54298677D01*
X146904819Y-54235420D01*
X147087210Y-54142487D01*
X147180190Y-54074932D01*
X147252813Y-54022171D01*
X147252815Y-54022168D01*
X147252819Y-54022166D01*
X147397566Y-53877419D01*
X147397568Y-53877415D01*
X147397571Y-53877413D01*
X147517884Y-53711814D01*
X147517885Y-53711813D01*
X147517887Y-53711810D01*
X147565116Y-53619117D01*
X147613089Y-53568323D01*
X147680910Y-53551528D01*
X147747045Y-53574065D01*
X147786083Y-53619117D01*
X147794322Y-53635286D01*
X147833315Y-53711814D01*
X147953628Y-53877413D01*
X148098386Y-54022171D01*
X148228535Y-54116728D01*
X148263990Y-54142487D01*
X148380207Y-54201703D01*
X148446376Y-54235418D01*
X148446378Y-54235418D01*
X148446381Y-54235420D01*
X148536059Y-54264558D01*
X148641065Y-54298677D01*
X148742157Y-54314688D01*
X148843248Y-54330700D01*
X148843249Y-54330700D01*
X149047951Y-54330700D01*
X149047952Y-54330700D01*
X149250134Y-54298677D01*
X149444819Y-54235420D01*
X149627210Y-54142487D01*
X149720190Y-54074932D01*
X149792813Y-54022171D01*
X149792815Y-54022168D01*
X149792819Y-54022166D01*
X149937566Y-53877419D01*
X149937568Y-53877415D01*
X149937571Y-53877413D01*
X150057884Y-53711814D01*
X150057885Y-53711813D01*
X150057887Y-53711810D01*
X150105116Y-53619117D01*
X150153089Y-53568323D01*
X150220910Y-53551528D01*
X150287045Y-53574065D01*
X150326083Y-53619117D01*
X150334322Y-53635286D01*
X150373315Y-53711814D01*
X150493628Y-53877413D01*
X150638386Y-54022171D01*
X150768535Y-54116728D01*
X150803990Y-54142487D01*
X150920207Y-54201703D01*
X150986376Y-54235418D01*
X150986378Y-54235418D01*
X150986381Y-54235420D01*
X151076059Y-54264558D01*
X151181065Y-54298677D01*
X151282157Y-54314688D01*
X151383248Y-54330700D01*
X151383249Y-54330700D01*
X151587951Y-54330700D01*
X151587952Y-54330700D01*
X151790134Y-54298677D01*
X151984819Y-54235420D01*
X152167210Y-54142487D01*
X152260190Y-54074932D01*
X152332813Y-54022171D01*
X152332815Y-54022168D01*
X152332819Y-54022166D01*
X152477566Y-53877419D01*
X152477568Y-53877415D01*
X152477571Y-53877413D01*
X152545983Y-53783250D01*
X152597887Y-53711810D01*
X152690820Y-53529419D01*
X152754077Y-53334734D01*
X152786100Y-53132552D01*
X152786100Y-52927848D01*
X152765477Y-52797641D01*
X152754077Y-52725665D01*
X152705152Y-52575090D01*
X152690820Y-52530981D01*
X152690818Y-52530978D01*
X152690818Y-52530976D01*
X152605023Y-52362596D01*
X152597887Y-52348590D01*
X152576980Y-52319814D01*
X152477571Y-52182986D01*
X152332813Y-52038228D01*
X152167213Y-51917915D01*
X152167212Y-51917914D01*
X152167210Y-51917913D01*
X152084669Y-51875856D01*
X151984823Y-51824981D01*
X151935620Y-51808994D01*
X151873237Y-51788724D01*
X151790134Y-51761722D01*
X151615595Y-51734078D01*
X151587952Y-51729700D01*
X151383248Y-51729700D01*
X151345199Y-51735726D01*
X151181068Y-51761722D01*
X151172317Y-51764565D01*
X151166754Y-51766373D01*
X151096913Y-51768367D01*
X151040757Y-51736122D01*
X150985570Y-51680935D01*
X165426700Y-51680935D01*
X165426700Y-53576670D01*
X165426701Y-53576676D01*
X165433108Y-53636283D01*
X165483402Y-53771128D01*
X165483406Y-53771135D01*
X165569652Y-53886344D01*
X165569655Y-53886347D01*
X165684864Y-53972593D01*
X165684871Y-53972597D01*
X165819717Y-54022891D01*
X165819716Y-54022891D01*
X165826644Y-54023635D01*
X165879327Y-54029300D01*
X167775072Y-54029299D01*
X167834683Y-54022891D01*
X167969531Y-53972596D01*
X168084746Y-53886346D01*
X168170996Y-53771131D01*
X168198629Y-53697043D01*
X168200801Y-53691220D01*
X168242671Y-53635286D01*
X168308136Y-53610868D01*
X168376409Y-53625719D01*
X168404664Y-53646871D01*
X168454836Y-53697043D01*
X168454841Y-53697047D01*
X168556803Y-53771126D01*
X168633178Y-53826615D01*
X168761575Y-53892037D01*
X168829593Y-53926695D01*
X168829596Y-53926696D01*
X168934421Y-53960755D01*
X169039249Y-53994815D01*
X169256978Y-54029300D01*
X169256979Y-54029300D01*
X169477421Y-54029300D01*
X169477422Y-54029300D01*
X169695151Y-53994815D01*
X169904806Y-53926695D01*
X170101222Y-53826615D01*
X170279565Y-53697042D01*
X170435442Y-53541165D01*
X170565015Y-53362822D01*
X170665095Y-53166406D01*
X170733215Y-52956751D01*
X170767700Y-52739022D01*
X170767700Y-52518578D01*
X170733215Y-52300849D01*
X170681306Y-52141086D01*
X170665096Y-52091196D01*
X170665095Y-52091193D01*
X170621192Y-52005030D01*
X170565015Y-51894778D01*
X170509522Y-51818398D01*
X170435447Y-51716441D01*
X170435443Y-51716436D01*
X170279563Y-51560556D01*
X170279558Y-51560552D01*
X170101225Y-51430987D01*
X170101224Y-51430986D01*
X170101222Y-51430985D01*
X169983991Y-51371252D01*
X169904806Y-51330904D01*
X169904803Y-51330903D01*
X169695152Y-51262785D01*
X169586286Y-51245542D01*
X169477422Y-51228300D01*
X169256978Y-51228300D01*
X169184401Y-51239795D01*
X169039247Y-51262785D01*
X168829596Y-51330903D01*
X168829593Y-51330904D01*
X168633174Y-51430987D01*
X168454841Y-51560552D01*
X168454836Y-51560556D01*
X168404663Y-51610729D01*
X168343340Y-51644213D01*
X168273648Y-51639228D01*
X168217715Y-51597357D01*
X168200801Y-51566380D01*
X168170997Y-51486471D01*
X168170993Y-51486464D01*
X168084747Y-51371255D01*
X168084744Y-51371252D01*
X167969535Y-51285006D01*
X167969528Y-51285002D01*
X167834682Y-51234708D01*
X167834683Y-51234708D01*
X167775083Y-51228301D01*
X167775081Y-51228300D01*
X167775073Y-51228300D01*
X167775064Y-51228300D01*
X165879329Y-51228300D01*
X165879323Y-51228301D01*
X165819716Y-51234708D01*
X165684871Y-51285002D01*
X165684864Y-51285006D01*
X165569655Y-51371252D01*
X165569652Y-51371255D01*
X165483406Y-51486464D01*
X165483402Y-51486471D01*
X165433108Y-51621317D01*
X165426701Y-51680916D01*
X165426700Y-51680935D01*
X150985570Y-51680935D01*
X146427483Y-47122848D01*
X155652700Y-47122848D01*
X155652700Y-47327551D01*
X155684722Y-47529734D01*
X155747981Y-47724423D01*
X155763755Y-47755380D01*
X155840913Y-47906810D01*
X155892287Y-47977521D01*
X155915767Y-48043327D01*
X155899942Y-48111381D01*
X155879651Y-48138086D01*
X155810884Y-48206854D01*
X155718843Y-48356075D01*
X155718841Y-48356080D01*
X155663694Y-48522502D01*
X155663693Y-48522509D01*
X155653200Y-48625213D01*
X155653200Y-48975200D01*
X156637514Y-48975200D01*
X156633120Y-48979594D01*
X156580459Y-49070806D01*
X156553200Y-49172539D01*
X156553200Y-49277861D01*
X156580459Y-49379594D01*
X156633120Y-49470806D01*
X156637514Y-49475200D01*
X155653201Y-49475200D01*
X155653201Y-49825186D01*
X155663694Y-49927897D01*
X155718841Y-50094319D01*
X155718843Y-50094324D01*
X155810884Y-50243545D01*
X155934854Y-50367515D01*
X156084075Y-50459556D01*
X156084080Y-50459558D01*
X156250502Y-50514705D01*
X156250509Y-50514706D01*
X156353219Y-50525199D01*
X156703199Y-50525199D01*
X156703200Y-50525198D01*
X156703200Y-49540886D01*
X156707594Y-49545280D01*
X156798806Y-49597941D01*
X156900539Y-49625200D01*
X157005861Y-49625200D01*
X157107594Y-49597941D01*
X157198806Y-49545280D01*
X157203200Y-49540886D01*
X157203200Y-50525199D01*
X157553172Y-50525199D01*
X157553186Y-50525198D01*
X157655897Y-50514705D01*
X157822319Y-50459558D01*
X157822324Y-50459556D01*
X157971545Y-50367515D01*
X158095515Y-50243545D01*
X158187556Y-50094324D01*
X158187558Y-50094319D01*
X158242705Y-49927897D01*
X158242706Y-49927890D01*
X158253199Y-49825186D01*
X158253200Y-49825173D01*
X158253200Y-49475200D01*
X157268886Y-49475200D01*
X157273280Y-49470806D01*
X157325941Y-49379594D01*
X157353200Y-49277861D01*
X157353200Y-49172539D01*
X157325941Y-49070806D01*
X157273280Y-48979594D01*
X157268886Y-48975200D01*
X158253199Y-48975200D01*
X158253199Y-48625228D01*
X158253198Y-48625213D01*
X158242705Y-48522502D01*
X158187558Y-48356080D01*
X158187556Y-48356075D01*
X158095515Y-48206854D01*
X158026749Y-48138088D01*
X157993264Y-48076765D01*
X157998248Y-48007073D01*
X158014109Y-47977525D01*
X158065487Y-47906810D01*
X158158420Y-47724419D01*
X158221677Y-47529734D01*
X158253700Y-47327552D01*
X158253700Y-47122848D01*
X158221677Y-46920666D01*
X158158420Y-46725981D01*
X158158418Y-46725978D01*
X158158418Y-46725976D01*
X158094447Y-46600428D01*
X158065487Y-46543590D01*
X158019684Y-46480547D01*
X157945171Y-46377986D01*
X157800413Y-46233228D01*
X157634813Y-46112915D01*
X157634812Y-46112914D01*
X157634810Y-46112913D01*
X157577853Y-46083891D01*
X157452423Y-46019981D01*
X157257734Y-45956722D01*
X157083195Y-45929078D01*
X157055552Y-45924700D01*
X156850848Y-45924700D01*
X156826529Y-45928551D01*
X156648665Y-45956722D01*
X156453976Y-46019981D01*
X156271586Y-46112915D01*
X156105986Y-46233228D01*
X155961228Y-46377986D01*
X155840915Y-46543586D01*
X155747981Y-46725976D01*
X155684722Y-46920665D01*
X155652700Y-47122848D01*
X146427483Y-47122848D01*
X146227016Y-46922381D01*
X146193531Y-46861058D01*
X146198515Y-46791366D01*
X146240387Y-46735433D01*
X146305851Y-46711016D01*
X146314697Y-46710700D01*
X146507951Y-46710700D01*
X146507952Y-46710700D01*
X146710134Y-46678677D01*
X146904819Y-46615420D01*
X147087210Y-46522487D01*
X147180190Y-46454932D01*
X147252813Y-46402171D01*
X147252815Y-46402168D01*
X147252819Y-46402166D01*
X147397566Y-46257419D01*
X147397568Y-46257415D01*
X147397571Y-46257413D01*
X147517884Y-46091814D01*
X147517885Y-46091813D01*
X147517887Y-46091810D01*
X147565116Y-45999117D01*
X147613089Y-45948323D01*
X147680910Y-45931528D01*
X147747045Y-45954065D01*
X147786083Y-45999117D01*
X147816578Y-46058966D01*
X147833315Y-46091814D01*
X147953628Y-46257413D01*
X148098386Y-46402171D01*
X148225053Y-46494198D01*
X148263990Y-46522487D01*
X148380207Y-46581703D01*
X148446376Y-46615418D01*
X148446378Y-46615418D01*
X148446381Y-46615420D01*
X148550737Y-46649327D01*
X148641065Y-46678677D01*
X148742157Y-46694688D01*
X148843248Y-46710700D01*
X148843249Y-46710700D01*
X149047951Y-46710700D01*
X149047952Y-46710700D01*
X149250134Y-46678677D01*
X149444819Y-46615420D01*
X149627210Y-46522487D01*
X149720190Y-46454932D01*
X149792813Y-46402171D01*
X149792815Y-46402168D01*
X149792819Y-46402166D01*
X149937566Y-46257419D01*
X149937568Y-46257415D01*
X149937571Y-46257413D01*
X150057884Y-46091814D01*
X150057885Y-46091813D01*
X150057887Y-46091810D01*
X150105116Y-45999117D01*
X150153089Y-45948323D01*
X150220910Y-45931528D01*
X150287045Y-45954065D01*
X150326083Y-45999117D01*
X150356578Y-46058966D01*
X150373315Y-46091814D01*
X150493628Y-46257413D01*
X150638386Y-46402171D01*
X150765053Y-46494198D01*
X150803990Y-46522487D01*
X150920207Y-46581703D01*
X150986376Y-46615418D01*
X150986378Y-46615418D01*
X150986381Y-46615420D01*
X151090737Y-46649327D01*
X151181065Y-46678677D01*
X151282157Y-46694688D01*
X151383248Y-46710700D01*
X151383249Y-46710700D01*
X151587951Y-46710700D01*
X151587952Y-46710700D01*
X151790134Y-46678677D01*
X151984819Y-46615420D01*
X152167210Y-46522487D01*
X152260190Y-46454932D01*
X152332813Y-46402171D01*
X152332815Y-46402168D01*
X152332819Y-46402166D01*
X152477566Y-46257419D01*
X152477568Y-46257415D01*
X152477571Y-46257413D01*
X152582553Y-46112915D01*
X152597887Y-46091810D01*
X152690820Y-45909419D01*
X152754077Y-45714734D01*
X152786100Y-45512552D01*
X152786100Y-45307848D01*
X152785390Y-45303362D01*
X152754077Y-45105665D01*
X152720235Y-45001512D01*
X152690820Y-44910981D01*
X152690818Y-44910978D01*
X152690818Y-44910976D01*
X152649136Y-44829172D01*
X152597887Y-44728590D01*
X152565128Y-44683501D01*
X152477571Y-44562986D01*
X152332820Y-44418235D01*
X152293303Y-44389524D01*
X152250638Y-44334194D01*
X152244659Y-44264580D01*
X152277265Y-44202785D01*
X152278434Y-44201599D01*
X154596758Y-41883275D01*
X154658079Y-41849792D01*
X154722751Y-41853025D01*
X154737066Y-41857677D01*
X154939248Y-41889700D01*
X154939249Y-41889700D01*
X155143951Y-41889700D01*
X155143952Y-41889700D01*
X155346134Y-41857677D01*
X155540819Y-41794420D01*
X155723210Y-41701487D01*
X155818093Y-41632551D01*
X155888813Y-41581171D01*
X155888815Y-41581168D01*
X155888819Y-41581166D01*
X156033566Y-41436419D01*
X156033568Y-41436415D01*
X156033571Y-41436413D01*
X156086332Y-41363790D01*
X156153887Y-41270810D01*
X156246820Y-41088419D01*
X156310077Y-40893734D01*
X156342100Y-40691552D01*
X156342100Y-40486848D01*
X156330786Y-40415415D01*
X156310077Y-40284665D01*
X156271349Y-40165473D01*
X156246820Y-40089981D01*
X156246818Y-40089978D01*
X156246818Y-40089976D01*
X156189282Y-39977057D01*
X156153887Y-39907590D01*
X156112062Y-39850022D01*
X156033571Y-39741986D01*
X155888813Y-39597228D01*
X155723213Y-39476915D01*
X155723212Y-39476914D01*
X155723210Y-39476913D01*
X155666253Y-39447891D01*
X155540823Y-39383981D01*
X155346134Y-39320722D01*
X155171595Y-39293078D01*
X155143952Y-39288700D01*
X154939248Y-39288700D01*
X154914929Y-39292551D01*
X154737065Y-39320722D01*
X154542376Y-39383981D01*
X154359986Y-39476915D01*
X154194386Y-39597228D01*
X154049628Y-39741986D01*
X153929315Y-39907586D01*
X153836381Y-40089976D01*
X153773122Y-40284665D01*
X153741100Y-40486848D01*
X153741100Y-40691551D01*
X153773122Y-40893734D01*
X153777773Y-40908048D01*
X153779765Y-40977890D01*
X153747521Y-41034042D01*
X151109184Y-43672381D01*
X151047861Y-43705866D01*
X151021503Y-43708700D01*
X144887543Y-43708700D01*
X144734813Y-43749623D01*
X144695396Y-43772382D01*
X144695395Y-43772382D01*
X144597887Y-43828677D01*
X144597882Y-43828681D01*
X144486078Y-43940486D01*
X144310442Y-44116121D01*
X144249119Y-44149606D01*
X144184448Y-44146373D01*
X144170134Y-44141722D01*
X143995595Y-44114078D01*
X143967952Y-44109700D01*
X143763248Y-44109700D01*
X143725199Y-44115726D01*
X143561068Y-44141722D01*
X143552317Y-44144565D01*
X143546754Y-44146373D01*
X143476913Y-44148367D01*
X143420757Y-44116122D01*
X139740683Y-40436048D01*
X143530300Y-40436048D01*
X143530300Y-40640751D01*
X143562322Y-40842934D01*
X143625581Y-41037623D01*
X143718515Y-41220013D01*
X143838828Y-41385613D01*
X143983586Y-41530371D01*
X144082835Y-41602478D01*
X144149190Y-41650687D01*
X144265407Y-41709903D01*
X144331576Y-41743618D01*
X144331578Y-41743618D01*
X144331581Y-41743620D01*
X144428676Y-41775168D01*
X144526265Y-41806877D01*
X144627357Y-41822888D01*
X144728448Y-41838900D01*
X144728449Y-41838900D01*
X144933151Y-41838900D01*
X144933152Y-41838900D01*
X145135334Y-41806877D01*
X145330019Y-41743620D01*
X145512410Y-41650687D01*
X145608098Y-41581166D01*
X145678013Y-41530371D01*
X145678015Y-41530368D01*
X145678019Y-41530366D01*
X145822766Y-41385619D01*
X145822768Y-41385615D01*
X145822771Y-41385613D01*
X145943086Y-41220011D01*
X145943087Y-41220010D01*
X146002773Y-41102867D01*
X146050746Y-41052074D01*
X146118567Y-41035278D01*
X146184702Y-41057815D01*
X146223742Y-41102869D01*
X146309315Y-41270813D01*
X146429628Y-41436413D01*
X146574386Y-41581171D01*
X146709382Y-41679249D01*
X146739990Y-41701487D01*
X146822677Y-41743618D01*
X146922376Y-41794418D01*
X146922378Y-41794418D01*
X146922381Y-41794420D01*
X146960720Y-41806877D01*
X147117065Y-41857677D01*
X147218157Y-41873688D01*
X147319248Y-41889700D01*
X147319249Y-41889700D01*
X147523951Y-41889700D01*
X147523952Y-41889700D01*
X147726134Y-41857677D01*
X147920819Y-41794420D01*
X148103210Y-41701487D01*
X148198093Y-41632551D01*
X148268813Y-41581171D01*
X148268815Y-41581168D01*
X148268819Y-41581166D01*
X148413566Y-41436419D01*
X148413568Y-41436415D01*
X148413571Y-41436413D01*
X148466332Y-41363790D01*
X148533887Y-41270810D01*
X148626820Y-41088419D01*
X148690077Y-40893734D01*
X148722100Y-40691552D01*
X148722100Y-40486848D01*
X148710786Y-40415415D01*
X148690077Y-40284665D01*
X148651349Y-40165473D01*
X148626820Y-40089981D01*
X148626818Y-40089978D01*
X148626818Y-40089976D01*
X148569282Y-39977057D01*
X148533887Y-39907590D01*
X148492062Y-39850022D01*
X148413571Y-39741986D01*
X148268813Y-39597228D01*
X148103213Y-39476915D01*
X148103212Y-39476914D01*
X148103210Y-39476913D01*
X148046253Y-39447891D01*
X147920823Y-39383981D01*
X147726134Y-39320722D01*
X147551595Y-39293078D01*
X147523952Y-39288700D01*
X147319248Y-39288700D01*
X147294929Y-39292551D01*
X147117065Y-39320722D01*
X146922376Y-39383981D01*
X146739986Y-39476915D01*
X146574386Y-39597228D01*
X146429628Y-39741986D01*
X146309315Y-39907586D01*
X146249627Y-40024730D01*
X146201652Y-40075526D01*
X146133831Y-40092321D01*
X146067696Y-40069783D01*
X146028657Y-40024730D01*
X146004366Y-39977057D01*
X145943087Y-39856790D01*
X145935356Y-39846149D01*
X145822771Y-39691186D01*
X145678013Y-39546428D01*
X145512413Y-39426115D01*
X145512412Y-39426114D01*
X145512410Y-39426113D01*
X145455453Y-39397091D01*
X145330023Y-39333181D01*
X145135334Y-39269922D01*
X144960795Y-39242278D01*
X144933152Y-39237900D01*
X144728448Y-39237900D01*
X144704129Y-39241751D01*
X144526265Y-39269922D01*
X144331576Y-39333181D01*
X144149186Y-39426115D01*
X143983586Y-39546428D01*
X143838828Y-39691186D01*
X143718515Y-39856786D01*
X143625581Y-40039176D01*
X143562322Y-40233865D01*
X143530300Y-40436048D01*
X139740683Y-40436048D01*
X137472770Y-38168135D01*
X160600700Y-38168135D01*
X160600700Y-40063870D01*
X160600701Y-40063876D01*
X160607108Y-40123483D01*
X160657402Y-40258328D01*
X160657406Y-40258335D01*
X160743652Y-40373544D01*
X160743655Y-40373547D01*
X160858864Y-40459793D01*
X160858871Y-40459797D01*
X160993717Y-40510091D01*
X160993716Y-40510091D01*
X161000644Y-40510835D01*
X161053327Y-40516500D01*
X162949072Y-40516499D01*
X163008683Y-40510091D01*
X163143531Y-40459796D01*
X163258746Y-40373546D01*
X163344996Y-40258331D01*
X163372629Y-40184243D01*
X163374801Y-40178420D01*
X163416671Y-40122486D01*
X163482136Y-40098068D01*
X163550409Y-40112919D01*
X163578664Y-40134071D01*
X163628836Y-40184243D01*
X163628841Y-40184247D01*
X163746223Y-40269529D01*
X163807178Y-40313815D01*
X163935575Y-40379237D01*
X164003593Y-40413895D01*
X164003596Y-40413896D01*
X164050846Y-40429248D01*
X164213249Y-40482015D01*
X164430978Y-40516500D01*
X164430979Y-40516500D01*
X164651421Y-40516500D01*
X164651422Y-40516500D01*
X164869151Y-40482015D01*
X165078806Y-40413895D01*
X165275222Y-40313815D01*
X165453565Y-40184242D01*
X165609442Y-40028365D01*
X165739015Y-39850022D01*
X165839095Y-39653606D01*
X165907215Y-39443951D01*
X165941700Y-39226222D01*
X165941700Y-39005778D01*
X165907215Y-38788049D01*
X165839095Y-38578394D01*
X165839095Y-38578393D01*
X165790781Y-38483574D01*
X165739015Y-38381978D01*
X165722460Y-38359192D01*
X165609447Y-38203641D01*
X165609443Y-38203636D01*
X165453563Y-38047756D01*
X165453558Y-38047752D01*
X165275225Y-37918187D01*
X165275224Y-37918186D01*
X165275222Y-37918185D01*
X165212296Y-37886122D01*
X165078806Y-37818104D01*
X165078803Y-37818103D01*
X164869152Y-37749985D01*
X164739997Y-37729529D01*
X164651422Y-37715500D01*
X164430978Y-37715500D01*
X164358401Y-37726995D01*
X164213247Y-37749985D01*
X164003596Y-37818103D01*
X164003593Y-37818104D01*
X163807174Y-37918187D01*
X163628841Y-38047752D01*
X163628836Y-38047756D01*
X163578663Y-38097929D01*
X163517340Y-38131413D01*
X163447648Y-38126428D01*
X163391715Y-38084557D01*
X163374801Y-38053580D01*
X163344997Y-37973671D01*
X163344993Y-37973664D01*
X163258747Y-37858455D01*
X163258744Y-37858452D01*
X163143535Y-37772206D01*
X163143528Y-37772202D01*
X163008682Y-37721908D01*
X163008683Y-37721908D01*
X162949083Y-37715501D01*
X162949081Y-37715500D01*
X162949073Y-37715500D01*
X162949064Y-37715500D01*
X161053329Y-37715500D01*
X161053323Y-37715501D01*
X160993716Y-37721908D01*
X160858871Y-37772202D01*
X160858864Y-37772206D01*
X160743655Y-37858452D01*
X160743652Y-37858455D01*
X160657406Y-37973664D01*
X160657402Y-37973671D01*
X160607108Y-38108517D01*
X160600701Y-38168116D01*
X160600700Y-38168135D01*
X137472770Y-38168135D01*
X136941390Y-37636755D01*
X136941388Y-37636752D01*
X136822517Y-37517881D01*
X136822516Y-37517880D01*
X136735704Y-37467760D01*
X136735704Y-37467759D01*
X136735700Y-37467758D01*
X136685585Y-37438823D01*
X136532857Y-37397899D01*
X136374743Y-37397899D01*
X136367147Y-37397899D01*
X136367131Y-37397900D01*
X131988169Y-37397900D01*
X131921130Y-37378215D01*
X131875375Y-37325411D01*
X131866226Y-37270534D01*
X131864500Y-37270534D01*
X131864500Y-37106755D01*
X131864499Y-37106753D01*
X131845847Y-37012985D01*
X131833737Y-36952103D01*
X131803239Y-36878473D01*
X131773397Y-36806427D01*
X131773390Y-36806414D01*
X131685398Y-36674725D01*
X131664520Y-36608047D01*
X131664500Y-36605834D01*
X131664500Y-30830896D01*
X131673144Y-30801455D01*
X131679668Y-30771469D01*
X131683422Y-30766453D01*
X131684185Y-30763857D01*
X131694275Y-30751335D01*
X149373900Y-30751335D01*
X149373900Y-32647070D01*
X149373901Y-32647076D01*
X149380308Y-32706683D01*
X149430602Y-32841528D01*
X149430606Y-32841535D01*
X149516852Y-32956744D01*
X149516855Y-32956747D01*
X149632064Y-33042993D01*
X149632071Y-33042997D01*
X149766917Y-33093291D01*
X149766916Y-33093291D01*
X149773844Y-33094035D01*
X149826527Y-33099700D01*
X151722272Y-33099699D01*
X151781883Y-33093291D01*
X151916731Y-33042996D01*
X152031946Y-32956746D01*
X152118196Y-32841531D01*
X152145829Y-32767443D01*
X152148001Y-32761620D01*
X152189871Y-32705686D01*
X152255336Y-32681268D01*
X152323609Y-32696119D01*
X152351864Y-32717271D01*
X152402036Y-32767443D01*
X152402041Y-32767447D01*
X152504003Y-32841526D01*
X152580378Y-32897015D01*
X152708775Y-32962437D01*
X152776793Y-32997095D01*
X152776796Y-32997096D01*
X152813951Y-33009168D01*
X152986449Y-33065215D01*
X153204178Y-33099700D01*
X153204179Y-33099700D01*
X153424621Y-33099700D01*
X153424622Y-33099700D01*
X153642351Y-33065215D01*
X153852006Y-32997095D01*
X154048422Y-32897015D01*
X154226765Y-32767442D01*
X154382642Y-32611565D01*
X154512215Y-32433222D01*
X154612295Y-32236806D01*
X154680415Y-32027151D01*
X154714900Y-31809422D01*
X154714900Y-31588978D01*
X154680415Y-31371249D01*
X154646355Y-31266421D01*
X154612296Y-31161596D01*
X154612295Y-31161593D01*
X154545751Y-31030996D01*
X154512215Y-30965178D01*
X154442431Y-30869128D01*
X154382647Y-30786841D01*
X154382643Y-30786836D01*
X154226763Y-30630956D01*
X154226758Y-30630952D01*
X154048425Y-30501387D01*
X154048424Y-30501386D01*
X154048422Y-30501385D01*
X153985496Y-30469322D01*
X153852006Y-30401304D01*
X153852003Y-30401303D01*
X153642352Y-30333185D01*
X153533486Y-30315942D01*
X153424622Y-30298700D01*
X153204178Y-30298700D01*
X153161510Y-30305458D01*
X152986447Y-30333185D01*
X152776796Y-30401303D01*
X152776793Y-30401304D01*
X152580374Y-30501387D01*
X152402041Y-30630952D01*
X152402036Y-30630956D01*
X152351863Y-30681129D01*
X152290540Y-30714613D01*
X152220848Y-30709628D01*
X152164915Y-30667757D01*
X152148001Y-30636780D01*
X152118197Y-30556871D01*
X152118193Y-30556864D01*
X152031947Y-30441655D01*
X152031944Y-30441652D01*
X151916735Y-30355406D01*
X151916728Y-30355402D01*
X151781882Y-30305108D01*
X151781883Y-30305108D01*
X151722283Y-30298701D01*
X151722281Y-30298700D01*
X151722273Y-30298700D01*
X151722264Y-30298700D01*
X149826529Y-30298700D01*
X149826523Y-30298701D01*
X149766916Y-30305108D01*
X149632071Y-30355402D01*
X149632064Y-30355406D01*
X149516855Y-30441652D01*
X149516852Y-30441655D01*
X149430606Y-30556864D01*
X149430602Y-30556871D01*
X149380308Y-30691717D01*
X149373901Y-30751316D01*
X149373900Y-30751335D01*
X131694275Y-30751335D01*
X131700815Y-30743219D01*
X132520997Y-29923036D01*
X132582318Y-29889553D01*
X132646994Y-29892788D01*
X132666251Y-29899044D01*
X132717249Y-29915615D01*
X132934978Y-29950100D01*
X132934979Y-29950100D01*
X133155421Y-29950100D01*
X133155422Y-29950100D01*
X133373151Y-29915615D01*
X133582806Y-29847495D01*
X133779222Y-29747415D01*
X133957565Y-29617842D01*
X134113442Y-29461965D01*
X134243015Y-29283622D01*
X134343095Y-29087206D01*
X134411215Y-28877551D01*
X134445700Y-28659822D01*
X134445700Y-28439378D01*
X134411215Y-28221649D01*
X134352009Y-28039429D01*
X134343096Y-28011996D01*
X134343095Y-28011993D01*
X134284149Y-27896308D01*
X134243015Y-27815578D01*
X134173135Y-27719396D01*
X134113447Y-27637241D01*
X134113443Y-27637236D01*
X133957563Y-27481356D01*
X133957558Y-27481352D01*
X133779225Y-27351787D01*
X133779224Y-27351786D01*
X133779222Y-27351785D01*
X133661991Y-27292052D01*
X133582806Y-27251704D01*
X133582803Y-27251703D01*
X133373152Y-27183585D01*
X133264286Y-27166342D01*
X133155422Y-27149100D01*
X132934978Y-27149100D01*
X132862401Y-27160595D01*
X132717247Y-27183585D01*
X132507596Y-27251703D01*
X132507593Y-27251704D01*
X132311174Y-27351787D01*
X132132841Y-27481352D01*
X132132836Y-27481356D01*
X132082663Y-27531529D01*
X132021340Y-27565013D01*
X131951648Y-27560028D01*
X131895715Y-27518157D01*
X131878801Y-27487180D01*
X131848997Y-27407271D01*
X131848993Y-27407264D01*
X131762747Y-27292055D01*
X131762744Y-27292052D01*
X131647535Y-27205806D01*
X131647528Y-27205802D01*
X131512682Y-27155508D01*
X131512683Y-27155508D01*
X131453083Y-27149101D01*
X131453081Y-27149100D01*
X131453073Y-27149100D01*
X131453064Y-27149100D01*
X129557329Y-27149100D01*
X129557323Y-27149101D01*
X129497716Y-27155508D01*
X129362871Y-27205802D01*
X129362864Y-27205806D01*
X129247655Y-27292052D01*
X129247652Y-27292055D01*
X129161406Y-27407264D01*
X129161402Y-27407271D01*
X129111108Y-27542117D01*
X129104701Y-27601716D01*
X129104700Y-27601735D01*
X129104700Y-29497470D01*
X129104701Y-29497476D01*
X129111108Y-29557083D01*
X129161402Y-29691928D01*
X129161406Y-29691935D01*
X129247652Y-29807144D01*
X129247655Y-29807147D01*
X129362864Y-29893393D01*
X129362871Y-29893397D01*
X129497717Y-29943691D01*
X129497716Y-29943691D01*
X129504644Y-29944435D01*
X129557327Y-29950100D01*
X130496102Y-29950099D01*
X130563141Y-29969783D01*
X130608896Y-30022587D01*
X130618840Y-30091746D01*
X130600045Y-30141714D01*
X130592962Y-30152601D01*
X130583480Y-30162084D01*
X130558972Y-30204534D01*
X130557335Y-30207369D01*
X130557330Y-30207377D01*
X130535927Y-30244448D01*
X130504423Y-30299015D01*
X130463499Y-30451743D01*
X130463499Y-30451745D01*
X130463499Y-30619846D01*
X130463500Y-30619859D01*
X130463500Y-36605834D01*
X130443815Y-36672873D01*
X130442602Y-36674725D01*
X130354609Y-36806414D01*
X130354602Y-36806427D01*
X130294264Y-36952098D01*
X130294261Y-36952110D01*
X130263500Y-37106753D01*
X130263500Y-37270534D01*
X130261571Y-37270534D01*
X130250206Y-37330409D01*
X130202134Y-37381112D01*
X130139831Y-37397900D01*
X127995345Y-37397900D01*
X127928306Y-37378215D01*
X127895028Y-37346787D01*
X127824998Y-37250398D01*
X127697202Y-37122602D01*
X127697196Y-37122596D01*
X127550991Y-37016374D01*
X127550990Y-37016373D01*
X127550988Y-37016372D01*
X127389956Y-36934322D01*
X127218071Y-36878473D01*
X127218069Y-36878472D01*
X127218067Y-36878472D01*
X127080023Y-36856608D01*
X127039565Y-36850200D01*
X126858835Y-36850200D01*
X126818377Y-36856608D01*
X126680332Y-36878472D01*
X126508441Y-36934323D01*
X126347408Y-37016374D01*
X126201203Y-37122596D01*
X126073396Y-37250403D01*
X125967174Y-37396608D01*
X125885123Y-37557641D01*
X125829272Y-37729532D01*
X125801000Y-37908035D01*
X125801000Y-38088765D01*
X125800999Y-38088765D01*
X125819637Y-38206439D01*
X125810682Y-38275732D01*
X125784845Y-38313517D01*
X121090081Y-43008282D01*
X121028758Y-43041767D01*
X120959066Y-43036783D01*
X120903133Y-42994911D01*
X120878716Y-42929447D01*
X120878400Y-42920601D01*
X120878400Y-33584845D01*
X120878400Y-33584843D01*
X120837477Y-33432116D01*
X120816973Y-33396602D01*
X120758424Y-33295190D01*
X120758421Y-33295186D01*
X120758420Y-33295184D01*
X120646616Y-33183380D01*
X120646615Y-33183379D01*
X120642285Y-33179049D01*
X120642274Y-33179039D01*
X116537038Y-29073803D01*
X116503553Y-29012480D01*
X116506787Y-28947805D01*
X116529615Y-28877551D01*
X116564100Y-28659822D01*
X116564100Y-28439378D01*
X116529615Y-28221649D01*
X116470409Y-28039429D01*
X116461496Y-28011996D01*
X116461495Y-28011993D01*
X116402549Y-27896308D01*
X116361415Y-27815578D01*
X116291535Y-27719396D01*
X116231847Y-27637241D01*
X116231843Y-27637236D01*
X116075963Y-27481356D01*
X116075958Y-27481352D01*
X115897625Y-27351787D01*
X115897624Y-27351786D01*
X115897622Y-27351785D01*
X115780391Y-27292052D01*
X115701206Y-27251704D01*
X115701203Y-27251703D01*
X115491552Y-27183585D01*
X115382686Y-27166342D01*
X115273822Y-27149100D01*
X115053378Y-27149100D01*
X114980801Y-27160595D01*
X114835647Y-27183585D01*
X114625996Y-27251703D01*
X114625993Y-27251704D01*
X114429574Y-27351787D01*
X114251241Y-27481352D01*
X114251236Y-27481356D01*
X114201063Y-27531529D01*
X114139740Y-27565013D01*
X114070048Y-27560028D01*
X114014115Y-27518157D01*
X113997201Y-27487180D01*
X113967397Y-27407271D01*
X113967393Y-27407264D01*
X113881147Y-27292055D01*
X113881144Y-27292052D01*
X113765935Y-27205806D01*
X113765928Y-27205802D01*
X113631082Y-27155508D01*
X113631083Y-27155508D01*
X113571483Y-27149101D01*
X113571481Y-27149100D01*
X113571473Y-27149100D01*
X113571464Y-27149100D01*
X111675729Y-27149100D01*
X111675723Y-27149101D01*
X111616116Y-27155508D01*
X111481271Y-27205802D01*
X111481264Y-27205806D01*
X111366055Y-27292052D01*
X111366052Y-27292055D01*
X111279806Y-27407264D01*
X111279802Y-27407271D01*
X111229508Y-27542117D01*
X111223101Y-27601716D01*
X111223100Y-27601735D01*
X111223100Y-29497470D01*
X111223101Y-29497476D01*
X111229508Y-29557083D01*
X111279802Y-29691928D01*
X111279806Y-29691935D01*
X111366052Y-29807144D01*
X111366055Y-29807147D01*
X111481264Y-29893393D01*
X111481271Y-29893397D01*
X111616117Y-29943691D01*
X111616116Y-29943691D01*
X111623044Y-29944435D01*
X111675727Y-29950100D01*
X113571472Y-29950099D01*
X113631083Y-29943691D01*
X113765931Y-29893396D01*
X113881146Y-29807146D01*
X113967396Y-29691931D01*
X113995029Y-29617843D01*
X113997201Y-29612020D01*
X114039071Y-29556086D01*
X114104536Y-29531668D01*
X114172809Y-29546519D01*
X114201064Y-29567671D01*
X114251236Y-29617843D01*
X114251241Y-29617847D01*
X114353203Y-29691926D01*
X114429578Y-29747415D01*
X114557975Y-29812837D01*
X114625993Y-29847495D01*
X114625996Y-29847496D01*
X114693125Y-29869307D01*
X114835649Y-29915615D01*
X115053378Y-29950100D01*
X115053379Y-29950100D01*
X115273821Y-29950100D01*
X115273822Y-29950100D01*
X115491551Y-29915615D01*
X115561805Y-29892787D01*
X115631644Y-29890792D01*
X115687803Y-29923038D01*
X119641081Y-33876316D01*
X119674566Y-33937639D01*
X119677400Y-33963997D01*
X119677400Y-36726200D01*
X119657715Y-36793239D01*
X119604911Y-36838994D01*
X119553400Y-36850200D01*
X118633629Y-36850200D01*
X118633623Y-36850201D01*
X118574016Y-36856608D01*
X118439171Y-36906902D01*
X118439164Y-36906906D01*
X118323955Y-36993152D01*
X118323952Y-36993155D01*
X118237706Y-37108364D01*
X118237702Y-37108371D01*
X118187408Y-37243217D01*
X118181001Y-37302816D01*
X118181000Y-37302835D01*
X118181000Y-38693970D01*
X118181001Y-38693976D01*
X118187408Y-38753583D01*
X118237702Y-38888428D01*
X118237706Y-38888435D01*
X118323952Y-39003644D01*
X118323955Y-39003647D01*
X118439164Y-39089893D01*
X118439171Y-39089897D01*
X118574017Y-39140191D01*
X118574016Y-39140191D01*
X118580944Y-39140935D01*
X118633627Y-39146600D01*
X119201303Y-39146599D01*
X119268341Y-39166283D01*
X119314096Y-39219087D01*
X119324040Y-39288246D01*
X119295015Y-39351802D01*
X119236237Y-39389576D01*
X119220700Y-39393072D01*
X119060332Y-39418472D01*
X118888441Y-39474323D01*
X118727408Y-39556374D01*
X118581203Y-39662596D01*
X118453396Y-39790403D01*
X118347174Y-39936608D01*
X118265123Y-40097641D01*
X118209272Y-40269532D01*
X118183976Y-40429248D01*
X118181000Y-40448035D01*
X118181000Y-40628765D01*
X118182899Y-40640752D01*
X118209253Y-40807150D01*
X118209273Y-40807271D01*
X118265060Y-40978966D01*
X118265123Y-40979158D01*
X118268310Y-40985413D01*
X118347040Y-41139929D01*
X118347174Y-41140191D01*
X118453396Y-41286396D01*
X118581203Y-41414203D01*
X118711460Y-41508838D01*
X118727412Y-41520428D01*
X118888444Y-41602478D01*
X119060329Y-41658327D01*
X119223348Y-41684147D01*
X119234586Y-41685927D01*
X119297721Y-41715856D01*
X119334652Y-41775168D01*
X119333654Y-41845030D01*
X119295044Y-41903263D01*
X119234586Y-41930873D01*
X119060332Y-41958472D01*
X118888441Y-42014323D01*
X118727408Y-42096374D01*
X118581203Y-42202596D01*
X118453396Y-42330403D01*
X118347174Y-42476608D01*
X118265123Y-42637641D01*
X118209272Y-42809532D01*
X118181000Y-42988035D01*
X118181000Y-43168765D01*
X118180999Y-43168765D01*
X118206399Y-43329132D01*
X118197444Y-43398425D01*
X118152448Y-43451877D01*
X118085696Y-43472516D01*
X118018383Y-43453791D01*
X117996245Y-43436210D01*
X105897590Y-31337555D01*
X105897588Y-31337552D01*
X105778717Y-31218681D01*
X105778716Y-31218680D01*
X105691904Y-31168560D01*
X105691904Y-31168559D01*
X105691900Y-31168558D01*
X105641785Y-31139623D01*
X105489057Y-31098699D01*
X105330943Y-31098699D01*
X105323347Y-31098699D01*
X105323331Y-31098700D01*
X96388636Y-31098700D01*
X96321597Y-31079015D01*
X96278152Y-31030996D01*
X96244614Y-30965176D01*
X96115047Y-30786841D01*
X96115043Y-30786836D01*
X95959163Y-30630956D01*
X95959158Y-30630952D01*
X95780825Y-30501387D01*
X95780824Y-30501386D01*
X95780822Y-30501385D01*
X95717896Y-30469322D01*
X95584406Y-30401304D01*
X95584403Y-30401303D01*
X95374752Y-30333185D01*
X95265886Y-30315942D01*
X95157022Y-30298700D01*
X94936578Y-30298700D01*
X94893910Y-30305458D01*
X94718847Y-30333185D01*
X94509196Y-30401303D01*
X94509193Y-30401304D01*
X94312774Y-30501387D01*
X94134441Y-30630952D01*
X94134436Y-30630956D01*
X94084263Y-30681129D01*
X94022940Y-30714613D01*
X93953248Y-30709628D01*
X93897315Y-30667757D01*
X93880401Y-30636780D01*
X93850597Y-30556871D01*
X93850593Y-30556864D01*
X93764347Y-30441655D01*
X93764344Y-30441652D01*
X93649135Y-30355406D01*
X93649128Y-30355402D01*
X93514282Y-30305108D01*
X93514283Y-30305108D01*
X93454683Y-30298701D01*
X93454681Y-30298700D01*
X93454673Y-30298700D01*
X93454664Y-30298700D01*
X91558929Y-30298700D01*
X91558923Y-30298701D01*
X91499316Y-30305108D01*
X91364471Y-30355402D01*
X91364464Y-30355406D01*
X91249255Y-30441652D01*
X91249252Y-30441655D01*
X91163006Y-30556864D01*
X91163002Y-30556871D01*
X91112708Y-30691717D01*
X91106301Y-30751316D01*
X91106300Y-30751335D01*
X86962429Y-30751335D01*
X90029453Y-29346118D01*
X90043425Y-29340714D01*
X90975265Y-29043755D01*
X90977561Y-29043048D01*
X91945817Y-28755310D01*
X91947854Y-28754727D01*
X92921633Y-28486048D01*
X92923889Y-28485450D01*
X92926451Y-28484797D01*
X93902600Y-28235990D01*
X93904802Y-28235451D01*
X94885962Y-28005794D01*
X94888901Y-28005145D01*
X102628281Y-26393382D01*
X102631720Y-26392716D01*
X110469725Y-24994743D01*
X110474112Y-24994044D01*
X114336091Y-24450139D01*
X114341659Y-24450697D01*
X114401252Y-24440962D01*
X114461046Y-24432541D01*
X114461048Y-24432540D01*
X114469251Y-24431385D01*
X114469609Y-24431310D01*
X114809486Y-24383976D01*
X114815211Y-24383316D01*
X115217335Y-24346504D01*
X115223090Y-24346114D01*
X115626488Y-24328273D01*
X115632283Y-24328154D01*
X116030070Y-24329304D01*
X116037267Y-24329535D01*
X117062486Y-24392417D01*
X117070978Y-24393231D01*
X117772983Y-24485088D01*
X117781078Y-24488116D01*
X117838168Y-24493618D01*
X117866436Y-24497316D01*
X117867863Y-24497513D01*
X118071846Y-24527118D01*
X118076915Y-24527854D01*
X118088604Y-24530128D01*
X118191811Y-24555406D01*
X118308811Y-24584063D01*
X118320211Y-24587443D01*
X118535350Y-24662646D01*
X118544405Y-24666218D01*
X118593754Y-24687961D01*
X118600611Y-24691237D01*
X118649549Y-24716485D01*
X118656197Y-24720177D01*
X118703374Y-24748305D01*
X118710323Y-24752768D01*
X118746362Y-24777650D01*
X118753490Y-24782958D01*
X118787534Y-24810272D01*
X118794282Y-24816097D01*
X118826167Y-24845685D01*
X118832783Y-24852306D01*
X118854237Y-24875463D01*
X118860606Y-24882907D01*
X118880107Y-24907612D01*
X118885871Y-24915540D01*
X118902787Y-24940851D01*
X118908884Y-24950988D01*
X118910442Y-24953883D01*
X118916303Y-24966399D01*
X118917199Y-24968628D01*
X118921628Y-24981709D01*
X118923258Y-24987581D01*
X118924921Y-24994293D01*
X118940121Y-25063899D01*
X118940136Y-25063951D01*
X118952491Y-25120516D01*
X118969009Y-25196139D01*
X118969008Y-25196179D01*
X118981137Y-25251669D01*
X118981804Y-25254719D01*
X118981998Y-25255604D01*
X118982002Y-25255622D01*
X118998746Y-25332277D01*
X118998797Y-25332459D01*
X119092718Y-25762103D01*
X119094148Y-25768643D01*
X119094148Y-25768656D01*
X119110002Y-25841168D01*
X119110002Y-25841169D01*
X119123932Y-25904892D01*
X119123942Y-25904925D01*
X119230660Y-26393018D01*
X119242583Y-26447547D01*
X119242583Y-26447557D01*
X119251374Y-26487756D01*
X119252282Y-26491907D01*
X119252764Y-26494110D01*
X119252765Y-26494115D01*
X119272371Y-26583787D01*
X119272383Y-26583828D01*
X119413281Y-27228120D01*
X119413606Y-27229649D01*
X119514254Y-27719396D01*
X119550612Y-27896308D01*
X119551061Y-27916822D01*
X119563826Y-27960607D01*
X119564836Y-27965522D01*
X119564835Y-27965524D01*
X119573008Y-28005289D01*
X119573010Y-28005295D01*
X119574549Y-28008367D01*
X119585243Y-28039429D01*
X119748466Y-28850010D01*
X119748687Y-28851135D01*
X119900361Y-29642099D01*
X119900712Y-29644009D01*
X119991869Y-30163206D01*
X119991869Y-30163207D01*
X119993867Y-30174591D01*
X119993587Y-30178449D01*
X120005240Y-30239374D01*
X120005414Y-30240360D01*
X120015987Y-30300574D01*
X120016287Y-30301526D01*
X120019789Y-30315423D01*
X120300318Y-31781881D01*
X120300907Y-31785204D01*
X120314327Y-31867428D01*
X120362135Y-32045142D01*
X120427569Y-32217156D01*
X120427570Y-32217157D01*
X120463585Y-32289029D01*
X120463619Y-32289097D01*
X120498434Y-32358680D01*
X120498438Y-32358687D01*
X120578399Y-32464232D01*
X120578402Y-32464235D01*
X120676334Y-32553368D01*
X120788925Y-32623074D01*
X120912370Y-32670998D01*
X121042502Y-32695520D01*
X121061968Y-32695555D01*
X121103334Y-32695642D01*
X121103339Y-32695642D01*
X121108744Y-32695653D01*
X121108744Y-32695654D01*
X121197337Y-32695843D01*
X121373778Y-32679623D01*
X121373786Y-32679621D01*
X121373790Y-32679621D01*
X121547914Y-32646949D01*
X121547914Y-32646948D01*
X121547924Y-32646947D01*
X121569747Y-32640688D01*
X121569763Y-32640688D01*
X121631177Y-32623072D01*
X121631178Y-32623072D01*
X121634968Y-32622049D01*
X121755950Y-32591488D01*
X121763660Y-32589801D01*
X121884348Y-32567387D01*
X121892119Y-32566199D01*
X122014652Y-32551448D01*
X122021045Y-32550847D01*
X122183566Y-32539856D01*
X122188535Y-32539620D01*
X122352006Y-32535250D01*
X122357003Y-32535219D01*
X122520518Y-32537523D01*
X122525192Y-32537678D01*
X122718870Y-32547824D01*
X122723234Y-32548132D01*
X122916428Y-32565190D01*
X122920736Y-32565647D01*
X123105771Y-32588672D01*
X123112480Y-32589695D01*
X123805553Y-32715030D01*
X123810024Y-32715926D01*
X123867642Y-32728578D01*
X124006494Y-32753209D01*
X124006505Y-32753210D01*
X124006508Y-32753211D01*
X124144587Y-32771961D01*
X124144599Y-32771962D01*
X124146233Y-32772184D01*
X124150875Y-32772623D01*
X124150933Y-32772645D01*
X124210220Y-32778243D01*
X124216533Y-32778845D01*
X124216533Y-32778846D01*
X124277166Y-32784629D01*
X124277167Y-32784628D01*
X124281625Y-32785054D01*
X124282023Y-32785039D01*
X124282024Y-32785038D01*
X124282028Y-32785039D01*
X124285355Y-32784476D01*
X124296291Y-32783124D01*
X124398607Y-32775078D01*
X124516601Y-32744806D01*
X124627641Y-32694713D01*
X124717114Y-32633968D01*
X124724933Y-32629620D01*
X124728245Y-32626412D01*
X124728425Y-32626290D01*
X124735728Y-32619208D01*
X124736051Y-32619037D01*
X124770053Y-32585931D01*
X124770362Y-32585632D01*
X124814983Y-32542484D01*
X124814983Y-32542483D01*
X124817074Y-32540462D01*
X124817230Y-32540257D01*
X124819498Y-32538063D01*
X124821616Y-32534528D01*
X124892841Y-32441487D01*
X124897414Y-32433222D01*
X124953179Y-32332423D01*
X124953179Y-32332421D01*
X124953181Y-32332419D01*
X124996774Y-32215643D01*
X124997197Y-32213639D01*
X124999471Y-32208930D01*
X125010784Y-32149428D01*
X125023360Y-32090215D01*
X125023359Y-32090203D01*
X125023751Y-32085216D01*
X125025553Y-32071756D01*
X125097659Y-31692544D01*
X125102600Y-31680847D01*
X125109932Y-31627995D01*
X125119903Y-31575561D01*
X125119902Y-31575555D01*
X125120020Y-31573507D01*
X125120774Y-31549848D01*
X125124185Y-31525262D01*
X125124880Y-31520857D01*
X125325748Y-30381934D01*
X125328853Y-30368655D01*
X125330177Y-30364127D01*
X125330181Y-30364120D01*
X125339466Y-30304162D01*
X125349998Y-30244448D01*
X125349534Y-30239148D01*
X125610549Y-28553705D01*
X125611695Y-28547391D01*
X125627477Y-28471658D01*
X125943881Y-26953322D01*
X125944471Y-26950644D01*
X126207147Y-25823578D01*
X126208372Y-25818771D01*
X126376630Y-25209604D01*
X126379537Y-25204382D01*
X126394146Y-25146190D01*
X126396406Y-25138007D01*
X126397444Y-25134460D01*
X126423870Y-25049138D01*
X126428535Y-25036543D01*
X126463885Y-24954999D01*
X126469903Y-24942959D01*
X126513341Y-24866701D01*
X126521828Y-24853754D01*
X126535460Y-24835551D01*
X126546889Y-24822342D01*
X126562210Y-24806974D01*
X126575380Y-24795507D01*
X126581990Y-24790524D01*
X126598585Y-24779967D01*
X126921501Y-24608930D01*
X126935939Y-24602428D01*
X127259117Y-24481095D01*
X127268432Y-24478013D01*
X127617791Y-24377661D01*
X127627354Y-24375322D01*
X127983547Y-24303015D01*
X127993227Y-24301447D01*
X128354059Y-24257633D01*
X128363869Y-24256836D01*
X128727037Y-24241794D01*
X128736851Y-24241779D01*
X129097422Y-24255504D01*
G37*
%TD.AperFunction*%
%TD*%
M02*
