M48
; DRILL file {KiCad 9.0.6} date 2026-01-05T01:28:51+0000
; FORMAT={-:-/ absolute / metric / decimal}
; #@! TF.CreationDate,2026-01-05T01:28:51+00:00
; #@! TF.GenerationSoftware,Kicad,Pcbnew,9.0.6
; #@! TF.FileFunction,MixedPlating,1,2
FMAT,2
METRIC
; #@! TA.AperFunction,Plated,PTH,ViaDrill
T1C0.300
; #@! TA.AperFunction,Plated,PTH,ComponentDrill
T2C0.787
; #@! TA.AperFunction,Plated,PTH,ComponentDrill
T3C0.800
; #@! TA.AperFunction,Plated,PTH,ComponentDrill
T4C0.900
; #@! TA.AperFunction,Plated,PTH,ComponentDrill
T5C1.000
%
G90
G05
T1
X78.53Y-40.16
X83.63Y-33.95
X86.07Y-32.29
X97.28Y-36.06
X105.26Y-35.61
X109.48Y-32.84
X124.79Y-48.26
X129.692Y-44.45
X131.064Y-37.186
X137.88Y-33.17
X203.32Y-49.8
T2
X119.329Y-37.998
X119.329Y-40.538
X119.329Y-43.078
X119.329Y-45.618
X119.329Y-48.158
X119.329Y-50.698
X119.329Y-53.238
X119.329Y-55.778
X126.949Y-37.998
X126.949Y-40.538
X126.949Y-43.078
X126.949Y-45.618
X126.949Y-48.158
X126.949Y-50.698
X126.949Y-53.238
X126.949Y-55.778
T3
X106.375Y-58.064
X113.995Y-58.064
X137.211Y-40.538
X143.866Y-45.41
X143.866Y-53.03
X144.831Y-40.538
X146.192Y-57.607
X146.406Y-45.41
X146.406Y-53.03
X147.422Y-40.589
X148.192Y-57.607
X148.946Y-45.41
X148.946Y-53.03
X151.486Y-45.41
X151.486Y-53.03
X155.042Y-40.589
X156.953Y-47.225
X156.953Y-49.225
T4
X76.149Y-52.629
X78.689Y-52.629
X81.077Y-39.218
X83.617Y-39.218
X88.24Y-65.481
X90.78Y-65.481
X92.507Y-31.699
X95.047Y-31.699
X112.624Y-28.55
X115.164Y-28.55
X130.505Y-28.55
X133.045Y-28.55
X150.774Y-31.699
X153.314Y-31.699
X156.464Y-65.481
X159.004Y-65.481
X162.001Y-39.116
X164.541Y-39.116
X166.827Y-52.629
X169.367Y-52.629
T5
X118.24Y-66.01
X123.25Y-70.36
X127.74Y-66.14
M30
